<svg width="24" height="24" viewBox="0 0 24 24" fill="none" xmlns="http://www.w3.org/2000/svg">
<path d="M12.3821 6.28371C12.2827 5.88619 11.7177 5.88619 11.6184 6.28371L11.2475 7.76708C10.9537 8.94225 10.0362 9.85983 8.86098 10.1536L7.37761 10.5245C6.98009 10.6238 6.98009 11.1888 7.3776 11.2882L8.86097 11.659C10.0361 11.9528 10.9537 12.8704 11.2475 14.0456L11.6184 15.5289C11.7177 15.9264 12.2827 15.9264 12.3821 15.5289L12.7529 14.0456C13.0467 12.8704 13.9643 11.9528 15.1395 11.659L16.6228 11.2882C17.0203 11.1888 17.0203 10.6238 16.6228 10.5245L15.1395 10.1536C13.9643 9.85983 13.0467 8.94225 12.7529 7.76708L12.3821 6.28371Z" fill="black"/>
<path fill-rule="evenodd" clip-rule="evenodd" d="M4.26834 21.9158C7.58779 21.3456 13.4048 20.2433 15.7688 19.1583C19.4237 17.833 22.0002 14.6376 22.0002 10.9062C22.0002 5.9874 17.5231 1.99994 12.0002 1.99994C6.4774 1.99994 2.00024 5.9874 2.00024 10.9062C2.00024 13.3739 3.12715 15.6073 4.94764 17.2203C5.34661 17.5737 5.42189 18.1869 5.07266 18.5896L3.45554 20.4542C2.90353 21.0907 3.43796 22.0584 4.26834 21.9158ZM15.1431 17.7951L15.1993 17.7693L15.2574 17.7482C18.424 16.6 20.5002 13.9015 20.5002 10.9062C20.5002 6.97446 16.8627 3.49994 12.0002 3.49994C7.13775 3.49994 3.50024 6.97446 3.50024 10.9062C3.50024 12.8977 4.40634 14.7366 5.94239 16.0975C6.8817 16.9298 7.15722 18.4754 6.20586 19.5723L5.71735 20.1356C7.06244 19.8897 8.58637 19.5924 10.0505 19.266C12.2256 18.7813 14.1241 18.2627 15.1431 17.7951Z" fill="black"/>
</svg>
