<svg fill="none" viewBox="0 0 16 16" xmlns="http://www.w3.org/2000/svg">
  <g clip-path="url(#VPN-OnLight-16_svg__a)">
    <path fill="#1F1F1F" fill-opacity=".84" d="M8.103 0a8.003 8.003 0 0 1 7.869 7.323c.032.388-.56.534-.836.26a3.76 3.76 0 0 0-.497-.413l.059-.015a6.757 6.757 0 0 0-4.16-5.411c.153.247.292.51.417.781.5 1.095.846 2.484.98 4.017a3.724 3.724 0 0 0-1.22.41c-.105-1.539-.434-2.895-.897-3.907C9.228 1.755 8.538 1.25 8 1.25c-.539 0-1.228.504-1.818 1.795-.55 1.203-.913 2.895-.931 4.8 1.428.143 2.864.174 4.296.094a3.738 3.738 0 0 0-.653 1.279c-1.202.037-2.406 0-3.605-.114.109 1.516.436 2.852.893 3.85.502 1.1 1.076 1.628 1.568 1.761 0 .18 0 .357.01.531.025.363-.244.748-.605.71a8 8 0 0 1-7.15-8.249.622.622 0 0 1 .011-.224A8 8 0 0 1 8 0h.103Zm-6.84 8.433a6.754 6.754 0 0 0 4.198 5.823 7.12 7.12 0 0 1-.416-.781c-.555-1.213-.92-2.787-1.018-4.518-.927-.13-1.85-.304-2.763-.524Zm4.198-6.69a6.757 6.757 0 0 0-4.159 5.413c.893.223 1.795.402 2.701.535.036-1.986.418-3.803 1.042-5.166.124-.272.264-.534.416-.781Z"/>
    <path fill="#63C853" fill-rule="evenodd" d="M12.5 7.75a2.5 2.5 0 0 0-2.5 2.5V11h-.148a.852.852 0 0 0-.852.852v3.296c0 .47.382.852.852.852h5.296c.47 0 .852-.382.852-.852v-3.296a.852.852 0 0 0-.852-.852H15v-.75a2.5 2.5 0 0 0-2.5-2.5ZM13.75 11v-.75a1.25 1.25 0 1 0-2.5 0V11h2.5Z" clip-rule="evenodd"/>
  </g>
  <defs>
    <clipPath id="VPN-OnLight-16_svg__a">
      <path fill="#fff" d="M0 0h16v16H0z"/>
    </clipPath>
  </defs>
</svg>
