<svg width="24" height="24" viewBox="0 0 24 24" fill="none" xmlns="http://www.w3.org/2000/svg">
<path d="M12 2C6.47715 2 2 6.47715 2 12C2 17.5228 6.47715 22 12 22C17.5228 22 22 17.5228 22 12C22 6.47715 17.5228 2 12 2Z" fill="#21C000"/>
<path d="M16.7748 9.21423C17.0707 9.50409 17.0756 9.97894 16.7858 10.2748L12.2916 14.8626C11.507 15.6635 10.2174 15.6635 9.43279 14.8626L7.21423 12.5978C6.92437 12.3019 6.92927 11.8271 7.22516 11.5372C7.52106 11.2473 7.99591 11.2522 8.28577 11.5481L10.5043 13.8129C10.7008 14.0134 11.0237 14.0134 11.2201 13.8129L15.7142 9.22516C16.0041 8.92927 16.4789 8.92437 16.7748 9.21423Z" fill="white"/>
</svg>
