<svg fill="none" viewBox="0 0 24 24" xmlns="http://www.w3.org/2000/svg">
  <path fill="#000" d="M10.708 2.12c1.535.988 1.954 2.555 2.27 3.91.14.602.188 1.355.631 1.829.19.203.485.396.98.396.463 0 .733-.148.902-.295a1.31 1.31 0 0 0 .362-.538c.105-.321.128-.664.212-.99.061-.234.179-.444.393-.57a.77.77 0 0 1 .854.055l.095.083c.37.337 2.204 2.12 3.1 5.1.157.525-.446.944-.962.758A5.988 5.988 0 0 0 17.5 11.5a5.989 5.989 0 0 0-4.702 2.273c-.263-.253-.531-.506-.8-.761-.84.789-1.663 1.526-2.345 2.306-.673.771-1.288 1.66-1.267 2.721.032.797.304 1.518.789 2.062l.04.05a.75.75 0 0 1-.861 1.152C5.45 20.224 3.038 17.701 3 14.478c0-2.775 1.237-4.512 2.633-6.171C7.031 6.645 8.57 5.069 9.605 2.472c.184-.425.705-.609 1.103-.353Z"/>
  <path fill="#000" d="M17.5 13a4.5 4.5 0 1 1 0 9 4.5 4.5 0 0 1 0-9Zm-2.25 3.75a.5.5 0 0 0-.5.5v.5a.5.5 0 0 0 .5.5h4.5a.5.5 0 0 0 .5-.5v-.5a.5.5 0 0 0-.5-.5h-4.5Z"/>
</svg>
