<svg width="24" height="24" viewBox="0 0 24 24" fill="none" xmlns="http://www.w3.org/2000/svg">
<path fill-rule="evenodd" clip-rule="evenodd" d="M12 20.75C16.8325 20.75 20.75 16.8325 20.75 12C20.75 7.16751 16.8325 3.25 12 3.25C7.16751 3.25 3.25 7.16751 3.25 12C3.25 16.8325 7.16751 20.75 12 20.75Z" fill="url(#paint0_linear_3439_7672)"/>
<path fill-rule="evenodd" clip-rule="evenodd" d="M12 20.75C16.8325 20.75 20.75 16.8325 20.75 12C20.75 7.16751 16.8325 3.25 12 3.25C7.16751 3.25 3.25 7.16751 3.25 12C3.25 16.8325 7.16751 20.75 12 20.75Z" fill="#399F29"/>
<path opacity="0.7" d="M11.2755 2.04491C12.147 1.98005 13.0232 2.02972 13.8818 2.19264L12.0176 12.0173L11.2755 2.04491Z" fill="#D3FFCC"/>
<path opacity="0.8" d="M13.8818 2.19264C14.7404 2.35556 15.5739 2.63032 16.3611 3.00991L12.0176 12.0173L13.8818 2.19264Z" fill="#D3FFCC"/>
<path opacity="0.2" d="M20.9598 7.54066C21.351 8.32213 21.638 9.15151 21.8136 10.0076L12.0176 12.017L20.9598 7.54066Z" fill="#288419"/>
<path opacity="0.4" d="M19.496 5.37822C20.0762 6.03177 20.5682 6.75855 20.9594 7.53999L12.0176 12.017L19.496 5.37822Z" fill="#288419"/>
<path opacity="0.9" d="M16.3611 3.00954C17.1483 3.38913 17.8823 3.87026 18.5444 4.44065L12.0176 12.017L16.3611 3.00954Z" fill="#D3FFCC"/>
<path opacity="0.4" d="M4.44126 5.49027C5.01165 4.82816 5.66637 4.24368 6.38869 3.75177L12.0176 12.0171L4.44126 5.49027Z" fill="#D3FFCC"/>
<path opacity="0.5" d="M6.38869 3.75177C7.111 3.25985 7.89469 2.86474 8.71971 2.57654L12.0176 12.0171L6.38869 3.75177Z" fill="#D3FFCC"/>
<path opacity="0.6" d="M8.71873 2.57629C9.54375 2.28809 10.403 2.10927 11.2745 2.04442L12.0166 12.0168L8.71873 2.57629Z" fill="#D3FFCC"/>
<path opacity="0.1" d="M2.04515 12.7592C1.9803 11.8877 2.02997 11.0114 2.19288 10.1529L12.0176 12.0171L2.04515 12.7592Z" fill="#D3FFCC"/>
<path opacity="0.2" d="M2.19288 10.1529C2.3558 9.29426 2.63057 8.46073 3.01015 7.67356L12.0176 12.0171L2.19288 10.1529Z" fill="#D3FFCC"/>
<path opacity="0.3" d="M3.01015 7.67356C3.38974 6.88639 3.87088 6.15237 4.44126 5.49027L12.0176 12.0171L3.01015 7.67356Z" fill="#D3FFCC"/>
<path d="M18.8799 6.00335L12.7351 12.1481C12.6659 12.4908 12.3633 12.7488 12.0003 12.7488C11.5862 12.7488 11.2505 12.4131 11.2505 11.999C11.2505 11.6359 11.5086 11.3329 11.8514 11.2639L17.9959 5.11951L18.8799 6.00335Z" fill="white"/>
<path d="M12 2C17.5228 2 22 6.47715 22 12C22 17.5228 17.5228 22 12 22C6.47715 22 2 17.5228 2 12C2 6.47715 6.47715 2 12 2ZM12 3.25C7.16751 3.25 3.25 7.16751 3.25 12C3.25 16.8325 7.16751 20.75 12 20.75C16.8325 20.75 20.75 16.8325 20.75 12C20.75 7.16751 16.8325 3.25 12 3.25Z" fill="url(#paint1_linear_3439_7672)"/>
<path d="M13.125 5.75C13.125 6.23325 12.7332 6.625 12.25 6.625C11.7668 6.625 11.375 6.23325 11.375 5.75C11.375 5.26675 11.7668 4.875 12.25 4.875C12.7332 4.875 13.125 5.26675 13.125 5.75Z" fill="white"/>
<path opacity="0.4" d="M11.625 18.25C11.625 18.7332 11.2332 19.125 10.75 19.125C10.2668 19.125 9.875 18.7332 9.875 18.25C9.875 17.7668 10.2668 17.375 10.75 17.375C11.2332 17.375 11.625 17.7668 11.625 18.25Z" fill="#D3FFCC"/>
<path d="M10.125 6.75C10.125 7.23325 9.73325 7.625 9.25 7.625C8.76675 7.625 8.375 7.23325 8.375 6.75C8.375 6.26675 8.76675 5.875 9.25 5.875C9.73325 5.875 10.125 6.26675 10.125 6.75Z" fill="white"/>
<path opacity="0.9" d="M8.625 10.75C8.625 11.2332 8.23325 11.625 7.75 11.625C7.26675 11.625 6.875 11.2332 6.875 10.75C6.875 10.2668 7.26675 9.875 7.75 9.875C8.23325 9.875 8.625 10.2668 8.625 10.75Z" fill="#D3FFCC"/>
<path opacity="0.7" d="M6.625 12.75C6.625 13.2332 6.23325 13.625 5.75 13.625C5.26675 13.625 4.875 13.2332 4.875 12.75C4.875 12.2668 5.26675 11.875 5.75 11.875C6.23325 11.875 6.625 12.2668 6.625 12.75Z" fill="#D3FFCC"/>
<path opacity="0.3" d="M9.125 15.75C9.125 16.2332 8.73325 16.625 8.25 16.625C7.76675 16.625 7.375 16.2332 7.375 15.75C7.375 15.2668 7.76675 14.875 8.25 14.875C8.73325 14.875 9.125 15.2668 9.125 15.75Z" fill="#D3FFCC"/>
<defs>
<linearGradient id="paint0_linear_3439_7672" x1="12" y1="3.25" x2="12" y2="20.75" gradientUnits="userSpaceOnUse">
<stop stop-color="#399F29"/>
<stop offset="1" stop-color="#1A690D"/>
</linearGradient>
<linearGradient id="paint1_linear_3439_7672" x1="12" y1="2" x2="12" y2="22" gradientUnits="userSpaceOnUse">
<stop stop-color="#399F29"/>
<stop offset="1" stop-color="#1A690D"/>
</linearGradient>
</defs>
</svg>
