<?xml version="1.0" encoding="UTF-8"?>
<svg height="600" width="800" xmlns="http://www.w3.org/2000/svg" xmlns:xlink="http://www.w3.org/1999/xlink">
    <g id="Notes" font-family="'LucidaGrande', 'Lucida Grande', sans-serif" font-size="13">
        <rect fill="white" height="600.0" width="800.0" x="0.0" y="0.0" />
        <g font-size="13">
            <text x="18.0" y="176.0">Small</text>
            <text x="18.0" y="376.0">Medium</text>
            <text x="18.0" y="576.0">Large</text>
        </g>
        <g font-size="9">
            <text x="250.0" y="30.0">Ultralight</text>
            <text x="450.0" y="30.0">Regular</text>
            <text x="650.0" y="30.0">Black</text>
            <text id="template-version" fill="#505050" text-anchor="end" x="785.0" y="575.0">Template v.3.0</text>
            <a href="https://wangchujiang.com/#/app">
                <text fill="#505050" text-anchor="end" x="785.0" y="590.0">https://wangchujiang.com/#/app</text>
            </a>
        </g>
    </g>
    <g id="Guides" stroke="rgb(39, 170, 225)" stroke-width="0.5">
        <path id="Capline-S" d="M18,76 l800,0" />
        <path id="H-reference" d="M85,145.755 L87.685,145.755 L113.369,79.287 L114.052,79.287 L114.052,76 L112.148,76 L85,145.755 Z M95.693,121.536 L130.996,121.536 L130.263,119.313 L96.474,119.313 L95.693,121.536 Z M139.15,145.755 L141.787,145.755 L114.638,76 L113.466,76 L113.466,79.287 L139.15,145.755 Z" stroke="none" />
        <path id="Baseline-S" d="M18,146 l800,0" />
        <path id="left-margin-Ultralight-S" d="M221,56 l0,110" />
        <path id="right-margin-Ultralight-S" d="M309,56 l0,110" />
        <path id="left-margin-Regular-S" d="M421,56 l0,110" />
        <path id="right-margin-Regular-S" d="M509,56 l0,110" />
        <path id="left-margin-Black-S" d="M621,56 l0,110" />
        <path id="right-margin-Black-S" d="M709,56 l0,110" />
        <path id="Capline-M" d="M18,276 l800,0" />
        <path id="Baseline-M" d="M18,346 l800,0" />
        <path id="Capline-L" d="M18,476 l800,0" />
        <path id="Baseline-L" d="M18,546 l800,0" />
    </g>
    <g id="Symbols">
        <g id="Ultralight-S">
            <path d="M266.114,94.328 C265.823,93.167 264.177,93.167 263.886,94.328 L262.807,98.654 C261.95,102.082 259.273,104.759 255.845,105.616 L251.519,106.695 C250.358,106.987 250.358,108.635 251.519,108.923 L255.845,110.005 C259.272,110.863 261.948,113.54 262.804,116.967 L263.886,121.293 C264.177,122.451 265.825,122.451 266.114,121.293 L267.193,116.967 C268.05,113.539 270.727,110.862 274.155,110.005 L278.484,108.926 C279.642,108.635 279.642,106.987 278.484,106.698 L274.155,105.616 C270.728,104.758 268.052,102.081 267.196,98.654 L266.117,94.328 Z" />
            <path d="M242.448,139.922 C252.132,138.259 269.098,135.042 275.99,131.878 C286.656,128.013 294.167,118.694 294.167,107.809 C294.167,93.462 281.109,81.833 265,81.833 C248.891,81.833 235.833,93.462 235.833,107.809 C235.833,115.008 239.12,121.52 244.432,126.225 C245.595,127.258 245.814,129.045 244.796,130.221 L240.08,135.658 C238.47,137.515 240.027,140.336 242.448,139.922 Z M274.167,127.905 C271.195,129.267 265.659,130.778 259.312,132.193 C255.045,133.143 250.598,134.012 246.675,134.73 L248.101,133.085 C250.875,129.885 250.072,125.379 247.331,122.95 C242.851,118.98 240.208,113.619 240.208,107.809 C240.208,96.341 250.819,86.208 265,86.208 C279.184,86.208 289.792,96.341 289.792,107.809 C289.792,116.548 283.737,124.417 274.5,127.768 L274.33,127.826 L274.167,127.905 Z" />
        </g>
        <g id="Regular-S">
            <path d="M466.114,94.328 C465.823,93.167 464.177,93.167 463.886,94.328 L462.807,98.654 C461.95,102.082 459.273,104.759 455.845,105.616 L451.519,106.695 C450.358,106.987 450.358,108.635 451.519,108.923 L455.845,110.005 C459.272,110.863 461.948,113.54 462.804,116.967 L463.886,121.293 C464.177,122.451 465.825,122.451 466.114,121.293 L467.193,116.967 C468.05,113.539 470.727,110.862 474.155,110.005 L478.484,108.926 C479.642,108.635 479.642,106.987 478.484,106.698 L474.155,105.616 C470.728,104.758 468.052,102.081 467.196,98.654 L466.117,94.328 Z" />
            <path d="M442.448,139.922 C452.132,138.259 469.098,135.042 475.99,131.878 C486.656,128.013 494.167,118.694 494.167,107.809 C494.167,93.462 481.109,81.833 465,81.833 C448.891,81.833 435.833,93.462 435.833,107.809 C435.833,115.008 439.12,121.52 444.432,126.225 C445.595,127.258 445.814,129.045 444.796,130.221 L440.08,135.658 C438.47,137.515 440.027,140.336 442.448,139.922 Z M474.167,127.905 C471.195,129.267 465.659,130.778 459.312,132.193 C455.045,133.143 450.598,134.012 446.675,134.73 L448.101,133.085 C450.875,129.885 450.073,125.379 447.331,122.95 C442.851,118.98 440.208,113.619 440.208,107.809 C440.208,96.341 450.819,86.208 465,86.208 C479.184,86.208 489.792,96.341 489.792,107.809 C489.792,116.548 483.737,124.417 474.5,127.768 L474.33,127.826 L474.167,127.905 Z" />
        </g>
        <g id="Black-S">
            <path d="M666.114,94.328 C665.823,93.167 664.177,93.167 663.886,94.328 L662.807,98.654 C661.95,102.082 659.273,104.759 655.845,105.616 L651.519,106.695 C650.358,106.987 650.358,108.635 651.519,108.923 L655.845,110.005 C659.272,110.863 661.948,113.54 662.804,116.967 L663.886,121.293 C664.177,122.451 665.825,122.451 666.114,121.293 L667.193,116.967 C668.05,113.539 670.727,110.862 674.155,110.005 L678.484,108.926 C679.642,108.635 679.642,106.987 678.484,106.698 L674.155,105.616 C670.728,104.758 668.052,102.081 667.196,98.654 L666.117,94.328 Z" />
            <path d="M642.448,139.922 C652.132,138.259 669.098,135.042 675.99,131.878 C686.656,128.013 694.167,118.694 694.167,107.809 C694.167,93.462 681.109,81.833 665,81.833 C648.891,81.833 635.833,93.462 635.833,107.809 C635.833,115.008 639.12,121.52 644.432,126.225 C645.595,127.258 645.814,129.045 644.796,130.221 L640.08,135.658 C638.47,137.515 640.028,140.336 642.448,139.922 Z M674.167,127.905 C671.195,129.267 665.659,130.778 659.312,132.193 C655.045,133.143 650.597,134.012 646.675,134.73 L648.101,133.085 C650.875,129.885 650.073,125.379 647.331,122.95 C642.851,118.98 640.208,113.619 640.208,107.809 C640.208,96.341 650.819,86.208 665,86.208 C679.184,86.208 689.792,96.341 689.792,107.809 C689.792,116.548 683.737,124.417 674.5,127.768 L674.33,127.826 L674.167,127.905 Z" />
        </g>
    </g>
</svg>