<?xml version="1.0" encoding="UTF-8"?>
<svg height="600" width="800" xmlns="http://www.w3.org/2000/svg" xmlns:xlink="http://www.w3.org/1999/xlink">
    <g id="Notes" font-family="'LucidaGrande', 'Lucida Grande', sans-serif" font-size="13">
        <rect fill="white" height="600.0" width="800.0" x="0.0" y="0.0" />
        <g font-size="13">
            <text x="18.0" y="176.0">Small</text>
            <text x="18.0" y="376.0">Medium</text>
            <text x="18.0" y="576.0">Large</text>
        </g>
        <g font-size="9">
            <text x="250.0" y="30.0">Ultralight</text>
            <text x="450.0" y="30.0">Regular</text>
            <text x="650.0" y="30.0">Black</text>
            <text id="template-version" fill="#505050" text-anchor="end" x="785.0" y="575.0">Template v.3.0</text>
            <a href="https://wangchujiang.com/#/app">
                <text fill="#505050" text-anchor="end" x="785.0" y="590.0">https://wangchujiang.com/#/app</text>
            </a>
        </g>
    </g>
    <g id="Guides" stroke="rgb(39, 170, 225)" stroke-width="0.5">
        <path id="Capline-S" d="M18,76 l800,0" />
        <path id="H-reference" d="M85,145.755 L87.685,145.755 L113.369,79.287 L114.052,79.287 L114.052,76 L112.148,76 L85,145.755 Z M95.693,121.536 L130.996,121.536 L130.263,119.313 L96.474,119.313 L95.693,121.536 Z M139.15,145.755 L141.787,145.755 L114.638,76 L113.466,76 L113.466,79.287 L139.15,145.755 Z" stroke="none" />
        <path id="Baseline-S" d="M18,146 l800,0" />
        <path id="left-margin-Ultralight-S" d="M221,56 l0,110" />
        <path id="right-margin-Ultralight-S" d="M309,56 l0,110" />
        <path id="left-margin-Regular-S" d="M421,56 l0,110" />
        <path id="right-margin-Regular-S" d="M509,56 l0,110" />
        <path id="left-margin-Black-S" d="M621,56 l0,110" />
        <path id="right-margin-Black-S" d="M709,56 l0,110" />
        <path id="Capline-M" d="M18,276 l800,0" />
        <path id="Baseline-M" d="M18,346 l800,0" />
        <path id="Capline-L" d="M18,476 l800,0" />
        <path id="Baseline-L" d="M18,546 l800,0" />
    </g>
    <g id="Symbols">
        <g id="Ultralight-S">
            <path d="M265,82.111 C280.955,82.111 293.889,93.63 293.889,107.84 C293.889,118.62 286.446,127.851 275.887,131.68 C269.058,134.814 252.253,137.999 242.663,139.646 C240.264,140.058 238.721,137.262 240.315,135.423 L244.987,130.036 C245.996,128.873 245.778,127.102 244.626,126.081 C239.367,121.421 236.111,114.969 236.111,107.84 C236.111,93.63 249.045,82.111 265,82.111 Z M265,86.625 C251.032,86.625 240.625,96.601 240.625,107.84 C240.625,113.536 243.216,118.801 247.619,122.702 C250.398,125.164 251.218,129.741 248.397,132.994 L247.323,134.232 C251.081,133.541 255.284,132.716 259.328,131.815 C265.613,130.414 271.08,128.919 274.004,127.577 L274.173,127.5 L274.348,127.436 C283.437,124.14 289.375,116.405 289.375,107.84 C289.375,96.601 278.968,86.625 265,86.625 Z M263.626,93.924 C263.984,92.494 266.015,92.494 266.373,93.924 L267.165,97.092 C268.221,101.318 271.522,104.618 275.748,105.675 L278.916,106.467 C280.346,106.825 280.346,108.856 278.916,109.213 L275.748,110.006 C271.522,111.062 268.221,114.362 267.165,118.588 L266.373,121.757 C266.015,123.186 263.984,123.186 263.626,121.757 L262.834,118.588 C261.778,114.362 258.478,111.062 254.251,110.006 L251.083,109.213 C249.653,108.856 249.653,106.825 251.083,106.467 L254.251,105.675 C258.478,104.618 261.778,101.318 262.834,97.092 L263.626,93.924 Z" />
        </g>
        <g id="Regular-S">
            <path d="M465,82.111 C480.955,82.111 493.889,93.63 493.889,107.84 C493.889,118.62 486.446,127.851 475.887,131.68 C469.058,134.814 452.253,137.999 442.663,139.646 C440.265,140.058 438.721,137.262 440.315,135.423 L444.987,130.036 C445.996,128.873 445.778,127.102 444.626,126.081 C439.367,121.421 436.111,114.969 436.111,107.84 C436.111,93.63 449.045,82.111 465,82.111 Z M465,86.625 C451.032,86.625 440.625,96.601 440.625,107.84 C440.625,113.536 443.216,118.801 447.619,122.702 C450.398,125.164 451.218,129.741 448.397,132.994 L447.323,134.232 C451.081,133.541 455.284,132.716 459.328,131.815 C465.613,130.414 471.08,128.919 474.004,127.577 L474.173,127.5 L474.348,127.436 C483.437,124.14 489.375,116.405 489.375,107.84 C489.375,96.601 478.968,86.625 465,86.625 Z M463.626,93.924 C463.984,92.494 466.015,92.494 466.373,93.924 L467.165,97.092 C468.221,101.318 471.522,104.618 475.748,105.675 L478.916,106.467 C480.346,106.825 480.346,108.856 478.916,109.213 L475.748,110.006 C471.522,111.062 468.221,114.362 467.165,118.588 L466.373,121.757 C466.015,123.186 463.984,123.186 463.626,121.757 L462.834,118.588 C461.778,114.362 458.478,111.062 454.251,110.006 L451.083,109.213 C449.653,108.856 449.653,106.825 451.083,106.467 L454.251,105.675 C458.478,104.618 461.778,101.318 462.834,97.092 L463.626,93.924 Z" />
        </g>
        <g id="Black-S">
            <path d="M665,82.111 C680.955,82.111 693.889,93.63 693.889,107.84 C693.889,118.62 686.446,127.851 675.887,131.68 C669.058,134.814 652.253,137.999 642.663,139.646 C640.265,140.058 638.721,137.262 640.315,135.423 L644.987,130.036 C645.996,128.873 645.778,127.102 644.626,126.081 C639.367,121.421 636.111,114.969 636.111,107.84 C636.111,93.63 649.045,82.111 665,82.111 Z M665,86.625 C651.032,86.625 640.625,96.601 640.625,107.84 C640.625,113.536 643.216,118.801 647.619,122.702 C650.398,125.164 651.218,129.741 648.397,132.994 L647.323,134.232 C651.081,133.541 655.284,132.716 659.328,131.815 C665.613,130.414 671.08,128.919 674.004,127.577 L674.173,127.5 L674.348,127.436 C683.437,124.14 689.375,116.405 689.375,107.84 C689.375,96.601 678.968,86.625 665,86.625 Z M663.626,93.924 C663.984,92.494 666.015,92.494 666.373,93.924 L667.165,97.092 C668.221,101.318 671.522,104.618 675.748,105.675 L678.916,106.467 C680.346,106.825 680.346,108.856 678.916,109.213 L675.748,110.006 C671.522,111.062 668.221,114.362 667.165,118.588 L666.373,121.757 C666.015,123.186 663.984,123.186 663.626,121.757 L662.834,118.588 C661.778,114.362 658.478,111.062 654.251,110.006 L651.083,109.213 C649.653,108.856 649.653,106.825 651.083,106.467 L654.251,105.675 C658.478,104.618 661.778,101.318 662.834,97.092 L663.626,93.924 Z" />
        </g>
    </g>
</svg>