<svg fill="none" viewBox="0 0 16 16" xmlns="http://www.w3.org/2000/svg">
  <path fill="#000" d="M12.5 9a3.5 3.5 0 1 1 0 7 3.5 3.5 0 0 1 0-7ZM6.498.154a.625.625 0 0 1 .536.076l.074.05c.756.533 1.148 1.26 1.394 1.983.126.37.218.75.299 1.107.083.368.152.703.24 1.03l.008.026c.025.074.096.245.235.398.142.157.356.301.716.301.34 0 .537-.111.66-.222a1.05 1.05 0 0 0 .26-.385l.012-.036c.03-.094.063-.263.101-.478.018-.1.04-.221.063-.312.009-.035.03-.123.075-.208.013-.026.082-.165.242-.263a.634.634 0 0 1 .727.047l.028.023.049.046c.284.268 1.67 1.662 2.372 3.988.123.407-.325.743-.732.622a4.708 4.708 0 0 0-.42-.104 8.548 8.548 0 0 0-1.383-2.799c-.19.438-.74 1.331-2.054 1.331-.765 0-1.3-.334-1.643-.712a2.42 2.42 0 0 1-.513-.902l-.01-.037c-.097-.36-.176-.738-.253-1.079a9.627 9.627 0 0 0-.262-.98 3.254 3.254 0 0 0-.412-.844c-.865 1.82-2.002 3.05-2.899 4.151C2.98 7.236 2.25 8.345 2.25 10.125c0 1.545.923 2.955 2.374 3.831a3.71 3.71 0 0 1-.123-.855l-.001-.104c0-.957.522-1.784 1.107-2.473.58-.684 1.352-1.37 1.952-1.967l.024-.022a.625.625 0 0 1 .858.022c.204.203.424.416.65.636a4.766 4.766 0 0 0-.752 1.015l-.34-.334c-.522.5-1.02.965-1.44 1.46-.532.627-.809 1.164-.809 1.663l.001.071c.02.73.335 1.353.896 1.71a.625.625 0 0 1-.45 1.141l-.028-.006C3.313 15.241 1 12.987 1 10.125c0-2.22.957-3.611 2.039-4.941C4.119 3.855 5.305 2.598 6.104.525l.014-.033a.625.625 0 0 1 .38-.338Zm3.877 11.721a.5.5 0 0 0-.5.5v.25a.5.5 0 0 0 .5.5h4.25a.5.5 0 0 0 .5-.5v-.25a.5.5 0 0 0-.5-.5h-4.25Z"/>
</svg>
