<svg fill="none" viewBox="0 0 16 16" xmlns="http://www.w3.org/2000/svg">
  <path fill="#000" d="M9.815.01a.663.663 0 0 1 .768.537c.031.174.057.253.083.299.01.018.02.03.03.04.011.01.033.027.076.047a.663.663 0 1 1-.565 1.2 1.516 1.516 0 0 1-.7-.643 2.244 2.244 0 0 1-.229-.712.663.663 0 0 1 .537-.768Z"/>
  <path fill="#000" fill-rule="evenodd" d="M6.576.033a.663.663 0 0 1 .598.132c1.304 1.092 1.58 2.641 1.777 3.753l.027.15c.109.608.198 1.022.352 1.303.069.125.14.2.212.248a.75.75 0 0 0 .367.11c.406.033.601-.074.712-.176.13-.121.234-.322.296-.604.06-.277.069-.573.059-.812a3.895 3.895 0 0 0-.032-.353l-.002-.016v-.002a.663.663 0 0 1 1.154-.544c1.685 1.944 2.737 4.375 2.882 6.604.106 1.637-.351 3.21-1.54 4.367C12.253 15.345 10.434 16 7.99 16c-2.718 0-4.924-1.125-6.093-2.934-1.178-1.823-1.221-4.218.15-6.558.623-1.065 1.343-1.975 1.997-2.802.12-.15.237-.3.351-.446.754-.963 1.372-1.829 1.73-2.813a.663.663 0 0 1 .45-.414Zm-.283 12.57c0-.521.23-.965.669-1.539.116-.152.252-.318.398-.497.187-.229.392-.48.596-.75.234.314.473.6.69.857.12.142.232.276.332.401.468.586.712 1.023.712 1.528 0 .662-.149 1.143-.395 1.447-.227.28-.61.5-1.304.5-.629 0-1.022-.213-1.27-.509-.263-.313-.428-.797-.428-1.438Z" clip-rule="evenodd"/>
</svg>
