<svg width="16" height="16" viewBox="0 0 16 16" fill="none" xmlns="http://www.w3.org/2000/svg">
<path d="M5.12512 0.880859C3.39923 0.880859 2.00012 2.27997 2.00012 4.00586V9.28876L0.495758 11.26C-0.634345 12.7408 0.42161 14.875 2.2844 14.875H7.05012C7.43672 14.875 7.75012 14.5616 7.75012 14.175V13.625H2.2844C1.45649 13.625 0.987178 12.6765 1.48945 12.0183L2.93435 10.125H8.6537C8.68676 10.102 8.72051 10.08 8.75491 10.0589C8.7758 9.64275 8.86451 9.24452 9.01022 8.875H3.25012V4.00586C3.25012 2.97033 4.08958 2.13086 5.12512 2.13086H10.8751C11.9106 2.13086 12.7501 2.97033 12.7501 4.00586V6.5082C12.8248 6.51311 12.8988 6.52021 12.9722 6.52943C13.4729 6.59232 14.0001 6.24695 14.0001 5.74229V4.00586C14.0001 2.27997 12.601 0.880859 10.8751 0.880859H5.12512Z" fill="black" fill-opacity="0.84"/>
<path d="M7.75012 11.8523C7.75012 11.4995 7.83703 11.167 7.9906 10.875H3.62512C3.27994 10.875 3.00012 11.1548 3.00012 11.5C3.00012 11.8452 3.27994 12.125 3.62512 12.125H7.75012V11.8523Z" fill="black" fill-opacity="0.84"/>
<path fill-rule="evenodd" clip-rule="evenodd" d="M10.0001 10.25C10.0001 8.86929 11.1194 7.75 12.5001 7.75C13.8808 7.75 15.0001 8.86929 15.0001 10.25V11H15.1479C15.6185 11 16.0001 11.3816 16.0001 11.8523V15.1477C16.0001 15.6184 15.6185 16 15.1479 16H9.85239C9.3817 16 9.00012 15.6184 9.00012 15.1477V11.8523C9.00012 11.3816 9.3817 11 9.8524 11H10.0001V10.25ZM13.7501 10.25V11H11.2501V10.25C11.2501 9.55964 11.8098 9 12.5001 9C13.1905 9 13.7501 9.55964 13.7501 10.25Z" fill="black" fill-opacity="0.84"/>
</svg>
