<svg fill="none" viewBox="0 0 24 24" xmlns="http://www.w3.org/2000/svg">
  <path fill="#000" d="M10.073 2.036a.75.75 0 0 1 .635.084c1.027.662 1.555 1.59 1.884 2.525.163.462.281.937.386 1.384.107.46.197.879.311 1.29l.01.032c.033.093.127.312.31.508.19.203.485.396.98.396.463 0 .733-.148.902-.295.184-.16.29-.357.345-.493l.017-.045c.039-.12.081-.332.132-.6.023-.125.05-.277.08-.39.012-.044.04-.153.096-.257.018-.034.104-.2.297-.313a.762.762 0 0 1 .854.055l.034.028.061.055C17.9 6.45 21 9.472 21 14.478l-.001.147c-.071 3.078-2.367 5.569-5.352 6.678a.75.75 0 0 1-.822-1.202c.485-.544.758-1.265.79-2.062l.003-.16c0-.71-.445-1.537-1.276-2.508-.678-.792-1.509-1.566-2.344-2.36-.84.79-1.663 1.527-2.345 2.307-.819.938-1.27 1.768-1.27 2.56l.003.161c.032.797.304 1.518.789 2.062l.04.05a.75.75 0 0 1-.861 1.152c-2.986-1.11-5.281-3.6-5.352-6.678L3 14.478c0-2.775 1.237-4.512 2.633-6.171C7.031 6.645 8.57 5.069 9.605 2.472l.017-.038a.75.75 0 0 1 .451-.398Z"/>
</svg>
