<?xml version="1.0" encoding="UTF-8"?>
<svg height="600" width="800" xmlns="http://www.w3.org/2000/svg" xmlns:xlink="http://www.w3.org/1999/xlink">
    <g id="Notes" font-family="'LucidaGrande', 'Lucida Grande', sans-serif" font-size="13">
        <rect fill="white" height="600.0" width="800.0" x="0.0" y="0.0" />
        <g font-size="13">
            <text x="18.0" y="176.0">Small</text>
            <text x="18.0" y="376.0">Medium</text>
            <text x="18.0" y="576.0">Large</text>
        </g>
        <g font-size="9">
            <text x="250.0" y="30.0">Ultralight</text>
            <text x="450.0" y="30.0">Regular</text>
            <text x="650.0" y="30.0">Black</text>
            <text id="template-version" fill="#505050" text-anchor="end" x="785.0" y="575.0">Template v.3.0</text>
            <a href="https://wangchujiang.com/#/app">
                <text fill="#505050" text-anchor="end" x="785.0" y="590.0">https://wangchujiang.com/#/app</text>
            </a>
        </g>
    </g>
    <g id="Guides" stroke="rgb(39, 170, 225)" stroke-width="0.5">
        <path id="Capline-S" d="M18,76 l800,0" />
        <path id="H-reference" d="M85,145.755 L87.685,145.755 L113.369,79.287 L114.052,79.287 L114.052,76 L112.148,76 L85,145.755 Z M95.693,121.536 L130.996,121.536 L130.263,119.313 L96.474,119.313 L95.693,121.536 Z M139.15,145.755 L141.787,145.755 L114.638,76 L113.466,76 L113.466,79.287 L139.15,145.755 Z" stroke="none" />
        <path id="Baseline-S" d="M18,146 l800,0" />
        <path id="left-margin-Ultralight-S" d="M221,56 l0,110" />
        <path id="right-margin-Ultralight-S" d="M309,56 l0,110" />
        <path id="left-margin-Regular-S" d="M421,56 l0,110" />
        <path id="right-margin-Regular-S" d="M509,56 l0,110" />
        <path id="left-margin-Black-S" d="M621,56 l0,110" />
        <path id="right-margin-Black-S" d="M709,56 l0,110" />
        <path id="Capline-M" d="M18,276 l800,0" />
        <path id="Baseline-M" d="M18,346 l800,0" />
        <path id="Capline-L" d="M18,476 l800,0" />
        <path id="Baseline-L" d="M18,546 l800,0" />
    </g>
    <g id="Symbols">
        <g id="Ultralight-S">
            <path d="M281.25,102.875 C286.236,102.875 290.278,106.917 290.278,111.903 L290.278,121.833 L290.811,121.833 C292.511,121.833 293.889,123.211 293.889,124.911 L293.889,136.811 C293.889,138.511 292.511,139.889 290.811,139.889 L271.689,139.889 C269.989,139.889 268.611,138.511 268.611,136.811 L268.611,124.911 C268.611,123.211 269.989,121.833 271.689,121.833 L285.764,121.833 L285.764,111.903 C285.764,109.41 283.743,107.389 281.25,107.389 C278.757,107.389 276.736,109.41 276.736,111.903 L276.736,114.611 L272.223,114.611 L272.223,111.903 C272.223,106.917 276.264,102.875 281.25,102.875 Z M265.374,82.113 C276.139,82.25 285.485,88.274 290.34,97.115 C291.802,99.779 288.768,101.601 286.562,99.509 L286.438,99.391 C283.757,94.451 279.418,90.541 274.168,88.408 C274.719,89.299 275.221,90.248 275.671,91.229 C276.677,93.43 277.509,95.958 278.134,98.722 C276.609,99.081 275.183,99.698 273.905,100.525 C273.326,97.716 272.526,95.206 271.566,93.108 C269.433,88.447 266.945,86.625 265,86.625 C263.056,86.625 260.568,88.447 258.435,93.108 C256.447,97.452 255.14,103.561 255.073,110.439 C259.285,110.861 263.518,111.013 267.746,110.896 C267.721,111.229 267.709,111.564 267.709,111.903 L267.709,114.611 C267.709,114.882 267.725,115.149 267.756,115.412 C263.572,115.523 259.383,115.382 255.211,114.988 C255.603,120.459 256.784,125.284 258.435,128.892 C260.25,132.858 262.322,134.767 264.098,135.249 C264.098,135.422 264.097,135.594 264.098,135.767 C264.104,137.736 262.505,139.849 260.559,139.549 C246.713,137.412 236.111,125.444 236.111,111 C236.111,110.646 236.118,110.293 236.13,109.942 C236.095,109.679 236.107,109.406 236.171,109.134 C237.132,94.049 249.672,82.111 265,82.111 L265.374,82.113 Z M240.674,112.564 C241.278,122.105 247.373,130.155 255.832,133.592 C255.281,132.701 254.779,131.752 254.33,130.771 C252.325,126.389 251.011,120.707 250.654,114.455 C247.306,113.988 243.976,113.358 240.674,112.564 Z M255.832,88.408 C247.815,91.665 241.923,99.065 240.814,107.951 C244.039,108.759 247.294,109.403 250.567,109.883 C250.697,102.714 252.078,96.151 254.33,91.229 C254.779,90.248 255.281,89.299 255.832,88.408 Z" />
        </g>
        <g id="Regular-S">
            <path d="M481.25,102.875 C486.236,102.875 490.278,106.917 490.278,111.903 L490.278,121.833 L490.811,121.833 C492.511,121.833 493.889,123.211 493.889,124.911 L493.889,136.811 C493.889,138.511 492.511,139.889 490.811,139.889 L471.689,139.889 C469.989,139.889 468.611,138.511 468.611,136.811 L468.611,124.911 C468.611,123.211 469.989,121.833 471.689,121.833 L485.764,121.833 L485.764,111.903 C485.764,109.41 483.743,107.389 481.25,107.389 C478.757,107.389 476.736,109.41 476.736,111.903 L476.736,114.611 L472.223,114.611 L472.223,111.903 C472.223,106.917 476.264,102.875 481.25,102.875 Z M465.374,82.113 C476.139,82.25 485.485,88.274 490.34,97.115 C491.802,99.779 488.768,101.601 486.562,99.509 L486.438,99.391 C483.757,94.451 479.418,90.541 474.168,88.408 C474.719,89.299 475.221,90.248 475.671,91.229 C476.677,93.43 477.509,95.958 478.134,98.722 C476.609,99.081 475.183,99.698 473.905,100.525 C473.326,97.716 472.526,95.206 471.566,93.108 C469.433,88.447 466.945,86.625 465,86.625 C463.056,86.625 460.568,88.447 458.435,93.108 C456.447,97.452 455.14,103.561 455.073,110.439 C459.285,110.861 463.518,111.013 467.746,110.896 C467.721,111.229 467.709,111.564 467.709,111.903 L467.709,114.611 C467.709,114.882 467.725,115.149 467.756,115.412 C463.572,115.523 459.383,115.382 455.211,114.988 C455.603,120.459 456.784,125.284 458.435,128.892 C460.25,132.858 462.322,134.767 464.098,135.249 C464.098,135.422 464.097,135.594 464.098,135.767 C464.104,137.736 462.505,139.849 460.559,139.549 C446.713,137.412 436.111,125.444 436.111,111 C436.111,110.646 436.118,110.293 436.13,109.942 C436.095,109.679 436.107,109.406 436.171,109.134 C437.132,94.049 449.672,82.111 465,82.111 L465.374,82.113 Z M440.674,112.564 C441.278,122.105 447.373,130.155 455.832,133.592 C455.281,132.701 454.779,131.752 454.33,130.771 C452.325,126.389 451.011,120.707 450.654,114.455 C447.306,113.988 443.976,113.358 440.674,112.564 Z M455.832,88.408 C447.815,91.665 441.923,99.065 440.814,107.951 C444.039,108.759 447.294,109.403 450.567,109.883 C450.697,102.714 452.078,96.151 454.33,91.229 C454.779,90.248 455.281,89.299 455.832,88.408 Z" />
        </g>
        <g id="Black-S">
            <path d="M681.25,102.875 C686.236,102.875 690.278,106.917 690.278,111.903 L690.278,121.833 L690.811,121.833 C692.511,121.833 693.889,123.211 693.889,124.911 L693.889,136.811 C693.889,138.511 692.511,139.889 690.811,139.889 L671.689,139.889 C669.989,139.889 668.611,138.511 668.611,136.811 L668.611,124.911 C668.611,123.211 669.989,121.833 671.689,121.833 L685.764,121.833 L685.764,111.903 C685.764,109.41 683.743,107.389 681.25,107.389 C678.757,107.389 676.736,109.41 676.736,111.903 L676.736,114.611 L672.223,114.611 L672.223,111.903 C672.223,106.917 676.264,102.875 681.25,102.875 Z M665.374,82.113 C676.139,82.25 685.485,88.274 690.34,97.115 C691.802,99.779 688.768,101.601 686.562,99.509 L686.438,99.391 C683.757,94.451 679.418,90.541 674.168,88.408 C674.719,89.299 675.221,90.248 675.671,91.229 C676.677,93.43 677.509,95.958 678.134,98.722 C676.609,99.081 675.183,99.698 673.905,100.525 C673.326,97.716 672.526,95.206 671.566,93.108 C669.433,88.447 666.945,86.625 665,86.625 C663.056,86.625 660.568,88.447 658.435,93.108 C656.447,97.452 655.14,103.561 655.073,110.439 C659.285,110.861 663.518,111.013 667.746,110.896 C667.721,111.229 667.709,111.564 667.709,111.903 L667.709,114.611 C667.709,114.882 667.725,115.149 667.756,115.412 C663.572,115.523 659.383,115.382 655.211,114.988 C655.603,120.459 656.784,125.284 658.435,128.892 C660.25,132.858 662.322,134.767 664.098,135.249 C664.098,135.422 664.097,135.594 664.098,135.767 C664.104,137.736 662.505,139.849 660.559,139.549 C646.713,137.412 636.111,125.444 636.111,111 C636.111,110.646 636.118,110.293 636.13,109.942 C636.095,109.679 636.107,109.406 636.171,109.134 C637.132,94.049 649.672,82.111 665,82.111 L665.374,82.113 Z M640.674,112.564 C641.278,122.105 647.373,130.155 655.832,133.592 C655.281,132.701 654.779,131.752 654.33,130.771 C652.325,126.389 651.011,120.707 650.654,114.455 C647.306,113.988 643.976,113.358 640.674,112.564 Z M655.832,88.408 C647.815,91.665 641.923,99.065 640.814,107.951 C644.039,108.759 647.294,109.403 650.567,109.883 C650.697,102.714 652.078,96.151 654.33,91.229 C654.779,90.248 655.281,89.299 655.832,88.408 Z" />
        </g>
    </g>
</svg>