<?xml version="1.0" encoding="UTF-8"?>
<svg height="600" width="800" xmlns="http://www.w3.org/2000/svg" xmlns:xlink="http://www.w3.org/1999/xlink">
    <g id="Notes" font-family="'LucidaGrande', 'Lucida Grande', sans-serif" font-size="13">
        <rect fill="white" height="600.0" width="800.0" x="0.0" y="0.0" />
        <g font-size="13">
            <text x="18.0" y="176.0">Small</text>
            <text x="18.0" y="376.0">Medium</text>
            <text x="18.0" y="576.0">Large</text>
        </g>
        <g font-size="9">
            <text x="250.0" y="30.0">Ultralight</text>
            <text x="450.0" y="30.0">Regular</text>
            <text x="650.0" y="30.0">Black</text>
            <text id="template-version" fill="#505050" text-anchor="end" x="785.0" y="575.0">Template v.3.0</text>
            <a href="https://wangchujiang.com/#/app">
                <text fill="#505050" text-anchor="end" x="785.0" y="590.0">https://wangchujiang.com/#/app</text>
            </a>
        </g>
    </g>
    <g id="Guides" stroke="rgb(39, 170, 225)" stroke-width="0.5">
        <path id="Capline-S" d="M18,76 l800,0" />
        <path id="H-reference" d="M85,145.755 L87.685,145.755 L113.369,79.287 L114.052,79.287 L114.052,76 L112.148,76 L85,145.755 Z M95.693,121.536 L130.996,121.536 L130.263,119.313 L96.474,119.313 L95.693,121.536 Z M139.15,145.755 L141.787,145.755 L114.638,76 L113.466,76 L113.466,79.287 L139.15,145.755 Z" stroke="none" />
        <path id="Baseline-S" d="M18,146 l800,0" />
        <path id="left-margin-Ultralight-S" d="M221,56 l0,110" />
        <path id="right-margin-Ultralight-S" d="M309,56 l0,110" />
        <path id="left-margin-Regular-S" d="M421,56 l0,110" />
        <path id="right-margin-Regular-S" d="M509,56 l0,110" />
        <path id="left-margin-Black-S" d="M621,56 l0,110" />
        <path id="right-margin-Black-S" d="M709,56 l0,110" />
        <path id="Capline-M" d="M18,276 l800,0" />
        <path id="Baseline-M" d="M18,346 l800,0" />
        <path id="Capline-L" d="M18,476 l800,0" />
        <path id="Baseline-L" d="M18,546 l800,0" />
    </g>
    <g id="Symbols">
        <g id="Ultralight-S">
            <path d="M281.042,102.25 C283.749,102.25 286.346,103.326 288.26,105.24 C290.174,107.154 291.25,109.751 291.25,112.458 L291.25,122.667 C292.024,122.667 292.765,122.974 293.312,123.521 C293.859,124.068 294.167,124.81 294.167,125.583 L294.167,137.25 C294.167,138.024 293.859,138.765 293.312,139.312 C292.765,139.859 292.024,140.167 291.25,140.167 L270.833,140.167 C270.06,140.167 269.318,139.859 268.771,139.312 C268.224,138.765 267.917,138.024 267.917,137.25 L267.917,125.583 C267.917,124.81 268.224,124.068 268.771,123.521 C269.318,122.974 270.06,122.667 270.833,122.667 L286.875,122.667 L286.875,112.458 C286.875,109.237 284.263,106.625 281.042,106.625 C277.82,106.625 275.208,109.237 275.208,112.458 L275.208,115.375 C275.208,115.762 275.055,116.133 274.781,116.406 C274.508,116.68 274.137,116.833 273.75,116.833 L272.292,116.833 C271.905,116.833 271.534,116.68 271.26,116.406 C270.987,116.133 270.833,115.762 270.833,115.375 L270.833,112.458 C270.833,109.751 271.909,107.154 273.823,105.24 C275.738,103.326 278.334,102.25 281.042,102.25 Z" />
            <path d="M265,81.83 C275.646,81.827 285.447,87.626 290.568,96.959 C291.892,99.363 289.156,101.139 287.082,99.342 C286.828,99.119 286.614,98.856 286.446,98.563 C283.5,93.488 278.852,89.62 273.327,87.643 C273.945,88.708 274.503,89.878 274.99,91.129 C275.658,92.835 276.22,94.737 276.681,96.793 C276.885,97.723 276.299,98.63 275.421,98.998 C274.182,99.511 272.659,98.843 272.359,97.537 C271.996,95.897 271.513,94.287 270.915,92.718 C270.022,90.44 268.999,88.752 267.94,87.67 C266.905,86.611 265.927,86.208 265,86.208 C264.075,86.208 263.098,86.611 262.06,87.67 C261.001,88.752 259.977,90.44 259.085,92.718 C257.335,97.213 256.276,103.562 256.25,110.723 C259.175,110.892 262.107,110.974 265.035,110.971 C265.834,110.971 266.458,111.659 266.458,112.458 C266.458,114.051 265.175,115.352 263.582,115.337 C261.175,115.318 258.768,115.242 256.364,115.11 C256.685,120.692 257.653,125.607 259.088,129.282 C259.978,131.56 261.001,133.248 262.063,134.33 L262.095,134.365 C262.877,135.153 263.542,136.145 263.542,137.25 C263.542,138.635 262.55,140.085 261.179,139.904 C246.876,138.038 235.833,125.811 235.833,111 C235.833,94.891 248.891,81.83 265,81.83 Z M240.325,113.38 C241.252,122.947 247.621,131.118 256.673,134.351 C256.03,133.237 255.474,132.074 255.01,130.874 C253.319,126.543 252.275,120.952 251.968,114.812 C248.07,114.482 244.185,114.006 240.322,113.383 Z M256.673,87.643 C247.508,90.918 241.104,99.25 240.299,108.95 C244.143,109.585 248.008,110.073 251.881,110.408 C251.939,103.011 253.03,96.204 255.01,91.129 C255.474,89.926 256.03,88.761 256.673,87.643 Z" />
        </g>
        <g id="Regular-S">
            <path d="M481.042,102.25 C483.749,102.25 486.346,103.326 488.26,105.24 C490.174,107.154 491.25,109.751 491.25,112.458 L491.25,122.667 C492.024,122.667 492.765,122.974 493.312,123.521 C493.859,124.068 494.167,124.81 494.167,125.583 L494.167,137.25 C494.167,138.024 493.859,138.765 493.312,139.312 C492.765,139.859 492.024,140.167 491.25,140.167 L470.833,140.167 C470.06,140.167 469.318,139.859 468.771,139.312 C468.224,138.765 467.917,138.024 467.917,137.25 L467.917,125.583 C467.917,124.81 468.224,124.068 468.771,123.521 C469.318,122.974 470.06,122.667 470.833,122.667 L486.875,122.667 L486.875,112.458 C486.875,109.237 484.263,106.625 481.042,106.625 C477.82,106.625 475.208,109.237 475.208,112.458 L475.208,115.375 C475.208,115.762 475.055,116.133 474.781,116.406 C474.508,116.68 474.137,116.833 473.75,116.833 L472.292,116.833 C471.905,116.833 471.534,116.68 471.26,116.406 C470.987,116.133 470.833,115.762 470.833,115.375 L470.833,112.458 C470.833,109.751 471.909,107.154 473.823,105.24 C475.738,103.326 478.334,102.25 481.042,102.25 Z" />
            <path d="M465,81.83 C475.646,81.827 485.447,87.626 490.568,96.959 C491.892,99.363 489.156,101.139 487.082,99.342 C486.828,99.119 486.614,98.856 486.446,98.563 C483.5,93.488 478.852,89.62 473.327,87.643 C473.945,88.708 474.503,89.878 474.99,91.129 C475.658,92.835 476.22,94.737 476.681,96.793 C476.885,97.723 476.299,98.63 475.421,98.998 C474.182,99.511 472.659,98.843 472.359,97.537 C471.996,95.897 471.513,94.287 470.915,92.718 C470.022,90.44 468.999,88.752 467.94,87.67 C466.905,86.611 465.927,86.208 465,86.208 C464.075,86.208 463.098,86.611 462.06,87.67 C461.001,88.752 459.977,90.44 459.085,92.718 C457.335,97.213 456.276,103.562 456.25,110.723 C459.175,110.892 462.107,110.974 465.035,110.971 C465.834,110.971 466.458,111.659 466.458,112.458 C466.458,114.051 465.175,115.352 463.582,115.337 C461.175,115.318 458.768,115.242 456.364,115.11 C456.685,120.692 457.653,125.607 459.088,129.282 C459.978,131.56 461.001,133.248 462.063,134.33 L462.095,134.365 C462.877,135.153 463.542,136.145 463.542,137.25 C463.542,138.635 462.55,140.085 461.179,139.904 C446.876,138.038 435.833,125.811 435.833,111 C435.833,94.891 448.891,81.83 465,81.83 Z M440.325,113.38 C441.252,122.947 447.621,131.118 456.673,134.351 C456.03,133.237 455.474,132.074 455.01,130.874 C453.319,126.543 452.275,120.952 451.968,114.812 C448.07,114.482 444.185,114.006 440.322,113.383 Z M456.673,87.643 C447.508,90.918 441.104,99.25 440.299,108.95 C444.143,109.585 448.008,110.073 451.881,110.408 C451.939,103.011 453.03,96.204 455.01,91.129 C455.474,89.926 456.03,88.761 456.673,87.643 Z" />
        </g>
        <g id="Black-S">
            <path d="M681.042,102.25 C683.749,102.25 686.346,103.326 688.26,105.24 C690.174,107.154 691.25,109.751 691.25,112.458 L691.25,122.667 C692.024,122.667 692.765,122.974 693.312,123.521 C693.859,124.068 694.167,124.81 694.167,125.583 L694.167,137.25 C694.167,138.024 693.859,138.765 693.312,139.312 C692.765,139.859 692.024,140.167 691.25,140.167 L670.833,140.167 C670.06,140.167 669.318,139.859 668.771,139.312 C668.224,138.765 667.917,138.024 667.917,137.25 L667.917,125.583 C667.917,124.81 668.224,124.068 668.771,123.521 C669.318,122.974 670.06,122.667 670.833,122.667 L686.875,122.667 L686.875,112.458 C686.875,109.237 684.263,106.625 681.042,106.625 C677.82,106.625 675.208,109.237 675.208,112.458 L675.208,115.375 C675.208,115.762 675.055,116.133 674.781,116.406 C674.508,116.68 674.137,116.833 673.75,116.833 L672.292,116.833 C671.905,116.833 671.534,116.68 671.26,116.406 C670.987,116.133 670.833,115.762 670.833,115.375 L670.833,112.458 C670.833,109.751 671.909,107.154 673.823,105.24 C675.738,103.326 678.334,102.25 681.042,102.25 Z" />
            <path d="M665,81.83 C675.646,81.827 685.447,87.626 690.568,96.959 C691.892,99.363 689.156,101.139 687.082,99.342 C686.828,99.119 686.614,98.856 686.446,98.563 C683.5,93.488 678.852,89.62 673.327,87.643 C673.945,88.708 674.503,89.878 674.99,91.129 C675.657,92.835 676.22,94.737 676.681,96.793 C676.885,97.723 676.299,98.63 675.421,98.998 C674.182,99.511 672.659,98.843 672.359,97.537 C671.996,95.897 671.513,94.287 670.915,92.718 C670.022,90.44 668.999,88.752 667.94,87.67 C666.905,86.611 665.927,86.208 665,86.208 C664.075,86.208 663.098,86.611 662.06,87.67 C661.001,88.752 659.977,90.44 659.085,92.718 C657.335,97.213 656.276,103.562 656.25,110.723 C659.175,110.892 662.107,110.974 665.035,110.971 C665.834,110.971 666.458,111.659 666.458,112.458 C666.458,114.051 665.175,115.352 663.583,115.337 C661.175,115.318 658.768,115.242 656.364,115.11 C656.685,120.692 657.653,125.607 659.088,129.282 C659.978,131.56 661.001,133.248 662.063,134.33 L662.095,134.365 C662.877,135.153 663.542,136.145 663.542,137.25 C663.542,138.635 662.55,140.085 661.179,139.904 C646.876,138.038 635.833,125.811 635.833,111 C635.833,94.891 648.891,81.83 665,81.83 Z M640.325,113.38 C641.252,122.947 647.621,131.118 656.673,134.351 C656.03,133.237 655.474,132.074 655.01,130.874 C653.319,126.543 652.275,120.952 651.968,114.812 C648.07,114.482 644.185,114.006 640.322,113.383 Z M656.673,87.643 C647.508,90.918 641.104,99.25 640.299,108.95 C644.143,109.585 648.008,110.073 651.881,110.408 C651.939,103.011 653.03,96.204 655.01,91.129 C655.474,89.926 656.03,88.761 656.673,87.643 Z" />
        </g>
    </g>
</svg>