<svg width="24" height="24" viewBox="0 0 24 24" fill="none" xmlns="http://www.w3.org/2000/svg">
<path d="M3.25 13.875V6.375L5.125 5.125H8.25L12 2.625L15.75 5.125H18.875L20.75 6.375V13.875L17 19.5L12 21.375L7 19.5L3.25 13.875Z" fill="url(#paint0_linear_47_15070)"/>
<path d="M20.75 13.875L17 19.5L13.25 20.75H12V2.625L15.75 5.125H18.875L20.75 6.375V13.875Z" fill="url(#paint1_linear_47_15070)"/>
<path d="M9.58178 2.89227C10.9817 1.65593 13.1038 1.69702 14.4549 3.00079L15.6543 4.15802L15.6887 4.19012C16.0484 4.51473 16.5512 4.63199 17.019 4.49762L17.7234 4.29522C19.7834 3.70342 21.8484 5.21332 21.9093 7.35577L21.9902 10.2057C22.1159 14.6317 19.6341 18.7161 15.6564 20.6462L15.5621 20.6913L13.6101 21.6164C12.5907 22.0994 11.408 22.098 10.3899 21.6124L8.4414 20.6829C4.44034 18.7745 1.93297 14.6944 2.03783 10.2628L2.10534 7.40716C2.1565 5.24614 4.24703 3.72416 6.31933 4.33917L6.83935 4.49346L6.88415 4.50604C7.34785 4.62717 7.84285 4.50383 8.19579 4.17645L9.51562 2.95208L9.58178 2.89227ZM13.587 3.90033C12.6918 3.03655 11.2778 3.02261 10.3657 3.86859L9.04577 5.09283C8.35756 5.73117 7.38352 5.95889 6.48364 5.69183L5.96362 5.53753C4.68076 5.15683 3.38675 6.09904 3.3551 7.43682L3.28747 10.2923C3.19425 14.2316 5.42308 17.8584 8.97961 19.5547L10.928 20.4841C11.6067 20.8078 12.3952 20.8089 13.0748 20.4869L15.027 19.5618L15.194 19.4808C18.6811 17.7489 20.8515 14.1443 20.7407 10.2411L20.6598 7.39129C20.6221 6.06499 19.3437 5.13026 18.0685 5.49664L17.3643 5.69903C16.4806 5.95291 15.5307 5.73132 14.8513 5.1181L14.7864 5.05755L13.587 3.90033Z" fill="url(#paint2_linear_47_15070)"/>
<path d="M11.9999 7.6665C12.3681 7.6665 12.6665 7.96506 12.6665 8.33325V11.3333H15.6666C16.0348 11.3333 16.3333 11.6317 16.3333 11.9999C16.3333 12.3681 16.0347 12.6665 15.6665 12.6665H12.6665V15.6666C12.6664 16.0348 12.368 16.3333 11.9999 16.3333C11.6317 16.3333 11.3333 16.0348 11.3333 15.6666V12.6665H8.33313C7.96499 12.6664 7.6665 12.368 7.6665 11.9999C7.6665 11.6317 7.96508 11.3333 8.33325 11.3333H11.3333V8.33325C11.3333 7.96506 11.6317 7.6665 11.9999 7.6665Z" fill="#92540C"/>
<defs>
<linearGradient id="paint0_linear_47_15070" x1="12.0054" y1="3.25" x2="12.1099" y2="21.3744" gradientUnits="userSpaceOnUse">
<stop stop-color="#FFF0C2"/>
<stop offset="1" stop-color="#FFDE7A"/>
</linearGradient>
<linearGradient id="paint1_linear_47_15070" x1="16.375" y1="2.625" x2="16.375" y2="21.3542" gradientUnits="userSpaceOnUse">
<stop stop-color="#FFDE7A"/>
<stop offset="1" stop-color="#F9BE1A"/>
</linearGradient>
<linearGradient id="paint2_linear_47_15070" x1="12" y1="3.25033" x2="12" y2="20.7503" gradientUnits="userSpaceOnUse">
<stop offset="0.00833332" stop-color="#C18010"/>
<stop offset="1" stop-color="#92540C"/>
</linearGradient>
</defs>
</svg>
