<svg width="76" height="76" viewBox="0 0 76 76" fill="none" xmlns="http://www.w3.org/2000/svg">
<path fill-rule="evenodd" clip-rule="evenodd" d="M43.8339 28C46.1351 28.0001 48.0006 29.8655 48.0006 32.1667C48.0006 34.4677 46.135 36.3332 43.8339 36.3333C41.5328 36.3333 39.6673 34.4678 39.6673 32.1667C39.6673 29.8655 41.5328 28 43.8339 28ZM43.8339 30.5C42.9135 30.5 42.1673 31.2462 42.1673 32.1667C42.1673 33.0871 42.9135 33.8333 43.8339 33.8333C44.7543 33.8332 45.5006 33.087 45.5006 32.1667C45.5006 31.2462 44.7543 30.5001 43.8339 30.5Z" fill="white" fill-opacity="0.84"/>
<path fill-rule="evenodd" clip-rule="evenodd" d="M42.9974 21.3333C49.4433 21.3336 54.6673 26.5631 54.6673 33.0114C54.6669 39.4594 49.4431 44.6876 42.9974 44.6878C42.0201 44.6878 41.0685 44.567 40.1588 44.3395C39.8865 44.2716 39.6811 44.3533 39.5826 44.4518L35.3216 48.7161C34.6964 49.3418 33.8476 49.6927 32.9632 49.6927H31.3258V50.9167C31.3258 52.9877 29.6468 54.6666 27.5758 54.6667H25.9222C23.4003 54.6667 21.3522 52.6295 21.3388 50.1077L21.3339 49.2842C21.3254 47.6163 21.9844 46.0141 23.1634 44.8343L31.5634 36.4277C31.6619 36.3292 31.7421 36.1236 31.6741 35.8516C31.4466 34.9411 31.3275 33.9894 31.3274 33.0114C31.3274 26.5629 36.5512 21.3333 42.9974 21.3333ZM42.9974 23.8333C37.9336 23.8333 33.8274 27.942 33.8274 33.0114C33.8275 33.7836 33.9225 34.5322 34.1009 35.2461C34.3462 36.2282 34.1463 37.3778 33.331 38.1937L24.9309 46.6003C24.2235 47.3082 23.8288 48.2704 23.8339 49.2712L23.8388 50.0947C23.845 51.2408 24.7759 52.1667 25.9222 52.1667H27.5758C28.2661 52.1666 28.8258 51.607 28.8258 50.9167V49.6927C28.8261 48.3123 29.9453 47.1927 31.3258 47.1927H32.9632C33.1842 47.1927 33.3961 47.1049 33.5524 46.9486L37.8151 42.6842C38.6313 41.8677 39.7831 41.6686 40.7659 41.9144C41.4788 42.0927 42.2263 42.1878 42.9974 42.1878C48.0607 42.1876 52.1669 38.0803 52.1673 33.0114C52.1673 27.9422 48.0609 23.8336 42.9974 23.8333Z" fill="white" fill-opacity="0.84"/>
</svg>
