<svg width="16" height="16" viewBox="0 0 16 16" fill="none" xmlns="http://www.w3.org/2000/svg">
<path d="M12.5 9C14.433 9 16 10.567 16 12.5C16 14.433 14.433 16 12.5 16C10.567 16 9 14.433 9 12.5C9 10.567 10.567 9 12.5 9ZM8.00098 2.125C12.6077 2.1255 15.2131 5.68338 15.8496 7.82129L15.9102 8.02441L15.835 8.22266C15.7084 8.55487 15.2872 8.63841 14.9844 8.45215C14.8247 8.35393 14.6588 8.26469 14.4873 8.18555C14.5205 8.11436 14.5543 8.04598 14.583 7.97852C13.9521 6.17998 11.7498 3.37549 8.00098 3.375C4.27642 3.375 2.07179 6.20896 1.42578 7.96289C2.28045 9.722 4.21081 12.4945 7.75195 12.6191C7.7524 12.6374 7.75325 12.6556 7.75391 12.6738C7.77574 13.2789 7.3364 13.8704 6.73828 13.7764C2.92996 13.1773 0.955554 9.9477 0.182617 8.25977L0.0810547 8.04297L0.15332 7.81543C0.787926 5.75989 3.38793 2.125 8.00098 2.125ZM10.375 11.875C10.0989 11.875 9.875 12.0989 9.875 12.375V12.625C9.875 12.9011 10.0989 13.125 10.375 13.125H14.625C14.9011 13.125 15.125 12.9011 15.125 12.625V12.375C15.125 12.0989 14.9011 11.875 14.625 11.875H10.375ZM8.00098 5C9.65478 5.00053 10.9958 6.33925 11 7.99219C9.58372 8.46323 8.46457 9.58291 7.99316 10.999C6.33968 10.9951 5.00098 9.65441 5.00098 8C5.00098 6.34315 6.34412 5 8.00098 5Z" fill="black" fill-opacity="0.84"/>
</svg>
