<svg fill="none" viewBox="0 0 32 32" xmlns="http://www.w3.org/2000/svg">
  <path fill="#fff" d="M26 4a6 6 0 0 1 6 6v12a6 6 0 0 1-6 6H6a6 6 0 0 1-6-6V10a6 6 0 0 1 6-6z"/>
  <path fill="#CCC" fill-rule="evenodd" d="M30 22V10a4 4 0 0 0-4-4H6a4 4 0 0 0-4 4v12a4 4 0 0 0 4 4h20a4 4 0 0 0 4-4m2-12a6 6 0 0 0-6-6H6a6 6 0 0 0-6 6v12a6 6 0 0 0 6 6h20a6 6 0 0 0 6-6z" clip-rule="evenodd"/>
  <path fill="#01798A" fill-rule="evenodd" d="m25.013 9.504-4.925-.002h-.001l-.011.001c-.677.021-1.52.568-1.673 1.243l-2.33 10.389c-.153.68.265 1.234.936 1.245h5.175c.661-.033 1.304-.574 1.455-1.241l2.329-10.389c.156-.688-.272-1.246-.955-1.246" clip-rule="evenodd"/>
  <path fill="#024381" fill-rule="evenodd" d="m16.074 21.135 2.329-10.39c.153-.674.996-1.22 1.673-1.242l-1.959-.001H14.59c-.678.013-1.532.564-1.685 1.244l-2.33 10.389c-.154.68.264 1.234.935 1.245h5.5c-.671-.01-1.089-.564-.935-1.245" clip-rule="evenodd"/>
  <path fill="#DD0228" fill-rule="evenodd" d="m10.574 21.135 2.33-10.39c.153-.679 1.007-1.23 1.685-1.244L10.07 9.5c-.682 0-1.556.557-1.712 1.246l-2.33 10.389A1.3 1.3 0 0 0 6 21.32v.193c.046.496.422.857.962.866h4.547c-.671-.01-1.09-.565-.935-1.245" clip-rule="evenodd"/>
  <path fill="#fff" fill-rule="evenodd" d="M14.685 17.071h.085q.12 0 .156-.079l.223-.335h.595l-.124.22h.713l-.09.338h-.85q-.146.222-.362.21h-.443zm-.098.485h1.563l-.1.367h-.628l-.096.354h.612l-.1.367h-.612l-.142.524q-.053.131.138.117h.499l-.092.342h-.958q-.272 0-.187-.315l.182-.668h-.391l.1-.367h.39l.096-.354h-.374zm2.495-.902-.024.215s.295-.223.563-.223h.99l-.38 1.381q-.046.237-.403.237h-1.122l-.262.97q-.023.077.062.078h.221l-.081.301h-.561q-.323 0-.27-.196l.743-2.763zm.839.39h-.884l-.105.373s.147-.107.393-.11c.245-.004.524 0 .524 0zm-.32.865q.098.014.106-.078l.054-.197h-.885l-.074.275zm-.597.447h.51l-.01.222h.136q.103 0 .103-.066l.04-.144h.424l-.057.21q-.072.262-.38.275h-.273v.38q-.008.092.161.093h.256l-.083.3h-.612q-.258.014-.254-.249zm-6.18-3.542q-.105.512-.479.79-.37.276-.953.276-.55 0-.806-.283a.74.74 0 0 1-.178-.509q0-.127.03-.274l.415-2.016h.626l-.41 1.993a.7.7 0 0 0-.016.153q0 .153.075.251.112.145.363.145a.75.75 0 0 0 .474-.143.66.66 0 0 0 .24-.406l.41-1.993h.624zm2.63-.794h.49l-.384 1.8h-.49zm.154-.654h.495l-.092.436h-.495zm.771 2.317a.67.67 0 0 1-.194-.502q0-.054.007-.122.006-.069.02-.132.085-.438.372-.695a1 1 0 0 1 .69-.258q.33 0 .523.186.192.187.192.508a1.3 1.3 0 0 1-.028.26q-.085.432-.371.685a1 1 0 0 1-.688.253q-.331 0-.523-.183m.934-.356q.13-.143.187-.429a1 1 0 0 0 .018-.177.37.37 0 0 0-.084-.258q-.084-.091-.239-.091a.43.43 0 0 0-.333.144q-.13.145-.188.436l-.014.089-.004.083q0 .165.085.255.083.09.239.09a.43.43 0 0 0 .333-.142m3.858 1.76.119-.42h.598l-.026.154s.306-.154.526-.154h.739l-.117.42h-.117l-.558 1.979h.117l-.111.393h-.116l-.049.17h-.579l.048-.17h-1.142l.111-.393h.115l.558-1.98zm.646 0-.153.535s.26-.1.485-.13c.05-.186.115-.405.115-.405zm-.223.786-.153.561s.289-.143.487-.155c.057-.217.114-.406.114-.406zm.112 1.192.114-.406h-.446l-.115.407zm1.446-2.424h.563l.023.209q-.005.08.095.079h.099l-.1.354h-.414q-.236.012-.246-.184zm-.165.76h1.822l-.107.38h-.58l-.1.354h.58l-.108.38h-.645l-.146.222h.316l.073.446q.014.066.114.066h.098l-.103.367h-.347q-.27.014-.28-.183l-.084-.407-.287.433a.31.31 0 0 1-.314.17h-.53l.103-.367h.166q.1 0 .175-.092l.45-.655h-.58l.108-.38h.628l.1-.354h-.629zM11.4 14.02h.443l-.05.26.063-.074a.7.7 0 0 1 .523-.231q.278 0 .405.164.124.164.066.456l-.244 1.226h-.454l.22-1.112q.033-.172-.019-.255-.052-.082-.196-.082a.42.42 0 0 0-.295.11.55.55 0 0 0-.16.305l-.203 1.034h-.456zm5.074 0h.442l-.05.26.063-.074a.7.7 0 0 1 .523-.231q.279 0 .404.164.126.164.066.456l-.242 1.226h-.456l.22-1.112q.034-.172-.018-.255-.053-.082-.195-.082a.43.43 0 0 0-.297.11.54.54 0 0 0-.159.305l-.203 1.034h-.455zm2.188-1.115h1.285q.373 0 .57.167.196.168.196.483v.006q0 .06-.006.134a2 2 0 0 1-.025.148q-.086.415-.391.67a1.1 1.1 0 0 1-.723.254h-.69l-.213 1.054h-.597zm.321 1.354h.572a.55.55 0 0 0 .353-.104.55.55 0 0 0 .174-.32l.012-.073.004-.062q0-.155-.11-.225-.107-.071-.345-.07h-.486zm4.402 1.91c-.189.404-.369.64-.474.75-.106.108-.315.36-.82.341l.044-.308c.424-.132.654-.726.784-.99l-.155-1.937.328-.004h.275l.03 1.215.516-1.215h.523zm-1.462-2.002-.207.144c-.217-.17-.415-.277-.798-.098-.52.243-.956 2.11.478 1.495l.082.098.564.015.37-1.697zm-.32.928c-.091.27-.294.447-.452.397s-.215-.31-.123-.58c.09-.27.294-.447.451-.397.159.05.216.31.123.58" clip-rule="evenodd"/>
</svg>
