<svg fill="none" viewBox="0 0 16 16" xmlns="http://www.w3.org/2000/svg">
  <g clip-path="url(#Profile-16_svg__a)">
    <path fill="#000" fill-rule="evenodd" d="M8 16A8 8 0 1 0 8 0a8 8 0 0 0 0 16Zm0-1.25c1.753 0 3.35-.668 4.55-1.763A5.19 5.19 0 0 0 8 10.299a5.19 5.19 0 0 0-4.55 2.688A6.726 6.726 0 0 0 8 14.75Zm.43-5.78a6.532 6.532 0 0 1 5.055 2.966 6.75 6.75 0 1 0-10.97 0A6.532 6.532 0 0 1 7.57 8.969a3 3 0 1 1 .86 0ZM9.75 6a1.75 1.75 0 1 1-3.5 0 1.75 1.75 0 0 1 3.5 0Z" clip-rule="evenodd"/>
  </g>
  <defs>
    <clipPath id="Profile-16_svg__a">
      <path fill="#fff" d="M0 0h16v16H0z"/>
    </clipPath>
  </defs>
</svg>
