<svg fill="none" viewBox="0 0 128 96" xmlns="http://www.w3.org/2000/svg">
  <path fill="#888" d="m106.572 34-1.543-.4a.88.88 0 0 1-.629-.629l-.4-1.542a.84.84 0 0 0-.8-.629c-.4 0-.743.286-.8.629l-.4 1.543a.88.88 0 0 1-.628.628l-1.543.4a.84.84 0 0 0-.629.8c0 .4.286.743.629.8l1.543.4a.88.88 0 0 1 .628.629l.4 1.543a.84.84 0 0 0 .8.628c.4 0 .743-.286.8-.628l.4-1.543a.88.88 0 0 1 .629-.629l1.543-.4a.84.84 0 0 0 .628-.8c0-.4-.286-.743-.628-.8M112 54c-1.1 0-2 .9-2 2s.9 2 2 2 2-.9 2-2-.9-2-2-2m-85.943 8.8-2.314-.6c-.429-.086-.857-.514-.943-.943l-.6-2.314c-.171-.6-.686-.943-1.2-.943-.6 0-1.114.428-1.2.943l-.6 2.314c-.086.429-.514.857-.943.943l-2.314.6c-.6.171-.943.686-.943 1.2 0 .6.429 1.114.943 1.2l2.314.6c.429.086.857.514.943.943l.6 2.314c.171.6.686.943 1.2.943.6 0 1.114-.429 1.2-.943l.6-2.314c.086-.429.514-.857.943-.943l2.314-.6c.6-.172.943-.686.943-1.2 0-.6-.428-1.114-.943-1.2M7.371 42.2l-1.542-.4a.88.88 0 0 1-.629-.629l-.4-1.543A.84.84 0 0 0 4 39c-.4 0-.743.286-.8.628l-.4 1.543a.88.88 0 0 1-.629.629l-1.542.4A.84.84 0 0 0 0 43c0 .4.286.743.629.8l1.542.4a.88.88 0 0 1 .629.628l.4 1.543c.114.4.457.629.8.629.4 0 .743-.286.8-.629l.4-1.543a.88.88 0 0 1 .629-.628l1.542-.4A.84.84 0 0 0 8 43c0-.4-.286-.743-.629-.8M126.5 45c-.825 0-1.5.675-1.5 1.5s.675 1.5 1.5 1.5 1.5-.675 1.5-1.5-.675-1.5-1.5-1.5M23 27c-1.1 0-2 .9-2 2s.9 2 2 2 2-.9 2-2-.9-2-2-2" opacity=".2"/>
  <path fill="url(#Fire-128_svg__a)" d="M58.648 18c5.292 3.52 5.632 9.4 7.136 15 .255.949 1.628 5 6.216 5 4.078 0 5.765-2.729 6.274-4s.765-3.998 1.02-3.771S88.2 39.865 88.2 56.136C88.2 68.339 78.02 76 64 76s-26-7.661-26-19.864C38 39.865 51.765 35.796 58.648 18"/>
  <path fill="url(#Fire-128_svg__b)" d="M88 56.136c0-10.645-4.737-18.185-7.704-21.866a7 7 0 0 1-.165.474C79.455 36.43 77.212 40 72 40c-2.98 0-5.001-1.352-6.266-2.86a9.8 9.8 0 0 1-1.881-3.621c-.388-1.442-.708-2.93-1.022-4.275-.322-1.378-.65-2.657-1.077-3.85-.557-1.555-1.271-2.927-2.323-4.1-3.532 7.789-8.325 12.933-12.138 17.61C43.077 44.073 40 48.704 40 56.135l.005.391C40.2 64.733 46.552 71.871 55.6 74.72c2.63.828 5.466 1.28 8.4 1.28s5.77-.452 8.4-1.28C81.59 71.825 88 64.505 88 56.136m3.994.494c-.245 10.344-8.178 18.688-18.393 21.904A32 32 0 0 1 64 80c-3.345 0-6.584-.516-9.6-1.466-10.215-3.216-18.149-11.56-18.394-21.904L36 56.136c0-8.84 3.806-14.38 8.192-19.76 4.385-5.378 9.29-10.565 12.59-19.098l.093-.205a2 2 0 0 1 2.88-.738c3.112 2.07 4.735 4.837 5.764 7.71.508 1.418.878 2.879 1.208 4.288.337 1.443.624 2.79.989 4.148.09.336.399 1.273 1.084 2.09.633.755 1.59 1.429 3.2 1.429 2.944 0 4.074-1.887 4.418-2.744.167-.417.323-1.189.499-2.088.074-.379.162-.825.255-1.16.035-.128.125-.445.3-.744.062-.108.328-.563.895-.841a2.04 2.04 0 0 1 2.08.17l.177.141.006.006C81.012 29.083 92 38.994 92 56.136z"/>
  <path fill="#FC3" d="M64 51c5.333 5.459 12 11.373 12 17.173C76 74.428 72 80 64 80s-12-5.572-12-11.827S58.667 56.459 64 51"/>
  <defs>
    <linearGradient id="Fire-128_svg__a" x1="63.366" x2="69.23" y1="29.6" y2="70.978" gradientUnits="userSpaceOnUse">
      <stop stop-color="#FA8B38"/>
      <stop offset=".52" stop-color="#E72A57"/>
      <stop offset="1" stop-color="#CC165B"/>
    </linearGradient>
    <linearGradient id="Fire-128_svg__b" x1="64" x2="64" y1="18" y2="78" gradientUnits="userSpaceOnUse">
      <stop stop-color="#FF862D"/>
      <stop offset="1" stop-color="#B40B4A"/>
    </linearGradient>
  </defs>
</svg>
