<svg width="128" height="96" viewBox="0 0 128 96" fill="none" xmlns="http://www.w3.org/2000/svg">
<path opacity="0.2" d="M105.63 38.2L107.172 37.8C107.458 37.7429 107.744 37.4571 107.801 37.1714L108.201 35.6286C108.315 35.2286 108.658 35 109.001 35C109.401 35 109.744 35.2857 109.801 35.6286L110.201 37.1714C110.258 37.4571 110.544 37.7429 110.83 37.8L112.372 38.2C112.772 38.3143 113.001 38.6571 113.001 39C113.001 39.4 112.715 39.7429 112.372 39.8L110.83 40.2C110.544 40.2571 110.258 40.5429 110.201 40.8286L109.801 42.3714C109.687 42.7714 109.344 43 109.001 43C108.601 43 108.258 42.7143 108.201 42.3714L107.801 40.8286C107.744 40.5429 107.458 40.2571 107.172 40.2L105.63 39.8C105.23 39.6857 105.001 39.3429 105.001 39C105.001 38.6 105.287 38.2571 105.63 38.2Z" fill="#888888"/>
<path opacity="0.2" d="M15.9438 31.8L18.2581 31.2C18.6867 31.1143 19.1153 30.6857 19.201 30.2571L19.801 27.9429C19.9724 27.3429 20.4867 27 21.001 27C21.601 27 22.1153 27.4286 22.201 27.9429L22.801 30.2571C22.8867 30.6857 23.3153 31.1143 23.7438 31.2L26.0581 31.8C26.6581 31.9714 27.001 32.4857 27.001 33C27.001 33.6 26.5724 34.1143 26.0581 34.2L23.7438 34.8C23.3153 34.8857 22.8867 35.3143 22.801 35.7429L22.201 38.0571C22.0296 38.6571 21.5153 39 21.001 39C20.401 39 19.8867 38.5714 19.801 38.0571L19.201 35.7429C19.1153 35.3143 18.6867 34.8857 18.2581 34.8L15.9438 34.2C15.3438 34.0286 15.001 33.5143 15.001 33C15.001 32.4 15.4295 31.8857 15.9438 31.8Z" fill="#888888"/>
<path opacity="0.2" d="M0.629534 53.2L2.1724 52.8C2.45811 52.7429 2.74385 52.4571 2.80099 52.1714L3.20096 50.6286C3.31525 50.2286 3.65812 50 4.00098 50C4.40098 50 4.74385 50.2857 4.80099 50.6286L5.20096 52.1714C5.25811 52.4571 5.54384 52.7429 5.82955 52.8L7.37242 53.2C7.77242 53.3143 8.00098 53.6571 8.00098 54C8.00098 54.4 7.71528 54.7429 7.37242 54.8L5.82955 55.2C5.54384 55.2571 5.25811 55.5429 5.20096 55.8286L4.80099 57.3714C4.6867 57.7714 4.34383 58 4.00098 58C3.60098 58 3.25811 57.7143 3.20096 57.3714L2.80099 55.8286C2.74385 55.5429 2.45811 55.2571 2.1724 55.2L0.629534 54.8C0.229534 54.6857 0.000976562 54.3429 0.000976562 54C0.000976562 53.6 0.286676 53.2571 0.629534 53.2Z" fill="#888888"/>
<path opacity="0.2" d="M126.501 52C125.676 52 125.001 51.325 125.001 50.5C125.001 49.675 125.676 49 126.501 49C127.326 49 128.001 49.675 128.001 50.5C128.001 51.325 127.326 52 126.501 52Z" fill="#888888"/>
<path opacity="0.2" d="M23.001 70C21.901 70 21.001 69.1 21.001 68C21.001 66.9 21.901 66 23.001 66C24.101 66 25.001 66.9 25.001 68C25.001 69.1 24.101 70 23.001 70Z" fill="#888888"/>
<path d="M108.502 59C108.8 59 109.097 59.12 109.325 59.3539C109.779 59.8219 109.779 60.5837 109.325 61.0517L106.992 63.4512C106.537 63.9192 105.797 63.9192 105.342 63.4512C104.887 62.9833 104.887 62.2215 105.342 61.7535L107.674 59.3539C107.902 59.12 108.199 59 108.497 59H108.502Z" fill="#CCCCCC"/>
<path d="M107.336 69.7982H110.835C111.476 69.7982 112.001 70.3381 112.001 70.998C112.001 71.6579 111.476 72.1978 110.835 72.1978H107.336C106.695 72.1978 106.17 71.6579 106.17 70.998C106.17 70.3381 106.695 69.7982 107.336 69.7982Z" fill="#CCCCCC"/>
<path d="M105.354 78.5518C105.581 78.3178 105.879 78.1978 106.176 78.1978H106.182C106.479 78.1978 106.777 78.3178 107.004 78.5518L109.336 80.9513C109.791 81.4193 109.791 82.1811 109.336 82.6491C108.882 83.117 108.141 83.117 107.686 82.6491L105.354 80.2495C104.899 79.7815 104.899 79.0197 105.354 78.5518Z" fill="#CCCCCC"/>
<rect x="71.001" y="55" width="32" height="32" rx="16" fill="#DE5833"/>
<path fill-rule="evenodd" clip-rule="evenodd" d="M87.0007 57.0439C79.2931 57.0439 73.0449 63.2922 73.0449 70.9997C73.0449 78.7073 79.2931 84.9555 87.0007 84.9555C94.7083 84.9555 100.956 78.7073 100.956 70.9997C100.956 63.2922 94.7083 57.0439 87.0007 57.0439ZM74.9567 70.9997C74.9567 64.348 80.349 58.9557 87.0007 58.9557C93.6524 58.9557 99.0447 64.348 99.0447 70.9997C99.0447 76.8921 94.8133 81.7962 89.2234 82.8391C87.7706 79.5034 86.257 75.5089 87.7384 75.0674C85.975 71.8881 86.3315 69.7997 89.9914 70.4434L89.997 70.444C90.4071 70.4907 90.7181 70.5261 90.8153 70.4641C91.3109 70.1487 91.0035 63.2222 86.7006 62.2814C82.7408 57.3823 78.9718 62.9702 80.8836 62.5879C82.413 62.2055 83.5487 62.5585 83.496 62.5736C76.7409 63.4254 79.8819 74.0683 81.6156 79.9428C81.854 80.7508 82.0659 81.4687 82.2217 82.0584C77.9474 80.2087 74.9567 75.9535 74.9567 70.9997Z" fill="white"/>
<path d="M92.291 81.0891C92.2485 81.3637 92.1538 81.5467 91.9855 81.5723C91.6661 81.6211 90.2376 81.2941 89.4256 80.9854C89.3334 81.41 87.1571 81.8121 86.8125 81.2417C86.0228 81.9244 84.5098 82.9146 84.1934 82.7071C83.5876 82.3106 83.0177 79.2564 83.4737 78.6109C84.1664 77.9812 85.6225 78.6664 86.6441 79.0282C86.9905 78.4425 88.6677 78.2204 89.0158 78.7012C89.9332 78.0038 91.4641 77.0203 91.6133 77.1997C92.3576 78.0965 92.4516 80.2307 92.2904 81.0897L92.291 81.0891Z" fill="#4CBA3C"/>
<path fill-rule="evenodd" clip-rule="evenodd" d="M84.5303 71.8694C84.8425 69.6541 89.0274 70.3472 90.8987 70.0983C92.2625 69.9402 93.2745 69.6047 93.9487 69.3429C95.4964 68.7072 95.7601 69.3381 95.0033 70.3283C92.8665 72.8614 88.1142 71.0177 87.2633 72.3276C87.0146 72.7156 87.207 73.629 89.1616 73.9169C91.8029 74.3049 93.9726 73.449 94.2405 73.9663C93.6383 76.7313 83.6106 75.79 84.5291 71.87L84.5303 71.8694Z" fill="#FFCC33"/>
<path d="M89.8717 65.4794C89.5949 64.8797 88.1718 64.884 87.8998 65.4563C87.8749 65.5744 87.974 65.5432 88.1628 65.4838C88.4937 65.3797 89.1002 65.1888 89.7986 65.5624C89.8538 65.5862 89.9071 65.5289 89.8717 65.4794Z" fill="#14307E"/>
<path d="M82.9176 65.6234C82.6534 65.6043 82.2244 65.5734 81.8699 65.7704C81.3498 65.9918 81.182 66.2304 81.0814 66.3939C81.0442 66.4543 80.9004 66.4482 80.9004 66.3768C80.9357 65.4226 82.5536 64.9626 83.142 65.5556C83.2134 65.6447 83.1085 65.6371 82.9176 65.6234Z" fill="#14307E"/>
<path d="M89.3649 68.8222C88.2762 68.8167 88.2762 67.1383 89.3649 67.1328C90.4537 67.1383 90.4537 68.8167 89.3649 68.8222Z" fill="#14307E"/>
<path d="M83.8476 68.5619C83.826 69.8565 81.9283 69.8565 81.9067 68.5619C81.9127 67.2733 83.8416 67.2739 83.8476 68.5619Z" fill="#14307E"/>
<path d="M87.001 51C75.9553 51 67.001 59.9543 67.001 71V71.8165C67.001 72.7046 66.4158 73.4871 65.5617 73.7305C58.1464 75.8436 49.7484 77.8102 43.6349 79.1637C43.3107 79.2355 42.9985 79.255 42.7028 79.23H38.001V75H40.3772C40.4913 74.7759 40.6379 74.5576 40.8198 74.3498L48.0995 66.0301C41.3417 60.9038 37.001 52.9413 37.001 44C37.001 30.5221 46.8638 19.2684 60.001 16.6V16H67.001V16.0163C82.5542 16.5252 95.001 28.8592 95.001 44C95.001 44.8309 94.9635 45.6534 94.8901 46.4659C94.6454 49.1734 92.1958 51 89.4773 51H87.001Z" fill="url(#paint0_linear_1633_24992)"/>
<path d="M87.001 50.9998C75.9553 50.9998 67.001 59.9541 67.001 70.9998V71.7623C58.5016 74.5821 46.6203 77.3958 38.6356 79.1636C35.8371 79.7831 33.9325 76.5068 35.82 74.3497L40.981 68.4514C42.1263 67.1424 41.9098 65.146 40.6496 63.9473C35.3108 58.869 32.001 51.8077 32.001 44C32.001 28.536 44.9847 16 61.001 16C77.0172 16 90.001 28.536 90.001 44C90.001 46.417 89.6838 48.7625 89.0874 50.9998H87.001Z" fill="url(#paint1_linear_1633_24992)"/>
<path d="M59.7283 28.7116C60.0596 27.3865 61.9427 27.3865 62.2739 28.7116L63.5101 33.6561C64.4894 37.5734 67.548 40.632 71.4653 41.6113L76.4098 42.8474C77.7349 43.1787 77.7349 45.0618 76.4098 45.3931L71.4653 46.6292C67.548 47.6085 64.4894 50.6671 63.5101 54.5844L62.2739 59.5289C61.9427 60.854 60.0596 60.854 59.7283 59.5289L58.4922 54.5844C57.5128 50.6671 54.4542 47.6085 50.537 46.6292L45.5924 45.3931C44.2674 45.0618 44.2674 43.1787 45.5924 42.8474L50.537 41.6113C54.4542 40.632 57.5128 37.5734 58.4922 33.6561L59.7283 28.7116Z" fill="white"/>
<defs>
<linearGradient id="paint0_linear_1633_24992" x1="66.001" y1="15.9999" x2="66.001" y2="79.2402" gradientUnits="userSpaceOnUse">
<stop stop-color="#876ECB"/>
<stop offset="1" stop-color="#2B55CA"/>
</linearGradient>
<linearGradient id="paint1_linear_1633_24992" x1="61.001" y1="16" x2="61.001" y2="79.2402" gradientUnits="userSpaceOnUse">
<stop stop-color="#C7B9EE"/>
<stop offset="0.638361" stop-color="#A0A8F2"/>
<stop offset="1" stop-color="#7295F6"/>
</linearGradient>
</defs>
</svg>
