<svg width="76" height="76" viewBox="0 0 76 76" fill="none" xmlns="http://www.w3.org/2000/svg">
<path fill-rule="evenodd" clip-rule="evenodd" d="M35.5 21.3333C27.676 21.3333 21.3334 27.676 21.3334 35.5C21.3334 43.324 27.676 49.6667 35.5 49.6667C38.962 49.6667 42.1339 48.4249 44.5947 46.3624L52.5338 54.3016C53.022 54.7897 53.8134 54.7897 54.3016 54.3016C54.7898 53.8134 54.7898 53.0219 54.3016 52.5338L46.3624 44.5946C48.4249 42.1339 49.6667 38.962 49.6667 35.5C49.6667 27.676 43.3241 21.3333 35.5 21.3333ZM23.8334 35.5C23.8334 29.0567 29.0567 23.8333 35.5 23.8333C41.9434 23.8333 47.1667 29.0567 47.1667 35.5C47.1667 41.9433 41.9434 47.1667 35.5 47.1667C29.0567 47.1667 23.8334 41.9433 23.8334 35.5Z" fill="white"/>
</svg>
