<svg xmlns="http://www.w3.org/2000/svg" width="128" height="96" fill="none" viewBox="0 0 128 96">
  <path fill="#888" d="M21 39c.514 0 1.029-.343 1.2-.942l.6-2.315c.085-.428.515-.858.943-.943l2.315-.6c.514-.086.942-.6.942-1.2 0-.514-.343-1.029-.942-1.2l-2.315-.6c-.428-.085-.857-.515-.943-.943l-.6-2.315c-.086-.514-.6-.942-1.2-.942-.514 0-1.029.343-1.2.942l-.6 2.315c-.085.428-.515.857-.943.943l-2.315.6c-.514.086-.942.6-.942 1.2 0 .514.343 1.029.942 1.2l2.315.6c.428.086.857.515.943.943l.6 2.315c.086.514.6.942 1.2.942Zm88 4a.841.841 0 0 0 .8-.629l.4-1.543a.877.877 0 0 1 .628-.628l1.543-.4c.343-.057.629-.4.629-.8a.841.841 0 0 0-.629-.8l-1.543-.4a.877.877 0 0 1-.628-.628l-.4-1.543c-.057-.343-.4-.629-.8-.629a.841.841 0 0 0-.8.629l-.4 1.543a.877.877 0 0 1-.628.628l-1.543.4c-.343.057-.629.4-.629.8 0 .343.229.685.629.8l1.543.4c.285.057.57.343.628.628l.4 1.543c.057.343.4.629.8.629Zm17.5 9c.825 0 1.5-.675 1.5-1.5s-.675-1.5-1.5-1.5-1.5.675-1.5 1.5.675 1.5 1.5 1.5ZM4 58a.841.841 0 0 0 .8-.629l.4-1.543a.875.875 0 0 1 .628-.628l1.543-.4c.343-.057.629-.4.629-.8a.841.841 0 0 0-.629-.8l-1.543-.4a.875.875 0 0 1-.628-.628l-.4-1.543C4.743 50.286 4.4 50 4 50a.841.841 0 0 0-.8.629l-.4 1.543a.875.875 0 0 1-.628.628l-1.543.4c-.343.057-.629.4-.629.8 0 .343.229.685.629.8l1.543.4c.285.057.57.343.628.628l.4 1.543c.057.343.4.629.8.629Zm19 12c1.1 0 2-.9 2-2s-.9-2-2-2-2 .9-2 2 .9 2 2 2Z" opacity=".2"/>
  <path fill="#C18010" d="M59 80a8 8 0 0 0 8-8v-1c0-11.046 8.954-20 20-20h2a3 3 0 0 0 3-3V24a8 8 0 0 0-8-8H52a8 8 0 0 0-8 8v48a8 8 0 0 0 8 8h7Z"/>
  <path fill="#FFF0C2" d="M62 77a5 5 0 0 0 5-5v-1c0-11.046 8.954-20 20-20h2V24a5 5 0 0 0-5-5H50c-5.523 0-10 4.477-10 10v38c0 5.523 4.477 10 10 10h12Z"/>
  <path fill="#E2A412" d="M63 80a4 4 0 0 0 4-4v-5c0-10.37 7.893-18.898 18-19.901V24a8 8 0 0 0-8-8H51c-8.284 0-15 6.716-15 15v34c0 8.284 6.716 15 15 15h12Z"/>
  <path fill="#C18010" d="M51 80V16h-7a8 8 0 0 0-8 8v48a8 8 0 0 0 8 8h7Z"/>
  <path fill="#3969EF" d="M74.811 46.644c1.32.975 3.189.033 3.189-1.608V16H64v29.036c0 1.641 1.868 2.583 3.189 1.608l2.623-1.938a2 2 0 0 1 2.377 0l2.623 1.938Z"/>
  <path fill="#557FF3" d="M87 87c8.837 0 16-7.163 16-16s-7.163-16-16-16-16 7.163-16 16 7.163 16 16 16Z"/>
  <path fill="#fff" d="M85.547 80.534a2.5 2.5 0 0 0 2.906 0l8.272-6.43a1 1 0 0 0 .185-1.39l-1.8-2.4a1 1 0 0 0-1.414-.19l-2.89 2.248a.5.5 0 0 1-.806-.395V63a1 1 0 0 0-1-1h-4a1 1 0 0 0-1 1v8.977a.5.5 0 0 1-.807.395l-2.89-2.247a1 1 0 0 0-1.413.19l-1.8 2.399a1 1 0 0 0 .185 1.39l8.272 6.43Z"/>
  <path fill="#CCC" d="M108.501 59c.298 0 .595.12.823.354.454.468.454 1.23 0 1.698l-2.333 2.4a1.145 1.145 0 0 1-1.65 0 1.226 1.226 0 0 1 0-1.698l2.332-2.4c.228-.234.525-.354.823-.354h.005Zm-1.166 10.798h3.499c.641 0 1.166.54 1.166 1.2 0 .66-.525 1.2-1.166 1.2h-3.499c-.641 0-1.166-.54-1.166-1.2 0-.66.525-1.2 1.166-1.2Zm-1.982 8.754c.227-.234.525-.354.822-.354h.006c.297 0 .595.12.822.354l2.333 2.4c.454.467.454 1.23 0 1.697a1.146 1.146 0 0 1-1.651 0l-2.332-2.4a1.226 1.226 0 0 1 0-1.697Z"/>
</svg>
