<svg width="24" height="24" viewBox="0 0 24 24" fill="none" xmlns="http://www.w3.org/2000/svg">
<path d="M12 2C6.47715 2 2 6.47715 2 12C2 17.5228 6.47715 22 12 22C17.5228 22 22 17.5228 22 12C22 6.47715 17.5228 2 12 2Z" fill="#888888"/>
<path d="M9.28033 8.21967C8.98744 7.92678 8.51256 7.92678 8.21967 8.21967C7.92678 8.51256 7.92678 8.98744 8.21967 9.28033L10.9394 12L8.21967 14.7197C7.92678 15.0126 7.92678 15.4875 8.21967 15.7804C8.51256 16.0733 8.98744 16.0733 9.28033 15.7804L12 13.0607L14.7197 15.7804C15.0126 16.0733 15.4875 16.0733 15.7804 15.7804C16.0733 15.4875 16.0733 15.0126 15.7804 14.7197L13.0607 12L15.7804 9.28033C16.0733 8.98744 16.0733 8.51256 15.7804 8.21967C15.4875 7.92678 15.0126 7.92678 14.7197 8.21967L12 10.9394L9.28033 8.21967Z" fill="white"/>
</svg>
