<svg fill="none" viewBox="0 0 16 16" xmlns="http://www.w3.org/2000/svg">
  <g clip-path="url(#Bookmark-Add-16_svg__a)">
    <path fill="#000" d="M10 0a4.002 4.002 0 0 1 3.72 2.526c.144.365-.154.724-.545.724h-.056c-.28 0-.518-.19-.64-.441A2.75 2.75 0 0 0 10 1.25H6A2.75 2.75 0 0 0 3.25 4v9.685c0 .853.955 1.357 1.66.877l1.788-1.217a2.313 2.313 0 0 1 2.604 0l1.788 1.217.033.022a1.062 1.062 0 0 0 1.627-.9v-1.059a.625.625 0 1 1 1.25 0v1.06c0 1.857-2.08 2.956-3.614 1.91l-1.788-1.217a1.062 1.062 0 0 0-1.196 0l-1.788 1.218C4.08 16.64 2 15.542 2 13.685V4a4 4 0 0 1 4-4h4Zm3.374 5.001c.345 0 .625.28.625.625V7h1.376a.625.625 0 0 1 0 1.25h-1.376v1.376a.625.625 0 0 1-1.25 0V8.25h-1.374a.625.625 0 0 1 0-1.25h1.374V5.626c0-.345.28-.625.625-.625Z"/>
  </g>
  <defs>
    <clipPath id="Bookmark-Add-16_svg__a">
      <path fill="#fff" d="M0 0h16v16H0z"/>
    </clipPath>
  </defs>
</svg>
