<svg width="16" height="16" viewBox="0 0 16 16" fill="none" xmlns="http://www.w3.org/2000/svg">
<path fill-rule="evenodd" clip-rule="evenodd" d="M4.9701 0.686605C5.93059 0.288755 6.96004 0.0839844 7.99967 0.0839844C9.03931 0.0839844 10.0688 0.288755 11.0293 0.686605C11.1879 0.752311 11.3441 0.823072 11.4977 0.898737C11.8693 1.08176 12.0222 1.53136 11.8392 1.90294C11.6561 2.27453 11.2065 2.42739 10.8349 2.24436C10.7104 2.18304 10.5838 2.12568 10.4552 2.07242L10.7422 1.37951L10.4552 2.07242C9.67672 1.74996 8.84232 1.58398 7.99967 1.58398C7.15703 1.58398 6.32263 1.74996 5.54412 2.07242C4.76562 2.39489 4.05825 2.86754 3.46241 3.46338C2.86656 4.05923 2.39391 4.76659 2.07145 5.5451C1.74898 6.32361 1.58301 7.158 1.58301 8.00065V11.1673C1.58301 11.5815 1.24722 11.9173 0.833008 11.9173C0.418794 11.9173 0.0830078 11.5815 0.0830078 11.1673V8.00065C0.0830078 6.96102 0.287778 5.93157 0.685628 4.97107C1.08348 4.01058 1.66662 3.13785 2.40175 2.40272C3.13688 1.66759 4.0096 1.08445 4.9701 0.686605ZM5.99067 3.14963C6.62763 2.8858 7.31032 2.75 7.99976 2.75C8.6892 2.75 9.37188 2.8858 10.0088 3.14963C10.6458 3.41347 11.2246 3.80018 11.7121 4.28769C12.1996 4.7752 12.5863 5.35395 12.8501 5.99091L12.1572 6.27792L12.8501 5.99091C13.114 6.62787 13.2498 7.31056 13.2498 8V13.1667C13.2498 13.5809 12.914 13.9167 12.4998 13.9167C12.0855 13.9167 11.7498 13.5809 11.7498 13.1667V8C11.7498 7.50754 11.6528 7.01991 11.4643 6.56494C11.2758 6.10997 10.9996 5.69657 10.6514 5.34835C10.3032 5.00013 9.88979 4.72391 9.43482 4.53545C8.97985 4.347 8.49221 4.25 7.99976 4.25C7.5073 4.25 7.01966 4.347 6.56469 4.53545C6.10972 4.72391 5.69633 5.00013 5.34811 5.34835C4.99989 5.69657 4.72366 6.10997 4.53521 6.56494C4.34675 7.01991 4.24976 7.50754 4.24976 8V13.1667C4.24976 13.5809 3.91397 13.9167 3.49976 13.9167C3.08554 13.9167 2.74976 13.5809 2.74976 13.1667V8C2.74976 7.31056 2.88555 6.62787 3.14939 5.99091C3.41323 5.35395 3.79994 4.7752 4.28745 4.28769C4.77495 3.80018 5.35371 3.41347 5.99067 3.14963ZM13.7736 3.68958C14.1295 3.47766 14.5898 3.59437 14.8017 3.95026C14.9963 4.27703 15.1675 4.61813 15.3137 4.97107C15.7116 5.93157 15.9163 6.96102 15.9163 8.00065V11.1673C15.9163 11.5815 15.5806 11.9173 15.1663 11.9173C14.7521 11.9173 14.4163 11.5815 14.4163 11.1673V8.00065C14.4163 7.158 14.2504 6.3236 13.9279 5.5451L14.6208 5.25809L13.9279 5.5451C13.8094 5.25903 13.6706 4.98256 13.5129 4.71771C13.301 4.36181 13.4177 3.9015 13.7736 3.68958ZM7.01124 5.61266C7.32466 5.48284 7.66059 5.41602 7.99984 5.41602C8.33908 5.41602 8.67501 5.48284 8.98844 5.61266C9.30186 5.74249 9.58665 5.93277 9.82653 6.17266C10.0664 6.41254 10.2567 6.69733 10.3865 7.01075L9.69362 7.29776L10.3865 7.01075C10.5164 7.32417 10.5832 7.6601 10.5832 7.99935V15.0827C10.5832 15.4969 10.2474 15.8327 9.83317 15.8327C9.41896 15.8327 9.08317 15.4969 9.08317 15.0827V7.99935C9.08317 7.85708 9.05515 7.71621 9.00071 7.58478C8.94626 7.45334 8.86647 7.33391 8.76587 7.23332C8.66527 7.13272 8.54585 7.05292 8.41441 6.99848C8.28298 6.94404 8.1421 6.91602 7.99984 6.91602C7.85757 6.91602 7.7167 6.94404 7.58526 6.99848C7.45383 7.05292 7.3344 7.13272 7.23381 7.23332C7.13321 7.33391 7.05341 7.45334 6.99897 7.58478C6.94453 7.71621 6.9165 7.85708 6.9165 7.99935V8.49935C6.9165 8.91356 6.58072 9.24935 6.1665 9.24935C5.75229 9.24935 5.4165 8.91356 5.4165 8.49935V7.99935C5.4165 7.6601 5.48332 7.32417 5.61315 7.01075C5.74297 6.69733 5.93326 6.41254 6.17314 6.17266C6.41303 5.93277 6.69781 5.74249 7.01124 5.61266ZM6.1665 10.791C6.58072 10.791 6.9165 11.1268 6.9165 11.541V15.0827C6.9165 15.4969 6.58072 15.8327 6.1665 15.8327C5.75229 15.8327 5.4165 15.4969 5.4165 15.0827V11.541C5.4165 11.1268 5.75229 10.791 6.1665 10.791Z" fill="black" fill-opacity="0.84"/>
</svg>
