<svg width="24" height="24" viewBox="0 0 24 24" fill="none" xmlns="http://www.w3.org/2000/svg">
<path d="M20.0546 14.9071C20.1712 14.5856 20.4686 14.3577 20.8106 14.3577C21.3069 14.3577 21.6731 14.8232 21.5101 15.292C20.1482 19.209 16.4239 22.0204 12.043 22.0204C6.50884 22.0204 2.02254 17.5341 2.02254 11.9999C2.02254 6.46579 6.50884 1.97949 12.043 1.97949C15.5986 1.97949 18.7216 3.83138 20.5002 6.62323V4.24994C20.5002 3.83573 20.836 3.49994 21.2502 3.49994C21.6645 3.49994 22.0002 3.83573 22.0002 4.24994V7.00056C22.0002 8.38162 20.8806 9.49994 19.5002 9.49994H16.7502C16.336 9.49994 16.0002 9.16415 16.0002 8.74994C16.0002 8.33573 16.336 7.99994 16.7502 7.99994H19.5002C19.5226 7.99994 19.5449 7.9992 19.5669 7.99776C18.1339 5.30936 15.3021 3.47949 12.043 3.47949C7.33726 3.47949 3.52254 7.29422 3.52254 11.9999C3.52254 16.7056 7.33726 20.5204 12.043 20.5204C15.7277 20.5204 18.8662 18.1813 20.0546 14.9071Z" fill="black"/>
</svg>
