<svg width="24" height="24" viewBox="0 0 24 24" fill="none" xmlns="http://www.w3.org/2000/svg">
<path fill-rule="evenodd" clip-rule="evenodd" d="M11.307 4C11.1401 4 10.9965 4.11776 10.9638 4.28136L10.6357 5.92196L10.0793 6.10304C9.77159 6.20321 9.47434 6.32685 9.18967 6.47192L8.66804 6.73774L7.27524 5.8092C7.13642 5.71666 6.95158 5.73496 6.83361 5.85293L5.85318 6.83336C5.73521 6.95133 5.71691 7.13617 5.80945 7.27499L6.73799 8.66779L6.47217 9.18941C6.3271 9.47409 6.20345 9.77134 6.10329 10.0791L5.92221 10.6354L4.2816 10.9635C4.11801 10.9963 4.00024 11.1399 4.00024 11.3067V12.6933C4.00024 12.8601 4.118 13.0037 4.2816 13.0365L5.92221 13.3646L6.10329 13.9209C6.20346 14.2287 6.32711 14.5259 6.47218 14.8106L6.738 15.3322L5.80947 16.725C5.71692 16.8638 5.73523 17.0487 5.8532 17.1666L6.83362 18.1471C6.95159 18.265 7.13644 18.2833 7.27526 18.1908L8.66805 17.2623L9.18967 17.5281C9.47434 17.6731 9.77159 17.7968 10.0793 17.897L10.6357 18.078L10.9638 19.7186C10.9965 19.8822 11.1401 20 11.307 20H12.6935C12.8603 20 13.004 19.8822 13.0367 19.7186L13.3648 18.078L13.9212 17.897C14.2289 17.7968 14.5262 17.6732 14.8108 17.5281L15.3325 17.2623L16.7253 18.1908C16.8641 18.2833 17.0489 18.265 17.1669 18.1471L18.1473 17.1666C18.2653 17.0487 18.2836 16.8638 18.191 16.725L17.2625 15.3322L17.5283 14.8106C17.6734 14.5259 17.797 14.2287 17.8972 13.9209L18.0783 13.3646L19.7189 13.0365C19.8825 13.0037 20.0002 12.8601 20.0002 12.6933V11.3067C20.0002 11.1399 19.8825 10.9963 19.7189 10.9635L18.0783 10.6354L17.8972 10.0791C17.7971 9.77135 17.6734 9.4741 17.5283 9.18942L17.2625 8.6678L18.1911 7.27499C18.2836 7.13617 18.2653 6.95133 18.1473 6.83336L17.1669 5.85293C17.0489 5.73496 16.8641 5.71666 16.7253 5.8092L15.3325 6.73774L14.8108 6.47192C14.5262 6.32685 14.2289 6.2032 13.9212 6.10303L13.3648 5.92195L13.0367 4.28136C13.004 4.11776 12.8603 4 12.6935 4H11.307ZM9.00261 3.88913C9.2223 2.79068 10.1868 2 11.307 2H12.6935C13.8137 2 14.7782 2.79068 14.9979 3.88913L15.1014 4.40699C15.1265 4.41723 15.1515 4.4276 15.1764 4.43808L15.6159 4.1451C16.5479 3.52373 17.789 3.64662 18.5811 4.43872L19.5615 5.41914C20.3536 6.21125 20.4765 7.45233 19.8552 8.38439L19.5622 8.82386C19.5727 8.84878 19.583 8.87376 19.5933 8.8988L20.1111 9.00237C21.2096 9.22206 22.0002 10.1865 22.0002 11.3067V12.6933C22.0002 13.8135 21.2096 14.7779 20.1111 14.9976L19.5933 15.1012C19.583 15.1262 19.5727 15.1512 19.5622 15.1762L19.8551 15.6156C20.4765 16.5477 20.3536 17.7888 19.5615 18.5809L18.5811 19.5613C17.789 20.3534 16.5479 20.4763 15.6159 19.8549L15.1764 19.5619C15.1515 19.5724 15.1265 19.5828 15.1014 19.593L14.9979 20.1109C14.7782 21.2093 13.8137 22 12.6935 22H11.307C10.1868 22 9.2223 21.2093 9.00261 20.1109L8.89903 19.593C8.874 19.5828 8.84902 19.5724 8.82411 19.5619L8.38466 19.8549C7.4526 20.4763 6.21151 20.3534 5.41941 19.5613L4.43899 18.5809C3.64688 17.7888 3.52399 16.5477 4.14537 15.6156L4.43833 15.1762C4.42785 15.1512 4.41749 15.1263 4.40725 15.1012L3.88937 14.9976C2.79093 14.7779 2.00024 13.8135 2.00024 12.6933V11.3067C2.00024 10.1865 2.79093 9.22206 3.88937 9.00237L4.40725 8.89879C4.41749 8.87375 4.42785 8.84877 4.43833 8.82385L4.14536 8.38439C3.52398 7.45233 3.64687 6.21125 4.43897 5.41914L5.4194 4.43872C6.2115 3.64662 7.45258 3.52373 8.38464 4.1451L8.8241 4.43807C8.84902 4.4276 8.87399 4.41724 8.89903 4.40701L9.00261 3.88913ZM12.0002 10C10.8957 10 10.0002 10.8954 10.0002 12C10.0002 13.1046 10.8957 14 12.0002 14C13.1048 14 14.0002 13.1046 14.0002 12C14.0002 10.8954 13.1048 10 12.0002 10ZM8.00024 12C8.00024 9.79086 9.79111 8 12.0002 8C14.2094 8 16.0002 9.79086 16.0002 12C16.0002 14.2091 14.2094 16 12.0002 16C9.79111 16 8.00024 14.2091 8.00024 12Z" fill="black"/>
</svg>
