<?xml version="1.0" encoding="UTF-8"?>
<svg height="600" width="800" xmlns="http://www.w3.org/2000/svg" xmlns:xlink="http://www.w3.org/1999/xlink">
    <g id="Notes" font-family="'LucidaGrande', 'Lucida Grande', sans-serif" font-size="13">
        <rect fill="white" height="600.0" width="800.0" x="0.0" y="0.0" />
        <g font-size="13">
            <text x="18.0" y="176.0">Small</text>
            <text x="18.0" y="376.0">Medium</text>
            <text x="18.0" y="576.0">Large</text>
        </g>
        <g font-size="9">
            <text x="250.0" y="30.0">Ultralight</text>
            <text x="450.0" y="30.0">Regular</text>
            <text x="650.0" y="30.0">Black</text>
            <text id="template-version" fill="#505050" text-anchor="end" x="785.0" y="575.0">Template v.3.0</text>
            <a href="https://wangchujiang.com/#/app">
                <text fill="#505050" text-anchor="end" x="785.0" y="590.0">https://wangchujiang.com/#/app</text>
            </a>
        </g>
    </g>
    <g id="Guides" stroke="rgb(39, 170, 225)" stroke-width="0.5">
        <path id="Capline-S" d="M18,76 l800,0" />
        <path id="H-reference" d="M85,145.755 L87.685,145.755 L113.369,79.287 L114.052,79.287 L114.052,76 L112.148,76 L85,145.755 Z M95.693,121.536 L130.996,121.536 L130.263,119.313 L96.474,119.313 L95.693,121.536 Z M139.15,145.755 L141.787,145.755 L114.638,76 L113.466,76 L113.466,79.287 L139.15,145.755 Z" stroke="none" />
        <path id="Baseline-S" d="M18,146 l800,0" />
        <path id="left-margin-Ultralight-S" d="M221,56 l0,110" />
        <path id="right-margin-Ultralight-S" d="M309,56 l0,110" />
        <path id="left-margin-Regular-S" d="M421,56 l0,110" />
        <path id="right-margin-Regular-S" d="M509,56 l0,110" />
        <path id="left-margin-Black-S" d="M621,56 l0,110" />
        <path id="right-margin-Black-S" d="M709,56 l0,110" />
        <path id="Capline-M" d="M18,276 l800,0" />
        <path id="Baseline-M" d="M18,346 l800,0" />
        <path id="Capline-L" d="M18,476 l800,0" />
        <path id="Baseline-L" d="M18,546 l800,0" />
    </g>
    <g id="Symbols">
        <g id="Ultralight-S">
            <path d="M259.947,81.907 C260.645,81.721 261.393,81.891 261.941,82.363 C266.738,86.501 267.579,92.439 268.301,96.567 C268.68,98.737 268.92,102.634 271.796,102.876 C273.969,103.059 275.145,101.863 275.581,99.82 C275.927,98.202 275.772,96.615 275.644,94.989 C275.646,94.149 276.132,93.371 276.914,93.01 C277.809,92.598 278.869,92.832 279.503,93.585 C285.449,100.65 289.381,109.558 289.786,118.832 C289.903,124.374 288.239,129.627 284.309,133.567 C280.125,137.759 273.67,140.166 264.951,140.166 C255.259,140.166 247.437,136.035 243.313,129.462 C239.169,122.857 239.002,114.172 243.854,105.639 C246.341,101.443 249.281,97.599 252.228,93.719 C254.921,90.174 257.156,86.962 258.449,83.294 C258.726,82.624 259.226,82.099 259.947,81.907 Z M265,117.499 C263.847,119.245 262.638,120.829 261.704,122.202 C260.106,124.553 259.166,126.454 259.166,128.5 C259.166,130.811 259.854,132.514 260.836,133.609 C261.8,134.685 263.186,135.333 264.951,135.333 C267.216,135.333 268.562,134.629 269.386,133.655 C270.262,132.619 270.833,130.942 270.833,128.5 C270.833,126.454 269.893,124.553 268.295,122.202 C267.362,120.829 266.152,119.245 265,117.499 Z" />
            <path d="M272.101,81.833 C273.056,81.851 273.905,82.496 274.166,83.431 L274.376,84.408 C274.51,84.882 274.779,85.123 275.208,85.362 C276.612,86.23 276.506,88.375 275.091,89.139 C274.28,89.577 273.465,89.385 272.696,88.974 C271.791,88.448 271.138,87.745 270.691,86.917 C270.226,86.056 270.036,85.121 269.873,84.169 C269.786,82.905 270.846,81.809 272.101,81.833 Z" />
        </g>
        <g id="Regular-S">
            <path d="M459.947,81.907 C460.645,81.721 461.393,81.891 461.941,82.363 C466.738,86.501 467.579,92.439 468.301,96.567 C468.68,98.737 468.92,102.634 471.796,102.876 C473.969,103.059 475.145,101.863 475.581,99.82 C475.927,98.202 475.772,96.615 475.644,94.989 C475.646,94.149 476.132,93.371 476.914,93.01 C477.809,92.598 478.869,92.832 479.503,93.585 C485.449,100.65 489.381,109.558 489.786,118.832 C489.903,124.374 488.239,129.627 484.309,133.567 C480.125,137.759 473.67,140.166 464.951,140.166 C455.259,140.166 447.437,136.035 443.313,129.462 C439.169,122.857 439.002,114.172 443.854,105.639 C446.341,101.443 449.281,97.599 452.228,93.719 C454.921,90.174 457.156,86.962 458.449,83.294 C458.726,82.624 459.226,82.099 459.947,81.907 Z M465,117.499 C463.847,119.245 462.638,120.829 461.704,122.202 C460.106,124.553 459.166,126.454 459.166,128.5 C459.166,130.811 459.854,132.514 460.836,133.609 C461.8,134.685 463.186,135.333 464.951,135.333 C467.216,135.333 468.562,134.629 469.386,133.655 C470.262,132.619 470.833,130.942 470.833,128.5 C470.833,126.454 469.893,124.553 468.295,122.202 C467.362,120.829 466.152,119.245 465,117.499 Z" />
            <path d="M472.101,81.833 C473.056,81.851 473.905,82.496 474.166,83.431 L474.376,84.408 C474.51,84.882 474.779,85.123 475.208,85.362 C476.612,86.23 476.506,88.375 475.091,89.139 C474.28,89.577 473.465,89.385 472.696,88.974 C471.791,88.448 471.138,87.745 470.691,86.917 C470.226,86.056 470.036,85.121 469.873,84.169 C469.786,82.905 470.846,81.809 472.101,81.833 Z" />
        </g>
        <g id="Black-S">
            <path d="M659.947,81.907 C660.645,81.721 661.393,81.891 661.941,82.363 C666.738,86.501 667.579,92.439 668.301,96.567 C668.68,98.737 668.92,102.634 671.796,102.876 C673.969,103.059 675.145,101.863 675.581,99.82 C675.927,98.202 675.772,96.615 675.644,94.989 C675.646,94.149 676.132,93.371 676.914,93.01 C677.808,92.598 678.869,92.832 679.503,93.585 C685.449,100.65 689.381,109.558 689.786,118.832 C689.903,124.374 688.239,129.627 684.309,133.567 C680.125,137.759 673.67,140.166 664.951,140.166 C655.259,140.166 647.437,136.035 643.313,129.462 C639.169,122.857 639.002,114.172 643.854,105.639 C646.341,101.443 649.281,97.599 652.228,93.719 C654.921,90.174 657.156,86.962 658.449,83.294 C658.726,82.624 659.226,82.099 659.947,81.907 Z M665,117.499 C663.847,119.245 662.638,120.829 661.704,122.202 C660.106,124.553 659.166,126.454 659.166,128.5 C659.166,130.811 659.854,132.514 660.836,133.609 C661.8,134.685 663.186,135.333 664.951,135.333 C667.216,135.333 668.562,134.629 669.386,133.655 C670.262,132.619 670.833,130.942 670.833,128.5 C670.833,126.454 669.893,124.553 668.295,122.202 C667.362,120.829 666.152,119.245 665,117.499 Z" />
            <path d="M672.101,81.833 C673.056,81.851 673.905,82.496 674.166,83.431 L674.376,84.408 C674.51,84.882 674.779,85.123 675.208,85.362 C676.612,86.23 676.506,88.375 675.091,89.139 C674.28,89.577 673.465,89.385 672.696,88.974 C671.791,88.448 671.138,87.745 670.691,86.917 C670.226,86.056 670.036,85.121 669.873,84.169 C669.786,82.905 670.846,81.809 672.101,81.833 Z" />
        </g>
    </g>
</svg>