<?xml version="1.0" encoding="UTF-8"?>
<svg height="600" width="800" xmlns="http://www.w3.org/2000/svg" xmlns:xlink="http://www.w3.org/1999/xlink">
    <g id="Notes" font-family="'LucidaGrande', 'Lucida Grande', sans-serif" font-size="13">
        <rect fill="white" height="600.0" width="800.0" x="0.0" y="0.0" />
        <g font-size="13">
            <text x="18.0" y="176.0">Small</text>
            <text x="18.0" y="376.0">Medium</text>
            <text x="18.0" y="576.0">Large</text>
        </g>
        <g font-size="9">
            <text x="250.0" y="30.0">Ultralight</text>
            <text x="450.0" y="30.0">Regular</text>
            <text x="650.0" y="30.0">Black</text>
            <text id="template-version" fill="#505050" text-anchor="end" x="785.0" y="575.0">Template v.3.0</text>
            <a href="https://wangchujiang.com/#/app">
                <text fill="#505050" text-anchor="end" x="785.0" y="590.0">https://wangchujiang.com/#/app</text>
            </a>
        </g>
    </g>
    <g id="Guides" stroke="rgb(39, 170, 225)" stroke-width="0.5">
        <path id="Capline-S" d="M18,76 l800,0" />
        <path id="H-reference" d="M85,145.755 L87.685,145.755 L113.369,79.287 L114.052,79.287 L114.052,76 L112.148,76 L85,145.755 Z M95.693,121.536 L130.996,121.536 L130.263,119.313 L96.474,119.313 L95.693,121.536 Z M139.15,145.755 L141.787,145.755 L114.638,76 L113.466,76 L113.466,79.287 L139.15,145.755 Z" stroke="none" />
        <path id="Baseline-S" d="M18,146 l800,0" />
        <path id="left-margin-Ultralight-S" d="M221,56 l0,110" />
        <path id="right-margin-Ultralight-S" d="M309,56 l0,110" />
        <path id="left-margin-Regular-S" d="M421,56 l0,110" />
        <path id="right-margin-Regular-S" d="M509,56 l0,110" />
        <path id="left-margin-Black-S" d="M621,56 l0,110" />
        <path id="right-margin-Black-S" d="M709,56 l0,110" />
        <path id="Capline-M" d="M18,276 l800,0" />
        <path id="Baseline-M" d="M18,346 l800,0" />
        <path id="Capline-L" d="M18,476 l800,0" />
        <path id="Baseline-L" d="M18,546 l800,0" />
    </g>
    <g id="Symbols">
        <g id="Ultralight-S">
            <path d="M258.937,76.088 C259.777,75.865 260.673,76.071 261.331,76.638 C267.085,81.601 268.097,88.727 268.961,93.683 C269.416,96.287 269.703,100.963 273.158,101.253 C275.765,101.47 277.176,100.035 277.697,97.585 C278.114,95.643 277.928,93.735 277.774,91.789 C277.777,90.688 278.466,89.706 279.501,89.329 C280.535,88.953 281.694,89.261 282.405,90.102 C289.541,98.583 294.259,109.271 294.746,120.398 C294.886,127.048 292.891,133.355 288.173,138.08 C283.15,143.113 275.405,146 264.94,146 C253.31,146 243.923,141.044 238.97,133.155 C234,125.228 233.801,114.805 239.621,104.568 C242.607,99.531 246.135,94.918 249.673,90.263 C252.904,86.011 255.588,82.154 257.135,77.754 C257.434,76.944 258.103,76.325 258.934,76.088 Z M264.999,118.798 C263.617,120.895 262.164,122.795 261.044,124.444 C259.13,127.265 258,129.547 258,132 C258,134.776 258.826,136.816 260.005,138.132 C261.16,139.424 262.826,140.197 264.94,140.197 C267.659,140.197 269.276,139.357 270.263,138.185 C271.313,136.942 271.999,134.93 271.999,132 C271.999,129.547 270.872,127.265 268.954,124.44 C267.834,122.795 266.385,120.895 264.999,118.798 Z" />
            <path d="M273.522,76.001 C274.68,76.024 275.687,76.803 276,77.919 L276.252,79.091 C276.413,79.658 276.735,79.949 277.249,80.236 C278.936,81.279 278.807,83.851 277.109,84.768 C276.136,85.293 275.16,85.062 274.239,84.569 C273.221,83.989 272.386,83.133 271.831,82.101 C271.271,81.069 271.044,79.945 270.851,78.804 C270.812,78.073 271.076,77.358 271.58,76.827 C272.085,76.297 272.786,75.998 273.518,76.001 Z" />
        </g>
        <g id="Regular-S">
            <path d="M458.937,76.088 C459.777,75.865 460.673,76.071 461.331,76.638 C467.085,81.601 468.097,88.727 468.961,93.683 C469.416,96.287 469.703,100.963 473.158,101.253 C475.765,101.47 477.176,100.035 477.697,97.585 C478.114,95.643 477.928,93.735 477.774,91.789 C477.777,90.688 478.466,89.706 479.501,89.329 C480.535,88.953 481.694,89.261 482.405,90.102 C489.541,98.583 494.259,109.271 494.746,120.398 C494.886,127.048 492.891,133.355 488.173,138.08 C483.15,143.113 475.405,146 464.94,146 C453.31,146 443.923,141.044 438.97,133.155 C434,125.228 433.801,114.805 439.621,104.568 C442.607,99.531 446.135,94.918 449.673,90.263 C452.904,86.011 455.588,82.154 457.135,77.754 C457.434,76.944 458.103,76.325 458.934,76.088 Z M464.999,118.798 C463.617,120.895 462.164,122.795 461.044,124.444 C459.13,127.265 458,129.547 458,132 C458,134.776 458.826,136.816 460.005,138.132 C461.16,139.424 462.826,140.197 464.94,140.197 C467.659,140.197 469.276,139.357 470.263,138.185 C471.313,136.942 471.999,134.93 471.999,132 C471.999,129.547 470.872,127.265 468.954,124.44 C467.834,122.795 466.385,120.895 464.999,118.798 Z" />
            <path d="M473.522,76.001 C474.68,76.024 475.687,76.803 476,77.919 L476.252,79.091 C476.413,79.658 476.735,79.949 477.249,80.236 C478.936,81.279 478.807,83.851 477.109,84.768 C476.136,85.293 475.16,85.062 474.239,84.569 C473.221,83.989 472.386,83.133 471.831,82.101 C471.271,81.069 471.044,79.945 470.851,78.804 C470.812,78.073 471.076,77.358 471.58,76.827 C472.085,76.297 472.786,75.998 473.518,76.001 Z" />
        </g>
        <g id="Black-S">
            <path d="M658.938,76.088 C659.777,75.865 660.673,76.071 661.331,76.638 C667.085,81.601 668.097,88.727 668.961,93.683 C669.416,96.287 669.703,100.963 673.158,101.253 C675.765,101.47 677.176,100.035 677.697,97.585 C678.114,95.643 677.928,93.735 677.774,91.789 C677.777,90.688 678.466,89.706 679.501,89.329 C680.535,88.953 681.694,89.261 682.405,90.102 C689.541,98.583 694.259,109.271 694.746,120.398 C694.886,127.048 692.891,133.355 688.173,138.08 C683.15,143.113 675.405,146 664.94,146 C653.31,146 643.923,141.044 638.97,133.155 C634,125.228 633.801,114.805 639.621,104.568 C642.607,99.531 646.135,94.918 649.673,90.263 C652.904,86.011 655.588,82.154 657.135,77.754 C657.434,76.944 658.103,76.325 658.934,76.088 Z M664.999,118.798 C663.617,120.895 662.164,122.795 661.044,124.444 C659.13,127.265 658,129.547 658,132 C658,134.776 658.826,136.816 660.005,138.132 C661.16,139.424 662.826,140.197 664.94,140.197 C667.659,140.197 669.276,139.357 670.263,138.185 C671.313,136.942 671.999,134.93 671.999,132 C671.999,129.547 670.872,127.265 668.954,124.44 C667.834,122.795 666.385,120.895 664.999,118.798 Z" />
            <path d="M673.522,76.001 C674.68,76.024 675.687,76.803 676,77.919 L676.252,79.091 C676.413,79.658 676.735,79.949 677.249,80.236 C678.936,81.279 678.807,83.851 677.109,84.768 C676.136,85.293 675.16,85.062 674.239,84.569 C673.221,83.989 672.386,83.133 671.831,82.101 C671.271,81.069 671.044,79.945 670.851,78.804 C670.812,78.073 671.076,77.358 671.58,76.827 C672.085,76.297 672.786,75.998 673.518,76.001 Z" />
        </g>
    </g>
</svg>