<?xml version="1.0" encoding="UTF-8"?>
<svg height="600" width="800" xmlns="http://www.w3.org/2000/svg" xmlns:xlink="http://www.w3.org/1999/xlink">
    <g id="Notes" font-family="'LucidaGrande', 'Lucida Grande', sans-serif" font-size="13">
        <rect fill="white" height="600.0" width="800.0" x="0.0" y="0.0" />
        <g font-size="13">
            <text x="18.0" y="176.0">Small</text>
            <text x="18.0" y="376.0">Medium</text>
            <text x="18.0" y="576.0">Large</text>
        </g>
        <g font-size="9">
            <text x="250.0" y="30.0">Ultralight</text>
            <text x="450.0" y="30.0">Regular</text>
            <text x="650.0" y="30.0">Black</text>
            <text id="template-version" fill="#505050" text-anchor="end" x="785.0" y="575.0">Template v.3.0</text>
            <a href="https://wangchujiang.com/#/app">
                <text fill="#505050" text-anchor="end" x="785.0" y="590.0">https://wangchujiang.com/#/app</text>
            </a>
        </g>
    </g>
    <g id="Guides" stroke="rgb(39, 170, 225)" stroke-width="0.5">
        <path id="Capline-S" d="M18,76 l800,0" />
        <path id="H-reference" d="M85,145.755 L87.685,145.755 L113.369,79.287 L114.052,79.287 L114.052,76 L112.148,76 L85,145.755 Z M95.693,121.536 L130.996,121.536 L130.263,119.313 L96.474,119.313 L95.693,121.536 Z M139.15,145.755 L141.787,145.755 L114.638,76 L113.466,76 L113.466,79.287 L139.15,145.755 Z" stroke="none" />
        <path id="Baseline-S" d="M18,146 l800,0" />
        <path id="left-margin-Ultralight-S" d="M221,56 l0,110" />
        <path id="right-margin-Ultralight-S" d="M309,56 l0,110" />
        <path id="left-margin-Regular-S" d="M421,56 l0,110" />
        <path id="right-margin-Regular-S" d="M509,56 l0,110" />
        <path id="left-margin-Black-S" d="M621,56 l0,110" />
        <path id="right-margin-Black-S" d="M709,56 l0,110" />
        <path id="Capline-M" d="M18,276 l800,0" />
        <path id="Baseline-M" d="M18,346 l800,0" />
        <path id="Capline-L" d="M18,476 l800,0" />
        <path id="Baseline-L" d="M18,546 l800,0" />
    </g>
    <g id="Symbols">
        <g id="Ultralight-S">
            <path d="M259.578,82.217 C260.231,82.01 260.943,82.11 261.513,82.49 C264.417,84.427 265.896,87.133 266.815,89.831 C267.269,91.166 267.6,92.537 267.891,93.83 C268.191,95.158 268.442,96.366 268.76,97.551 C268.808,97.73 269.065,98.449 269.636,99.081 C270.149,99.648 270.922,100.166 272.222,100.166 C273.452,100.166 274.16,99.764 274.606,99.363 C275.099,98.92 275.388,98.364 275.544,97.974 C275.663,97.675 275.793,97.006 275.954,96.118 C276.019,95.758 276.097,95.321 276.18,94.991 C276.211,94.865 276.292,94.548 276.451,94.239 C276.499,94.145 276.75,93.641 277.326,93.29 C277.68,93.075 278.194,92.898 278.801,92.974 C279.313,93.038 279.697,93.258 279.951,93.461 L280.052,93.546 L280.228,93.709 C281.618,95.022 290.278,103.764 290.278,118.222 C290.278,127.308 283.793,134.72 275.256,138.001 C274.29,138.372 273.196,138.039 272.6,137.194 C272.005,136.348 272.061,135.206 272.736,134.422 C274.16,132.768 274.931,130.524 274.931,128.04 C274.931,125.999 273.696,123.623 271.386,120.832 C269.536,118.596 267.276,116.409 264.993,114.167 C262.694,116.396 260.46,118.476 258.6,120.68 C256.324,123.376 255.07,125.759 255.069,128.04 C255.07,130.524 255.84,132.768 257.264,134.422 C257.939,135.206 257.995,136.348 257.4,137.194 C256.804,138.039 255.71,138.372 254.744,138.001 C246.207,134.72 239.722,127.308 239.722,118.222 C239.722,110.206 243.179,105.18 247.084,100.379 C250.986,95.58 255.267,91.042 258.155,83.556 L258.204,83.437 C258.467,82.856 258.966,82.411 259.578,82.217 Z" />
        </g>
        <g id="Regular-S">
            <path d="M459.578,82.217 C460.231,82.01 460.943,82.11 461.513,82.49 C464.417,84.427 465.896,87.133 466.815,89.831 C467.269,91.166 467.6,92.537 467.891,93.83 C468.191,95.158 468.442,96.366 468.76,97.551 C468.808,97.73 469.065,98.449 469.636,99.081 C470.149,99.648 470.922,100.166 472.222,100.166 C473.452,100.166 474.16,99.764 474.606,99.363 C475.099,98.92 475.388,98.364 475.544,97.974 C475.663,97.675 475.793,97.006 475.954,96.118 C476.019,95.758 476.097,95.321 476.18,94.991 C476.212,94.865 476.292,94.548 476.451,94.239 C476.499,94.145 476.75,93.641 477.326,93.29 C477.68,93.075 478.194,92.898 478.801,92.974 C479.313,93.038 479.697,93.258 479.951,93.461 L480.052,93.546 L480.228,93.709 C481.618,95.022 490.278,103.764 490.278,118.222 C490.278,127.308 483.793,134.72 475.256,138.001 C474.29,138.372 473.196,138.039 472.6,137.194 C472.005,136.348 472.061,135.206 472.736,134.422 C474.16,132.768 474.931,130.524 474.931,128.04 C474.931,125.999 473.696,123.623 471.386,120.832 C469.536,118.596 467.276,116.409 464.994,114.167 C462.694,116.396 460.46,118.476 458.6,120.68 C456.324,123.376 455.07,125.759 455.069,128.04 C455.07,130.524 455.84,132.768 457.264,134.422 C457.939,135.206 457.995,136.348 457.4,137.194 C456.804,138.039 455.71,138.372 454.744,138.001 C446.207,134.72 439.722,127.308 439.722,118.222 C439.722,110.206 443.179,105.18 447.084,100.379 C450.986,95.58 455.267,91.042 458.155,83.556 L458.204,83.437 C458.467,82.856 458.966,82.411 459.578,82.217 Z" />
        </g>
        <g id="Black-S">
            <path d="M659.578,82.217 C660.231,82.01 660.943,82.11 661.513,82.49 C664.417,84.427 665.896,87.133 666.815,89.831 C667.269,91.166 667.6,92.537 667.891,93.83 C668.191,95.158 668.442,96.366 668.76,97.551 C668.808,97.73 669.065,98.449 669.636,99.081 C670.149,99.648 670.922,100.166 672.222,100.166 C673.452,100.166 674.16,99.764 674.606,99.363 C675.099,98.92 675.388,98.364 675.544,97.974 C675.663,97.675 675.793,97.006 675.954,96.118 C676.019,95.758 676.097,95.321 676.18,94.991 C676.212,94.865 676.292,94.548 676.451,94.239 C676.499,94.145 676.75,93.641 677.326,93.29 C677.68,93.075 678.194,92.898 678.801,92.974 C679.313,93.038 679.697,93.258 679.951,93.461 L680.052,93.546 L680.228,93.709 C681.618,95.022 690.278,103.764 690.278,118.222 C690.278,127.308 683.793,134.72 675.256,138.001 C674.29,138.372 673.196,138.039 672.6,137.194 C672.005,136.348 672.061,135.206 672.736,134.422 C674.16,132.768 674.931,130.524 674.931,128.04 C674.931,125.999 673.696,123.623 671.386,120.832 C669.536,118.596 667.276,116.409 664.994,114.167 C662.694,116.396 660.46,118.476 658.6,120.68 C656.324,123.376 655.07,125.759 655.069,128.04 C655.07,130.524 655.84,132.768 657.264,134.422 C657.939,135.206 657.995,136.348 657.4,137.194 C656.804,138.039 655.71,138.372 654.744,138.001 C646.207,134.72 639.722,127.308 639.722,118.222 C639.722,110.206 643.179,105.18 647.084,100.379 C650.986,95.58 655.267,91.042 658.155,83.556 L658.204,83.437 C658.467,82.856 658.966,82.411 659.578,82.217 Z" />
        </g>
    </g>
</svg>