<svg fill="none" viewBox="0 0 16 16" xmlns="http://www.w3.org/2000/svg">
  <g fill="#000" fill-rule="evenodd" clip-path="url(#Profile-Lock-16_svg__a)" clip-rule="evenodd">
    <path d="M12.5 7.75a2.5 2.5 0 0 1 2.5 2.5V11h.148c.47 0 .852.382.852.852v3.296c0 .47-.382.852-.852.852H9.852A.852.852 0 0 1 9 15.148v-3.296c0-.47.382-.852.852-.852H10v-.75a2.5 2.5 0 0 1 2.5-2.5Zm0 1.25c-.69 0-1.25.56-1.25 1.25V11h2.5v-.75c0-.69-.56-1.25-1.25-1.25Z"/>
    <path d="M8 0a8.003 8.003 0 0 1 7.962 7.225c.04.413-.594.574-.897.29a3.77 3.77 0 0 0-.36-.298 6.75 6.75 0 1 0-12.19 4.717A6.532 6.532 0 0 1 7.56 8.968a3 3 0 1 1 3.31-2.097 3.764 3.764 0 0 0-1.837 1.946 2.98 2.98 0 0 1-.595.15c.174.012.346.03.517.056a3.736 3.736 0 0 0-.201 1.036c-.12.074-.233.16-.335.255a5.19 5.19 0 0 0-4.97 2.672 6.724 6.724 0 0 0 4.3 1.76v.402c0 .41-.287.845-.695.796A8.001 8.001 0 0 1 8 0Zm0 4.25a1.75 1.75 0 1 0 0 3.5 1.75 1.75 0 0 0 0-3.5Z"/>
  </g>
  <defs>
    <clipPath id="Profile-Lock-16_svg__a">
      <path fill="#fff" d="M0 0h16v16H0z"/>
    </clipPath>
  </defs>
</svg>
