<svg fill="none" viewBox="0 0 16 16" xmlns="http://www.w3.org/2000/svg">
  <path fill="#000" d="M12.5 9a3.5 3.5 0 1 1 0 7 3.5 3.5 0 0 1 0-7ZM6.498.03a.625.625 0 0 1 .536.075l.074.05c.756.533 1.148 1.26 1.394 1.983.126.37.218.75.299 1.107.083.368.152.703.24 1.03l.008.026c.025.074.096.245.235.398.142.157.356.301.716.301.34 0 .537-.111.66-.222.136-.123.216-.277.26-.385l.012-.036c.03-.094.063-.263.101-.478.018-.1.04-.221.063-.312.009-.035.03-.123.075-.208.013-.026.083-.166.242-.263a.634.634 0 0 1 .727.047l.028.023.049.046c.29.274 1.727 1.72 2.415 4.135.116.406-.332.735-.736.611A4.75 4.75 0 0 0 12.5 7.75a4.742 4.742 0 0 0-3.765 1.854c-.24-.24-.488-.483-.737-.727-.636.617-1.255 1.193-1.77 1.803-.63.747-.978 1.407-.978 2.039 0 .688.213 1.31.608 1.767a.625.625 0 0 1-.673 1l-.025-.009C2.796 14.57 1 12.516 1 10c0-2.22.957-3.611 2.039-4.941C4.119 3.73 5.305 2.473 6.104.4l.014-.033a.625.625 0 0 1 .38-.338Zm3.877 11.845a.5.5 0 0 0-.5.5v.25a.5.5 0 0 0 .5.5h4.25a.5.5 0 0 0 .5-.5v-.25a.5.5 0 0 0-.5-.5h-4.25Z"/>
</svg>
