<?xml version="1.0" encoding="UTF-8"?>
<svg height="600" width="800" xmlns="http://www.w3.org/2000/svg" xmlns:xlink="http://www.w3.org/1999/xlink">
    <g id="Notes" font-family="'LucidaGrande', 'Lucida Grande', sans-serif" font-size="13">
        <rect fill="white" height="600.0" width="800.0" x="0.0" y="0.0" />
        <g font-size="13">
            <text x="18.0" y="176.0">Small</text>
            <text x="18.0" y="376.0">Medium</text>
            <text x="18.0" y="576.0">Large</text>
        </g>
        <g font-size="9">
            <text x="250.0" y="30.0">Ultralight</text>
            <text x="450.0" y="30.0">Regular</text>
            <text x="650.0" y="30.0">Black</text>
            <text id="template-version" fill="#505050" text-anchor="end" x="785.0" y="575.0">Template v.3.0</text>
            <a href="https://wangchujiang.com/#/app">
                <text fill="#505050" text-anchor="end" x="785.0" y="590.0">https://wangchujiang.com/#/app</text>
            </a>
        </g>
    </g>
    <g id="Guides" stroke="rgb(39, 170, 225)" stroke-width="0.5">
        <path id="Capline-S" d="M18,76 l800,0" />
        <path id="H-reference" d="M85,145.755 L87.685,145.755 L113.369,79.287 L114.052,79.287 L114.052,76 L112.148,76 L85,145.755 Z M95.693,121.536 L130.996,121.536 L130.263,119.313 L96.474,119.313 L95.693,121.536 Z M139.15,145.755 L141.787,145.755 L114.638,76 L113.466,76 L113.466,79.287 L139.15,145.755 Z" stroke="none" />
        <path id="Baseline-S" d="M18,146 l800,0" />
        <path id="left-margin-Ultralight-S" d="M221,56 l0,110" />
        <path id="right-margin-Ultralight-S" d="M309,56 l0,110" />
        <path id="left-margin-Regular-S" d="M421,56 l0,110" />
        <path id="right-margin-Regular-S" d="M509,56 l0,110" />
        <path id="left-margin-Black-S" d="M621,56 l0,110" />
        <path id="right-margin-Black-S" d="M709,56 l0,110" />
        <path id="Capline-M" d="M18,276 l800,0" />
        <path id="Baseline-M" d="M18,346 l800,0" />
        <path id="Capline-L" d="M18,476 l800,0" />
        <path id="Baseline-L" d="M18,546 l800,0" />
    </g>
    <g id="Symbols">
        <g id="Ultralight-S">
            <path d="M260.624,81.833 C246.932,81.833 235.832,92.933 235.832,106.625 C235.832,120.317 246.932,131.417 260.624,131.417 C266.683,131.417 272.233,129.244 276.54,125.634 L290.433,139.528 C291.288,140.382 292.672,140.382 293.527,139.528 C294.381,138.673 294.381,137.288 293.527,136.434 L279.633,122.541 C283.243,118.234 285.416,112.684 285.416,106.625 C285.416,92.933 274.316,81.833 260.624,81.833 Z M240.207,106.625 C240.207,95.349 249.348,86.208 260.624,86.208 C271.9,86.208 281.041,95.349 281.041,106.625 C281.041,117.901 271.9,127.042 260.624,127.042 C249.348,127.042 240.207,117.901 240.207,106.625 Z" />
        </g>
        <g id="Regular-S">
            <path d="M460.624,81.833 C446.932,81.833 435.832,92.933 435.832,106.625 C435.832,120.317 446.932,131.417 460.624,131.417 C466.683,131.417 472.233,129.244 476.54,125.634 L490.433,139.528 C491.288,140.382 492.672,140.382 493.527,139.528 C494.381,138.673 494.381,137.288 493.527,136.434 L479.633,122.541 C483.243,118.234 485.416,112.684 485.416,106.625 C485.416,92.933 474.316,81.833 460.624,81.833 Z M440.207,106.625 C440.207,95.349 449.348,86.208 460.624,86.208 C471.9,86.208 481.041,95.349 481.041,106.625 C481.041,117.901 471.9,127.042 460.624,127.042 C449.348,127.042 440.207,117.901 440.207,106.625 Z" />
        </g>
        <g id="Black-S">
            <path d="M660.624,81.833 C646.932,81.833 635.832,92.933 635.832,106.625 C635.832,120.317 646.932,131.417 660.624,131.417 C666.682,131.417 672.233,129.244 676.54,125.634 L690.433,139.528 C691.288,140.382 692.672,140.382 693.527,139.528 C694.381,138.673 694.381,137.288 693.527,136.434 L679.633,122.541 C683.243,118.234 685.416,112.684 685.416,106.625 C685.416,92.933 674.316,81.833 660.624,81.833 Z M640.207,106.625 C640.207,95.349 649.348,86.208 660.624,86.208 C671.9,86.208 681.041,95.349 681.041,106.625 C681.041,117.901 671.9,127.042 660.624,127.042 C649.348,127.042 640.207,117.901 640.207,106.625 Z" />
        </g>
    </g>
</svg>