<?xml version="1.0" encoding="UTF-8"?>
<svg height="600" width="800" xmlns="http://www.w3.org/2000/svg" xmlns:xlink="http://www.w3.org/1999/xlink">
    <g id="Notes" font-family="'LucidaGrande', 'Lucida Grande', sans-serif" font-size="13">
        <rect fill="white" height="600.0" width="800.0" x="0.0" y="0.0" />
        <g font-size="13">
            <text x="18.0" y="176.0">Small</text>
            <text x="18.0" y="376.0">Medium</text>
            <text x="18.0" y="576.0">Large</text>
        </g>
        <g font-size="9">
            <text x="250.0" y="30.0">Ultralight</text>
            <text x="450.0" y="30.0">Regular</text>
            <text x="650.0" y="30.0">Black</text>
            <text id="template-version" fill="#505050" text-anchor="end" x="785.0" y="575.0">Template v.3.0</text>
            <a href="https://wangchujiang.com/#/app">
                <text fill="#505050" text-anchor="end" x="785.0" y="590.0">https://wangchujiang.com/#/app</text>
            </a>
        </g>
    </g>
    <g id="Guides" stroke="rgb(39, 170, 225)" stroke-width="0.5">
        <path id="Capline-S" d="M18,76 l800,0" />
        <path id="H-reference" d="M85,145.755 L87.685,145.755 L113.369,79.287 L114.052,79.287 L114.052,76 L112.148,76 L85,145.755 Z M95.693,121.536 L130.996,121.536 L130.263,119.313 L96.474,119.313 L95.693,121.536 Z M139.15,145.755 L141.787,145.755 L114.638,76 L113.466,76 L113.466,79.287 L139.15,145.755 Z" stroke="none" />
        <path id="Baseline-S" d="M18,146 l800,0" />
        <path id="left-margin-Ultralight-S" d="M221,56 l0,110" />
        <path id="right-margin-Ultralight-S" d="M309,56 l0,110" />
        <path id="left-margin-Regular-S" d="M421,56 l0,110" />
        <path id="right-margin-Regular-S" d="M509,56 l0,110" />
        <path id="left-margin-Black-S" d="M621,56 l0,110" />
        <path id="right-margin-Black-S" d="M709,56 l0,110" />
        <path id="Capline-M" d="M18,276 l800,0" />
        <path id="Baseline-M" d="M18,346 l800,0" />
        <path id="Capline-L" d="M18,476 l800,0" />
        <path id="Baseline-L" d="M18,546 l800,0" />
    </g>
    <g id="Symbols">
        <g id="Ultralight-S">
            <path d="M261.389,82.111 C275.349,82.111 286.667,93.428 286.667,107.389 C286.667,113.556 284.456,119.207 280.787,123.594 L293.228,136.036 L293.308,136.121 C294.108,137.007 294.082,138.374 293.228,139.228 C292.374,140.082 291.007,140.108 290.121,139.308 L290.036,139.228 L277.594,126.787 C273.207,130.456 267.556,132.667 261.389,132.667 C247.428,132.667 236.111,121.349 236.111,107.389 C236.111,93.428 247.428,82.111 261.389,82.111 Z M261.389,86.625 C249.921,86.625 240.625,95.921 240.625,107.389 C240.625,118.856 249.921,128.153 261.389,128.153 C272.856,128.153 282.153,118.856 282.153,107.389 C282.153,95.921 272.856,86.625 261.389,86.625 Z" />
        </g>
        <g id="Regular-S">
            <path d="M461.389,82.111 C475.349,82.111 486.667,93.428 486.667,107.389 C486.667,113.556 484.456,119.207 480.787,123.594 L493.228,136.036 L493.308,136.121 C494.108,137.007 494.082,138.374 493.228,139.228 C492.374,140.082 491.007,140.108 490.121,139.308 L490.036,139.228 L477.594,126.787 C473.207,130.456 467.556,132.667 461.389,132.667 C447.428,132.667 436.111,121.349 436.111,107.389 C436.111,93.428 447.428,82.111 461.389,82.111 Z M461.389,86.625 C449.921,86.625 440.625,95.921 440.625,107.389 C440.625,118.856 449.921,128.153 461.389,128.153 C472.856,128.153 482.153,118.856 482.153,107.389 C482.153,95.921 472.856,86.625 461.389,86.625 Z" />
        </g>
        <g id="Black-S">
            <path d="M661.389,82.111 C675.349,82.111 686.667,93.428 686.667,107.389 C686.667,113.556 684.456,119.207 680.787,123.594 L693.228,136.036 L693.308,136.121 C694.108,137.007 694.082,138.374 693.228,139.228 C692.374,140.082 691.007,140.108 690.121,139.308 L690.036,139.228 L677.594,126.787 C673.207,130.456 667.556,132.667 661.389,132.667 C647.428,132.667 636.111,121.349 636.111,107.389 C636.111,93.428 647.428,82.111 661.389,82.111 Z M661.389,86.625 C649.921,86.625 640.625,95.921 640.625,107.389 C640.625,118.856 649.921,128.153 661.389,128.153 C672.856,128.153 682.153,118.856 682.153,107.389 C682.153,95.921 672.856,86.625 661.389,86.625 Z" />
        </g>
    </g>
</svg>