<svg fill="none" viewBox="0 0 16 16" xmlns="http://www.w3.org/2000/svg">
  <path fill="#000" d="M12.5 9a3.5 3.5 0 1 1 0 7 3.5 3.5 0 0 1 0-7ZM12 1a4 4 0 0 1 4 4v2.697c0 .565-.753.887-1.25.619V5A2.75 2.75 0 0 0 12 2.25H4A2.75 2.75 0 0 0 1.25 5v6A2.75 2.75 0 0 0 4 13.75h3.917c.156.576-.228 1.25-.824 1.25H4a4 4 0 0 1-4-4V5a4 4 0 0 1 4-4h8Zm-1.625 10.875a.5.5 0 0 0-.5.5v.25a.5.5 0 0 0 .5.5h4.25a.5.5 0 0 0 .5-.5v-.25a.5.5 0 0 0-.5-.5h-4.25Zm-3.027-6.8a4.085 4.085 0 0 1 2.614.36c.85.42 1.65 1.153 2.37 2.246l.046.07a4.74 4.74 0 0 0-1.359.235c-.4-.535-.803-.919-1.197-1.187a1.997 1.997 0 0 1-.105 1.851c-.307.223-.586.48-.832.769a2 2 0 0 1-2.76-2.49c-.605.41-1.12.96-1.468 1.524a.625.625 0 1 1-1.064-.656c.736-1.193 2.115-2.413 3.755-2.723Z"/>
</svg>
