<svg fill="none" viewBox="0 0 128 96" xmlns="http://www.w3.org/2000/svg">
  <path fill="#888" d="m106.572 34-1.543-.4a.875.875 0 0 1-.629-.629l-.4-1.542a.84.84 0 0 0-.8-.629c-.4 0-.743.286-.8.629l-.4 1.543a.876.876 0 0 1-.628.628l-1.543.4a.841.841 0 0 0-.629.8c0 .4.286.743.629.8l1.543.4a.876.876 0 0 1 .628.629l.4 1.543a.84.84 0 0 0 .8.628c.4 0 .743-.286.8-.628l.4-1.543a.875.875 0 0 1 .629-.629l1.543-.4a.84.84 0 0 0 .628-.8c0-.4-.286-.743-.628-.8ZM112 54c-1.1 0-2 .9-2 2s.9 2 2 2 2-.9 2-2-.9-2-2-2Zm-85.943 8.8-2.314-.6c-.429-.086-.857-.514-.943-.943l-.6-2.314c-.171-.6-.686-.943-1.2-.943-.6 0-1.114.428-1.2.943l-.6 2.314c-.086.429-.514.857-.943.943l-2.314.6c-.6.171-.943.686-.943 1.2 0 .6.429 1.114.943 1.2l2.314.6c.429.086.857.514.943.943l.6 2.314c.171.6.686.943 1.2.943.6 0 1.114-.429 1.2-.943l.6-2.314c.086-.429.514-.857.943-.943l2.314-.6c.6-.172.943-.686.943-1.2 0-.6-.429-1.114-.943-1.2ZM7.371 42.2l-1.542-.4a.876.876 0 0 1-.629-.629l-.4-1.543A.841.841 0 0 0 4 39c-.4 0-.743.286-.8.628l-.4 1.543a.876.876 0 0 1-.629.629l-1.542.4A.841.841 0 0 0 0 43c0 .4.286.743.629.8l1.542.4a.875.875 0 0 1 .629.628l.4 1.543c.114.4.457.629.8.629.4 0 .743-.286.8-.629l.4-1.543a.875.875 0 0 1 .629-.628l1.542-.4A.841.841 0 0 0 8 43c0-.4-.286-.743-.629-.8ZM126.5 45c-.825 0-1.5.675-1.5 1.5s.675 1.5 1.5 1.5 1.5-.675 1.5-1.5-.675-1.5-1.5-1.5ZM23 27c-1.1 0-2 .9-2 2s.9 2 2 2 2-.9 2-2-.9-2-2-2Z" opacity=".2"/>
  <path fill="url(#AI-128_svg__a)" d="M64.02 24c1.117 0 2.234.669 2.568 2.005l1.48 5.922a22.053 22.053 0 0 0 16.046 16.046l5.923 1.48c1.346.336 2.013 1.467 2.004 2.59-.01 1.11-.677 2.213-2.004 2.545l-5.923 1.48a22.053 22.053 0 0 0-16.046 16.046l-1.48 5.923c-.334 1.336-1.45 2.004-2.567 2.004-.157 0-.314-.014-.47-.041h-3.55v-7h.193l-.221-.886a22.053 22.053 0 0 0-16.045-16.046l-5.923-1.48c-1.327-.332-1.996-1.435-2.005-2.544-.01-1.124.66-2.255 2.005-2.59l5.923-1.481a22.053 22.053 0 0 0 16.045-16.046l.231-.927H60v-7h4.02Z"/>
  <path fill="url(#AI-128_svg__b)" d="M57.453 26.005C57.787 24.668 58.904 24 60.021 24c1.116 0 2.233.668 2.567 2.005l1.48 5.922a22.052 22.052 0 0 0 16.046 16.046l5.923 1.48c1.345.337 2.013 1.466 2.004 2.59-.009 1.11-.677 2.213-2.004 2.545l-5.923 1.48A22.052 22.052 0 0 0 64.07 72.115l-1.481 5.923c-.334 1.336-1.45 2.004-2.567 2.004-1.117 0-2.233-.668-2.568-2.004l-1.48-5.923A22.053 22.053 0 0 0 39.927 56.07l-5.922-1.481c-1.328-.332-1.996-1.435-2.005-2.544-.01-1.124.66-2.254 2.005-2.59l5.922-1.481a22.053 22.053 0 0 0 16.046-16.046l1.48-5.922Z"/>
  <path fill="#557FF3" d="M84.102 16.701c.233-.935 1.563-.935 1.796 0l1.072 4.286a5.557 5.557 0 0 0 4.043 4.043l4.285 1.072c.936.233.936 1.563 0 1.796l-4.285 1.072a5.557 5.557 0 0 0-4.043 4.043l-1.072 4.285c-.233.936-1.563.936-1.796 0l-1.072-4.285a5.557 5.557 0 0 0-4.043-4.043l-4.285-1.072c-.936-.233-.936-1.563 0-1.796l4.285-1.072a5.557 5.557 0 0 0 4.043-4.043l1.072-4.285Z"/>
  <defs>
    <linearGradient id="AI-128_svg__a" x1="64.021" x2="64.021" y1="80.041" y2="24" gradientUnits="userSpaceOnUse">
      <stop stop-color="#2B55CA"/>
      <stop offset="1" stop-color="#8FABF9"/>
    </linearGradient>
    <linearGradient id="AI-128_svg__b" x1="60.021" x2="60.021" y1="80.041" y2="24" gradientUnits="userSpaceOnUse">
      <stop stop-color="#5981F3"/>
      <stop offset="1" stop-color="#A7B7FD"/>
    </linearGradient>
  </defs>
</svg>
