<?xml version="1.0" encoding="UTF-8"?>
<svg height="600" width="800" xmlns="http://www.w3.org/2000/svg" xmlns:xlink="http://www.w3.org/1999/xlink">
    <g id="Notes" font-family="'LucidaGrande', 'Lucida Grande', sans-serif" font-size="13">
        <rect fill="white" height="600.0" width="800.0" x="0.0" y="0.0" />
        <g font-size="13">
            <text x="18.0" y="176.0">Small</text>
            <text x="18.0" y="376.0">Medium</text>
            <text x="18.0" y="576.0">Large</text>
        </g>
        <g font-size="9">
            <text x="250.0" y="30.0">Ultralight</text>
            <text x="450.0" y="30.0">Regular</text>
            <text x="650.0" y="30.0">Black</text>
            <text id="template-version" fill="#505050" text-anchor="end" x="785.0" y="575.0">Template v.3.0</text>
            <a href="https://wangchujiang.com/#/app">
                <text fill="#505050" text-anchor="end" x="785.0" y="590.0">https://wangchujiang.com/#/app</text>
            </a>
        </g>
    </g>
    <g id="Guides" stroke="rgb(39, 170, 225)" stroke-width="0.5">
        <path id="Capline-S" d="M18,76 l800,0" />
        <path id="H-reference" d="M85,145.755 L87.685,145.755 L113.369,79.287 L114.052,79.287 L114.052,76 L112.148,76 L85,145.755 Z M95.693,121.536 L130.996,121.536 L130.263,119.313 L96.474,119.313 L95.693,121.536 Z M139.15,145.755 L141.787,145.755 L114.638,76 L113.466,76 L113.466,79.287 L139.15,145.755 Z" stroke="none" />
        <path id="Baseline-S" d="M18,146 l800,0" />
        <path id="left-margin-Ultralight-S" d="M221,56 l0,110" />
        <path id="right-margin-Ultralight-S" d="M309,56 l0,110" />
        <path id="left-margin-Regular-S" d="M421,56 l0,110" />
        <path id="right-margin-Regular-S" d="M509,56 l0,110" />
        <path id="left-margin-Black-S" d="M621,56 l0,110" />
        <path id="right-margin-Black-S" d="M709,56 l0,110" />
        <path id="Capline-M" d="M18,276 l800,0" />
        <path id="Baseline-M" d="M18,346 l800,0" />
        <path id="Capline-L" d="M18,476 l800,0" />
        <path id="Baseline-L" d="M18,546 l800,0" />
    </g>
    <g id="Symbols">
        <g id="Ultralight-S">
            <path d="M289.375,101.972 C289.375,93.496 282.504,86.625 274.027,86.625 C265.552,86.625 258.68,93.496 258.68,101.972 C258.68,102.762 258.74,103.538 258.855,104.295 C259.212,106.647 258.751,109.421 256.766,111.406 L256.766,111.407 L242.212,125.961 C241.196,126.977 240.625,128.354 240.625,129.791 L240.625,129.959 L240.632,130.238 C240.778,133.099 243.144,135.376 246.042,135.376 L246.945,135.376 L247.084,135.372 C248.469,135.302 249.579,134.191 249.649,132.807 L249.653,132.667 L249.653,131.312 C249.653,129.568 251.068,128.153 252.813,128.153 L255.488,128.153 L264.434,119.207 C266.435,117.206 269.236,116.754 271.603,117.129 C272.392,117.254 273.202,117.319 274.027,117.319 C282.504,117.319 289.375,110.448 289.375,101.972 Z M278.542,100.167 C278.542,98.718 277.404,97.535 275.973,97.462 L275.834,97.458 C274.338,97.458 273.125,98.671 273.125,100.167 C273.125,101.662 274.338,102.875 275.834,102.875 L275.973,102.871 C277.404,102.799 278.542,101.616 278.542,100.167 Z M293.889,101.972 C293.889,112.941 284.996,121.833 274.027,121.833 C272.964,121.833 271.918,121.749 270.897,121.588 C269.502,121.367 268.319,121.707 267.626,122.399 L258.548,131.477 C257.787,132.238 256.754,132.667 255.676,132.667 L254.167,132.667 L254.167,132.667 L254.165,132.854 C254.067,136.694 250.972,139.79 247.131,139.887 L246.945,139.889 L246.042,139.889 C240.643,139.889 236.251,135.581 236.115,130.215 L236.111,129.959 L236.111,129.791 C236.111,127.157 237.158,124.631 239.02,122.769 L253.573,108.215 C254.261,107.527 254.602,106.356 254.392,104.972 C254.244,103.993 254.166,102.991 254.166,101.972 C254.166,91.003 263.059,82.111 274.027,82.111 C284.996,82.111 293.889,91.003 293.889,101.972 Z M283.056,100.167 C283.056,104.093 279.923,107.288 276.02,107.387 L275.834,107.389 C271.845,107.389 268.611,104.155 268.611,100.167 C268.611,96.178 271.845,92.944 275.834,92.944 C279.822,92.945 283.056,96.178 283.056,100.167 Z" />
        </g>
        <g id="Regular-S">
            <path d="M489.375,101.972 C489.375,93.496 482.504,86.625 474.028,86.625 C465.552,86.625 458.68,93.496 458.68,101.972 C458.68,102.762 458.74,103.538 458.855,104.295 C459.212,106.647 458.751,109.421 456.766,111.406 L456.766,111.407 L442.212,125.961 C441.196,126.977 440.625,128.354 440.625,129.791 L440.625,129.959 L440.632,130.238 C440.778,133.099 443.144,135.376 446.042,135.376 L446.945,135.376 L447.084,135.372 C448.469,135.302 449.579,134.191 449.649,132.807 L449.653,132.667 L449.653,131.312 C449.653,129.568 451.068,128.153 452.813,128.153 L455.488,128.153 L464.434,119.207 C466.435,117.206 469.236,116.754 471.603,117.129 C472.392,117.254 473.202,117.319 474.028,117.319 C482.504,117.319 489.375,110.448 489.375,101.972 Z M478.542,100.167 C478.542,98.718 477.404,97.535 475.973,97.462 L475.834,97.458 C474.338,97.458 473.125,98.671 473.125,100.167 C473.125,101.662 474.338,102.875 475.834,102.875 L475.973,102.871 C477.404,102.799 478.542,101.616 478.542,100.167 Z M493.889,101.972 C493.889,112.941 484.997,121.833 474.028,121.833 C472.964,121.833 471.918,121.749 470.897,121.588 C469.502,121.367 468.319,121.707 467.626,122.399 L458.548,131.477 C457.787,132.238 456.754,132.667 455.676,132.667 L454.167,132.667 L454.167,132.667 L454.165,132.854 C454.067,136.694 450.972,139.79 447.131,139.887 L446.945,139.889 L446.042,139.889 C440.643,139.889 436.251,135.581 436.115,130.215 L436.111,129.959 L436.111,129.791 C436.111,127.157 437.158,124.631 439.02,122.769 L453.573,108.215 C454.261,107.527 454.602,106.356 454.392,104.972 C454.244,103.993 454.166,102.991 454.166,101.972 C454.166,91.003 463.059,82.111 474.028,82.111 C484.997,82.111 493.889,91.003 493.889,101.972 Z M483.056,100.167 C483.056,104.093 479.923,107.288 476.02,107.387 L475.834,107.389 C471.845,107.389 468.611,104.155 468.611,100.167 C468.611,96.178 471.845,92.944 475.834,92.944 C479.822,92.945 483.056,96.178 483.056,100.167 Z" />
        </g>
        <g id="Black-S">
            <path d="M689.375,101.972 C689.375,93.496 682.504,86.625 674.027,86.625 C665.552,86.625 658.68,93.496 658.68,101.972 C658.68,102.762 658.74,103.538 658.855,104.295 C659.212,106.647 658.751,109.421 656.766,111.406 L656.766,111.407 L642.212,125.961 C641.196,126.977 640.625,128.354 640.625,129.791 L640.625,129.959 L640.632,130.238 C640.778,133.099 643.144,135.376 646.042,135.376 L646.945,135.376 L647.084,135.372 C648.469,135.302 649.579,134.191 649.649,132.807 L649.653,132.667 L649.653,131.312 C649.653,129.568 651.068,128.153 652.813,128.153 L655.488,128.153 L664.434,119.207 C666.435,117.206 669.236,116.754 671.603,117.129 C672.392,117.254 673.202,117.319 674.027,117.319 C682.504,117.319 689.375,110.448 689.375,101.972 Z M678.542,100.167 C678.542,98.718 677.404,97.535 675.973,97.462 L675.834,97.458 C674.338,97.458 673.125,98.671 673.125,100.167 C673.125,101.662 674.338,102.875 675.834,102.875 L675.973,102.871 C677.404,102.799 678.542,101.616 678.542,100.167 Z M693.889,101.972 C693.889,112.941 684.996,121.833 674.027,121.833 C672.964,121.833 671.918,121.749 670.897,121.588 C669.502,121.367 668.319,121.707 667.626,122.399 L658.548,131.477 C657.787,132.238 656.754,132.667 655.676,132.667 L654.167,132.667 L654.167,132.667 L654.165,132.854 C654.067,136.694 650.972,139.79 647.131,139.887 L646.945,139.889 L646.042,139.889 C640.643,139.889 636.251,135.581 636.115,130.215 L636.111,129.959 L636.111,129.791 C636.111,127.157 637.158,124.631 639.02,122.769 L653.573,108.215 C654.261,107.527 654.602,106.356 654.392,104.972 C654.244,103.993 654.166,102.991 654.166,101.972 C654.166,91.003 663.059,82.111 674.027,82.111 C684.996,82.111 693.889,91.003 693.889,101.972 Z M683.056,100.167 C683.056,104.093 679.923,107.288 676.02,107.387 L675.834,107.389 C671.845,107.389 668.611,104.155 668.611,100.167 C668.611,96.178 671.845,92.944 675.834,92.944 C679.822,92.945 683.056,96.178 683.056,100.167 Z" />
        </g>
    </g>
</svg>