<?xml version="1.0" encoding="UTF-8"?>
<svg height="600" width="800" xmlns="http://www.w3.org/2000/svg" xmlns:xlink="http://www.w3.org/1999/xlink">
    <g id="Notes" font-family="'LucidaGrande', 'Lucida Grande', sans-serif" font-size="13">
        <rect fill="white" height="600.0" width="800.0" x="0.0" y="0.0" />
        <g font-size="13">
            <text x="18.0" y="176.0">Small</text>
            <text x="18.0" y="376.0">Medium</text>
            <text x="18.0" y="576.0">Large</text>
        </g>
        <g font-size="9">
            <text x="250.0" y="30.0">Ultralight</text>
            <text x="450.0" y="30.0">Regular</text>
            <text x="650.0" y="30.0">Black</text>
            <text id="template-version" fill="#505050" text-anchor="end" x="785.0" y="575.0">Template v.3.0</text>
            <a href="https://wangchujiang.com/#/app">
                <text fill="#505050" text-anchor="end" x="785.0" y="590.0">https://wangchujiang.com/#/app</text>
            </a>
        </g>
    </g>
    <g id="Guides" stroke="rgb(39, 170, 225)" stroke-width="0.5">
        <path id="Capline-S" d="M18,76 l800,0" />
        <path id="H-reference" d="M85,145.755 L87.685,145.755 L113.369,79.287 L114.052,79.287 L114.052,76 L112.148,76 L85,145.755 Z M95.693,121.536 L130.996,121.536 L130.263,119.313 L96.474,119.313 L95.693,121.536 Z M139.15,145.755 L141.787,145.755 L114.638,76 L113.466,76 L113.466,79.287 L139.15,145.755 Z" stroke="none" />
        <path id="Baseline-S" d="M18,146 l800,0" />
        <path id="left-margin-Ultralight-S" d="M221,56 l0,110" />
        <path id="right-margin-Ultralight-S" d="M309,56 l0,110" />
        <path id="left-margin-Regular-S" d="M421,56 l0,110" />
        <path id="right-margin-Regular-S" d="M509,56 l0,110" />
        <path id="left-margin-Black-S" d="M621,56 l0,110" />
        <path id="right-margin-Black-S" d="M709,56 l0,110" />
        <path id="Capline-M" d="M18,276 l800,0" />
        <path id="Baseline-M" d="M18,346 l800,0" />
        <path id="Capline-L" d="M18,476 l800,0" />
        <path id="Baseline-L" d="M18,546 l800,0" />
    </g>
    <g id="Symbols">
        <g id="Ultralight-S">
            <path d="M275.208,93.5 C279.235,93.5 282.5,96.765 282.5,100.792 C282.5,104.818 279.235,108.083 275.208,108.083 C271.181,108.083 267.917,104.819 267.917,100.792 C267.917,96.765 271.181,93.5 275.208,93.5 Z M275.208,97.875 C273.598,97.875 272.292,99.181 272.292,100.792 C272.292,102.402 273.598,103.708 275.208,103.708 C276.819,103.708 278.125,102.402 278.125,100.792 C278.125,99.181 276.819,97.875 275.208,97.875 Z" />
            <path d="M273.744,81.833 C285.025,81.834 294.167,90.985 294.167,102.27 C294.166,113.554 285.024,122.703 273.744,122.704 C272.034,122.704 270.369,122.492 268.777,122.094 C268.3,121.975 267.941,122.118 267.769,122.291 L260.312,129.753 C259.218,130.848 257.732,131.462 256.185,131.462 L253.319,131.462 L253.319,133.604 C253.319,137.228 250.381,140.167 246.757,140.167 L243.863,140.167 C239.45,140.167 235.865,136.602 235.842,132.188 L235.833,130.747 C235.818,127.829 236.972,125.025 239.035,122.96 L253.735,108.248 C253.907,108.076 254.048,107.716 253.929,107.24 C253.531,105.647 253.322,103.981 253.322,102.27 C253.322,90.985 262.464,81.833 273.744,81.833 Z M273.744,86.208 C264.883,86.208 257.697,93.399 257.697,102.27 C257.697,103.621 257.863,104.931 258.176,106.181 C258.605,107.899 258.255,109.911 256.828,111.339 L242.128,126.051 C240.89,127.289 240.199,128.973 240.208,130.725 L240.217,132.166 C240.228,134.171 241.857,135.792 243.863,135.792 L246.757,135.792 C247.965,135.792 248.944,134.812 248.944,133.604 L248.944,131.462 C248.945,129.047 250.903,127.087 253.319,127.087 L256.185,127.087 C256.571,127.087 256.942,126.934 257.216,126.66 L264.675,119.197 C266.104,117.768 268.119,117.42 269.839,117.85 C271.087,118.162 272.395,118.329 273.744,118.329 C282.605,118.328 289.791,111.141 289.792,102.27 C289.792,93.399 282.606,86.209 273.744,86.208 Z" />
        </g>
        <g id="Regular-S">
            <path d="M475.208,93.5 C479.235,93.5 482.5,96.765 482.5,100.792 C482.5,104.818 479.235,108.083 475.208,108.083 C471.181,108.083 467.917,104.819 467.917,100.792 C467.917,96.765 471.181,93.5 475.208,93.5 Z M475.208,97.875 C473.598,97.875 472.292,99.181 472.292,100.792 C472.292,102.402 473.598,103.708 475.208,103.708 C476.819,103.708 478.125,102.402 478.125,100.792 C478.125,99.181 476.819,97.875 475.208,97.875 Z" />
            <path d="M473.744,81.833 C485.025,81.834 494.167,90.985 494.167,102.27 C494.166,113.554 485.024,122.703 473.744,122.704 C472.034,122.704 470.369,122.492 468.777,122.094 C468.3,121.975 467.941,122.118 467.769,122.291 L460.312,129.753 C459.218,130.848 457.732,131.462 456.185,131.462 L453.319,131.462 L453.319,133.604 C453.319,137.228 450.381,140.167 446.757,140.167 L443.863,140.167 C439.45,140.167 435.865,136.602 435.842,132.188 L435.833,130.747 C435.818,127.829 436.972,125.025 439.035,122.96 L453.735,108.248 C453.907,108.076 454.048,107.716 453.929,107.24 C453.531,105.647 453.322,103.981 453.322,102.27 C453.322,90.985 462.464,81.833 473.744,81.833 Z M473.744,86.208 C464.883,86.208 457.697,93.399 457.697,102.27 C457.697,103.621 457.863,104.931 458.176,106.181 C458.605,107.899 458.255,109.911 456.828,111.339 L442.128,126.051 C440.89,127.289 440.199,128.973 440.208,130.725 L440.217,132.166 C440.228,134.171 441.857,135.792 443.863,135.792 L446.757,135.792 C447.965,135.792 448.944,134.812 448.944,133.604 L448.944,131.462 C448.945,129.047 450.903,127.087 453.319,127.087 L456.185,127.087 C456.571,127.087 456.942,126.934 457.216,126.66 L464.675,119.197 C466.104,117.768 468.119,117.42 469.839,117.85 C471.087,118.162 472.395,118.329 473.744,118.329 C482.605,118.328 489.791,111.141 489.792,102.27 C489.792,93.399 482.606,86.209 473.744,86.208 Z" />
        </g>
        <g id="Black-S">
            <path d="M675.208,93.5 C679.235,93.5 682.5,96.765 682.5,100.792 C682.5,104.818 679.235,108.083 675.208,108.083 C671.181,108.083 667.917,104.819 667.917,100.792 C667.917,96.765 671.181,93.5 675.208,93.5 Z M675.208,97.875 C673.598,97.875 672.292,99.181 672.292,100.792 C672.292,102.402 673.598,103.708 675.208,103.708 C676.819,103.708 678.125,102.402 678.125,100.792 C678.125,99.181 676.819,97.875 675.208,97.875 Z" />
            <path d="M673.744,81.833 C685.025,81.834 694.167,90.985 694.167,102.27 C694.166,113.554 685.024,122.703 673.744,122.704 C672.034,122.704 670.369,122.492 668.777,122.094 C668.3,121.975 667.941,122.118 667.768,122.291 L660.312,129.753 C659.218,130.848 657.732,131.462 656.185,131.462 L653.319,131.462 L653.319,133.604 C653.319,137.228 650.381,140.167 646.757,140.167 L643.863,140.167 C639.449,140.167 635.865,136.602 635.842,132.188 L635.833,130.747 C635.818,127.829 636.972,125.025 639.035,122.96 L653.735,108.248 C653.907,108.076 654.048,107.716 653.929,107.24 C653.531,105.647 653.322,103.981 653.322,102.27 C653.322,90.985 662.464,81.833 673.744,81.833 Z M673.744,86.208 C664.883,86.208 657.697,93.399 657.697,102.27 C657.697,103.621 657.863,104.931 658.176,106.181 C658.605,107.899 658.255,109.911 656.828,111.339 L642.128,126.051 C640.89,127.289 640.199,128.973 640.208,130.725 L640.217,132.166 C640.228,134.171 641.857,135.792 643.863,135.792 L646.757,135.792 C647.965,135.792 648.944,134.812 648.944,133.604 L648.944,131.462 C648.945,129.047 650.903,127.087 653.319,127.087 L656.185,127.087 C656.571,127.087 656.942,126.934 657.216,126.66 L664.675,119.197 C666.104,117.768 668.119,117.42 669.839,117.85 C671.087,118.162 672.395,118.329 673.744,118.329 C682.605,118.328 689.791,111.141 689.792,102.27 C689.792,93.399 682.606,86.209 673.744,86.208 Z" />
        </g>
    </g>
</svg>