<svg fill="none" viewBox="0 0 16 16" xmlns="http://www.w3.org/2000/svg">
  <g clip-path="url(#Shield-Check-Color-16_svg__a)">
    <path fill="url(#Shield-Check-Color-16_svg__b)" d="m5.306 2.27.991-.962a2.375 2.375 0 0 1 3.325.016l.948.939c.42.416 1.034.57 1.602.403l.42-.123a2.125 2.125 0 0 1 2.725 1.987l.05 2.038a8.5 8.5 0 0 1-4.904 7.908l-1.405.656a2.5 2.5 0 0 1-2.115 0l-1.406-.656A8.5 8.5 0 0 1 .634 6.567l.049-2.012a2.125 2.125 0 0 1 2.743-1.981l.275.083c.566.173 1.18.024 1.605-.388Z"/>
    <path fill="url(#Shield-Check-Color-16_svg__c)" d="M6.297 1.308a2.375 2.375 0 0 1 3.325.016l.948.939c.42.416 1.034.57 1.602.403l.42-.123a2.125 2.125 0 0 1 2.725 1.987l.05 2.038a8.5 8.5 0 0 1-4.904 7.907l-1.405.657a2.5 2.5 0 0 1-2.115 0l-1.406-.657A8.5 8.5 0 0 1 .634 6.568l.049-2.012a2.125 2.125 0 0 1 2.743-1.982l.275.084c.565.173 1.18.023 1.605-.388l.991-.962Z"/>
    <path fill="url(#Shield-Check-Color-16_svg__d)" fill-rule="evenodd" d="M9.328 1.632a1.875 1.875 0 0 0-2.698-.027l-.974.99a2.127 2.127 0 0 1-2.113.549l-.429-.126a1.625 1.625 0 0 0-2.081 1.52l-.05 2.078a8 8 0 0 0 4.572 7.422l1.588.753a2 2 0 0 0 1.713 0l1.562-.74A8 8 0 0 0 14.99 6.59l-.06-2.079a1.625 1.625 0 0 0-2.073-1.514l-.517.148a2.125 2.125 0 0 1-2.13-.582l-.88-.931ZM5.917.904a2.875 2.875 0 0 1 4.138.04l.88.932c.29.305.724.424 1.128.308l.517-.148a2.625 2.625 0 0 1 3.349 2.447l.06 2.078a9 9 0 0 1-5.142 8.393l-1.563.74a3 3 0 0 1-2.569 0l-1.588-.752a9 9 0 0 1-5.144-8.35l.05-2.078a2.625 2.625 0 0 1 3.363-2.456l.429.126c.397.117.827.005 1.118-.29l.974-.99Z" clip-rule="evenodd"/>
    <path fill="#fff" fill-rule="evenodd" d="M11.854 5.146a.5.5 0 0 1 0 .708l-5 5a.5.5 0 0 1-.708 0l-2-2a.5.5 0 1 1 .708-.708L6.5 9.793l4.647-4.647a.5.5 0 0 1 .707 0Z" clip-rule="evenodd"/>
  </g>
  <defs>
    <linearGradient id="Shield-Check-Color-16_svg__b" x1="8" x2="8" y1=".562" y2="15.625" gradientUnits="userSpaceOnUse">
      <stop stop-color="#63C853"/>
      <stop offset="1" stop-color="#288419"/>
    </linearGradient>
    <linearGradient id="Shield-Check-Color-16_svg__c" x1="8" x2="8" y1=".579" y2="15.62" gradientUnits="userSpaceOnUse">
      <stop stop-color="#7BD66D"/>
      <stop offset="1" stop-color="#288419"/>
    </linearGradient>
    <linearGradient id="Shield-Check-Color-16_svg__d" x1="7.987" x2="7.987" y1=".229" y2="15.861" gradientUnits="userSpaceOnUse">
      <stop stop-color="#4CBA3C"/>
      <stop offset="1" stop-color="#1A690D"/>
    </linearGradient>
    <clipPath id="Shield-Check-Color-16_svg__a">
      <path fill="#fff" d="M0 0h16v16H0z"/>
    </clipPath>
  </defs>
</svg>
