<svg width="16" height="17" viewBox="0 0 16 17" fill="none" xmlns="http://www.w3.org/2000/svg">
<g id="Icon" clip-path="url(#clip0_6178_25451)">
<path id="Intersect" d="M5.30545 2.77026L6.29712 1.80812C7.225 0.907883 8.7025 0.91517 9.62145 1.82452L10.5698 2.76295C10.9905 3.17921 11.6042 3.33387 12.1718 3.1667L12.5922 3.04291C13.9329 2.64809 15.2832 3.63287 15.3169 5.03012L15.366 7.06828C15.4474 10.444 13.5229 13.5478 10.463 14.9758L9.05726 15.6318C8.38714 15.9445 7.61295 15.9445 6.94283 15.6318L5.53708 14.9758C2.47715 13.5478 0.552656 10.444 0.634078 7.06828L0.682601 5.05651C0.716497 3.6512 2.08111 2.66546 3.42589 3.07488L3.70062 3.15852C4.26636 3.33076 4.88101 3.18205 5.30545 2.77026Z" fill="url(#paint0_linear_6178_25451)"/>
<path id="Vector 658 (Stroke)" fill-rule="evenodd" clip-rule="evenodd" d="M9.32845 2.13193C8.59874 1.3605 7.37462 1.34842 6.62983 2.10531L5.65598 3.09499C5.10676 3.65313 4.29509 3.864 3.54365 3.64377L3.11474 3.51806C2.08991 3.2177 1.05892 3.97065 1.03317 5.03828L0.983055 7.11575C0.906827 10.2758 2.69849 13.1845 5.55503 14.5381L7.14361 15.2908C7.68568 15.5477 8.3144 15.5477 8.85646 15.2908L10.4187 14.5506C13.2878 13.191 15.0815 10.2634 14.9896 7.08971L14.9295 5.01144C14.8988 3.95078 13.8763 3.20364 12.8564 3.49663L12.3397 3.6451C11.5765 3.86435 10.7548 3.63983 10.2091 3.06299L9.32845 2.13193ZM5.91705 1.40393C7.05906 0.243364 8.93604 0.261881 10.0549 1.44475L10.9356 2.3758C11.2245 2.68119 11.6595 2.80005 12.0636 2.68397L12.5803 2.53551C14.2278 2.06221 15.8795 3.26914 15.929 4.98251L15.9892 7.06078C16.0925 10.6311 14.0747 13.9247 10.8469 15.4543L9.28468 16.1945C8.47159 16.5798 7.52849 16.5798 6.7154 16.1945L5.12682 15.4418C1.91321 13.919 -0.102411 10.6467 -0.0166546 7.09163L0.0334584 5.01416C0.0750598 3.28954 1.74051 2.07323 3.39599 2.55843L3.82491 2.68413C4.22273 2.80073 4.65243 2.68909 4.9432 2.39361L5.91705 1.40393Z" fill="url(#paint1_linear_6178_25451)"/>
<path id="Path (Stroke)" fill-rule="evenodd" clip-rule="evenodd" d="M11.2888 5.59191C11.5142 5.75142 11.5677 6.06347 11.4081 6.28888L7.86967 11.2889C7.78415 11.4097 7.64948 11.4864 7.50193 11.4984C7.35438 11.5104 7.20911 11.4563 7.10525 11.3508L4.64372 8.85084C4.44997 8.65407 4.45243 8.3375 4.6492 8.14376C4.84597 7.95001 5.16254 7.95247 5.35628 8.14924L7.39858 10.2234L10.5919 5.71121C10.7514 5.4858 11.0634 5.43239 11.2888 5.59191Z" fill="white"/>
</g>
<defs>
<linearGradient id="paint0_linear_6178_25451" x1="8.00005" y1="1.0792" x2="8.00005" y2="16.1205" gradientUnits="userSpaceOnUse">
<stop stop-color="#7BD66D"/>
<stop offset="1" stop-color="#288419"/>
</linearGradient>
<linearGradient id="paint1_linear_6178_25451" x1="7.98686" y1="0.729311" x2="7.98686" y2="16.3609" gradientUnits="userSpaceOnUse">
<stop stop-color="#4CBA3C"/>
<stop offset="1" stop-color="#1A690D"/>
</linearGradient>
<clipPath id="clip0_6178_25451">
<rect width="16" height="16" fill="white" transform="translate(0 0.5)"/>
</clipPath>
</defs>
</svg>
