<svg fill="none" viewBox="0 0 16 16" xmlns="http://www.w3.org/2000/svg">
  <g clip-path="url(#Ai-Chat-OnDark-Color-16_svg__a)">
    <path fill="url(#Ai-Chat-OnDark-Color-16_svg__b)" d="M1.164 14.763c-.441.51-.014 1.284.65 1.17 2.655-.457 7.306-1.338 9.199-2.206C13.938 12.667 16 10.111 16 7.125 16 3.19 12.418 0 8 0S0 3.19 0 7.125c0 1.974.902 3.76 2.358 5.051.32.283.38.773.1 1.095z"/>
    <path fill="url(#Ai-Chat-OnDark-Color-16_svg__c)" d="M15 7.125c0 2.495-1.729 4.72-4.328 5.662l-.039.014-.037.017c-.838.384-2.376.803-4.114 1.19a99 99 0 0 1-4.03.797l.762-.878c.68-.785.487-1.898-.193-2.5-1.227-1.087-1.973-2.55-2.019-4.147L1 7.125C1 3.848 4.022 1 8 1V0l-.207.003C3.54.099.11 3.153.003 6.94L0 7.125c0 1.913.846 3.649 2.223 4.929l.135.122c.32.283.38.773.1 1.096l-1.293 1.491c-.442.51-.015 1.284.65 1.17 2.654-.456 7.305-1.338 9.198-2.206C13.938 12.667 16 10.111 16 7.125l-.002-.184C15.888 3.091 12.349.001 8 .001v1c3.916 0 6.905 2.759 6.998 5.97z"/>
    <path fill="#fff" d="M7.632 2.787c.096-.383.64-.383.736 0l.438 1.753c.203.815.84 1.45 1.654 1.654l1.753.438c.383.096.383.64 0 .736l-1.753.438c-.815.203-1.45.84-1.654 1.654l-.438 1.753c-.096.383-.64.383-.736 0L7.194 9.46A2.27 2.27 0 0 0 5.54 7.806l-1.753-.438c-.383-.096-.383-.64 0-.736l1.753-.438A2.27 2.27 0 0 0 7.194 4.54z"/>
    <path fill="url(#Ai-Chat-OnDark-Color-16_svg__d)" d="M6.662 2.544C7 1.195 8.867 1.154 9.3 2.418l.038.126.438 1.753c.114.457.47.813.927.927l1.753.438c1.392.348 1.392 2.328 0 2.676l-1.753.438c-.457.114-.813.47-.927.927l-.438 1.753c-.348 1.392-2.328 1.392-2.676 0l-.438-1.753a1.27 1.27 0 0 0-.927-.927l-1.753-.438c-1.392-.348-1.392-2.328 0-2.676l1.753-.438c.457-.114.813-.47.927-.927zM8 5.271A3.27 3.27 0 0 1 6.27 7 3.27 3.27 0 0 1 8 8.729 3.27 3.27 0 0 1 9.729 7 3.27 3.27 0 0 1 8 5.27Z"/>
    <path fill="#2B55CA" d="M7.632 2.787c.096-.383.64-.383.736 0l.438 1.753c.203.815.84 1.45 1.654 1.654l1.753.438c.383.096.383.64 0 .736l-1.753.438c-.815.203-1.45.84-1.654 1.654l-.438 1.753c-.096.383-.64.383-.736 0L7.194 9.46A2.27 2.27 0 0 0 5.54 7.806l-1.753-.438c-.383-.096-.383-.64 0-.736l1.753-.438A2.27 2.27 0 0 0 7.194 4.54z"/>
  </g>
  <defs>
    <linearGradient id="Ai-Chat-OnDark-Color-16_svg__b" x1="8" x2="8" y1="0" y2="15.944" gradientUnits="userSpaceOnUse">
      <stop stop-color="#CCDAFF"/>
      <stop offset="1" stop-color="#8FABF9"/>
    </linearGradient>
    <linearGradient id="Ai-Chat-OnDark-Color-16_svg__c" x1="8" x2="8" y1="15.944" y2="0" gradientUnits="userSpaceOnUse">
      <stop stop-color="#557FF3"/>
      <stop offset="1" stop-color="#ADC2FC"/>
    </linearGradient>
    <linearGradient id="Ai-Chat-OnDark-Color-16_svg__d" x1="8" x2="8" y1="2.5" y2="11.5" gradientUnits="userSpaceOnUse">
      <stop stop-color="#CCDAFF"/>
      <stop offset="1" stop-color="#ADC2FC"/>
    </linearGradient>
    <clipPath id="Ai-Chat-OnDark-Color-16_svg__a">
      <path fill="#fff" d="M0 0h16v16H0z"/>
    </clipPath>
  </defs>
</svg>
