<svg fill="none" viewBox="0 0 16 16" xmlns="http://www.w3.org/2000/svg">
  <g clip-path="url(#Ai-General-Color-16_svg__a)">
    <path fill="url(#Ai-General-Color-16_svg__b)" d="M6.904 2.465A.6.6 0 0 1 7.5 2a.6.6 0 0 1 .596.465l.343 1.374a5.116 5.116 0 0 0 3.722 3.722l1.374.343a.6.6 0 0 1 .465.601.6.6 0 0 1-.465.59l-1.374.344a5.116 5.116 0 0 0-3.722 3.722l-.343 1.374A.6.6 0 0 1 7.5 15a.6.6 0 0 1-.596-.465l-.343-1.374A5.116 5.116 0 0 0 2.839 9.44l-1.374-.343A.6.6 0 0 1 1 8.506a.6.6 0 0 1 .465-.602l1.374-.343A5.116 5.116 0 0 0 6.56 3.839l.343-1.374Z"/>
    <path fill="url(#Ai-General-Color-16_svg__c)" d="M7.624 1.005a1.596 1.596 0 0 1 1.398 1.07l.044.148.343 1.373a4.116 4.116 0 0 0 2.995 2.995l1.373.343A1.601 1.601 0 0 1 15 8.514a1.6 1.6 0 0 1-1.223 1.552l-1.373.343a4.116 4.116 0 0 0-2.995 2.995l-.343 1.373A1.6 1.6 0 0 1 7.5 16a1.6 1.6 0 0 1-1.566-1.223l-.343-1.373a4.116 4.116 0 0 0-2.995-2.995l-1.373-.343A1.6 1.6 0 0 1 0 8.514a1.6 1.6 0 0 1 1.223-1.58l1.373-.343a4.116 4.116 0 0 0 2.995-2.995l.343-1.373.044-.148A1.601 1.601 0 0 1 7.5 1l.124.005ZM7.5 2a.6.6 0 0 0-.596.465l-.343 1.374-.046.17A5.116 5.116 0 0 1 2.84 7.561l-1.374.343A.6.6 0 0 0 1 8.505a.6.6 0 0 0 .465.59l1.374.344a5.116 5.116 0 0 1 3.722 3.722l.343 1.374a.596.596 0 0 0 .5.458L7.5 15a.6.6 0 0 0 .58-.409l.016-.056.343-1.374a5.116 5.116 0 0 1 3.552-3.676l.17-.046 1.374-.343a.596.596 0 0 0 .457-.494L14 8.505a.6.6 0 0 0-.408-.584l-.057-.017-1.374-.343A5.116 5.116 0 0 1 8.44 3.839l-.343-1.374A.6.6 0 0 0 7.5 2Z"/>
    <path fill="#3969EF" d="M13.296.16c.053-.213.355-.213.408 0l.244.973c.113.453.466.806.919.92l.974.243c.212.053.212.355 0 .408l-.974.244a1.263 1.263 0 0 0-.92.919l-.243.974c-.053.212-.355.212-.408 0l-.244-.974a1.263 1.263 0 0 0-.919-.92l-.974-.243c-.212-.053-.212-.355 0-.408l.974-.244c.453-.113.806-.466.92-.919l.243-.974Z"/>
  </g>
  <defs>
    <linearGradient id="Ai-General-Color-16_svg__b" x1="7.5" x2="7.5" y1="15" y2="2" gradientUnits="userSpaceOnUse">
      <stop stop-color="#5981F3"/>
      <stop offset="1" stop-color="#A7B7FD"/>
    </linearGradient>
    <linearGradient id="Ai-General-Color-16_svg__c" x1="7.5" x2="7.5" y1="1" y2="16" gradientUnits="userSpaceOnUse">
      <stop stop-color="#557FF3"/>
      <stop offset="1" stop-color="#2B55CA"/>
    </linearGradient>
    <clipPath id="Ai-General-Color-16_svg__a">
      <path fill="#fff" d="M0 0h16v16H0z"/>
    </clipPath>
  </defs>
</svg>
