<svg fill="none" viewBox="0 0 16 16" xmlns="http://www.w3.org/2000/svg">
  <g fill="#000" clip-path="url(#Fireproof-16_svg__a)">
    <path d="M9.891.01c.34-.06.664.166.724.506.031.176.059.26.088.313.018.032.043.067.126.106a.625.625 0 1 1-.533 1.13 1.483 1.483 0 0 1-.685-.628 2.216 2.216 0 0 1-.226-.703A.625.625 0 0 1 9.89.01Z"/>
    <path d="M6.588.022a.625.625 0 0 1 .563.124c1.3 1.089 1.574 2.633 1.774 3.752l.026.149c.11.61.2 1.034.36 1.324.071.13.146.21.226.264a.795.795 0 0 0 .389.117c.417.034.626-.076.747-.188.14-.13.247-.341.31-.63.063-.282.07-.584.06-.826a3.933 3.933 0 0 0-.031-.36l-.003-.017v-.002a.625.625 0 0 1 1.088-.513 12.478 12.478 0 0 1 2.349 4.035c.141.408-.304.77-.721.658a4.722 4.722 0 0 0-.406-.089c-.27-.822-.66-1.649-1.16-2.434-.106.375-.295.78-.637 1.096-.418.386-.99.574-1.698.516-.37-.03-.7-.135-.982-.324a1.962 1.962 0 0 1-.627-.701c-.276-.503-.393-1.143-.494-1.705l-.006-.034c-.163-.902-.318-1.766-.784-2.475-.423.814-.97 1.549-1.53 2.264-.122.157-.246.313-.37.47-.657.831-1.318 1.667-1.895 2.653-1.167 1.994-1.065 3.875-.18 5.244.517.8 1.326 1.464 2.378 1.882C5.103 13.776 5 13.21 5 12.625c0-.961.45-1.693.938-2.333.165-.215.33-.417.494-.617.35-.426.692-.844 1.01-1.372a.625.625 0 0 1 1.082.02c.174.315.37.594.576.86a4.765 4.765 0 0 0-.77 1.04 12.027 12.027 0 0 1-.365-.47c-.215.287-.432.553-.63.795-.148.181-.286.35-.404.504-.443.579-.681 1.034-.681 1.573 0 .651.168 1.15.44 1.473.259.309.667.527 1.31.527.086 0 .168-.003.246-.01.064.129.133.254.208.375C8.707 15.4 8.482 16 8 16c-2.723 0-4.928-1.126-6.094-2.932-1.175-1.819-1.22-4.21.151-6.553.626-1.068 1.348-1.98 2.006-2.812.12-.153.239-.302.354-.45C5.175 2.283 5.8 1.41 6.162.412a.625.625 0 0 1 .426-.39Z"/>
    <path fill-rule="evenodd" d="M16 12.5a3.5 3.5 0 1 1-7 0 3.5 3.5 0 0 1 7 0Zm-1.375-.625a.5.5 0 0 1 .5.5v.25a.5.5 0 0 1-.5.5h-4.25a.5.5 0 0 1-.5-.5v-.25a.5.5 0 0 1 .5-.5h4.25Z" clip-rule="evenodd"/>
  </g>
  <defs>
    <clipPath id="Fireproof-16_svg__a">
      <path fill="#fff" d="M0 0h16v16H0z"/>
    </clipPath>
  </defs>
</svg>
