<svg width="76" height="76" viewBox="0 0 76 76" fill="none" xmlns="http://www.w3.org/2000/svg">
<path d="M38.6364 28.4729C38.4707 27.8103 37.5292 27.8103 37.3635 28.4729L36.7455 30.9451C36.2558 32.9038 34.7265 34.4331 32.7679 34.9227L30.2956 35.5408C29.6331 35.7064 29.6331 36.648 30.2956 36.8136L32.7679 37.4317C34.7265 37.9213 36.2558 39.4506 36.7455 41.4093L37.3635 43.8815C37.5292 44.5441 38.4707 44.5441 38.6364 43.8815L39.2544 41.4093C39.7441 39.4506 41.2734 37.9213 43.232 37.4317L45.7043 36.8136C46.3668 36.648 46.3668 35.7064 45.7043 35.5408L43.232 34.9227C41.2734 34.4331 39.7441 32.9038 39.2544 30.9451L38.6364 28.4729Z" fill="white" fill-opacity="0.84"/>
<path fill-rule="evenodd" clip-rule="evenodd" d="M25.1135 54.5263C30.6459 53.5761 40.3409 51.7389 44.2809 49.9306C50.3725 47.7217 54.6667 42.396 54.6667 36.177C54.6667 27.979 47.2048 21.3332 38 21.3332C28.7953 21.3332 21.3333 27.979 21.3333 36.177C21.3333 40.2899 23.2115 44.0121 26.2457 46.7004C26.9106 47.2896 27.0361 48.3115 26.454 48.9826L23.7588 52.0903C22.8388 53.1512 23.7295 54.764 25.1135 54.5263ZM43.2381 47.6584L43.3318 47.6154L43.4287 47.5803C48.7062 45.6666 52.1667 41.1691 52.1667 36.177C52.1667 29.6241 46.1042 23.8332 38 23.8332C29.8958 23.8332 23.8333 29.6241 23.8333 36.177C23.8333 39.4962 25.3435 42.561 27.9036 44.8292C29.4691 46.2163 29.9283 48.7923 28.3427 50.6206L27.5285 51.5594C29.7703 51.1495 32.3102 50.654 34.7505 50.1101C38.3757 49.3021 41.5398 48.4379 43.2381 47.6584Z" fill="white" fill-opacity="0.84"/>
</svg>
