<svg fill="none" viewBox="0 0 96 96" xmlns="http://www.w3.org/2000/svg">
  <path fill="#C18010" d="M71 51c-11.046 0-20 8.954-20 20v1a8 8 0 0 1-8 8h-7a8 8 0 0 1-8-8V24a8 8 0 0 1 8-8h32a8 8 0 0 1 8 8v24a3 3 0 0 1-3 3h-2Z"/>
  <path fill="#FFF0C2" d="M71 51c-11.046 0-20 8.954-20 20v1a5 5 0 0 1-5 5H34c-5.523 0-10-4.477-10-10V29c0-5.523 4.477-10 10-10h34a5 5 0 0 1 5 5v27h-2Z"/>
  <path fill="#E2A412" d="M69 51.099C58.893 52.102 51 60.629 51 71v5a4 4 0 0 1-4 4H35c-8.284 0-15-6.716-15-15V31c0-8.284 6.716-15 15-15h26a8 8 0 0 1 8 8v27.099Z"/>
  <path fill="#C18010" d="M35 80h-7a8 8 0 0 1-8-8V24a8 8 0 0 1 8-8h7v64Z"/>
  <path fill="#3969EF" d="M62 16H48v29.035c0 1.642 1.868 2.584 3.189 1.609l2.622-1.938a2 2 0 0 1 2.378 0l2.622 1.938c1.32.975 3.189.033 3.189-1.609V16Z"/>
  <path fill="#557FF3" d="M71 87c8.837 0 16-7.163 16-16s-7.163-16-16-16-16 7.163-16 16 7.163 16 16 16Z"/>
  <path fill="#fff" fill-rule="evenodd" d="M80 73a1 1 0 0 1-1 1h-8.978a.5.5 0 0 0-.394.807l2.247 2.89a1 1 0 0 1-.19 1.414l-2.399 1.8a1 1 0 0 1-1.39-.187l-6.43-8.271a2.5 2.5 0 0 1 0-2.906l6.43-8.271a1 1 0 0 1 1.39-.186l2.4 1.8a1 1 0 0 1 .19 1.413l-2.248 2.89a.5.5 0 0 0 .394.807H79a1 1 0 0 1 1 1v4Z" clip-rule="evenodd"/>
  <path fill="#CCC" d="M92.501 59c.298 0 .595.12.823.354.454.468.454 1.23 0 1.698l-2.333 2.4a1.145 1.145 0 0 1-1.65 0 1.227 1.227 0 0 1 0-1.698l2.333-2.4c.227-.234.524-.354.822-.354h.005Zm-1.166 10.798h3.499c.641 0 1.166.54 1.166 1.2 0 .66-.525 1.2-1.166 1.2h-3.499c-.641 0-1.166-.54-1.166-1.2 0-.66.525-1.2 1.166-1.2Zm-1.982 8.754c.227-.234.525-.354.822-.354h.006c.297 0 .595.12.822.354l2.332 2.4c.455.467.455 1.23 0 1.697a1.145 1.145 0 0 1-1.65 0l-2.332-2.4a1.227 1.227 0 0 1 0-1.697Z"/>
</svg>
