<svg width="162" height="21" viewBox="0 0 162 21" fill="none" xmlns="http://www.w3.org/2000/svg">
<path d="M98.5621 6.14442H95.4786L89.8651 11.8951V0.393799H87.4932V20.0089H89.8651V13.5493L96.2692 19.9302L96.3483 20.0089H99.0365H99.1946V19.7726L91.9998 12.6828L98.5621 6.14442Z" fill="black"/>
<path d="M83.382 16.6217C82.5123 17.4882 81.2473 17.9609 79.8241 17.9609C77.3731 17.9609 74.9222 16.4641 74.9222 12.998C74.9222 10.0833 76.9778 8.03512 79.8241 8.03512C81.0891 8.03512 82.2751 8.50778 83.2238 9.37431L83.3029 9.45309L84.8051 7.87758L84.7261 7.7988C83.3029 6.45961 81.6426 5.82941 79.7451 5.82941C75.3966 5.82941 72.4712 8.74411 72.4712 12.998C72.4712 17.9609 76.1081 20.1666 79.7451 20.1666H79.8241C81.7216 20.1666 83.5401 19.4576 84.8051 18.1184L84.8842 18.0396L83.3029 16.4641L83.382 16.6217Z" fill="black"/>
<path d="M67.3322 13.5493C67.3322 16.0701 65.5928 17.9608 63.1419 18.0395C60.5328 18.0395 58.9515 16.464 58.9515 13.7857V6.14441H56.5796V13.7857C56.5796 17.7244 58.9515 20.2453 62.6675 20.2453H62.7466C64.565 20.2453 66.2253 19.3787 67.3322 18.0395L67.4113 17.882L67.4904 20.0089H69.7041V6.14441H67.3322V13.5493Z" fill="black"/>
<path d="M44.0083 0.315063H36.8135V20.009H44.0083C50.8868 20.009 53.8912 14.9673 53.8912 10.0045C53.8912 5.3567 50.8077 0.315063 44.0083 0.315063ZM51.4402 9.92571C51.4402 13.7069 49.1474 17.4882 44.0873 17.4882H39.3435V2.75711H44.0083C49.0683 2.75711 51.4402 6.45958 51.4402 9.92571Z" fill="black"/>
<path d="M123.467 4.2419C122.676 4.2419 122.026 3.62028 122.026 2.82913C122.026 2.03799 122.676 1.38811 123.467 1.38811C124.258 1.38811 124.88 2.03799 124.88 2.82913C124.88 3.62028 124.258 4.2419 123.467 4.2419ZM124.513 19.8388H122.393V6.19152H124.513V19.8388Z" fill="black"/>
<path d="M124.513 6.19152H122.393V19.8388H124.513V6.19152ZM124.88 2.82913C124.88 2.08751 124.334 1.47015 123.614 1.39575L123.467 1.38811C122.676 1.38811 122.026 2.03799 122.026 2.82913L122.034 2.9756C122.103 3.64768 122.646 4.16849 123.321 4.2349L123.467 4.2419C124.209 4.24176 124.802 3.69559 124.873 2.9756L124.88 2.82913ZM124.633 19.9588H122.273V6.0713H124.633V19.9588ZM125 2.82941C125 3.68674 124.325 4.36215 123.467 4.36229C122.613 4.36229 121.906 3.68992 121.906 2.82941C121.906 1.97186 122.61 1.26776 123.467 1.26776C124.328 1.26791 125 1.97508 125 2.82941Z" fill="black"/>
<path d="M118.401 19.8387H116.282V18.2847C115.18 19.5279 113.597 20.1778 111.761 20.1778C109.472 20.1778 107.014 18.6237 107.014 15.6569C107.014 12.5771 109.444 11.1643 111.761 11.1643C113.626 11.1643 115.18 11.7577 116.282 13.0009V10.5427C116.282 8.73439 114.812 7.68894 112.834 7.68894C111.196 7.68894 109.868 8.25405 108.653 9.58205L107.664 8.11277C109.133 6.58699 110.885 5.85235 113.117 5.85235C116.027 5.85235 118.401 7.15209 118.401 10.458V19.8387ZM112.552 18.652C114.021 18.652 115.462 18.0869 116.282 16.9567V14.3572C115.462 13.2552 114.021 12.6901 112.552 12.6901C110.546 12.6901 109.161 13.9334 109.161 15.6569C109.161 17.4088 110.546 18.652 112.552 18.652Z" fill="black"/>
<path d="M118.401 10.458C118.401 7.25549 116.173 5.93589 113.388 5.85646L113.117 5.85235C110.885 5.85235 109.133 6.58699 107.664 8.11277L108.653 9.58205C109.868 8.25405 111.196 7.68894 112.834 7.68894C114.812 7.68894 116.282 8.73439 116.282 10.5427V13.0009C115.249 11.8355 113.818 11.2411 112.107 11.1714L111.761 11.1643C109.444 11.1643 107.014 12.5771 107.014 15.6569C107.014 18.5309 109.321 20.0791 111.546 20.1731L111.761 20.1778C113.597 20.1778 115.18 19.5279 116.282 18.2847V19.8387H118.401V10.458ZM109.161 15.6569C109.161 13.9334 110.546 12.6901 112.552 12.6901L112.827 12.6966C114.199 12.7628 115.514 13.3242 116.282 14.3572V16.9567C115.462 18.0869 114.021 18.652 112.552 18.652L112.552 18.5317C113.98 18.5317 115.367 17.9871 116.161 16.9166V14.398C115.366 13.3548 113.98 12.8105 112.552 12.8105C110.598 12.8105 109.282 14.0134 109.282 15.6567C109.282 16.499 109.614 17.215 110.184 17.7215C110.756 18.2288 111.574 18.5316 112.552 18.5317L112.552 18.652L112.366 18.6485C110.522 18.5763 109.246 17.4317 109.166 15.8199L109.161 15.6569ZM118.521 19.9589H116.161V18.588C115.047 19.7139 113.514 20.2981 111.761 20.2982C109.426 20.2982 106.894 18.7083 106.894 15.6567C106.894 14.0817 107.517 12.9244 108.442 12.1629C109.365 11.4041 110.58 11.044 111.761 11.044C113.538 11.044 115.048 11.5763 116.161 12.6972V10.5426C116.161 9.67453 115.81 8.99598 115.225 8.53181C114.637 8.06536 113.803 7.80911 112.834 7.80911C111.23 7.80916 109.934 8.3596 108.742 9.66313L108.638 9.77585L108.553 9.64904L107.564 8.18015L107.51 8.09913L107.577 8.02926C109.07 6.47893 110.854 5.73199 113.117 5.73199C114.588 5.73203 115.938 6.0604 116.924 6.82045C117.914 7.58441 118.521 8.7732 118.521 10.458V19.9589Z" fill="black"/>
<path d="M103.187 20.1213C102.339 20.1213 101.633 19.4149 101.633 18.5672C101.633 17.7196 102.339 17.0132 103.187 17.0132C104.034 17.0132 104.741 17.7196 104.741 18.5672C104.741 19.4149 104.034 20.1213 103.187 20.1213Z" fill="black"/>
<path d="M104.741 18.5672C104.741 17.7196 104.034 17.0132 103.187 17.0132C102.339 17.0132 101.633 17.7196 101.633 18.5672C101.633 19.4149 102.339 20.1213 103.187 20.1213C104.034 20.1213 104.741 19.4149 104.741 18.5672ZM104.861 18.5672C104.861 19.4813 104.101 20.2416 103.187 20.2416C102.273 20.2416 101.512 19.4812 101.512 18.5672C101.512 17.6531 102.273 16.8928 103.187 16.8928C104.101 16.8928 104.861 17.6531 104.861 18.5672Z" fill="black"/>
</svg>
