<svg fill="none" viewBox="0 0 24 24" xmlns="http://www.w3.org/2000/svg">
  <path fill="url(#Ai-General-Color-24_svg__a)" d="M10.63 5.081a.75.75 0 0 1 .745-.581.75.75 0 0 1 .744.581l.43 1.718A6.394 6.394 0 0 0 17.2 11.45l1.718.43a.75.75 0 0 1 .581.75.75.75 0 0 1-.581.738l-1.718.43a6.394 6.394 0 0 0-4.652 4.652l-.43 1.718a.75.75 0 0 1-.744.581.75.75 0 0 1-.744-.581l-.43-1.718a6.394 6.394 0 0 0-4.65-4.65l-1.718-.43a.75.75 0 0 1-.581-.737.75.75 0 0 1 .581-.751l1.718-.43A6.394 6.394 0 0 0 10.2 6.8l.43-1.718Z"/>
  <path fill="url(#Ai-General-Color-24_svg__b)" d="M11.53 3.256a1.995 1.995 0 0 1 1.747 1.338l.055.184.43 1.717a5.145 5.145 0 0 0 3.743 3.743l1.717.43c1.022.256 1.535 1.148 1.528 1.974-.007.816-.521 1.688-1.528 1.94l-1.717.43a5.145 5.145 0 0 0-3.743 3.743l-.43 1.717C13.078 21.486 12.196 22 11.375 22c-.821 0-1.703-.514-1.957-1.528l-.43-1.717a5.145 5.145 0 0 0-3.743-3.743l-1.717-.43C2.521 14.33 2.007 13.458 2 12.642c-.007-.826.506-1.718 1.528-1.974l1.717-.43a5.145 5.145 0 0 0 3.743-3.743l.43-1.717.055-.184c.309-.893 1.132-1.344 1.902-1.344l.154.006ZM11.374 4.5a.75.75 0 0 0-.744.581L10.2 6.8l-.057.213a6.394 6.394 0 0 1-4.595 4.44l-1.718.429a.75.75 0 0 0-.58.75.75.75 0 0 0 .58.738l1.718.43a6.394 6.394 0 0 1 4.652 4.65l.43 1.718c.085.339.343.53.623.572l.121.009a.75.75 0 0 0 .698-.445l.046-.136.43-1.718a6.394 6.394 0 0 1 4.44-4.595l.212-.057 1.718-.43a.745.745 0 0 0 .571-.617l.01-.12a.75.75 0 0 0-.444-.704l-.137-.047-1.718-.43a6.394 6.394 0 0 1-4.595-4.44l-.055-.21-.43-1.718a.75.75 0 0 0-.744-.581Z"/>
  <path fill="#3969EF" d="M18.62 2.2c.066-.266.444-.266.51 0l.305 1.217a1.579 1.579 0 0 0 1.148 1.148l1.218.305c.265.066.265.444 0 .51l-1.218.305a1.579 1.579 0 0 0-1.148 1.148l-.305 1.218c-.066.265-.444.265-.51 0l-.305-1.218a1.579 1.579 0 0 0-1.148-1.148l-1.218-.305c-.265-.066-.265-.444 0-.51l1.218-.305a1.579 1.579 0 0 0 1.148-1.148l.305-1.218Z"/>
  <defs>
    <linearGradient id="Ai-General-Color-24_svg__a" x1="11.375" x2="11.375" y1="20.75" y2="4.5" gradientUnits="userSpaceOnUse">
      <stop stop-color="#5981F3"/>
      <stop offset="1" stop-color="#A7B7FD"/>
    </linearGradient>
    <linearGradient id="Ai-General-Color-24_svg__b" x1="11.375" x2="11.375" y1="3.25" y2="22" gradientUnits="userSpaceOnUse">
      <stop stop-color="#557FF3"/>
      <stop offset="1" stop-color="#2B55CA"/>
    </linearGradient>
  </defs>
</svg>
