<svg width="16" height="16" viewBox="0 0 16 16" fill="none" xmlns="http://www.w3.org/2000/svg">
<path d="M13.8169 3.06694C14.061 2.82286 14.061 2.42714 13.8169 2.18306C13.5729 1.93898 13.1771 1.93898 12.9331 2.18306L8 7.11612L3.06694 2.18306C2.82286 1.93898 2.42714 1.93898 2.18306 2.18306C1.93898 2.42714 1.93898 2.82286 2.18306 3.06694L7.11612 8L2.18306 12.9331C1.93898 13.1771 1.93898 13.5729 2.18306 13.8169C2.42714 14.061 2.82286 14.061 3.06694 13.8169L8 8.88388L12.9331 13.8169C13.1771 14.061 13.5729 14.061 13.8169 13.8169C14.061 13.5729 14.061 13.1771 13.8169 12.9331L8.88388 8L13.8169 3.06694Z" fill="black" fill-opacity="0.6"/>
</svg>
