<svg width="129" height="96" viewBox="0 0 129 96" fill="none" xmlns="http://www.w3.org/2000/svg">
<path opacity="0.2" d="M112.53 39.8L110.987 40.2C110.701 40.2571 110.415 40.5429 110.358 40.8286L109.958 42.3714C109.844 42.7714 109.501 43 109.158 43C108.758 43 108.415 42.7143 108.358 42.3714L107.958 40.8286C107.901 40.5429 107.615 40.2571 107.33 40.2L105.787 39.8C105.387 39.6857 105.158 39.3429 105.158 39C105.158 38.6 105.444 38.2571 105.787 38.2L107.33 37.8C107.615 37.7429 107.901 37.4571 107.958 37.1714L108.358 35.6286C108.472 35.2286 108.815 35 109.158 35C109.558 35 109.901 35.2857 109.958 35.6286L110.358 37.1714C110.415 37.4571 110.701 37.7429 110.987 37.8L112.53 38.2C112.93 38.3143 113.158 38.6571 113.158 39C113.158 39.4 112.873 39.7429 112.53 39.8Z" fill="#888888"/>
<path opacity="0.2" d="M26.2154 34.2L23.9011 34.8C23.4725 34.8857 23.0439 35.3143 22.9582 35.7429L22.3582 38.0571C22.1868 38.6571 21.6725 39 21.1582 39C20.5582 39 20.0439 38.5714 19.9582 38.0571L19.3582 35.7429C19.2725 35.3143 18.8439 34.8857 18.4153 34.8L16.101 34.2C15.501 34.0286 15.1582 33.5143 15.1582 33C15.1582 32.4 15.5868 31.8857 16.101 31.8L18.4153 31.2C18.8439 31.1143 19.2725 30.6857 19.3582 30.2571L19.9582 27.9429C20.1296 27.3429 20.6439 27 21.1582 27C21.7582 27 22.2725 27.4286 22.3582 27.9429L22.9582 30.2571C23.0439 30.6857 23.4725 31.1143 23.9011 31.2L26.2154 31.8C26.8154 31.9714 27.1582 32.4857 27.1582 33C27.1582 33.6 26.7297 34.1143 26.2154 34.2Z" fill="#888888"/>
<path opacity="0.2" d="M7.52965 54.8L5.98678 55.2C5.70107 55.2571 5.41533 55.5429 5.35819 55.8286L4.95822 57.3714C4.84393 57.7714 4.50106 58 4.1582 58C3.7582 58 3.41533 57.7143 3.35819 57.3714L2.95822 55.8286C2.90107 55.5429 2.61534 55.2571 2.32962 55.2L0.786761 54.8C0.386761 54.6857 0.158203 54.3429 0.158203 54C0.158203 53.6 0.443903 53.2571 0.786761 53.2L2.32962 52.8C2.61534 52.7429 2.90107 52.4571 2.95822 52.1714L3.35819 50.6286C3.47248 50.2286 3.81535 50 4.1582 50C4.5582 50 4.90107 50.2857 4.95822 50.6286L5.35819 52.1714C5.41533 52.4571 5.70107 52.7429 5.98678 52.8L7.52965 53.2C7.92965 53.3143 8.1582 53.6571 8.1582 54C8.1582 54.4 7.8725 54.7429 7.52965 54.8Z" fill="#888888"/>
<path opacity="0.2" d="M126.658 52C125.833 52 125.158 51.325 125.158 50.5C125.158 49.675 125.833 49 126.658 49C127.483 49 128.158 49.675 128.158 50.5C128.158 51.325 127.483 52 126.658 52Z" fill="#888888"/>
<path opacity="0.2" d="M23.1582 70C22.0582 70 21.1582 69.1 21.1582 68C21.1582 66.9 22.0582 66 23.1582 66C24.2582 66 25.1582 66.9 25.1582 68C25.1582 69.1 24.2582 70 23.1582 70Z" fill="#888888"/>
<path d="M51.1582 20C42.8739 20 36.1582 26.7157 36.1582 35V61C36.1582 69.2843 42.8739 76 51.1582 76H67.1582V71C67.1582 59.9543 76.1125 51 87.1582 51H92.1582V35C92.1582 26.7157 85.4425 20 77.1582 20H51.1582Z" fill="#63C853"/>
<path d="M50.9082 16C40.4148 16 32.1582 24.5066 32.1582 35V61C32.1582 71.4934 40.4148 80 50.9082 80H63.1582C65.3673 80 67.1582 78.2091 67.1582 76V71C67.1582 65.7989 69.1442 61.0621 72.3984 57.5049L71.9082 53H78.4316C81.0688 51.7191 84.0295 51 87.1582 51H91.9082C94.1173 51 95.9082 49.2091 95.9082 47V35C95.9082 24.5066 87.4016 16 76.9082 16H50.9082Z" fill="#999999"/>
<path d="M46.8252 20C40.9342 20 36.1582 24.776 36.1582 30.667V61.333C36.1582 67.224 40.9342 72 46.8252 72H67.1582V71C67.1582 59.9543 76.1125 51 87.1582 51H88.1582V30.667C88.1582 24.776 83.3822 20 77.4912 20H46.8252Z" fill="#E5E5E5"/>
<path d="M46.8252 16C38.725 16 32.1582 22.5668 32.1582 30.667V61.333C32.1582 69.4332 38.725 76 46.8252 76H67.1582V72H46.8252L46.2764 71.9863C40.8219 71.71 36.4482 67.3363 36.1719 61.8818L36.1582 61.333V30.667C36.1582 24.9599 40.6402 20.2992 46.2764 20.0137L46.8252 20H77.4912L78.04 20.0137C83.6762 20.2992 88.1582 24.9599 88.1582 30.667V51H92.1582V30.667C92.1582 22.5668 85.5914 16 77.4912 16H46.8252Z" fill="#CCCCCC"/>
<path d="M62.1582 23C49.4557 23 39.1582 33.2975 39.1582 46C39.1582 58.7025 49.4557 69 62.1582 69C63.9348 69 65.6643 68.7983 67.3252 68.417C68.4833 59.4368 75.5959 52.3236 84.5762 51.166C84.9573 49.5055 85.1582 47.7762 85.1582 46C85.1582 33.2975 74.8608 23 62.1582 23Z" fill="#288419"/>
<path opacity="0.1" d="M62.1581 23C68.5093 23 74.2595 25.5741 78.4217 29.7363L62.1581 46L48.4863 27.5029C52.3082 24.6734 57.0377 23 62.1581 23Z" fill="#D3FFCC"/>
<path opacity="0.2" d="M62.1587 23C68.5097 23.0001 74.2593 25.5744 78.4214 29.7363L62.1587 46L53.7749 24.5762C56.3725 23.5589 59.2005 23 62.1587 23Z" fill="#D3FFCC"/>
<path opacity="0.2" d="M62.1577 23C68.509 23 74.2594 25.5743 78.4216 29.7363L62.1577 46L60.1655 23.0869C60.8222 23.0306 61.4865 23 62.1577 23Z" fill="#D3FFCC"/>
<path opacity="0.2" d="M67.0439 23.5212C71.4343 24.471 75.3584 26.6727 78.4219 29.7361L62.1582 45.9998L67.0439 23.5212Z" fill="#D3FFCC"/>
<path opacity="0.3" d="M73.4766 25.9746C75.2929 27.0034 76.9563 28.2707 78.4219 29.7363L62.1582 46L73.4766 25.9746Z" fill="#D3FFCC"/>
<path d="M62.1582 23C67.5231 23 72.4588 24.837 76.3711 27.916C73.0535 26.0599 69.2299 25 65.1582 25C52.4557 25 42.1582 35.2975 42.1582 48C42.1582 55.3372 45.594 61.8717 50.9443 66.083C43.9128 62.1483 39.1582 54.6303 39.1582 46C39.1582 33.2975 49.4557 23 62.1582 23Z" fill="#1A690D"/>
<path d="M60.1582 33.5C60.1582 34.3284 59.4866 35 58.6582 35C57.8298 35 57.1582 34.3284 57.1582 33.5C57.1582 32.6716 57.8298 32 58.6582 32C59.4866 32 60.1582 32.6716 60.1582 33.5Z" fill="#D3FFCC"/>
<path d="M50.1582 44.5C50.1582 45.3284 49.4866 46 48.6582 46C47.8298 46 47.1582 45.3284 47.1582 44.5C47.1582 43.6716 47.8298 43 48.6582 43C49.4866 43 50.1582 43.6716 50.1582 44.5Z" fill="#96E38A"/>
<path d="M56.1582 48.5C56.1582 49.3284 55.4866 50 54.6582 50C53.8298 50 53.1582 49.3284 53.1582 48.5C53.1582 47.6716 53.8298 47 54.6582 47C55.4866 47 56.1582 47.6716 56.1582 48.5Z" fill="#96E38A"/>
<path d="M70.1582 54.5C70.1582 55.3284 69.4866 56 68.6582 56C67.8298 56 67.1582 55.3284 67.1582 54.5C67.1582 53.6716 67.8298 53 68.6582 53C69.4866 53 70.1582 53.6716 70.1582 54.5Z" fill="#96E38A"/>
<path d="M49.4509 34.293C49.8171 33.9269 50.3961 33.9043 50.7889 34.2246L50.865 34.293L51.658 35.086L52.451 34.293L52.5272 34.2246C52.92 33.9043 53.499 33.9269 53.8651 34.293C54.231 34.6591 54.2537 35.2382 53.9335 35.6309L53.8651 35.7071L53.0721 36.5001L53.8651 37.293L53.9335 37.3692C54.2536 37.762 54.2311 38.3411 53.8651 38.7071C53.4991 39.0732 52.92 39.0956 52.5272 38.7755L52.451 38.7071L51.658 37.9142L50.865 38.7071L50.7889 38.7755C50.3962 39.0958 49.8171 39.073 49.4509 38.7071C49.0848 38.341 49.0622 37.762 49.3826 37.3692L49.4509 37.293L50.2439 36.5001L49.4509 35.7071L49.3826 35.6309C49.0622 35.2381 49.0848 34.6591 49.4509 34.293Z" fill="#D3FFCC"/>
<path d="M75.4509 47.293C75.8171 46.9269 76.3961 46.9043 76.7889 47.2246L76.865 47.293L77.658 48.086L78.451 47.293L78.5272 47.2246C78.92 46.9043 79.499 46.9269 79.8651 47.293C80.231 47.6591 80.2537 48.2382 79.9335 48.6309L79.8651 48.7071L79.0721 49.5001L79.8651 50.293L79.9335 50.3692C80.2536 50.762 80.2311 51.3411 79.8651 51.7071C79.4991 52.0732 78.92 52.0956 78.5272 51.7755L78.451 51.7071L77.658 50.9142L76.865 51.7071L76.7889 51.7755C76.3962 52.0958 75.8171 52.073 75.4509 51.7071C75.0848 51.341 75.0622 50.762 75.3826 50.3692L75.4509 50.293L76.2439 49.5001L75.4509 48.7071L75.3826 48.6309C75.0622 48.2381 75.0848 47.6591 75.4509 47.293Z" fill="#96E38A"/>
<path d="M53.4509 56.293C53.8171 55.9269 54.3961 55.9043 54.7889 56.2246L54.865 56.293L55.658 57.086L56.451 56.293L56.5272 56.2246C56.92 55.9043 57.499 55.9269 57.8651 56.293C58.231 56.6591 58.2537 57.2382 57.9335 57.6309L57.8651 57.7071L57.0721 58.5001L57.8651 59.293L57.9335 59.3692C58.2536 59.762 58.2311 60.3411 57.8651 60.7071C57.4991 61.0732 56.92 61.0956 56.5272 60.7755L56.451 60.7071L55.658 59.9142L54.865 60.7071L54.7889 60.7755C54.3962 61.0958 53.8171 61.073 53.4509 60.7071C53.0848 60.341 53.0622 59.762 53.3826 59.3692L53.4509 59.293L54.2439 58.5001L53.4509 57.7071L53.3826 57.6309C53.0622 57.2381 53.0848 56.6591 53.4509 56.293Z" fill="#96E38A"/>
<path d="M87.1582 87C95.9948 87 103.158 79.8366 103.158 71C103.158 62.1634 95.9948 55 87.1582 55C78.3216 55 71.1582 62.1634 71.1582 71C71.1582 79.8366 78.3216 87 87.1582 87Z" fill="#21C000"/>
<path d="M96.0434 68.3097C96.5639 67.7892 96.5639 66.9453 96.0434 66.4249L94.1844 64.5659C93.664 64.0454 92.8201 64.0454 92.2996 64.5659L85.7609 71.1046C85.2404 71.6251 84.3966 71.6251 83.8761 71.1047L82.0169 69.2456C81.4965 68.7251 80.6526 68.7251 80.1322 69.2456L78.2732 71.1046C77.7527 71.6251 77.7527 72.4689 78.2732 72.9894L83.8761 78.5922C84.3966 79.1127 85.2404 79.1127 85.7609 78.5922L96.0434 68.3097Z" fill="white"/>
<path d="M108.66 59C108.957 59 109.254 59.12 109.482 59.3539C109.937 59.8219 109.937 60.5837 109.482 61.0517L107.149 63.4512C106.695 63.9192 105.954 63.9192 105.499 63.4512C105.044 62.9833 105.044 62.2215 105.499 61.7535L107.832 59.3539C108.059 59.12 108.356 59 108.654 59H108.66Z" fill="#CCCCCC"/>
<path d="M107.493 69.7982H110.992C111.633 69.7982 112.158 70.3381 112.158 70.998C112.158 71.6579 111.633 72.1978 110.992 72.1978H107.493C106.852 72.1978 106.327 71.6579 106.327 70.998C106.327 70.3381 106.852 69.7982 107.493 69.7982Z" fill="#CCCCCC"/>
<path d="M105.511 78.5518C105.739 78.3178 106.036 78.1978 106.333 78.1978H106.339C106.637 78.1978 106.934 78.3178 107.161 78.5518L109.494 80.9513C109.949 81.4193 109.949 82.1811 109.494 82.6491C109.039 83.117 108.298 83.117 107.844 82.6491L105.511 80.2495C105.056 79.7815 105.056 79.0197 105.511 78.5518Z" fill="#CCCCCC"/>
</svg>
