<svg width="24" height="24" viewBox="0 0 24 24" fill="none" xmlns="http://www.w3.org/2000/svg">
<path fill-rule="evenodd" clip-rule="evenodd" d="M8.00024 6C8.00024 3.79086 9.79111 2 12.0002 2C14.2094 2 16.0002 3.79086 16.0002 6V11C16.0002 13.2091 14.2094 15 12.0002 15C9.79111 15 8.00024 13.2091 8.00024 11V6ZM12.0002 3.5C10.6195 3.5 9.50024 4.61929 9.50024 6V11C9.50024 12.3807 10.6195 13.5 12.0002 13.5C13.381 13.5 14.5002 12.3807 14.5002 11V6C14.5002 4.61929 13.381 3.5 12.0002 3.5Z" fill="black"/>
<path d="M6.00024 21.25C6.00025 20.8358 6.33604 20.5 6.75025 20.5L11.2502 20.5001V18.9653C7.18365 18.5872 4.00024 15.1654 4.00024 11V10.75C4.00024 10.3358 4.33603 10 4.75024 10C5.16446 10 5.50024 10.3358 5.50024 10.75V11C5.50024 14.5899 8.41039 17.5 12.0002 17.5C15.5901 17.5 18.5002 14.5899 18.5002 11V10.75C18.5002 10.3358 18.836 10 19.2502 10C19.6645 10 20.0002 10.3358 20.0002 10.75V11C20.0002 15.1654 16.8168 18.5872 12.7502 18.9653V20.5001L17.2503 20.5001C17.6645 20.5001 18.0002 20.8359 18.0002 21.2501C18.0002 21.6644 17.6644 22.0001 17.2502 22.0001L6.75023 22C6.33602 22 6.00024 21.6642 6.00024 21.25Z" fill="black"/>
</svg>
