<svg fill="none" viewBox="0 0 96 96" xmlns="http://www.w3.org/2000/svg">
  <path fill="url(#DuckAI-96_svg__a)" d="M26.702 79.23c.295.025.608.006.932-.066 10.154-2.248 26.61-6.188 34.398-9.68C72.043 65.07 79 55.32 79 44c0-15.14-12.447-27.475-28-27.984V16h-7v.6C30.863 19.268 21 30.522 21 44c0 8.941 4.34 16.904 11.099 22.03l-7.28 8.32a3.2 3.2 0 0 0-.443.65H22v4.23z"/>
  <path fill="url(#DuckAI-96_svg__b)" d="M24.649 63.947c1.26 1.2 1.476 3.195.331 4.504l-5.161 5.899c-1.887 2.157.017 5.433 2.816 4.814 10.154-2.248 26.61-6.188 34.398-9.68C67.043 65.07 74 55.32 74 44c0-15.464-12.984-28-29-28S16 28.536 16 44c0 7.808 3.31 14.87 8.649 19.947"/>
  <path fill="#fff" d="M43.727 28.712c.332-1.325 2.215-1.325 2.546 0l1.236 4.944a10.93 10.93 0 0 0 7.955 7.955l4.945 1.236c1.325.332 1.325 2.215 0 2.546l-4.945 1.236a10.93 10.93 0 0 0-7.955 7.955l-1.236 4.945c-.331 1.325-2.214 1.325-2.546 0l-1.236-4.945a10.93 10.93 0 0 0-7.955-7.955l-4.945-1.236c-1.325-.331-1.325-2.214 0-2.546l4.945-1.236a10.93 10.93 0 0 0 7.955-7.955z"/>
  <defs>
    <linearGradient id="DuckAI-96_svg__a" x1="50" x2="50" y1="16" y2="79.24" gradientUnits="userSpaceOnUse">
      <stop stop-color="#876ECB"/>
      <stop offset="1" stop-color="#2B55CA"/>
    </linearGradient>
    <linearGradient id="DuckAI-96_svg__b" x1="45" x2="45" y1="16" y2="79.24" gradientUnits="userSpaceOnUse">
      <stop stop-color="#C7B9EE"/>
      <stop offset=".638" stop-color="#A0A8F2"/>
      <stop offset="1" stop-color="#7295F6"/>
    </linearGradient>
  </defs>
</svg>
