<svg width="16" height="17" viewBox="0 0 16 17" fill="none" xmlns="http://www.w3.org/2000/svg">
<g id="Icon" clip-path="url(#clip0_6004_18620)">
<path id="Shape" fill-rule="evenodd" clip-rule="evenodd" d="M8.95264 0.92352C8.42046 0.412212 7.57954 0.412212 7.04737 0.92352L1.1919 6.54919L0.245559 7.49553C0.0014807 7.7396 0.00148046 8.13533 0.245558 8.37941C0.450047 8.5839 0.760981 8.61707 1 8.47891V13.375C1 15.1009 2.39911 16.5 4.125 16.5H6.61478C6.61818 16.5 6.62159 16.5 6.625 16.5H9.375C9.37841 16.5 9.38182 16.5 9.38522 16.5H11.875C13.6009 16.5 15 15.1009 15 13.375V8.47891C15.239 8.61707 15.55 8.5839 15.7544 8.37941C15.9985 8.13533 15.9985 7.7396 15.7544 7.49553L14.817 6.55794L8.95264 0.92352ZM10.9565 15.25H11.875C12.9105 15.25 13.75 14.4105 13.75 13.375V7.2662L8.08661 1.8249C8.03823 1.77842 7.96178 1.77842 7.9134 1.8249L2.25 7.2662V13.375C2.25 14.4105 3.08947 15.25 4.125 15.25H5.04348C5.01504 15.1296 5 15.0041 5 14.875V10.125C5 9.22754 5.72754 8.5 6.625 8.5H9.375C10.2725 8.5 11 9.22754 11 10.125V14.875C11 15.0041 10.985 15.1296 10.9565 15.25ZM9.37991 15.25H6.62009C6.41525 15.2473 6.25 15.0805 6.25 14.875V10.125C6.25 9.91789 6.41789 9.75 6.625 9.75H9.375C9.58211 9.75 9.75 9.91789 9.75 10.125V14.875C9.75 15.0805 9.58475 15.2473 9.37991 15.25Z" fill="black" fill-opacity="0.84"/>
</g>
<defs>
<clipPath id="clip0_6004_18620">
<rect width="16" height="16" fill="white" transform="translate(0 0.5)"/>
</clipPath>
</defs>
</svg>
