<svg width="16" height="16" viewBox="0 0 16 16" fill="none" xmlns="http://www.w3.org/2000/svg">
<path d="M12.4998 9.00004C14.4327 9.00014 15.9998 10.5671 15.9998 12.5C15.9997 14.4329 14.4327 15.9999 12.4998 16C10.5669 16 8.99995 14.4329 8.99984 12.5C8.99984 10.567 10.5668 9.00004 12.4998 9.00004ZM4.04966 6.05571C5.67382 4.42845 8.31044 4.42737 9.93636 6.05278C10.2865 6.40294 10.5614 6.80091 10.7606 7.22466L9.7928 8.19243C9.6614 7.73284 9.4145 7.2995 9.05257 6.93755C7.91516 5.80013 6.07073 5.80098 4.93442 6.9395L2.43736 9.44145L2.38463 9.49516C1.30267 10.6357 1.32127 12.4376 2.43931 13.5557C3.57673 14.693 5.42119 14.6922 6.55746 13.5538L7.7518 12.3565C7.74812 12.4804 7.74982 12.6048 7.7557 12.7286C7.79092 13.47 7.66999 14.2826 7.09262 14.7491C7.04773 14.7853 7.00252 14.8213 6.9559 14.8555C5.32829 16.0501 3.02752 15.9114 1.55553 14.4395C-0.042597 12.8413 -0.0690728 10.2661 1.4774 8.63579L1.5526 8.55864L4.04966 6.05571ZM10.3748 11.875C10.0987 11.875 9.87484 12.0989 9.87484 12.375V12.625C9.87495 12.9011 10.0988 13.125 10.3748 13.125H14.6248C14.9008 13.1249 15.1247 12.901 15.1248 12.625V12.375C15.1248 12.099 14.9009 11.8751 14.6248 11.875H10.3748ZM6.20102 7.79887C6.33217 8.25987 6.57832 8.69568 6.94125 9.05864C7.39244 9.50979 7.95544 9.78109 8.54086 9.87407C8.30435 10.2299 8.11467 10.6197 7.98031 11.0342C7.27594 10.8569 6.60842 10.4933 6.05747 9.94243C5.7064 9.59135 5.43162 9.19258 5.23227 8.76762L6.20102 7.79887ZM8.55746 1.55864C10.1822 -0.0661073 12.8164 -0.0660878 14.4412 1.55864C15.9952 3.11274 16.0631 5.59022 14.6444 7.22466C14.226 7.70637 13.537 7.82003 12.9012 7.76665C12.7227 7.75167 12.5432 7.74698 12.3641 7.752L13.5574 6.55864C14.694 5.42204 14.694 3.57907 13.5574 2.44243C12.4208 1.30586 10.5779 1.30584 9.44124 2.44243L7.94125 3.94243L7.05746 3.05864L8.55746 1.55864Z" fill="black" fill-opacity="0.84"/>
</svg>
