<svg fill="none" viewBox="0 0 128 96" xmlns="http://www.w3.org/2000/svg">
  <path fill="#888" d="m106.572 34-1.543-.4a.875.875 0 0 1-.629-.629l-.4-1.542a.84.84 0 0 0-.8-.629c-.4 0-.743.286-.8.629l-.4 1.542a.876.876 0 0 1-.628.629l-1.543.4a.841.841 0 0 0-.629.8c0 .4.286.743.629.8l1.543.4a.875.875 0 0 1 .628.629l.4 1.542a.84.84 0 0 0 .8.629c.4 0 .743-.286.8-.629l.4-1.542a.875.875 0 0 1 .629-.629l1.543-.4a.84.84 0 0 0 .628-.8c0-.4-.286-.743-.628-.8ZM112 54c-1.1 0-2 .9-2 2s.9 2 2 2 2-.9 2-2-.9-2-2-2Zm-85.943 8.8-2.314-.6c-.429-.086-.857-.514-.943-.943l-.6-2.314c-.171-.6-.686-.943-1.2-.943-.6 0-1.114.428-1.2.943l-.6 2.314c-.086.429-.514.857-.943.943l-2.314.6c-.6.171-.943.686-.943 1.2 0 .6.429 1.114.943 1.2l2.314.6c.429.086.857.514.943.943l.6 2.314c.171.6.686.943 1.2.943.6 0 1.114-.429 1.2-.943l.6-2.314c.086-.429.514-.857.943-.943l2.314-.6c.6-.172.943-.686.943-1.2 0-.6-.429-1.114-.943-1.2ZM7.371 42.2l-1.542-.4a.875.875 0 0 1-.629-.629l-.4-1.542a.841.841 0 0 0-.8-.63c-.4 0-.743.287-.8.63l-.4 1.542a.875.875 0 0 1-.629.629l-1.542.4A.841.841 0 0 0 0 43c0 .4.286.743.629.8l1.542.4a.876.876 0 0 1 .629.628l.4 1.543c.114.4.457.629.8.629.4 0 .743-.286.8-.629l.4-1.543a.876.876 0 0 1 .629-.628l1.542-.4A.841.841 0 0 0 8 43c0-.4-.286-.743-.629-.8ZM126.5 45c-.825 0-1.5.675-1.5 1.5s.675 1.5 1.5 1.5 1.5-.675 1.5-1.5-.675-1.5-1.5-1.5ZM23 27c-1.1 0-2 .9-2 2s.9 2 2 2 2-.9 2-2-.9-2-2-2Z" opacity=".2"/>
  <path fill="url(#Fire-Window-Dark-128_svg__a)" d="M58.23 18c6.227 3.52 6.627 9.4 8.397 15 .3.949 1.915 5 7.313 5 4.798 0 6.782-2.729 7.382-4 .6-1.27.9-3.999 1.2-3.771.3.228 10.478 9.636 10.478 25.907C93 68.339 81.022 76 64.527 76c-16.494 0-30.59-7.661-30.59-19.864 0-16.271 16.195-20.34 24.293-38.136Z"/>
  <path fill="url(#Fire-Window-Dark-128_svg__b)" d="m57.81 18 .998-1.734a2 2 0 0 0-2.823.918L57.81 18Zm8.254 15-1.91.593 1.91-.593Zm14.44 1 1.815.841L80.505 34Zm1.18-3.771 1.226-1.58-.006-.005-1.22 1.585Zm12.379 25.907h2-2ZM74.406 76.627l.526 1.93-.526-1.93ZM64 78v2-2Zm-10.406-1.373-.526 1.93.526-1.93ZM33.937 56.136h-2 2ZM57.81 18l-.997 1.734c2.593 1.49 3.966 3.449 4.919 5.751.49 1.182.866 2.45 1.238 3.826.362 1.338.734 2.835 1.183 4.282l1.91-.593 1.91-.593c-.42-1.353-.75-2.691-1.142-4.14-.382-1.413-.812-2.884-1.403-4.312-1.209-2.918-3.093-5.66-6.62-7.689L57.81 18Zm8.254 15-1.91.593a9.436 9.436 0 0 0 2.188 3.655C67.789 38.74 70.019 40 73.25 40v-4c-2.074 0-3.29-.766-4.036-1.536a5.445 5.445 0 0 1-1.24-2.057l-1.91.593Zm7.186 5v2c5.684 0 8.24-3.37 9.07-5.159L80.504 34l-1.814-.841c-.35.754-1.692 2.841-5.44 2.841v2Zm7.255-4 1.814.841c.406-.875.674-2.129.836-2.846.1-.437.162-.699.207-.84.035-.109.003.038-.132.238a1.868 1.868 0 0 1-.822.668 1.952 1.952 0 0 1-1.944-.248l1.22-1.584 1.22-1.585a2.052 2.052 0 0 0-2.055-.266 2.134 2.134 0 0 0-.934.776 3.04 3.04 0 0 0-.361.778c-.111.346-.215.803-.3 1.178-.206.908-.38 1.653-.564 2.049l1.815.841Zm1.179-3.771-1.227 1.58c.213.164 11.606 9.05 11.606 24.327h4c0-17.266-12.776-27.195-13.153-27.487l-1.226 1.58Zm12.379 25.907h-2c0 8.183-7.302 15.598-18.182 18.561l.525 1.93.526 1.93c11.746-3.199 21.13-11.664 21.13-22.421h-2ZM74.406 76.627l-.525-1.93A37.688 37.688 0 0 1 64 76v4c3.807 0 7.495-.507 10.932-1.443l-.526-1.93ZM64 78v-2c-3.453 0-6.788-.46-9.88-1.303l-.526 1.93-.526 1.93A41.689 41.689 0 0 0 64 80v-2Zm-10.406-1.373.525-1.93C43.24 71.734 35.938 64.32 35.938 56.136h-4c0 10.757 9.384 19.222 21.13 22.42l.526-1.929ZM33.937 56.136h2c0-7.327 3.504-11.922 8.408-17.124 4.87-5.166 11.14-10.913 15.291-20.196L57.81 18l-1.825-.816c-3.807 8.514-9.474 13.699-14.55 19.084-5.043 5.349-9.498 10.923-9.498 19.868h2Z"/>
  <rect width="48" height="36" x="42" y="44" fill="#222" rx="6"/>
  <rect width="48" height="36" x="38" y="44" fill="#444" rx="6"/>
  <rect width="45" height="33" x="39.5" y="45.5" fill="#666" stroke="#444" stroke-width="3" rx="4.5"/>
  <path fill="#444" d="M38 50a6 6 0 0 1 6-6h36a6 6 0 0 1 6 6v2H38v-2Z"/>
  <path fill="#AAA" d="M45 46a2 2 0 1 1 0 4 2 2 0 0 1 0-4Zm6 0a2 2 0 1 1 0 4 2 2 0 0 1 0-4Zm6 0a2 2 0 1 1 0 4 2 2 0 0 1 0-4Z"/>
  <defs>
    <linearGradient id="Fire-Window-Dark-128_svg__a" x1="63.782" x2="68.793" y1="29.6" y2="71.206" gradientUnits="userSpaceOnUse">
      <stop stop-color="#FA8B38"/>
      <stop offset=".52" stop-color="#E72A57"/>
      <stop offset="1" stop-color="#CC165B"/>
    </linearGradient>
    <linearGradient id="Fire-Window-Dark-128_svg__b" x1="64" x2="64" y1="18" y2="78" gradientUnits="userSpaceOnUse">
      <stop stop-color="#FF862D"/>
      <stop offset="1" stop-color="#B40B4A"/>
    </linearGradient>
  </defs>
</svg>
