<svg fill="none" viewBox="0 0 16 16" xmlns="http://www.w3.org/2000/svg">
  <g clip-path="url(#Fire-Tab-16_svg__a)">
    <path fill="#000" d="M10.125 8A2.875 2.875 0 0 1 13 10.875v2.25c0 .897.728 1.625 1.625 1.625H15A.625.625 0 1 1 15 16h-.375a2.875 2.875 0 0 1-2.875-2.875v-2.25c0-.898-.727-1.625-1.625-1.625h-4.25c-.897 0-1.625.727-1.625 1.625v2.25A2.875 2.875 0 0 1 1.375 16H1a.625.625 0 0 1 0-1.25h.375c.897 0 1.625-.728 1.625-1.625v-2.25A2.875 2.875 0 0 1 5.875 8h4.25ZM6.288.03a.625.625 0 0 1 .506.053C7.7.607 8.178 1.348 8.478 2.11c.147.373.254.756.348 1.115.096.37.176.701.277 1.027l.01.027c.06.16.35.721 1.2.721.445 0 .707-.128.864-.251.167-.13.258-.286.305-.386l.013-.033c.032-.088.069-.25.114-.468.02-.099.046-.223.074-.317a.89.89 0 0 1 .091-.22.663.663 0 0 1 .26-.248.636.636 0 0 1 .659.04l.029.02.053.043C13.205 3.531 16 5.96 16 10c0 1.109-.391 2.116-1.05 2.975-.236.306-.697.18-.792-.194l-.015-.06c-.09-.361-.005-.739.172-1.067A3.466 3.466 0 0 0 14.75 10c0-2.504-1.267-4.3-2.095-5.205l-.016.042-.023.05a2.297 2.297 0 0 1-.671.848c-.385.3-.919.515-1.631.515-1.643 0-2.255-1.191-2.393-1.591l-.012-.036c-.112-.363-.204-.743-.293-1.083a8.545 8.545 0 0 0-.3-.971c-.149-.376-.335-.707-.607-.987-1.012 1.906-2.37 3.17-3.433 4.3C2.078 7.154 1.25 8.251 1.25 10c0 .572.152 1.131.435 1.654.177.328.262.706.171 1.067l-.014.06c-.095.374-.556.5-.791.194C.39 12.116 0 11.11 0 10c0-2.252 1.124-3.655 2.366-4.975C3.618 3.694 4.988 2.438 5.911.37l.014-.03a.625.625 0 0 1 .363-.31Z"/>
  </g>
  <defs>
    <clipPath id="Fire-Tab-16_svg__a">
      <path fill="#fff" d="M0 0h16v16H0z"/>
    </clipPath>
  </defs>
</svg>
