<svg width="256" height="162" viewBox="0 0 256 162" fill="none" xmlns="http://www.w3.org/2000/svg">
<g clip-path="url(#clip0_191_12401)">
<path opacity="0.3" d="M35.1674 158.02C49.9904 161.949 65.4116 163.014 80.6999 161.216L214.705 145.167C233.317 142.97 248.472 129.185 252.527 110.873C252.66 110.406 252.727 109.94 252.793 109.474C256.981 87.4322 240.961 66.6555 218.76 64.3248L215.503 63.9918C214.373 63.8586 213.309 63.792 212.179 63.792C202.74 63.5256 193.435 61.1283 185.126 56.6667C176.418 52.0718 168.84 45.4127 163.257 37.2218C152.621 21.7059 133.544 13.5816 114.401 17.5105L97.3177 21.0399C85.1535 23.5704 75.1829 31.8944 70.4634 43.0153C68.004 48.8088 64.2816 53.9364 59.8281 58.3315L57.5016 60.5956C53.4469 64.5245 48.8604 67.8541 43.8751 70.3846C40.6845 71.9828 37.3609 73.3147 33.9044 74.247C21.6073 77.51 11.3708 86.2335 6.31902 98.0869L6.05312 98.7528C-1.85691 117.265 3.92606 138.708 20.012 150.628L20.0785 150.695C24.532 154.091 29.6503 156.555 35.1674 158.02Z" fill="url(#paint0_linear_191_12401)"/>
<g clip-path="url(#clip1_191_12401)">
<rect x="61.0312" y="19.9652" width="133.259" height="288.898" rx="10.8506" fill="#E9EBEC"/>
<g filter="url(#filter0_dd_191_12401)">
<path d="M66.4565 59.2567C66.4565 56.9778 66.4565 55.8384 66.9 54.968C67.2901 54.2024 67.9126 53.5799 68.6782 53.1898C69.5487 52.7463 70.6881 52.7463 72.9669 52.7463H182.355C184.634 52.7463 185.773 52.7463 186.643 53.1898C187.409 53.5799 188.032 54.2024 188.422 54.968C188.865 55.8384 188.865 56.9778 188.865 59.2567V268.335C188.865 270.614 188.865 271.753 188.422 272.623C188.032 273.389 187.409 274.011 186.643 274.402C185.773 274.845 184.634 274.845 182.355 274.845H72.9669C70.6881 274.845 69.5487 274.845 68.6782 274.402C67.9126 274.011 67.2901 273.389 66.9 272.623C66.4565 271.753 66.4565 270.614 66.4565 268.335V59.2567Z" fill="url(#paint1_linear_191_12401)"/>
</g>
<path fill-rule="evenodd" clip-rule="evenodd" d="M127.491 136.53C138.932 136.53 148.206 127.256 148.206 115.816C148.206 104.375 138.932 95.1007 127.491 95.1007C116.051 95.1007 106.776 104.375 106.776 115.816C106.776 127.256 116.051 136.53 127.491 136.53Z" fill="#DE5833"/>
<path fill-rule="evenodd" clip-rule="evenodd" d="M130.404 131.271C130.404 131.109 130.444 131.072 129.93 130.047C128.562 127.309 127.188 123.449 127.813 120.96C127.927 120.507 126.525 104.212 125.535 103.687C124.433 103.1 123.078 102.169 121.839 101.962C121.21 101.861 120.385 101.909 119.741 101.996C119.626 102.011 119.621 102.217 119.731 102.254C120.154 102.398 120.668 102.646 120.971 103.023C121.028 103.094 120.951 103.206 120.86 103.21C120.574 103.22 120.057 103.34 119.373 103.92C119.294 103.987 119.36 104.112 119.462 104.092C120.93 103.801 122.43 103.944 123.313 104.748C123.371 104.8 123.341 104.893 123.266 104.914C115.597 106.998 117.115 113.669 119.157 121.856C120.945 129.029 121.637 131.42 121.864 132.178C121.892 132.27 121.958 132.344 122.048 132.379C124.703 133.417 130.404 133.455 130.404 131.675V131.271Z" fill="#DDDDDD"/>
<path d="M131.456 132.808C130.526 133.172 128.705 133.334 127.653 133.334C126.111 133.334 123.89 133.091 123.081 132.727C122.582 131.189 121.086 126.422 119.609 120.368C119.561 120.17 119.513 119.973 119.464 119.777L119.463 119.772C117.708 112.6 116.274 106.743 124.133 104.903C124.205 104.886 124.24 104.8 124.192 104.744C123.291 103.674 121.601 103.324 119.465 104.06C119.378 104.091 119.302 104.002 119.356 103.927C119.775 103.35 120.593 102.906 120.997 102.711C121.081 102.671 121.076 102.549 120.987 102.521C120.723 102.438 120.273 102.312 119.767 102.23C119.647 102.211 119.636 102.006 119.757 101.989C122.785 101.582 125.947 102.491 127.534 104.49C127.549 104.509 127.57 104.522 127.594 104.527C133.404 105.775 133.821 114.96 133.151 115.379C133.019 115.461 132.596 115.414 132.038 115.352C129.777 115.099 125.3 114.598 128.995 121.484C129.032 121.552 128.984 121.642 128.907 121.654C126.823 121.978 129.494 128.507 131.456 132.808Z" fill="white"/>
<path d="M134.055 124.457C133.613 124.252 131.912 125.472 130.783 126.408C130.547 126.074 130.103 125.832 129.099 126.006C128.221 126.159 127.736 126.371 127.52 126.736C126.133 126.21 123.801 125.399 123.238 126.182C122.622 127.039 123.392 131.089 124.21 131.615C124.637 131.89 126.68 130.577 127.746 129.671C127.918 129.914 128.195 130.053 128.765 130.039C129.626 130.019 131.024 129.819 131.241 129.418C131.254 129.393 131.265 129.365 131.275 129.332C132.371 129.742 134.301 130.175 134.732 130.111C135.855 129.942 134.576 124.698 134.055 124.457Z" fill="#3CA82B"/>
<path d="M130.887 126.528C130.933 126.611 130.971 126.698 131.002 126.787C131.159 127.224 131.413 128.615 131.221 128.959C131.028 129.302 129.777 129.468 129.006 129.481C128.234 129.495 128.06 129.212 127.904 128.775C127.779 128.426 127.718 127.603 127.719 127.133C127.687 126.434 127.943 126.189 129.122 125.998C129.995 125.857 130.456 126.021 130.722 126.302C131.961 125.377 134.028 124.072 134.23 124.311C135.235 125.5 135.363 128.331 135.145 129.47C135.074 129.842 131.745 129.101 131.745 128.699C131.745 127.032 131.312 126.575 130.887 126.528Z" fill="#4CBA3C"/>
<path d="M123.594 126.007C123.867 125.576 126.078 126.112 127.292 126.652C127.292 126.652 127.042 127.782 127.439 129.114C127.556 129.503 124.647 131.236 124.268 130.938C123.829 130.593 123.021 126.914 123.594 126.007Z" fill="#4CBA3C"/>
<path fill-rule="evenodd" clip-rule="evenodd" d="M124.665 117.242C124.844 116.464 125.678 114.998 128.653 115.034C130.158 115.027 132.026 115.033 133.265 114.892C135.107 114.683 136.474 114.238 137.384 113.891C138.673 113.399 139.13 113.509 139.29 113.803C139.466 114.126 139.259 114.684 138.809 115.197C137.949 116.178 136.403 116.939 133.674 117.164C130.944 117.39 129.135 116.658 128.357 117.85C128.021 118.364 128.281 119.576 130.921 119.957C134.488 120.472 137.417 119.337 137.779 120.022C138.141 120.708 136.056 122.103 132.483 122.132C128.91 122.161 126.679 120.881 125.887 120.245C124.883 119.437 124.434 118.26 124.665 117.242Z" fill="#FFCC33"/>
<path d="M129.216 108.736C129.415 108.41 129.857 108.158 130.58 108.158C131.303 108.158 131.643 108.446 131.879 108.766C131.927 108.832 131.854 108.909 131.78 108.876C131.762 108.869 131.744 108.861 131.726 108.853C131.461 108.737 131.136 108.595 130.58 108.587C129.985 108.579 129.61 108.728 129.373 108.857C129.294 108.9 129.168 108.813 129.216 108.736Z" fill="#14307E"/>
<path d="M121.073 109.153C121.775 108.86 122.327 108.898 122.718 108.99C122.8 109.01 122.857 108.921 122.791 108.868C122.488 108.624 121.811 108.321 120.926 108.65C120.138 108.944 119.766 109.555 119.764 109.957C119.764 110.052 119.958 110.06 120.009 109.98C120.145 109.763 120.371 109.447 121.073 109.153Z" fill="#14307E"/>
<path fill-rule="evenodd" clip-rule="evenodd" d="M131.194 113.2C130.573 113.2 130.07 112.698 130.07 112.08C130.07 111.462 130.573 110.96 131.194 110.96C131.815 110.96 132.319 111.462 132.319 112.08C132.319 112.698 131.815 113.2 131.194 113.2ZM131.986 111.709C131.986 111.549 131.855 111.419 131.695 111.419C131.535 111.419 131.405 111.549 131.404 111.709C131.404 111.869 131.535 111.999 131.695 111.999C131.857 111.999 131.986 111.869 131.986 111.709Z" fill="#14307E"/>
<path fill-rule="evenodd" clip-rule="evenodd" d="M123.744 112.855C123.744 113.577 123.158 114.162 122.434 114.162C121.711 114.162 121.123 113.577 121.123 112.855C121.123 112.134 121.711 111.549 122.434 111.549C123.157 111.549 123.744 112.134 123.744 112.855ZM123.358 112.422C123.358 112.236 123.206 112.084 123.019 112.084C122.832 112.084 122.681 112.234 122.679 112.422C122.679 112.608 122.831 112.76 123.019 112.76C123.206 112.76 123.358 112.608 123.358 112.422Z" fill="#14307E"/>
<path fill-rule="evenodd" clip-rule="evenodd" d="M127.491 131.999C136.429 131.999 143.675 124.753 143.675 115.816C143.675 106.878 136.429 99.6321 127.491 99.6321C118.553 99.6321 111.308 106.878 111.308 115.816C111.308 124.753 118.553 131.999 127.491 131.999ZM127.491 133.941C137.502 133.941 145.617 125.826 145.617 115.816C145.617 105.805 137.502 97.6901 127.491 97.6901C117.481 97.6901 109.366 105.805 109.366 115.816C109.366 125.826 117.481 133.941 127.491 133.941Z" fill="white"/>
<g filter="url(#filter1_dd_191_12401)">
<path d="M67.8129 37.1485C67.8129 34.5128 67.8129 33.1949 68.1805 32.1345C68.8491 30.2061 70.3647 28.6905 72.2932 28.0219C73.3535 27.6542 74.6714 27.6542 77.3072 27.6542H178.015C180.65 27.6542 181.968 27.6542 183.029 28.0219C184.957 28.6905 186.473 30.2061 187.141 32.1345C187.509 33.1949 187.509 34.5128 187.509 37.1485V37.1485C187.509 39.7843 187.509 41.1022 187.141 42.1625C186.473 44.091 184.957 45.6066 183.029 46.2752C181.968 46.6428 180.65 46.6428 178.015 46.6428H77.3072C74.6714 46.6428 73.3535 46.6428 72.2932 46.2752C70.3647 45.6066 68.8491 44.091 68.1805 42.1625C67.8129 41.1022 67.8129 39.7843 67.8129 37.1485V37.1485Z" fill="#F9FAFA" shape-rendering="crispEdges"/>
<path d="M73.3513 37.9962V34.6054L74.199 34.0403H75.6118L77.3072 32.91L79.0026 34.0403H80.4155L81.2632 34.6054V37.9962L79.5678 40.5393L77.3072 41.387L75.0467 40.5393L73.3513 37.9962Z" fill="url(#paint2_linear_191_12401)"/>
<path d="M81.2631 37.9962L79.5677 40.5393L77.8723 41.1045H77.3072V32.91L79.0026 34.0403H80.4154L81.2631 34.6054V37.9962Z" fill="url(#paint3_linear_191_12401)"/>
<path d="M75.7794 33.8184L76.3762 33.2649C76.8985 32.7804 77.7082 32.7884 78.2209 33.2831L78.7631 33.8063C78.9993 34.0341 79.339 34.1187 79.6544 34.0281L79.9728 33.9366C80.7267 33.72 81.4826 34.2726 81.5048 35.0567L81.5414 36.3452C81.5955 38.2499 80.5186 40.0065 78.7967 40.8225L77.9141 41.2407C77.5301 41.4227 77.0845 41.4221 76.7009 41.2392L75.82 40.819C74.1115 40.0041 73.0409 38.2619 73.0857 36.3696L73.1162 35.0786C73.1349 34.2877 73.9 33.7306 74.6585 33.9557L74.8936 34.0255C75.2047 34.1178 75.5415 34.0391 75.7794 33.8184Z" stroke="url(#paint4_linear_191_12401)" stroke-width="0.565137"/>
<path d="M175.334 39.1705C175.544 39.3663 175.586 39.6966 175.398 39.9147L174.86 40.5395C174.562 40.8854 174.853 41.408 175.303 41.3288C176.828 41.0603 179.269 40.5816 180.289 40.1101C181.941 39.5064 183.106 38.051 183.106 36.3514C183.106 34.1109 181.082 32.2947 178.585 32.2947C176.088 32.2947 174.064 34.1109 174.064 36.3514C174.064 37.4467 174.547 38.4406 175.334 39.1705Z" fill="white"/>
<path d="M175.334 39.1705C175.544 39.3663 175.586 39.6966 175.398 39.9147L174.86 40.5395C174.562 40.8854 174.853 41.408 175.303 41.3288C176.828 41.0603 179.269 40.5816 180.289 40.1101C181.941 39.5064 183.106 38.051 183.106 36.3514C183.106 34.1109 181.082 32.2947 178.585 32.2947C176.088 32.2947 174.064 34.1109 174.064 36.3514C174.064 37.4467 174.547 38.4406 175.334 39.1705Z" fill="url(#paint5_linear_191_12401)"/>
<path d="M178.373 34.2394C178.428 34.0194 178.741 34.0194 178.796 34.2394L178.916 34.7185C179.078 35.3689 179.586 35.8768 180.237 36.0394L180.716 36.1591C180.936 36.2141 180.936 36.5268 180.716 36.5818L180.237 36.7016C179.586 36.8642 179.078 37.372 178.916 38.0224L178.796 38.5015C178.741 38.7215 178.428 38.7215 178.373 38.5015L178.254 38.0224C178.091 37.372 177.583 36.8642 176.933 36.7016L176.454 36.5818C176.234 36.5268 176.234 36.2141 176.454 36.1591L176.933 36.0394C177.583 35.8768 178.091 35.3689 178.254 34.7185L178.373 34.2394Z" fill="white"/>
<path d="M182.541 36.3514C182.541 37.7763 181.561 39.0435 180.094 39.5793L180.073 39.5873L180.051 39.5972C179.602 39.8051 178.79 40.032 177.859 40.2447C177.037 40.4327 176.161 40.6011 175.442 40.7302L175.826 40.2834L175.845 40.2608C176.23 39.7892 176.116 39.1435 175.737 38.774L175.718 38.7563C175.045 38.1319 174.641 37.3001 174.629 36.3946L174.629 36.3514C174.629 34.4791 176.341 32.8598 178.585 32.8598V32.2947L178.526 32.295C176.076 32.3229 174.095 34.1002 174.064 36.299L174.064 36.3514C174.064 37.4296 174.532 38.4095 175.297 39.1361L175.334 39.1705C175.538 39.3602 175.583 39.6761 175.415 39.894L175.398 39.9148L174.86 40.5395C174.562 40.8855 174.853 41.408 175.303 41.3288C176.828 41.0603 179.269 40.5816 180.288 40.1102C181.941 39.5065 183.106 38.051 183.106 36.3514L183.105 36.299C183.074 34.0827 181.062 32.2947 178.585 32.2947V32.8598C180.811 32.8598 182.514 34.454 182.54 36.3076L182.541 36.3514Z" fill="white"/>
<path d="M182.541 36.3514C182.541 37.7763 181.561 39.0435 180.094 39.5793L180.073 39.5873L180.051 39.5972C179.602 39.8051 178.79 40.032 177.859 40.2447C177.037 40.4327 176.161 40.6011 175.442 40.7302L175.826 40.2834L175.845 40.2608C176.23 39.7892 176.116 39.1435 175.737 38.774L175.718 38.7563C175.045 38.1319 174.641 37.3001 174.629 36.3946L174.629 36.3514C174.629 34.4791 176.341 32.8598 178.585 32.8598V32.2947L178.526 32.295C176.076 32.3229 174.095 34.1002 174.064 36.299L174.064 36.3514C174.064 37.4296 174.532 38.4095 175.297 39.1361L175.334 39.1705C175.538 39.3602 175.583 39.6761 175.415 39.894L175.398 39.9148L174.86 40.5395C174.562 40.8855 174.853 41.408 175.303 41.3288C176.828 41.0603 179.269 40.5816 180.288 40.1102C181.941 39.5065 183.106 38.051 183.106 36.3514L183.105 36.299C183.074 34.0827 181.062 32.2947 178.585 32.2947V32.8598C180.811 32.8598 182.514 34.454 182.54 36.3076L182.541 36.3514Z" fill="url(#paint6_linear_191_12401)"/>
<rect x="86.1234" y="35.114" width="40.0117" height="4.06898" rx="1.35633" fill="#DBDEDF"/>
<path d="M169.007 32.8597C169.007 32.7447 169.1 32.6515 169.215 32.6515V32.6515C169.33 32.6515 169.423 32.7447 169.423 32.8597V40.7719C169.423 40.8869 169.33 40.9802 169.215 40.9802V40.9802C169.1 40.9802 169.007 40.8869 169.007 40.7719V32.8597Z" fill="#1C1F21" fill-opacity="0.09"/>
</g>
</g>
<rect x="58.3186" y="17.2526" width="138.685" height="294.323" rx="13.5633" stroke="url(#paint7_linear_191_12401)" stroke-width="5.42531"/>
<path opacity="0.2" d="M37.5135 94.0497L40.1293 93.3715C40.6137 93.2746 41.0981 92.7902 41.195 92.3058L41.8731 89.69C42.0669 89.0119 42.6482 88.6244 43.2295 88.6244C43.9076 88.6244 44.4889 89.1088 44.5858 89.69L45.2639 92.3058C45.3608 92.7902 45.8453 93.2746 46.3297 93.3715L48.9454 94.0497C49.6236 94.2434 50.0111 94.8247 50.0111 95.406C50.0111 96.0842 49.5267 96.6654 48.9454 96.7623L46.3297 97.4405C45.8453 97.5374 45.3608 98.0218 45.2639 98.5062L44.5858 101.122C44.3921 101.8 43.8107 102.188 43.2295 102.188C42.5513 102.188 41.97 101.703 41.8731 101.122L41.195 98.5062C41.0981 98.0218 40.6137 97.5374 40.1293 97.4405L37.5135 96.7623C36.8353 96.5686 36.4478 95.9873 36.4478 95.406C36.4478 94.7278 36.9322 94.1465 37.5135 94.0497Z" fill="#888888"/>
<path opacity="0.2" d="M212.456 42.1702L213.764 41.8311C214.006 41.7826 214.248 41.5404 214.296 41.2982L214.635 39.9903C214.732 39.6513 215.023 39.4575 215.314 39.4575C215.653 39.4575 215.943 39.6997 215.992 39.9903L216.331 41.2982C216.379 41.5404 216.622 41.7826 216.864 41.8311L218.172 42.1702C218.511 42.267 218.704 42.5577 218.704 42.8483C218.704 43.1874 218.462 43.478 218.172 43.5265L216.864 43.8656C216.622 43.914 216.379 44.1562 216.331 44.3984L215.992 45.7063C215.895 46.0454 215.604 46.2391 215.314 46.2391C214.975 46.2391 214.684 45.9969 214.635 45.7063L214.296 44.3984C214.248 44.1562 214.006 43.914 213.764 43.8656L212.456 43.5265C212.117 43.4296 211.923 43.139 211.923 42.8483C211.923 42.5092 212.165 42.2186 212.456 42.1702Z" fill="#888888"/>
<path opacity="0.2" d="M218.922 29.6254L221.538 28.9472C222.023 28.8503 222.507 28.3659 222.604 27.8815L223.282 25.2657C223.476 24.5876 224.057 24.2 224.638 24.2C225.317 24.2 225.898 24.6844 225.995 25.2657L226.673 27.8815C226.77 28.3659 227.254 28.8503 227.739 28.9472L230.354 29.6254C231.033 29.8191 231.42 30.4004 231.42 30.9817C231.42 31.6598 230.936 32.2411 230.354 32.338L227.739 33.0162C227.254 33.1131 226.77 33.5975 226.673 34.0819L225.995 36.6976C225.801 37.3758 225.22 37.7633 224.638 37.7633C223.96 37.7633 223.379 37.2789 223.282 36.6976L222.604 34.0819C222.507 33.5975 222.023 33.1131 221.538 33.0162L218.922 32.338C218.244 32.1443 217.857 31.563 217.857 30.9817C217.857 30.3035 218.341 29.7222 218.922 29.6254Z" fill="#888888"/>
<path opacity="0.2" d="M211.075 113.209C212.474 113.209 213.618 114.353 213.618 115.752C213.618 117.151 212.474 118.295 211.075 118.295C209.676 118.295 208.532 117.151 208.532 115.752C208.532 114.353 209.676 113.209 211.075 113.209Z" fill="#888888"/>
<path opacity="0.3" d="M8.47361 156.439C9.87232 156.439 11.0167 157.583 11.0167 158.982C11.0167 160.381 9.87232 161.525 8.47361 161.525C7.07489 161.525 5.93049 160.381 5.93049 158.982C5.93049 157.583 7.07489 156.439 8.47361 156.439Z" fill="#888888"/>
<path opacity="0.2" d="M32.2093 114.057C33.608 114.057 34.7524 115.201 34.7524 116.6C34.7524 117.999 33.608 119.143 32.2093 119.143C30.8106 119.143 29.6662 117.999 29.6662 116.6C29.6662 115.201 30.8106 114.057 32.2093 114.057Z" fill="#888888"/>
<g clip-path="url(#clip2_191_12401)">
<path d="M10.8918 58.8098H29.2022C33.3392 58.8098 36.6929 62.1635 36.6929 66.3004V76.4079C36.6929 80.1722 33.7514 83.2237 29.9872 83.2237C29.4612 83.2237 28.9247 83.6503 28.9903 84.1721C29.1244 85.2377 29.447 86.4568 29.7957 87.5593C30.2338 88.9448 29.028 90.2863 27.6783 89.748C25.275 88.7895 21.9673 87.1389 19.1347 84.5359C18.2663 83.7379 17.1562 83.2237 15.9767 83.2237H10.8918C6.75486 83.2237 3.40117 79.8701 3.40117 75.7331V66.3004C3.40117 62.1635 6.75484 58.8098 10.8918 58.8098Z" fill="#FFDE7A"/>
<path d="M4.51092 75.2892V65.8566C4.51092 62.3329 7.3695 59.4756 10.894 59.4756H29.2001C32.7246 59.4756 35.5832 62.3329 35.5832 65.8566V75.9641C35.5831 79.1392 33.115 81.6701 29.9871 81.6701C29.4398 81.6701 28.9135 81.8851 28.5267 82.2315C28.1455 82.5728 27.823 83.1217 27.8793 83.794L27.886 83.8594C28.0371 85.128 28.4121 86.6183 28.7904 87.9123C28.8791 88.2155 28.7803 88.4698 28.6288 88.615C28.4923 88.7457 28.3163 88.7957 28.0912 88.6902L27.6426 88.4763C25.3542 87.3665 22.413 85.6557 19.8871 83.2885C18.8558 82.322 17.4826 81.6701 15.9768 81.6701H10.8918C7.36775 81.6701 4.51092 78.8133 4.51092 75.2892ZM2.29147 75.2892C2.29147 80.039 6.14199 83.8895 10.8918 83.8896H15.9768C16.8299 83.8896 17.6796 84.2615 18.3695 84.908C21.2061 87.5664 24.4802 89.4286 26.9161 90.5897L27.1491 90.6998C28.2642 91.2227 29.4139 90.9361 30.1639 90.2178C30.8988 89.5139 31.2473 88.4068 30.9206 87.2894C30.5846 86.1402 30.2781 84.9159 30.1288 83.8876C34.4608 83.8119 37.8026 80.2707 37.8026 75.9641V65.8566C37.8026 61.1063 33.9495 57.2562 29.2001 57.2562H10.894C6.14457 57.2562 2.29147 61.1063 2.29147 65.8566V75.2892Z" fill="url(#paint8_linear_191_12401)"/>
<path d="M20.7399 68.8858C21.3675 67.7691 22.4161 66.4578 23.8373 66.5867C26.6682 66.8435 28.3043 70.2541 24.3787 73.6499C23.356 74.5346 22.5579 75.2029 21.9346 75.7265C20.9511 76.5526 19.1691 76.5464 18.185 75.7211C17.5441 75.1837 16.7321 74.5114 15.7154 73.6499C11.7898 70.3235 13.4258 66.8435 16.2568 66.5867C17.6791 66.4577 18.735 67.7712 19.368 68.8885C19.6302 69.3512 20.4794 69.3494 20.7399 68.8858Z" fill="#E2A412"/>
<path d="M19.6598 66.7672C19.035 66.2251 18.1184 65.7166 16.9666 65.7847L16.8544 65.7932L16.7689 65.8017C14.9741 65.9984 13.4181 67.2393 13.0325 69.1068C12.6452 70.9821 13.5326 72.9182 15.3468 74.4919L15.434 74.5666C15.8425 74.9128 16.2127 75.2234 16.5435 75.5L17.4166 76.2295C18.1971 76.884 19.1832 77.1402 20.0537 77.142C20.8968 77.1438 21.8529 76.9073 22.625 76.2934L22.6992 76.2328C23.0724 75.9193 23.5302 75.5358 24.0856 75.061L24.6741 74.5548C26.5303 72.9492 27.4566 70.9849 27.0613 69.0835C26.6652 67.1784 25.0518 65.9576 23.2397 65.7932L23.1275 65.7847C21.976 65.7166 21.0603 66.2249 20.4362 66.7684C20.2988 66.8881 20.1702 67.0145 20.0494 67.1438C19.9277 67.014 19.7982 66.8872 19.6598 66.7672ZM17.015 67.5615C18.1528 67.4583 18.9974 68.5091 19.5039 69.4029L19.5249 69.4366C19.7481 69.7618 20.3583 69.7605 20.5805 69.4345L20.6015 69.4007C21.1036 68.5073 21.9424 67.4584 23.0793 67.5615C25.344 67.7669 26.6529 70.4954 23.5124 73.2121C22.6943 73.9198 22.0559 74.4545 21.5572 74.8733C20.7951 75.5136 19.4332 75.5289 18.6331 74.929L18.5575 74.869C18.173 74.5465 17.7114 74.1634 17.1615 73.7012L16.5818 73.2121C13.4414 70.551 14.7502 67.767 17.015 67.5615Z" fill="#E2A412"/>
</g>
<path d="M222.723 130.29C225.682 125.26 229.688 122.009 231.341 117.473C236.14 121.474 233.157 128.969 237.825 129.349C242.494 129.729 241.456 123.669 241.456 123.669C244.803 127.513 246.856 132.285 247.136 136.578C247.539 142.753 243.667 147.937 233.935 147.937C223.338 147.937 217.455 139.246 222.723 130.29Z" fill="url(#paint9_linear_191_12401)"/>
<path d="M233.888 133.996C235.751 137.352 238.863 139.159 238.863 142.257C238.863 145.355 237.484 147.679 233.935 147.679C230.608 147.679 229.007 145.355 229.007 142.257C229.007 139.159 231.86 137.352 233.888 133.996Z" fill="#FFCC33"/>
<path fill-rule="evenodd" clip-rule="evenodd" d="M233.906 132.98C234.269 132.987 234.6 133.186 234.776 133.503C235.428 134.678 236.223 135.622 237.033 136.584C237.311 136.913 237.59 137.244 237.866 137.587C238.901 138.876 239.878 140.339 239.878 142.257C239.878 143.936 239.507 145.555 238.517 146.771C237.497 148.024 235.947 148.694 233.935 148.694C232.016 148.694 230.483 148.013 229.447 146.784C228.433 145.581 227.992 143.968 227.992 142.257C227.992 140.363 228.878 138.912 229.882 137.605C230.213 137.174 230.55 136.764 230.887 136.354C231.618 135.466 232.35 134.578 233.019 133.471C233.206 133.161 233.544 132.974 233.906 132.98ZM231.492 138.842C230.563 140.052 230.023 141.053 230.023 142.257C230.023 143.644 230.382 144.742 231 145.475C231.597 146.183 232.527 146.663 233.935 146.663C235.471 146.663 236.385 146.172 236.942 145.489C237.529 144.768 237.847 143.677 237.847 142.257C237.847 141.078 237.269 140.088 236.282 138.859C236.064 138.587 235.822 138.301 235.569 138C235.026 137.358 234.427 136.647 233.865 135.854C233.356 136.553 232.83 137.193 232.35 137.776C232.039 138.155 231.747 138.51 231.492 138.842Z" fill="#FFCC33"/>
<path fill-rule="evenodd" clip-rule="evenodd" d="M237.907 116.473C238.459 116.375 238.986 116.743 239.085 117.295C239.15 117.663 239.213 117.876 239.297 118.026C239.362 118.143 239.458 118.255 239.683 118.361C240.191 118.599 240.409 119.203 240.171 119.711C239.933 120.219 239.329 120.438 238.821 120.2C238.22 119.918 237.801 119.513 237.524 119.017C237.265 118.554 237.157 118.057 237.085 117.651C236.987 117.098 237.355 116.571 237.907 116.473ZM231.077 116.492C231.397 116.406 231.738 116.481 231.992 116.693C234.609 118.876 235.163 121.973 235.579 124.297C235.597 124.396 235.614 124.493 235.631 124.588C235.857 125.838 236.05 126.76 236.407 127.405C236.571 127.704 236.754 127.908 236.966 128.048C237.175 128.187 237.468 128.301 237.908 128.337C238.841 128.413 239.357 128.167 239.675 127.874C240.023 127.554 240.262 127.056 240.4 126.432C240.536 125.816 240.553 125.167 240.531 124.654C240.52 124.401 240.5 124.191 240.483 124.046C240.475 123.974 240.467 123.919 240.462 123.884C240.461 123.874 240.459 123.865 240.458 123.858C240.458 123.853 240.457 123.849 240.456 123.846L240.456 123.84L240.455 123.84C240.379 123.391 240.61 122.947 241.021 122.752C241.433 122.556 241.924 122.659 242.222 123.002C245.694 126.99 247.852 131.967 248.149 136.512C248.366 139.832 247.434 142.986 245.043 145.303C242.662 147.61 238.972 148.953 233.935 148.953C228.363 148.953 223.887 146.661 221.528 143.025C219.154 139.367 219.047 134.538 221.848 129.775C223.135 127.587 224.62 125.719 225.985 124.001C226.236 123.686 226.483 123.375 226.723 123.069C228.298 121.065 229.621 119.228 230.387 117.125C230.501 116.814 230.758 116.578 231.077 116.492ZM242.437 126.604C242.421 126.693 242.403 126.781 242.383 126.87C242.197 127.714 241.82 128.66 241.05 129.369C240.249 130.106 239.144 130.475 237.743 130.361C237.016 130.302 236.381 130.098 235.841 129.739C235.303 129.381 234.916 128.906 234.629 128.387C234.081 127.395 233.845 126.121 233.633 124.95C233.626 124.913 233.619 124.876 233.613 124.838C233.252 122.842 232.894 120.861 231.675 119.275C230.786 121.097 229.577 122.724 228.32 124.324C228.067 124.646 227.813 124.966 227.557 125.288C226.192 127.007 224.808 128.749 223.599 130.805C221.132 134.998 221.333 138.993 223.232 141.919C224.452 143.8 226.425 145.317 228.999 146.169C228.302 145.056 227.992 143.691 227.992 142.258C227.992 140.364 228.878 138.912 229.882 137.605C230.213 137.174 230.55 136.764 230.887 136.355C231.619 135.466 232.35 134.578 233.019 133.471C233.206 133.161 233.544 132.974 233.906 132.981C234.269 132.987 234.6 133.186 234.776 133.503C235.428 134.679 236.223 135.622 237.034 136.584C237.311 136.913 237.59 137.244 237.866 137.588C238.901 138.876 239.878 140.339 239.878 142.258C239.878 143.758 239.582 145.21 238.812 146.37C240.914 145.836 242.494 144.945 243.63 143.844C245.507 142.025 246.309 139.499 246.123 136.644C245.911 133.396 244.611 129.808 242.437 126.604ZM231.492 138.842C230.563 140.052 230.023 141.053 230.023 142.258C230.023 143.645 230.382 144.742 231 145.476C231.597 146.183 232.527 146.664 233.935 146.664C235.471 146.664 236.385 146.173 236.942 145.489C237.529 144.769 237.847 143.677 237.847 142.258C237.847 141.078 237.269 140.088 236.282 138.859C236.064 138.587 235.822 138.302 235.569 138.001C235.027 137.358 234.427 136.647 233.865 135.855C233.356 136.553 232.83 137.193 232.35 137.777C232.039 138.156 231.747 138.511 231.492 138.842Z" fill="url(#paint10_linear_191_12401)"/>
</g>
<defs>
<filter id="filter0_dd_191_12401" x="44.7553" y="29.6887" width="165.811" height="265.501" filterUnits="userSpaceOnUse" color-interpolation-filters="sRGB">
<feFlood flood-opacity="0" result="BackgroundImageFix"/>
<feColorMatrix in="SourceAlpha" type="matrix" values="0 0 0 0 0 0 0 0 0 0 0 0 0 0 0 0 0 0 127 0" result="hardAlpha"/>
<feMorphology radius="1.35633" operator="erode" in="SourceAlpha" result="effect1_dropShadow_191_12401"/>
<feOffset dy="0.678164"/>
<feGaussianBlur stdDeviation="0.678164"/>
<feComposite in2="hardAlpha" operator="out"/>
<feColorMatrix type="matrix" values="0 0 0 0 0.095 0 0 0 0 0.19 0 0 0 0 0.285 0 0 0 0.08 0"/>
<feBlend mode="normal" in2="BackgroundImageFix" result="effect1_dropShadow_191_12401"/>
<feColorMatrix in="SourceAlpha" type="matrix" values="0 0 0 0 0 0 0 0 0 0 0 0 0 0 0 0 0 0 127 0" result="hardAlpha"/>
<feOffset dy="-1.35633"/>
<feGaussianBlur stdDeviation="10.8506"/>
<feComposite in2="hardAlpha" operator="out"/>
<feColorMatrix type="matrix" values="0 0 0 0 0.12 0 0 0 0 0.24 0 0 0 0 0.36 0 0 0 0.08 0"/>
<feBlend mode="normal" in2="effect1_dropShadow_191_12401" result="effect2_dropShadow_191_12401"/>
<feBlend mode="normal" in="SourceGraphic" in2="effect2_dropShadow_191_12401" result="shape"/>
</filter>
<filter id="filter1_dd_191_12401" x="57.8184" y="24.3227" width="139.685" height="38.9775" filterUnits="userSpaceOnUse" color-interpolation-filters="sRGB">
<feFlood flood-opacity="0" result="BackgroundImageFix"/>
<feColorMatrix in="SourceAlpha" type="matrix" values="0 0 0 0 0 0 0 0 0 0 0 0 0 0 0 0 0 0 127 0" result="hardAlpha"/>
<feMorphology radius="2.49861" operator="erode" in="SourceAlpha" result="effect1_dropShadow_191_12401"/>
<feOffset dy="1.66574"/>
<feGaussianBlur stdDeviation="2.49861"/>
<feComposite in2="hardAlpha" operator="out"/>
<feColorMatrix type="matrix" values="0 0 0 0 0.109804 0 0 0 0 0.121569 0 0 0 0 0.129412 0 0 0 0.04 0"/>
<feBlend mode="normal" in2="BackgroundImageFix" result="effect1_dropShadow_191_12401"/>
<feColorMatrix in="SourceAlpha" type="matrix" values="0 0 0 0 0 0 0 0 0 0 0 0 0 0 0 0 0 0 127 0" result="hardAlpha"/>
<feMorphology radius="9.99444" operator="erode" in="SourceAlpha" result="effect2_dropShadow_191_12401"/>
<feOffset dy="6.66296"/>
<feGaussianBlur stdDeviation="9.99444"/>
<feComposite in2="hardAlpha" operator="out"/>
<feColorMatrix type="matrix" values="0 0 0 0 0.109804 0 0 0 0 0.121569 0 0 0 0 0.129412 0 0 0 0.04 0"/>
<feBlend mode="normal" in2="effect1_dropShadow_191_12401" result="effect2_dropShadow_191_12401"/>
<feBlend mode="normal" in="SourceGraphic" in2="effect2_dropShadow_191_12401" result="shape"/>
</filter>
<linearGradient id="paint0_linear_191_12401" x1="128" y1="16.5288" x2="128" y2="162.063" gradientUnits="userSpaceOnUse">
<stop stop-color="#EAEAEA"/>
<stop offset="1" stop-color="#DCDCDC"/>
</linearGradient>
<linearGradient id="paint1_linear_191_12401" x1="127.661" y1="88.0108" x2="127.661" y2="234.494" gradientUnits="userSpaceOnUse">
<stop stop-color="white"/>
<stop offset="1" stop-color="#CBCBCB"/>
</linearGradient>
<linearGradient id="paint2_linear_191_12401" x1="77.3096" y1="33.1926" x2="77.3569" y2="41.3868" gradientUnits="userSpaceOnUse">
<stop stop-color="#7BD66D"/>
<stop offset="1" stop-color="#288419"/>
</linearGradient>
<linearGradient id="paint3_linear_191_12401" x1="79.2852" y1="32.91" x2="79.2852" y2="41.6696" gradientUnits="userSpaceOnUse">
<stop stop-color="#69CC5B"/>
<stop offset="1" stop-color="#288419"/>
</linearGradient>
<linearGradient id="paint4_linear_191_12401" x1="77.3072" y1="33.1926" x2="77.3072" y2="41.1045" gradientUnits="userSpaceOnUse">
<stop offset="0.00833332" stop-color="#399F29"/>
<stop offset="1" stop-color="#1A690D"/>
</linearGradient>
<linearGradient id="paint5_linear_191_12401" x1="174.064" y1="32.2947" x2="183.129" y2="41.3131" gradientUnits="userSpaceOnUse">
<stop stop-color="#D9DCDE"/>
<stop offset="1" stop-color="#CCCCCC"/>
</linearGradient>
<linearGradient id="paint6_linear_191_12401" x1="174.064" y1="41.3369" x2="183.129" y2="32.3185" gradientUnits="userSpaceOnUse">
<stop stop-color="#D9DCDE"/>
<stop offset="1" stop-color="#CCCCCC"/>
</linearGradient>
<linearGradient id="paint7_linear_191_12401" x1="55.2669" y1="321.748" x2="207.176" y2="19.9652" gradientUnits="userSpaceOnUse">
<stop/>
<stop offset="1" stop-color="#666666"/>
</linearGradient>
<linearGradient id="paint8_linear_191_12401" x1="-22.0337" y1="70.6793" x2="35.4943" y2="70.1467" gradientUnits="userSpaceOnUse">
<stop stop-color="#E2A412"/>
<stop offset="1" stop-color="#FFDE7A"/>
</linearGradient>
<linearGradient id="paint9_linear_191_12401" x1="247.164" y1="132.705" x2="215.685" y2="132.887" gradientUnits="userSpaceOnUse">
<stop stop-color="#FA8B38"/>
<stop offset="0.52" stop-color="#E72A57"/>
<stop offset="1" stop-color="#CC165B"/>
</linearGradient>
<linearGradient id="paint10_linear_191_12401" x1="248.688" y1="132.705" x2="211.624" y2="132.91" gradientUnits="userSpaceOnUse">
<stop offset="0.0576923" stop-color="#FA8B38"/>
<stop offset="0.514423" stop-color="#E72A57"/>
<stop offset="0.663462" stop-color="#CC165B"/>
</linearGradient>
<clipPath id="clip0_191_12401">
<rect width="256" height="161.912" fill="white"/>
</clipPath>
<clipPath id="clip1_191_12401">
<rect x="61.0312" y="19.9652" width="133.259" height="288.898" rx="10.8506" fill="white"/>
</clipPath>
<clipPath id="clip2_191_12401">
<rect width="40.6898" height="40.6898" fill="white" transform="matrix(-1 0 0 1 40.6863 52.5969)"/>
</clipPath>
</defs>
</svg>
