<svg width="256" height="144" viewBox="0 0 256 144" fill="none" xmlns="http://www.w3.org/2000/svg">
<g clip-path="url(#clip0_10157_3093)">
<path opacity="0.1" d="M35.1674 140.02C49.9904 143.949 65.4116 145.014 80.6999 143.216L214.705 127.167C233.317 124.97 248.472 111.185 252.527 92.8726C252.66 92.4064 252.727 91.9403 252.793 91.4742C256.981 69.4322 240.961 48.6555 218.76 46.3248L215.503 45.9918C214.373 45.8586 213.309 45.792 212.179 45.792C202.74 45.5256 193.435 43.1283 185.126 38.6667C176.418 34.0718 168.84 27.4127 163.257 19.2218C152.621 3.70589 133.544 -4.4184 114.401 -0.48947L97.3176 3.03994C85.1535 5.57044 75.1829 13.8944 70.4634 25.0153C68.004 30.8088 64.2816 35.9364 59.8281 40.3315L57.5016 42.5956C53.4469 46.5245 48.8604 49.8541 43.8751 52.3846C40.6845 53.9828 37.3609 55.3147 33.9044 56.247C21.6073 59.51 11.3708 68.2335 6.31902 80.0869L6.05312 80.7528C-1.85691 99.2654 3.92606 120.708 20.012 132.628L20.0785 132.695C24.532 136.091 29.6503 138.555 35.1674 140.02Z" fill="url(#paint0_linear_10157_3093)"/>
<g clip-path="url(#clip1_10157_3093)">
<rect x="61.0312" y="10.9652" width="133.259" height="288.898" rx="10.8506" fill="#27282A"/>
<g filter="url(#filter0_dd_10157_3093)">
<path d="M67.8129 28.1485C67.8129 25.5128 67.8129 24.1949 68.1805 23.1345C68.8491 21.2061 70.3647 19.6905 72.2932 19.0219C73.3535 18.6542 74.6714 18.6542 77.3072 18.6542H178.015C180.65 18.6542 181.968 18.6542 183.029 19.0219C184.957 19.6905 186.473 21.2061 187.141 23.1345C187.509 24.1949 187.509 25.5128 187.509 28.1485C187.509 30.7843 187.509 32.1022 187.141 33.1625C186.473 35.091 184.957 36.6066 183.029 37.2752C181.968 37.6428 180.65 37.6428 178.015 37.6428H77.3072C74.6714 37.6428 73.3535 37.6428 72.2932 37.2752C70.3647 36.6066 68.8491 35.091 68.1805 33.1625C67.8129 32.1022 67.8129 30.7843 67.8129 28.1485Z" fill="#404145" shape-rendering="crispEdges"/>
<g filter="url(#filter1_dd_10157_3093)">
<path d="M66.4565 50.2567C66.4565 47.9779 66.4565 46.8384 66.9 45.968C67.2901 45.2024 67.9126 44.5799 68.6782 44.1898C69.5487 43.7463 70.6881 43.7463 72.9669 43.7463H182.355C184.634 43.7463 185.773 43.7463 186.643 44.1898C187.409 44.5799 188.032 45.2024 188.422 45.968C188.865 46.8384 188.865 47.9779 188.865 50.2567V259.335C188.865 261.614 188.865 262.753 188.422 263.623C188.032 264.389 187.409 265.012 186.643 265.402C185.773 265.845 184.634 265.845 182.355 265.845H72.9669C70.6881 265.845 69.5487 265.845 68.6782 265.402C67.9126 265.012 67.2901 264.389 66.9 263.623C66.4565 262.753 66.4565 261.614 66.4565 259.335V50.2567Z" fill="url(#paint1_linear_10157_3093)"/>
</g>
<path fill-rule="evenodd" clip-rule="evenodd" d="M127.491 127.53C138.932 127.53 148.206 118.256 148.206 106.816C148.206 95.3751 138.932 86.1008 127.491 86.1008C116.051 86.1008 106.776 95.3751 106.776 106.816C106.776 118.256 116.051 127.53 127.491 127.53Z" fill="#DE5833"/>
<path fill-rule="evenodd" clip-rule="evenodd" d="M130.404 122.271C130.404 122.109 130.444 122.072 129.93 121.047C128.562 118.309 127.188 114.449 127.813 111.96C127.927 111.508 126.525 95.2118 125.535 94.6871C124.433 94.1001 123.078 93.1691 121.839 92.962C121.21 92.8613 120.385 92.909 119.741 92.9958C119.626 93.0112 119.621 93.2171 119.731 93.2542C120.154 93.3976 120.668 93.6465 120.971 94.0229C121.028 94.0941 120.951 94.2062 120.86 94.2096C120.574 94.2201 120.057 94.3398 119.373 94.9201C119.294 94.9872 119.36 95.1119 119.462 95.0917C120.93 94.8012 122.43 94.9444 123.313 95.7476C123.371 95.7997 123.341 95.8933 123.266 95.9136C115.597 97.9977 117.115 104.669 119.157 112.856C120.945 120.029 121.637 122.42 121.864 123.178C121.892 123.27 121.958 123.344 122.048 123.379C124.703 124.417 130.404 124.455 130.404 122.675V122.271Z" fill="#DDDDDD"/>
<path d="M131.456 123.808C130.526 124.172 128.705 124.334 127.653 124.334C126.111 124.334 123.89 124.091 123.081 123.727C122.582 122.189 121.086 117.422 119.609 111.368C119.561 111.17 119.513 110.973 119.464 110.777L119.463 110.772C117.708 103.6 116.274 97.7432 124.133 95.9031C124.205 95.8863 124.24 95.8004 124.192 95.744C123.291 94.6742 121.601 94.3236 119.465 95.0605C119.378 95.0907 119.302 95.0024 119.356 94.9273C119.775 94.35 120.593 93.9061 120.997 93.7115C121.081 93.6713 121.076 93.549 120.987 93.5213C120.723 93.4386 120.273 93.3119 119.767 93.2302C119.647 93.2109 119.636 93.0056 119.757 92.9895C122.785 92.582 125.947 93.4912 127.534 95.49C127.549 95.5089 127.57 95.522 127.594 95.5271C133.404 96.7749 133.821 105.961 133.151 106.379C133.019 106.461 132.596 106.414 132.038 106.352C129.777 106.099 125.3 105.598 128.995 112.484C129.032 112.552 128.984 112.642 128.907 112.654C126.823 112.978 129.494 119.507 131.456 123.808Z" fill="white"/>
<path d="M134.055 115.457C133.613 115.252 131.912 116.472 130.783 117.408C130.547 117.074 130.102 116.832 129.099 117.006C128.221 117.159 127.736 117.371 127.52 117.736C126.133 117.21 123.801 116.399 123.238 117.182C122.622 118.039 123.392 122.089 124.21 122.615C124.637 122.89 126.679 121.577 127.746 120.671C127.918 120.914 128.195 121.053 128.765 121.039C129.626 121.02 131.024 120.819 131.241 120.418C131.254 120.393 131.265 120.365 131.275 120.332C132.371 120.742 134.301 121.175 134.732 121.111C135.855 120.942 134.575 115.698 134.055 115.457Z" fill="#3CA82B"/>
<path d="M130.887 117.528C130.933 117.611 130.971 117.698 131.002 117.787C131.159 118.224 131.413 119.615 131.221 119.959C131.028 120.302 129.777 120.468 129.006 120.481C128.234 120.495 128.06 120.212 127.904 119.775C127.779 119.426 127.718 118.603 127.719 118.133C127.687 117.434 127.943 117.189 129.122 116.998C129.995 116.857 130.456 117.021 130.722 117.302C131.961 116.377 134.028 115.072 134.23 115.311C135.235 116.5 135.363 119.331 135.145 120.47C135.074 120.842 131.745 120.101 131.745 119.699C131.745 118.032 131.312 117.575 130.887 117.528Z" fill="#4CBA3C"/>
<path d="M123.594 117.007C123.867 116.576 126.078 117.112 127.292 117.652C127.292 117.652 127.042 118.782 127.439 120.114C127.556 120.503 124.647 122.236 124.268 121.938C123.829 121.593 123.021 117.914 123.594 117.007Z" fill="#4CBA3C"/>
<path fill-rule="evenodd" clip-rule="evenodd" d="M124.665 108.242C124.844 107.464 125.678 105.998 128.653 106.034C130.158 106.028 132.026 106.033 133.265 105.892C135.107 105.683 136.474 105.238 137.384 104.891C138.673 104.399 139.13 104.509 139.29 104.803C139.466 105.126 139.259 105.684 138.809 106.197C137.949 107.178 136.403 107.939 133.674 108.164C130.944 108.39 129.135 107.658 128.357 108.85C128.021 109.364 128.281 110.576 130.921 110.957C134.488 111.472 137.417 110.337 137.779 111.023C138.141 111.708 136.056 113.103 132.483 113.132C128.91 113.161 126.679 111.881 125.887 111.245C124.883 110.437 124.434 109.26 124.665 108.242Z" fill="#FFCC33"/>
<path d="M129.215 99.736C129.415 99.4097 129.857 99.1578 130.58 99.1578C131.303 99.1578 131.643 99.4456 131.879 99.7665C131.927 99.8318 131.854 99.9086 131.78 99.8765C131.762 99.8687 131.744 99.8608 131.725 99.8528C131.461 99.7373 131.136 99.5954 130.58 99.5875C129.985 99.5791 129.61 99.7281 129.373 99.8565C129.294 99.8998 129.168 99.8133 129.215 99.736Z" fill="#14307E"/>
<path d="M121.073 100.153C121.775 99.86 122.327 99.8979 122.717 99.9902C122.8 100.01 122.857 99.9213 122.791 99.8683C122.488 99.624 121.81 99.3207 120.926 99.6504C120.138 99.9444 119.766 100.555 119.764 100.957C119.763 101.052 119.958 101.06 120.009 100.98C120.145 100.763 120.371 100.447 121.073 100.153Z" fill="#14307E"/>
<path fill-rule="evenodd" clip-rule="evenodd" d="M131.194 104.2C130.573 104.2 130.07 103.698 130.07 103.08C130.07 102.462 130.573 101.96 131.194 101.96C131.815 101.96 132.319 102.462 132.319 103.08C132.319 103.698 131.815 104.2 131.194 104.2ZM131.986 102.709C131.986 102.549 131.855 102.419 131.695 102.419C131.535 102.419 131.405 102.549 131.404 102.709C131.404 102.869 131.535 102.999 131.695 102.999C131.856 102.999 131.986 102.869 131.986 102.709Z" fill="#14307E"/>
<path fill-rule="evenodd" clip-rule="evenodd" d="M123.744 103.855C123.744 104.577 123.158 105.162 122.434 105.162C121.711 105.162 121.123 104.577 121.123 103.855C121.123 103.134 121.711 102.549 122.434 102.549C123.156 102.549 123.744 103.134 123.744 103.855ZM123.358 103.422C123.358 103.236 123.206 103.084 123.019 103.084C122.832 103.084 122.68 103.234 122.679 103.422C122.679 103.608 122.831 103.76 123.019 103.76C123.206 103.76 123.358 103.608 123.358 103.422Z" fill="#14307E"/>
<path fill-rule="evenodd" clip-rule="evenodd" d="M127.491 122.999C136.429 122.999 143.675 115.753 143.675 106.816C143.675 97.8777 136.429 90.6321 127.491 90.6321C118.553 90.6321 111.308 97.8777 111.308 106.816C111.308 115.753 118.553 122.999 127.491 122.999ZM127.491 124.941C137.502 124.941 145.617 116.826 145.617 106.816C145.617 96.8052 137.502 88.6901 127.491 88.6901C117.481 88.6901 109.366 96.8052 109.366 106.816C109.366 116.826 117.481 124.941 127.491 124.941Z" fill="white"/>
<path d="M73.3512 28.9962V25.6054L74.1989 25.0402H75.6117L77.3072 23.91L79.0026 25.0402H80.4154L81.2631 25.6054V28.9962L79.5677 31.5393L77.3072 32.387L75.0466 31.5393L73.3512 28.9962Z" fill="url(#paint2_linear_10157_3093)"/>
<path d="M81.2631 28.9962L79.5677 31.5393L77.8723 32.1045H77.3071V23.91L79.0025 25.0402H80.4154L81.2631 25.6054V28.9962Z" fill="url(#paint3_linear_10157_3093)"/>
<path d="M75.7793 24.8184L76.3761 24.2649C76.8984 23.7804 77.7082 23.7884 78.2208 24.2831L78.7631 24.8063C78.9992 25.0341 79.339 25.1187 79.6543 25.0281L79.9727 24.9366C80.7267 24.72 81.4825 25.2726 81.5048 26.0567L81.5414 27.3452C81.5954 29.2499 80.5186 31.0065 78.7966 31.8225L77.9141 32.2407C77.53 32.4227 77.0844 32.4221 76.7008 32.2392L75.8199 31.819C74.1115 31.0041 73.0408 29.2619 73.0856 27.3696L73.1162 26.0786C73.1349 25.2877 73.9 24.7307 74.6584 24.9557L74.8935 25.0255C75.2047 25.1179 75.5414 25.0391 75.7793 24.8184Z" stroke="url(#paint4_linear_10157_3093)" stroke-width="0.565137"/>
<rect x="86.1233" y="26.114" width="40.0117" height="4.06898" rx="1.35633" fill="#676767"/>
<path d="M169.007 23.8597C169.007 23.7447 169.1 23.6515 169.215 23.6515C169.33 23.6515 169.423 23.7447 169.423 23.8597V31.772C169.423 31.887 169.33 31.9802 169.215 31.9802C169.1 31.9802 169.007 31.887 169.007 31.772V23.8597Z" fill="#1C1F21" fill-opacity="0.09"/>
<path d="M175.333 30.1704C175.544 30.3662 175.586 30.6966 175.398 30.9147L174.86 31.5395C174.562 31.8854 174.853 32.408 175.303 32.3288C176.828 32.0603 179.269 31.5816 180.289 31.1101C181.941 30.5064 183.106 29.0509 183.106 27.3514C183.106 25.1109 181.082 23.2947 178.585 23.2947C176.088 23.2947 174.063 25.1109 174.063 27.3514C174.063 28.4467 174.547 29.4406 175.333 30.1704Z" fill="white"/>
<path d="M175.333 30.1704C175.544 30.3662 175.586 30.6966 175.398 30.9147L174.86 31.5395C174.562 31.8854 174.853 32.408 175.303 32.3288C176.828 32.0603 179.269 31.5816 180.289 31.1101C181.941 30.5064 183.106 29.0509 183.106 27.3514C183.106 25.1109 181.082 23.2947 178.585 23.2947C176.088 23.2947 174.063 25.1109 174.063 27.3514C174.063 28.4467 174.547 29.4406 175.333 30.1704Z" fill="url(#paint5_linear_10157_3093)"/>
<path d="M178.373 25.2395C178.428 25.0195 178.741 25.0195 178.796 25.2395L178.916 25.7185C179.078 26.369 179.586 26.8768 180.237 27.0394L180.716 27.1592C180.936 27.2142 180.936 27.5268 180.716 27.5818L180.237 27.7016C179.586 27.8642 179.078 28.3721 178.916 29.0225L178.796 29.5015C178.741 29.7216 178.428 29.7216 178.373 29.5015L178.254 29.0225C178.091 28.3721 177.583 27.8642 176.933 27.7016L176.454 27.5818C176.234 27.5268 176.234 27.2142 176.454 27.1592L176.933 27.0394C177.583 26.8768 178.091 26.369 178.254 25.7185L178.373 25.2395Z" fill="#404145"/>
<path d="M182.541 27.3515C182.541 28.7763 181.561 30.0435 180.094 30.5794L180.072 30.5874L180.051 30.5972C179.601 30.8051 178.79 31.032 177.859 31.2447C177.037 31.4327 176.161 31.6011 175.442 31.7302L175.826 31.2835L175.845 31.2608C176.23 30.7892 176.116 30.1435 175.737 29.774L175.718 29.7563C175.045 29.132 174.641 28.3001 174.629 27.3946L174.629 27.3515C174.629 25.4792 176.341 23.8599 178.585 23.8599V23.2947L178.526 23.2951C176.076 23.3229 174.095 25.1002 174.064 27.299L174.063 27.3515C174.063 28.4296 174.532 29.4095 175.297 30.1361L175.333 30.1705C175.538 30.3602 175.583 30.6762 175.415 30.894L175.398 30.9148L174.86 31.5396C174.562 31.8855 174.853 32.408 175.303 32.3289C176.828 32.0603 179.269 31.5817 180.288 31.1102C181.941 30.5065 183.106 29.0511 183.106 27.3515L183.105 27.299C183.074 25.0827 181.062 23.2947 178.585 23.2947V23.8599C180.811 23.8599 182.514 25.454 182.54 27.3077L182.541 27.3515Z" fill="white"/>
<path d="M182.541 27.3515C182.541 28.7763 181.561 30.0435 180.094 30.5794L180.072 30.5874L180.051 30.5972C179.601 30.8051 178.79 31.032 177.859 31.2447C177.037 31.4327 176.161 31.6011 175.442 31.7302L175.826 31.2835L175.845 31.2608C176.23 30.7892 176.116 30.1435 175.737 29.774L175.718 29.7563C175.045 29.132 174.641 28.3001 174.629 27.3946L174.629 27.3515C174.629 25.4792 176.341 23.8599 178.585 23.8599V23.2947L178.526 23.2951C176.076 23.3229 174.095 25.1002 174.064 27.299L174.063 27.3515C174.063 28.4296 174.532 29.4095 175.297 30.1361L175.333 30.1705C175.538 30.3602 175.583 30.6762 175.415 30.894L175.398 30.9148L174.86 31.5396C174.562 31.8855 174.853 32.408 175.303 32.3289C176.828 32.0603 179.269 31.5817 180.288 31.1102C181.941 30.5065 183.106 29.0511 183.106 27.3515L183.105 27.299C183.074 25.0827 181.062 23.2947 178.585 23.2947V23.8599C180.811 23.8599 182.514 25.454 182.54 27.3077L182.541 27.3515Z" fill="url(#paint6_linear_10157_3093)"/>
</g>
</g>
<rect x="58.3186" y="8.25255" width="138.685" height="294.323" rx="13.5633" stroke="url(#paint7_linear_10157_3093)" stroke-width="5.42531"/>
<path opacity="0.2" d="M37.5135 85.0496L40.1293 84.3714C40.6137 84.2745 41.0982 83.7901 41.1951 83.3057L41.8732 80.69C42.0669 80.0118 42.6482 79.6243 43.2295 79.6243C43.9077 79.6243 44.489 80.1087 44.5859 80.69L45.264 83.3057C45.3609 83.7901 45.8453 84.2745 46.3297 84.3714L48.9455 85.0496C49.6237 85.2433 50.0112 85.8246 50.0112 86.4059C50.0112 87.0841 49.5268 87.6654 48.9455 87.7622L46.3297 88.4404C45.8453 88.5373 45.3609 89.0217 45.264 89.5061L44.5859 92.1219C44.3921 92.8 43.8108 93.1876 43.2295 93.1876C42.5514 93.1876 41.9701 92.7032 41.8732 92.1219L41.1951 89.5061C41.0982 89.0217 40.6137 88.5373 40.1293 88.4404L37.5135 87.7622C36.8354 87.5685 36.4479 86.9872 36.4479 86.4059C36.4479 85.7277 36.9323 85.1465 37.5135 85.0496Z" fill="#888888"/>
<path opacity="0.2" d="M212.456 33.1701L213.764 32.831C214.006 32.7826 214.248 32.5404 214.296 32.2982L214.635 30.9903C214.732 30.6512 215.023 30.4575 215.314 30.4575C215.653 30.4575 215.943 30.6997 215.992 30.9903L216.331 32.2982C216.379 32.5404 216.622 32.7826 216.864 32.831L218.172 33.1701C218.511 33.267 218.704 33.5576 218.704 33.8483C218.704 34.1874 218.462 34.478 218.172 34.5264L216.864 34.8655C216.622 34.914 216.379 35.1562 216.331 35.3984L215.992 36.7063C215.895 37.0453 215.604 37.2391 215.314 37.2391C214.975 37.2391 214.684 36.9969 214.635 36.7063L214.296 35.3984C214.248 35.1562 214.006 34.914 213.764 34.8655L212.456 34.5264C212.117 34.4296 211.923 34.1389 211.923 33.8483C211.923 33.5092 212.165 33.2186 212.456 33.1701Z" fill="#888888"/>
<path opacity="0.2" d="M218.922 20.6253L221.538 19.9472C222.023 19.8503 222.507 19.3659 222.604 18.8815L223.282 16.2657C223.476 15.5875 224.057 15.2 224.638 15.2C225.317 15.2 225.898 15.6844 225.995 16.2657L226.673 18.8815C226.77 19.3659 227.254 19.8503 227.739 19.9472L230.354 20.6253C231.033 20.8191 231.42 21.4004 231.42 21.9817C231.42 22.6598 230.936 23.2411 230.354 23.338L227.739 24.0161C227.254 24.113 226.77 24.5974 226.673 25.0818L225.995 27.6976C225.801 28.3758 225.22 28.7633 224.638 28.7633C223.96 28.7633 223.379 28.2789 223.282 27.6976L222.604 25.0818C222.507 24.5974 222.023 24.113 221.538 24.0161L218.922 23.338C218.244 23.1442 217.857 22.5629 217.857 21.9817C217.857 21.3035 218.341 20.7222 218.922 20.6253Z" fill="#888888"/>
<path opacity="0.2" d="M211.075 104.209C212.474 104.209 213.618 105.353 213.618 106.752C213.618 108.151 212.474 109.295 211.075 109.295C209.676 109.295 208.532 108.151 208.532 106.752C208.532 105.353 209.676 104.209 211.075 104.209Z" fill="#888888"/>
<path opacity="0.2" d="M32.2093 105.057C33.608 105.057 34.7524 106.201 34.7524 107.6C34.7524 108.998 33.608 110.143 32.2093 110.143C30.8106 110.143 29.6662 108.998 29.6662 107.6C29.6662 106.201 30.8106 105.057 32.2093 105.057Z" fill="#888888"/>
<g clip-path="url(#clip2_10157_3093)">
<path d="M10.8918 49.8098H29.2022C33.3392 49.8098 36.6929 53.1635 36.6929 57.3004V67.4079C36.6929 71.1722 33.7514 74.2237 29.9872 74.2237C29.4612 74.2237 28.9247 74.6503 28.9903 75.1721C29.1244 76.2377 29.447 77.4568 29.7957 78.5593C30.2338 79.9448 29.028 81.2863 27.6783 80.748C25.275 79.7895 21.9673 78.1389 19.1347 75.5359C18.2663 74.7379 17.1562 74.2237 15.9767 74.2237H10.8918C6.75486 74.2237 3.40117 70.8701 3.40117 66.7331V57.3004C3.40117 53.1635 6.75484 49.8098 10.8918 49.8098Z" fill="#FFDE7A"/>
<path d="M4.51091 66.2892V56.8565C4.51091 53.3329 7.3695 50.4756 10.894 50.4756H29.2001C32.7246 50.4756 35.5832 53.3329 35.5832 56.8565V66.9641C35.5831 70.1392 33.115 72.6701 29.9871 72.6701C29.4398 72.6701 28.9135 72.885 28.5267 73.2314C28.1455 73.5728 27.823 74.1217 27.8793 74.7939L27.886 74.8594C28.0371 76.128 28.4121 77.6182 28.7904 78.9123C28.8791 79.2155 28.7803 79.4698 28.6288 79.615C28.4923 79.7456 28.3163 79.7957 28.0912 79.6902L27.6426 79.4762C25.3542 78.3665 22.413 76.6557 19.8871 74.2885C18.8558 73.322 17.4826 72.6701 15.9768 72.6701H10.8918C7.36775 72.6701 4.51091 69.8132 4.51091 66.2892ZM2.29147 66.2892C2.29147 71.039 6.14199 74.8895 10.8918 74.8895H15.9768C16.8299 74.8895 17.6796 75.2615 18.3695 75.908C21.2061 78.5664 24.4802 80.4286 26.9161 81.5897L27.1491 81.6998C28.2642 82.2226 29.4139 81.9361 30.1639 81.2178C30.8988 80.5139 31.2473 79.4068 30.9206 78.2894C30.5846 77.1401 30.2781 75.9159 30.1288 74.8876C34.4608 74.8119 37.8026 71.2706 37.8026 66.9641V56.8565C37.8026 52.1063 33.9495 48.2562 29.2001 48.2562H10.894C6.14457 48.2562 2.29147 52.1063 2.29147 56.8565V66.2892Z" fill="url(#paint8_linear_10157_3093)"/>
<path d="M20.7399 59.8858C21.3675 58.769 22.4161 57.4577 23.8373 57.5866C26.6682 57.8434 28.3043 61.2541 24.3787 64.6498C23.356 65.5345 22.5579 66.2028 21.9346 66.7265C20.9511 67.5526 19.1691 67.5464 18.185 66.7211C17.5441 66.1836 16.7321 65.5114 15.7154 64.6498C11.7898 61.3235 13.4258 57.8435 16.2568 57.5866C17.6791 57.4576 18.735 58.7711 19.368 59.8885C19.6302 60.3511 20.4794 60.3494 20.7399 59.8858Z" fill="#E2A412"/>
<path d="M19.6598 57.7672C19.035 57.2251 18.1184 56.7166 16.9666 56.7847L16.8544 56.7932L16.7689 56.8017C14.9741 56.9984 13.4181 58.2393 13.0325 60.1068C12.6452 61.9821 13.5326 63.9182 15.3468 65.4919L15.434 65.5666C15.8425 65.9128 16.2127 66.2234 16.5435 66.5L17.4166 67.2295C18.1971 67.884 19.1832 68.1402 20.0537 68.142C20.8968 68.1438 21.8529 67.9073 22.625 67.2935L22.6992 67.2328C23.0724 66.9193 23.5302 66.5358 24.0856 66.061L24.6741 65.5548C26.5303 63.9492 27.4566 61.9849 27.0613 60.0835C26.6652 58.1784 25.0518 56.9576 23.2397 56.7932L23.1275 56.7847C21.976 56.7167 21.0603 57.2249 20.4362 57.7684C20.2988 57.8881 20.1702 58.0145 20.0494 58.1438C19.9277 58.014 19.7982 57.8872 19.6598 57.7672ZM17.015 58.5615C18.1528 58.4583 18.9974 59.5091 19.5039 60.4029L19.5249 60.4366C19.7481 60.7618 20.3583 60.7605 20.5805 60.4345L20.6015 60.4007C21.1036 59.5073 21.9424 58.4584 23.0793 58.5615C25.344 58.7669 26.6529 61.4954 23.5124 64.2121C22.6943 64.9198 22.0559 65.4545 21.5572 65.8734C20.7951 66.5136 19.4332 66.5289 18.6331 65.929L18.5575 65.869C18.173 65.5465 17.7114 65.1634 17.1615 64.7012L16.5818 64.2121C13.4414 61.551 14.7502 58.767 17.015 58.5615Z" fill="#E2A412"/>
</g>
<path d="M230.101 107.75C232.968 109.656 233.152 112.842 233.966 115.875C234.104 116.389 234.848 118.583 237.333 118.583C239.542 118.583 240.456 117.105 240.732 116.417C241.008 115.728 241.146 114.251 241.284 114.374C241.422 114.498 246.108 119.593 246.108 128.407C246.108 135.017 240.594 139.167 233 139.167C225.406 139.167 218.917 135.017 218.917 128.407C218.917 119.593 226.373 117.39 230.101 107.75Z" fill="url(#paint9_linear_10157_3093)"/>
<path d="M246 128.407C246 122.641 243.434 118.557 241.827 116.563C241.799 116.653 241.77 116.74 241.738 116.82C241.372 117.732 240.157 119.667 237.333 119.667C235.72 119.667 234.624 118.935 233.939 118.118C233.283 117.335 233.009 116.488 232.92 116.156C232.71 115.375 232.537 114.569 232.367 113.841C232.192 113.094 232.015 112.402 231.783 111.755C231.482 110.913 231.095 110.169 230.525 109.535C228.612 113.753 226.016 116.54 223.95 119.073C221.667 121.873 220 124.382 220 128.407L220.003 128.619C220.109 133.064 223.549 136.93 228.45 138.473C229.875 138.922 231.411 139.167 233 139.167C234.589 139.167 236.125 138.922 237.55 138.473C242.529 136.905 246 132.94 246 128.407ZM248.164 128.675C248.031 134.277 243.733 138.797 238.2 140.539C236.567 141.054 234.812 141.333 233 141.333C231.188 141.333 229.434 141.054 227.8 140.539C222.267 138.797 217.97 134.277 217.837 128.675L217.833 128.407C217.833 123.618 219.895 120.618 222.271 117.704C224.646 114.791 227.303 111.981 229.09 107.359L229.141 107.248C229.272 106.996 229.499 106.804 229.773 106.717C230.086 106.618 230.427 106.666 230.701 106.848C232.386 107.969 233.266 109.468 233.823 111.025C234.098 111.792 234.298 112.584 234.477 113.347C234.66 114.129 234.815 114.858 235.013 115.594C235.062 115.776 235.229 116.283 235.6 116.726C235.943 117.135 236.462 117.5 237.333 117.5C238.928 117.5 239.54 116.478 239.726 116.014C239.817 115.788 239.901 115.37 239.997 114.883C240.037 114.678 240.084 114.436 240.135 114.254C240.154 114.185 240.202 114.013 240.297 113.851C240.331 113.793 240.475 113.546 240.782 113.396C240.967 113.305 241.205 113.254 241.466 113.301C241.652 113.335 241.799 113.411 241.908 113.488L242.005 113.564L242.008 113.568C242.215 113.753 248.167 119.122 248.167 128.407L248.164 128.675Z" fill="url(#paint10_linear_10157_3093)"/>
<path d="M233 125.625C235.889 128.582 239.5 131.785 239.5 134.927C239.5 138.315 237.333 141.333 233 141.333C228.667 141.333 226.5 138.315 226.5 134.927C226.5 131.539 230.111 128.582 233 125.625Z" fill="#FFCC33"/>
</g>
<defs>
<filter id="filter0_dd_10157_3093" x="56.4621" y="15.3228" width="142.398" height="267.18" filterUnits="userSpaceOnUse" color-interpolation-filters="sRGB">
<feFlood flood-opacity="0" result="BackgroundImageFix"/>
<feColorMatrix in="SourceAlpha" type="matrix" values="0 0 0 0 0 0 0 0 0 0 0 0 0 0 0 0 0 0 127 0" result="hardAlpha"/>
<feMorphology radius="2.49861" operator="erode" in="SourceAlpha" result="effect1_dropShadow_10157_3093"/>
<feOffset dy="1.66574"/>
<feGaussianBlur stdDeviation="2.49861"/>
<feComposite in2="hardAlpha" operator="out"/>
<feColorMatrix type="matrix" values="0 0 0 0 0.109804 0 0 0 0 0.121569 0 0 0 0 0.129412 0 0 0 0.04 0"/>
<feBlend mode="normal" in2="BackgroundImageFix" result="effect1_dropShadow_10157_3093"/>
<feColorMatrix in="SourceAlpha" type="matrix" values="0 0 0 0 0 0 0 0 0 0 0 0 0 0 0 0 0 0 127 0" result="hardAlpha"/>
<feMorphology radius="9.99444" operator="erode" in="SourceAlpha" result="effect2_dropShadow_10157_3093"/>
<feOffset dy="6.66296"/>
<feGaussianBlur stdDeviation="9.99444"/>
<feComposite in2="hardAlpha" operator="out"/>
<feColorMatrix type="matrix" values="0 0 0 0 0.109804 0 0 0 0 0.121569 0 0 0 0 0.129412 0 0 0 0.04 0"/>
<feBlend mode="normal" in2="effect1_dropShadow_10157_3093" result="effect2_dropShadow_10157_3093"/>
<feBlend mode="normal" in="SourceGraphic" in2="effect2_dropShadow_10157_3093" result="shape"/>
</filter>
<filter id="filter1_dd_10157_3093" x="44.7553" y="20.6888" width="165.811" height="265.501" filterUnits="userSpaceOnUse" color-interpolation-filters="sRGB">
<feFlood flood-opacity="0" result="BackgroundImageFix"/>
<feColorMatrix in="SourceAlpha" type="matrix" values="0 0 0 0 0 0 0 0 0 0 0 0 0 0 0 0 0 0 127 0" result="hardAlpha"/>
<feMorphology radius="1.35633" operator="erode" in="SourceAlpha" result="effect1_dropShadow_10157_3093"/>
<feOffset dy="0.678164"/>
<feGaussianBlur stdDeviation="0.678164"/>
<feComposite in2="hardAlpha" operator="out"/>
<feColorMatrix type="matrix" values="0 0 0 0 0.095 0 0 0 0 0.19 0 0 0 0 0.285 0 0 0 0.08 0"/>
<feBlend mode="normal" in2="BackgroundImageFix" result="effect1_dropShadow_10157_3093"/>
<feColorMatrix in="SourceAlpha" type="matrix" values="0 0 0 0 0 0 0 0 0 0 0 0 0 0 0 0 0 0 127 0" result="hardAlpha"/>
<feOffset dy="-1.35633"/>
<feGaussianBlur stdDeviation="10.8506"/>
<feComposite in2="hardAlpha" operator="out"/>
<feColorMatrix type="matrix" values="0 0 0 0 0.12 0 0 0 0 0.24 0 0 0 0 0.36 0 0 0 0.08 0"/>
<feBlend mode="normal" in2="effect1_dropShadow_10157_3093" result="effect2_dropShadow_10157_3093"/>
<feBlend mode="normal" in="SourceGraphic" in2="effect2_dropShadow_10157_3093" result="shape"/>
</filter>
<linearGradient id="paint0_linear_10157_3093" x1="128" y1="-1.47119" x2="128" y2="144.063" gradientUnits="userSpaceOnUse">
<stop stop-color="#EAEAEA"/>
<stop offset="1" stop-color="#DCDCDC"/>
</linearGradient>
<linearGradient id="paint1_linear_10157_3093" x1="127.661" y1="79.0109" x2="127.661" y2="225.494" gradientUnits="userSpaceOnUse">
<stop stop-color="#676767"/>
<stop offset="1" stop-color="#27282A"/>
</linearGradient>
<linearGradient id="paint2_linear_10157_3093" x1="77.3096" y1="24.1925" x2="77.3568" y2="32.3867" gradientUnits="userSpaceOnUse">
<stop stop-color="#7BD66D"/>
<stop offset="1" stop-color="#288419"/>
</linearGradient>
<linearGradient id="paint3_linear_10157_3093" x1="79.2851" y1="23.91" x2="79.2851" y2="32.6696" gradientUnits="userSpaceOnUse">
<stop stop-color="#69CC5B"/>
<stop offset="1" stop-color="#288419"/>
</linearGradient>
<linearGradient id="paint4_linear_10157_3093" x1="77.3071" y1="24.1926" x2="77.3071" y2="32.1045" gradientUnits="userSpaceOnUse">
<stop offset="0.00833332" stop-color="#399F29"/>
<stop offset="1" stop-color="#1A690D"/>
</linearGradient>
<linearGradient id="paint5_linear_10157_3093" x1="174.063" y1="23.2947" x2="183.129" y2="32.3131" gradientUnits="userSpaceOnUse">
<stop stop-color="#D9DCDE"/>
<stop offset="1" stop-color="#CCCCCC"/>
</linearGradient>
<linearGradient id="paint6_linear_10157_3093" x1="174.063" y1="32.3369" x2="183.129" y2="23.3185" gradientUnits="userSpaceOnUse">
<stop stop-color="#D9DCDE"/>
<stop offset="1" stop-color="#CCCCCC"/>
</linearGradient>
<linearGradient id="paint7_linear_10157_3093" x1="128" y1="102.509" x2="135.629" y2="-23.3751" gradientUnits="userSpaceOnUse">
<stop stop-color="#2A2A2A"/>
<stop offset="1" stop-color="#5B5B5B"/>
</linearGradient>
<linearGradient id="paint8_linear_10157_3093" x1="-22.0337" y1="61.6793" x2="35.4943" y2="61.1466" gradientUnits="userSpaceOnUse">
<stop stop-color="#E2A412"/>
<stop offset="1" stop-color="#FFDE7A"/>
</linearGradient>
<linearGradient id="paint9_linear_10157_3093" x1="232.657" y1="114.033" x2="235.833" y2="136.447" gradientUnits="userSpaceOnUse">
<stop stop-color="#FA8B38"/>
<stop offset="0.52" stop-color="#E72A57"/>
<stop offset="1" stop-color="#CC165B"/>
</linearGradient>
<linearGradient id="paint10_linear_10157_3093" x1="233" y1="107.75" x2="233" y2="140.25" gradientUnits="userSpaceOnUse">
<stop stop-color="#FF862D"/>
<stop offset="1" stop-color="#B40B4A"/>
</linearGradient>
<clipPath id="clip0_10157_3093">
<rect width="256" height="144" fill="white"/>
</clipPath>
<clipPath id="clip1_10157_3093">
<rect x="61.0312" y="10.9652" width="133.259" height="288.898" rx="10.8506" fill="white"/>
</clipPath>
<clipPath id="clip2_10157_3093">
<rect width="40.6898" height="40.6898" fill="white" transform="matrix(-1 0 0 1 40.6863 43.5969)"/>
</clipPath>
</defs>
</svg>
