<svg fill="none" viewBox="0 0 16 16" xmlns="http://www.w3.org/2000/svg">
  <g clip-path="url(#Shield-Check-Color-16_svg__a)">
    <path fill="url(#Shield-Check-Color-16_svg__b)" d="M1 9.5v-6l1.5-1H5l3-2 3 2h2.5l1.5 1v6L12 14l-2.695 1.01L6.667 15 4 14 1 9.5Z"/>
    <path fill="url(#Shield-Check-Color-16_svg__c)" d="M15 9.5 12 14l-3 1H8V.5l3 2h2.5l1.5 1v6Z"/>
    <path stroke="url(#Shield-Check-Color-16_svg__d)" d="m5.297 2.107 1.056-.979a2.375 2.375 0 0 1 3.264.032l.96.926a1.625 1.625 0 0 0 1.576.392l.564-.161a2.125 2.125 0 0 1 2.71 1.982l.065 2.28a8.5 8.5 0 0 1-4.856 7.922l-1.562.74a2.5 2.5 0 0 1-2.147-.003l-1.559-.743A8.5 8.5 0 0 1 .53 6.622l.054-2.285a2.125 2.125 0 0 1 2.73-1.987l.415.124c.55.163 1.147.024 1.568-.367Z"/>
    <path stroke="#288419" stroke-linecap="round" stroke-linejoin="round" d="m4.8 8.35 2.085 1.95a.3.3 0 0 0 .42-.01L11.2 6.3"/>
    <path stroke="#fff" stroke-linecap="round" stroke-linejoin="round" d="M4.8 7.75 7.1 9.9l4.1-4.2"/>
  </g>
  <defs>
    <linearGradient id="Shield-Check-Color-16_svg__b" x1="8.004" x2="8.088" y1="1" y2="15.499" gradientUnits="userSpaceOnUse">
      <stop stop-color="#7BD66D"/>
      <stop offset="1" stop-color="#399F29"/>
    </linearGradient>
    <linearGradient id="Shield-Check-Color-16_svg__c" x1="11.5" x2="11.5" y1=".5" y2="16" gradientUnits="userSpaceOnUse">
      <stop stop-color="#69CC5B"/>
      <stop offset="1" stop-color="#399F29"/>
    </linearGradient>
    <linearGradient id="Shield-Check-Color-16_svg__d" x1="8" x2="8" y1="1" y2="15" gradientUnits="userSpaceOnUse">
      <stop offset=".008" stop-color="#399F29"/>
      <stop offset="1" stop-color="#288419"/>
    </linearGradient>
    <clipPath id="Shield-Check-Color-16_svg__a">
      <path fill="#fff" d="M0 0h16v16H0z"/>
    </clipPath>
  </defs>
</svg>
