<svg width="24" height="24" viewBox="0 0 24 24" fill="none" xmlns="http://www.w3.org/2000/svg">
<path fill-rule="evenodd" clip-rule="evenodd" d="M11.5002 15.2502V2.75024H13.0002V15.2502C13.0002 15.6645 12.6645 16.0002 12.2502 16.0002C11.836 16.0002 11.5002 15.6645 11.5002 15.2502Z" fill="black"/>
<path fill-rule="evenodd" clip-rule="evenodd" d="M13.8437 4.15438C12.976 3.28665 11.5644 3.30234 10.7161 4.18912L7.29223 7.76867C7.00591 8.06799 6.53116 8.07854 6.23183 7.79223C5.9325 7.50592 5.92195 7.03116 6.20826 6.73183L9.63217 3.15229C11.062 1.65742 13.4416 1.63098 14.9044 3.09372L18.5306 6.71992C18.8235 7.01281 18.8235 7.48769 18.5306 7.78058C18.2377 8.07347 17.7628 8.07347 17.4699 7.78058L13.8437 4.15438Z" fill="black"/>
<path fill-rule="evenodd" clip-rule="evenodd" d="M4.25024 12.2502C4.66446 12.2502 5.00024 12.586 5.00024 13.0002V16.0002C5.00024 17.9332 6.56725 19.5002 8.50024 19.5002H16.0002C17.9332 19.5002 19.5002 17.9332 19.5002 16.0002V13.0002C19.5002 12.586 19.836 12.2502 20.2502 12.2502C20.6645 12.2502 21.0002 12.586 21.0002 13.0002V16.0002C21.0002 18.7617 18.7617 21.0002 16.0002 21.0002H8.50024C5.73882 21.0002 3.50024 18.7617 3.50024 16.0002V13.0002C3.50024 12.586 3.83603 12.2502 4.25024 12.2502Z" fill="black"/>
</svg>
