<?xml version="1.0" encoding="UTF-8"?>
<svg height="600" width="800" xmlns="http://www.w3.org/2000/svg" xmlns:xlink="http://www.w3.org/1999/xlink">
    <g id="Notes" font-family="'LucidaGrande', 'Lucida Grande', sans-serif" font-size="13">
        <rect fill="white" height="600.0" width="800.0" x="0.0" y="0.0" />
        <g font-size="13">
            <text x="18.0" y="176.0">Small</text>
            <text x="18.0" y="376.0">Medium</text>
            <text x="18.0" y="576.0">Large</text>
        </g>
        <g font-size="9">
            <text x="250.0" y="30.0">Ultralight</text>
            <text x="450.0" y="30.0">Regular</text>
            <text x="650.0" y="30.0">Black</text>
            <text id="template-version" fill="#505050" text-anchor="end" x="785.0" y="575.0">Template v.3.0</text>
            <a href="https://wangchujiang.com/#/app">
                <text fill="#505050" text-anchor="end" x="785.0" y="590.0">https://wangchujiang.com/#/app</text>
            </a>
        </g>
    </g>
    <g id="Guides" stroke="rgb(39, 170, 225)" stroke-width="0.5">
        <path id="Capline-S" d="M18,76 l800,0" />
        <path id="H-reference" d="M85,145.755 L87.685,145.755 L113.369,79.287 L114.052,79.287 L114.052,76 L112.148,76 L85,145.755 Z M95.693,121.536 L130.996,121.536 L130.263,119.313 L96.474,119.313 L95.693,121.536 Z M139.15,145.755 L141.787,145.755 L114.638,76 L113.466,76 L113.466,79.287 L139.15,145.755 Z" stroke="none" />
        <path id="Baseline-S" d="M18,146 l800,0" />
        <path id="left-margin-Ultralight-S" d="M221,56 l0,110" />
        <path id="right-margin-Ultralight-S" d="M309,56 l0,110" />
        <path id="left-margin-Regular-S" d="M421,56 l0,110" />
        <path id="right-margin-Regular-S" d="M509,56 l0,110" />
        <path id="left-margin-Black-S" d="M621,56 l0,110" />
        <path id="right-margin-Black-S" d="M709,56 l0,110" />
        <path id="Capline-M" d="M18,276 l800,0" />
        <path id="Baseline-M" d="M18,346 l800,0" />
        <path id="Capline-L" d="M18,476 l800,0" />
        <path id="Baseline-L" d="M18,546 l800,0" />
    </g>
    <g id="Symbols">
        <g id="Ultralight-S">
            <path d="M240.937,105.167 C242.145,105.167 243.125,106.146 243.125,107.354 L243.125,108.083 C243.125,117.429 249.889,125.188 258.788,126.748 C259.554,130.351 261.531,133.506 264.271,135.769 L264.271,135.792 L264.299,135.792 C266.043,137.226 268.095,138.299 270.34,138.898 C270.627,138.974 270.833,139.231 270.833,139.528 L270.833,139.528 C270.833,139.881 270.546,140.167 270.194,140.167 L246.771,140.167 C245.563,140.167 244.583,139.187 244.583,137.979 C244.583,136.771 245.563,135.792 246.771,135.792 L259.167,135.792 L259.167,131.229 C247.657,129.793 238.75,119.982 238.75,108.083 L238.75,107.354 C238.75,106.146 239.729,105.167 240.937,105.167 Z" />
            <path d="M274.479,111.729 C280.922,111.729 286.146,116.952 286.146,123.396 C286.146,125.827 285.398,128.081 284.126,129.95 L290.609,136.433 L290.76,136.598 C291.461,137.457 291.41,138.725 290.609,139.526 C289.808,140.327 288.54,140.378 287.681,139.677 L287.516,139.526 L281.033,133.043 C279.164,134.315 276.91,135.062 274.479,135.062 C268.036,135.062 262.812,129.839 262.812,123.396 C262.812,116.952 268.036,111.729 274.479,111.729 Z M274.479,116.104 C270.452,116.104 267.187,119.369 267.187,123.396 C267.187,127.423 270.452,130.688 274.479,130.688 C278.506,130.688 281.771,127.423 281.771,123.396 C281.771,119.369 278.506,116.104 274.479,116.104 Z" />
            <path d="M262.083,81.936 C268.471,81.936 273.647,87.113 273.647,93.5 L273.647,107.374 C266.6,107.734 260.755,112.644 258.987,119.223 C254.104,117.869 250.519,113.398 250.519,108.083 L250.519,93.5 C250.519,87.113 255.696,81.936 262.083,81.936 Z" />
            <path d="M283.229,105.167 C284.437,105.167 285.417,106.146 285.417,107.354 L285.417,108.083 C285.417,109.224 285.333,110.345 285.174,111.442 C283.946,110.342 282.546,109.432 281.022,108.75 C281.029,108.528 281.042,108.307 281.042,108.083 L281.042,107.354 C281.042,106.146 282.021,105.167 283.229,105.167 Z" />
        </g>
        <g id="Regular-S">
            <path d="M440.937,105.167 C442.145,105.167 443.125,106.146 443.125,107.354 L443.125,108.083 C443.125,117.429 449.889,125.188 458.788,126.748 C459.554,130.351 461.531,133.506 464.271,135.769 L464.271,135.792 L464.299,135.792 C466.043,137.226 468.095,138.299 470.34,138.898 C470.627,138.974 470.833,139.231 470.833,139.528 L470.833,139.528 C470.833,139.881 470.546,140.167 470.194,140.167 L446.771,140.167 C445.563,140.167 444.583,139.187 444.583,137.979 C444.583,136.771 445.563,135.792 446.771,135.792 L459.167,135.792 L459.167,131.229 C447.657,129.793 438.75,119.982 438.75,108.083 L438.75,107.354 C438.75,106.146 439.729,105.167 440.937,105.167 Z" />
            <path d="M474.479,111.729 C480.922,111.729 486.146,116.952 486.146,123.396 C486.146,125.827 485.398,128.081 484.126,129.95 L490.609,136.433 L490.76,136.598 C491.461,137.457 491.41,138.725 490.609,139.526 C489.808,140.327 488.54,140.378 487.681,139.677 L487.516,139.526 L481.033,133.043 C479.164,134.315 476.91,135.062 474.479,135.062 C468.036,135.062 462.812,129.839 462.812,123.396 C462.812,116.952 468.036,111.729 474.479,111.729 Z M474.479,116.104 C470.452,116.104 467.187,119.369 467.187,123.396 C467.187,127.423 470.452,130.688 474.479,130.688 C478.506,130.688 481.771,127.423 481.771,123.396 C481.771,119.369 478.506,116.104 474.479,116.104 Z" />
            <path d="M462.083,81.936 C468.471,81.936 473.647,87.113 473.647,93.5 L473.647,107.374 C466.6,107.734 460.755,112.644 458.987,119.223 C454.104,117.869 450.519,113.398 450.519,108.083 L450.519,93.5 C450.519,87.113 455.696,81.936 462.083,81.936 Z" />
            <path d="M483.229,105.167 C484.437,105.167 485.417,106.146 485.417,107.354 L485.417,108.083 C485.417,109.224 485.333,110.345 485.174,111.442 C483.946,110.342 482.546,109.432 481.022,108.75 C481.029,108.528 481.042,108.307 481.042,108.083 L481.042,107.354 C481.042,106.146 482.021,105.167 483.229,105.167 Z" />
        </g>
        <g id="Black-S">
            <path d="M640.937,105.167 C642.145,105.167 643.125,106.146 643.125,107.354 L643.125,108.083 C643.125,117.429 649.889,125.188 658.788,126.748 C659.554,130.351 661.531,133.506 664.271,135.769 L664.271,135.792 L664.299,135.792 C666.043,137.226 668.095,138.299 670.34,138.898 C670.627,138.974 670.833,139.231 670.833,139.528 L670.833,139.528 C670.833,139.881 670.546,140.167 670.194,140.167 L646.771,140.167 C645.563,140.167 644.583,139.187 644.583,137.979 C644.583,136.771 645.563,135.792 646.771,135.792 L659.167,135.792 L659.167,131.229 C647.657,129.793 638.75,119.982 638.75,108.083 L638.75,107.354 C638.75,106.146 639.729,105.167 640.937,105.167 Z" />
            <path d="M674.479,111.729 C680.922,111.729 686.146,116.952 686.146,123.396 C686.146,125.827 685.398,128.081 684.126,129.95 L690.609,136.433 L690.76,136.598 C691.461,137.457 691.41,138.725 690.609,139.526 C689.808,140.327 688.54,140.378 687.681,139.677 L687.516,139.526 L681.033,133.043 C679.164,134.315 676.91,135.062 674.479,135.062 C668.036,135.062 662.812,129.839 662.812,123.396 C662.812,116.952 668.036,111.729 674.479,111.729 Z M674.479,116.104 C670.452,116.104 667.187,119.369 667.187,123.396 C667.187,127.423 670.452,130.688 674.479,130.688 C678.506,130.688 681.771,127.423 681.771,123.396 C681.771,119.369 678.506,116.104 674.479,116.104 Z" />
            <path d="M662.083,81.936 C668.471,81.936 673.647,87.113 673.647,93.5 L673.647,107.374 C666.6,107.734 660.755,112.644 658.987,119.223 C654.104,117.869 650.519,113.398 650.519,108.083 L650.519,93.5 C650.519,87.113 655.696,81.936 662.083,81.936 Z" />
            <path d="M683.229,105.167 C684.437,105.167 685.417,106.146 685.417,107.354 L685.417,108.083 C685.417,109.224 685.333,110.345 685.174,111.442 C683.946,110.342 682.546,109.432 681.022,108.75 C681.029,108.528 681.042,108.307 681.042,108.083 L681.042,107.354 C681.042,106.146 682.021,105.167 683.229,105.167 Z" />
        </g>
    </g>
</svg>