<?xml version="1.0" encoding="UTF-8"?>
<svg height="600" width="800" xmlns="http://www.w3.org/2000/svg" xmlns:xlink="http://www.w3.org/1999/xlink">
    <g id="Notes" font-family="'LucidaGrande', 'Lucida Grande', sans-serif" font-size="13">
        <rect fill="white" height="600.0" width="800.0" x="0.0" y="0.0" />
        <g font-size="13">
            <text x="18.0" y="176.0">Small</text>
            <text x="18.0" y="376.0">Medium</text>
            <text x="18.0" y="576.0">Large</text>
        </g>
        <g font-size="9">
            <text x="250.0" y="30.0">Ultralight</text>
            <text x="450.0" y="30.0">Regular</text>
            <text x="650.0" y="30.0">Black</text>
            <text id="template-version" fill="#505050" text-anchor="end" x="785.0" y="575.0">Template v.3.0</text>
            <a href="https://wangchujiang.com/#/app">
                <text fill="#505050" text-anchor="end" x="785.0" y="590.0">https://wangchujiang.com/#/app</text>
            </a>
        </g>
    </g>
    <g id="Guides" stroke="rgb(39, 170, 225)" stroke-width="0.5">
        <path id="Capline-S" d="M18,76 l800,0" />
        <path id="H-reference" d="M85,145.755 L87.685,145.755 L113.369,79.287 L114.052,79.287 L114.052,76 L112.148,76 L85,145.755 Z M95.693,121.536 L130.996,121.536 L130.263,119.313 L96.474,119.313 L95.693,121.536 Z M139.15,145.755 L141.787,145.755 L114.638,76 L113.466,76 L113.466,79.287 L139.15,145.755 Z" stroke="none" />
        <path id="Baseline-S" d="M18,146 l800,0" />
        <path id="left-margin-Ultralight-S" d="M221,56 l0,110" />
        <path id="right-margin-Ultralight-S" d="M309,56 l0,110" />
        <path id="left-margin-Regular-S" d="M421,56 l0,110" />
        <path id="right-margin-Regular-S" d="M509,56 l0,110" />
        <path id="left-margin-Black-S" d="M621,56 l0,110" />
        <path id="right-margin-Black-S" d="M709,56 l0,110" />
        <path id="Capline-M" d="M18,276 l800,0" />
        <path id="Baseline-M" d="M18,346 l800,0" />
        <path id="Capline-L" d="M18,476 l800,0" />
        <path id="Baseline-L" d="M18,546 l800,0" />
    </g>
    <g id="Symbols">
        <g id="Ultralight-S">
            <path d="M241.979,103.778 C243.226,103.778 244.236,104.788 244.236,106.035 L244.236,107.389 C244.236,116.569 251.448,124.064 260.515,124.519 C260.497,124.825 260.487,125.134 260.487,125.444 C260.487,128.953 261.665,132.187 263.646,134.772 L263.646,135.375 L264.132,135.375 C264.744,136.095 265.421,136.758 266.154,137.354 C266.938,137.993 266.474,139.889 265.462,139.889 L245.59,139.889 C244.344,139.889 243.333,138.878 243.333,137.632 C243.333,136.386 244.344,135.375 245.59,135.375 L259.132,135.375 L259.132,128.939 C248.227,127.81 239.722,118.593 239.722,107.389 L239.722,106.035 C239.722,104.788 240.733,103.778 241.979,103.778 Z M275.833,114.611 C281.817,114.611 286.667,119.461 286.667,125.444 C286.667,127.619 286.025,129.644 284.922,131.341 L289.617,136.036 L289.697,136.121 C290.497,137.007 290.47,138.374 289.617,139.228 C288.763,140.081 287.396,140.108 286.51,139.308 L286.425,139.228 L281.731,134.532 C280.034,135.636 278.009,136.278 275.833,136.278 C269.85,136.278 265,131.427 265,125.444 C265,119.461 269.85,114.611 275.833,114.611 Z M275.833,119.125 C272.343,119.125 269.514,121.954 269.514,125.444 C269.514,128.935 272.343,131.764 275.833,131.764 C279.324,131.764 282.153,128.935 282.153,125.444 C282.153,121.954 279.324,119.125 275.833,119.125 Z M261.84,82.111 C267.574,82.111 272.222,86.759 272.222,92.493 L272.222,107.84 C272.222,108.804 272.091,109.736 271.845,110.621 C267.714,111.73 264.271,114.519 262.294,118.211 C262.144,118.218 261.993,118.222 261.84,118.222 L260.938,118.222 C255.204,118.222 250.556,113.574 250.556,107.84 L250.556,92.493 C250.556,86.759 255.204,82.111 260.938,82.111 L261.84,82.111 Z M280.799,103.778 C282.045,103.778 283.056,104.788 283.056,106.035 L283.056,107.389 C283.056,107.853 283.041,108.313 283.012,108.769 C282.918,110.249 281.316,111.029 279.886,110.639 C279.366,110.497 278.836,110.381 278.295,110.294 C278.457,109.35 278.542,108.379 278.542,107.389 L278.542,106.035 C278.542,104.788 279.552,103.778 280.799,103.778 Z" />
        </g>
        <g id="Regular-S">
            <path d="M441.979,103.778 C443.226,103.778 444.236,104.788 444.236,106.035 L444.236,107.389 C444.236,116.569 451.448,124.064 460.515,124.519 C460.497,124.825 460.487,125.134 460.487,125.444 C460.487,128.953 461.665,132.187 463.646,134.772 L463.646,135.375 L464.132,135.375 C464.744,136.095 465.421,136.758 466.154,137.354 C466.938,137.993 466.474,139.889 465.462,139.889 L445.59,139.889 C444.344,139.889 443.333,138.878 443.333,137.632 C443.333,136.386 444.344,135.375 445.59,135.375 L459.132,135.375 L459.132,128.939 C448.227,127.81 439.722,118.593 439.722,107.389 L439.722,106.035 C439.722,104.788 440.733,103.778 441.979,103.778 Z M475.833,114.611 C481.817,114.611 486.667,119.461 486.667,125.444 C486.667,127.619 486.025,129.644 484.922,131.341 L489.617,136.036 L489.697,136.121 C490.497,137.007 490.47,138.374 489.617,139.228 C488.763,140.081 487.396,140.108 486.51,139.308 L486.425,139.228 L481.731,134.532 C480.034,135.636 478.009,136.278 475.833,136.278 C469.85,136.278 465,131.427 465,125.444 C465,119.461 469.85,114.611 475.833,114.611 Z M475.833,119.125 C472.343,119.125 469.514,121.954 469.514,125.444 C469.514,128.935 472.343,131.764 475.833,131.764 C479.324,131.764 482.153,128.935 482.153,125.444 C482.153,121.954 479.324,119.125 475.833,119.125 Z M461.84,82.111 C467.574,82.111 472.222,86.759 472.222,92.493 L472.222,107.84 C472.222,108.804 472.091,109.736 471.845,110.621 C467.714,111.73 464.271,114.519 462.295,118.211 C462.144,118.218 461.993,118.222 461.84,118.222 L460.938,118.222 C455.204,118.222 450.556,113.574 450.556,107.84 L450.556,92.493 C450.556,86.759 455.204,82.111 460.938,82.111 L461.84,82.111 Z M480.799,103.778 C482.045,103.778 483.056,104.788 483.056,106.035 L483.056,107.389 C483.056,107.853 483.041,108.313 483.012,108.769 C482.918,110.249 481.317,111.029 479.886,110.639 C479.366,110.497 478.836,110.381 478.295,110.294 C478.457,109.35 478.542,108.379 478.542,107.389 L478.542,106.035 C478.542,104.788 479.552,103.778 480.799,103.778 Z" />
        </g>
        <g id="Black-S">
            <path d="M641.979,103.778 C643.226,103.778 644.236,104.788 644.236,106.035 L644.236,107.389 C644.236,116.569 651.448,124.064 660.515,124.519 C660.497,124.825 660.487,125.134 660.487,125.444 C660.487,128.953 661.664,132.187 663.646,134.772 L663.646,135.375 L664.132,135.375 C664.744,136.095 665.421,136.758 666.154,137.354 C666.938,137.993 666.474,139.889 665.462,139.889 L645.59,139.889 C644.344,139.889 643.333,138.878 643.333,137.632 C643.333,136.386 644.344,135.375 645.59,135.375 L659.132,135.375 L659.132,128.939 C648.227,127.81 639.722,118.593 639.722,107.389 L639.722,106.035 C639.722,104.788 640.733,103.778 641.979,103.778 Z M675.833,114.611 C681.817,114.611 686.667,119.461 686.667,125.444 C686.667,127.619 686.025,129.644 684.922,131.341 L689.617,136.036 L689.697,136.121 C690.497,137.007 690.47,138.374 689.617,139.228 C688.763,140.081 687.396,140.108 686.51,139.308 L686.425,139.228 L681.731,134.532 C680.034,135.636 678.009,136.278 675.833,136.278 C669.85,136.278 665,131.427 665,125.444 C665,119.461 669.85,114.611 675.833,114.611 Z M675.833,119.125 C672.343,119.125 669.514,121.954 669.514,125.444 C669.514,128.935 672.343,131.764 675.833,131.764 C679.324,131.764 682.153,128.935 682.153,125.444 C682.153,121.954 679.324,119.125 675.833,119.125 Z M661.84,82.111 C667.574,82.111 672.222,86.759 672.222,92.493 L672.222,107.84 C672.222,108.804 672.091,109.736 671.845,110.621 C667.714,111.73 664.271,114.519 662.294,118.211 C662.144,118.218 661.993,118.222 661.84,118.222 L660.938,118.222 C655.204,118.222 650.556,113.574 650.556,107.84 L650.556,92.493 C650.556,86.759 655.204,82.111 660.938,82.111 L661.84,82.111 Z M680.799,103.778 C682.045,103.778 683.056,104.788 683.056,106.035 L683.056,107.389 C683.056,107.853 683.041,108.313 683.012,108.769 C682.918,110.249 681.316,111.029 679.886,110.639 C679.366,110.497 678.836,110.381 678.295,110.294 C678.457,109.35 678.542,108.379 678.542,107.389 L678.542,106.035 C678.542,104.788 679.552,103.778 680.799,103.778 Z" />
        </g>
    </g>
</svg>