<svg width="16" height="16" viewBox="0 0 16 16" fill="none" xmlns="http://www.w3.org/2000/svg">
<g clip-path="url(#clip0_83_9703)">
<path d="M8.73145 1.37695C8.44156 2.53614 7.53611 3.44149 6.37695 3.73145L5.16895 4.0332C3.64244 4.4152 3.64244 6.58477 5.16895 6.9668L6.37695 7.26855C7.53608 7.55851 8.44154 8.46391 8.73145 9.62305L9.0332 10.8311C9.4153 12.3574 11.5848 12.3575 11.9668 10.8311L12.2686 9.62305C12.3989 9.10201 12.6539 8.6327 13 8.24707V12C13 13.6569 11.6569 15 10 15H4C2.34315 15 1 13.6569 1 12V4C1 2.34315 2.34315 1 4 1H8.8252L8.73145 1.37695ZM10.5 5.5H13V5.71777C11.8631 6.3014 10.9704 7.28362 10.5 8.48438C9.9646 7.11779 8.88133 6.03521 7.51465 5.5C8.88166 4.96467 9.96472 3.88169 10.5 2.51465V5.5Z" fill="#F5F5F5"/>
<path d="M8.8252 1H4C2.34315 1 1 2.34315 1 4V12C1 13.6569 2.34315 15 4 15H10C11.6569 15 13 13.6569 13 12V8.24707C13.0676 8.17178 13.1386 8.09967 13.2129 8.031C13.5377 7.73059 14 8.00792 14 8.4504V12L13.9951 12.2061C13.8913 14.2512 12.2512 15.8913 10.2061 15.9951L10 16H4L3.79395 15.9951C1.68056 15.8879 0 14.14 0 12V4C0 1.79086 1.79086 9.66384e-08 4 0H8.22827C8.64494 0 8.9601 0.42247 8.86626 0.828437C8.85297 0.885928 8.83942 0.943182 8.8252 1ZM11.5 12C11.7761 12 12 12.2239 12 12.5C12 12.7761 11.7761 13 11.5 13H2.5C2.22386 13 2 12.7761 2 12.5C2 12.2239 2.22386 12 2.5 12H11.5ZM7.5 10C7.77614 10 8 10.2239 8 10.5C8 10.7761 7.77614 11 7.5 11H2.5C2.22386 11 2 10.7761 2 10.5C2 10.2239 2.22386 10 2.5 10H7.5ZM6 8C6.27614 8 6.5 8.22386 6.5 8.5C6.5 8.77614 6.27614 9 6 9H2.5C2.22386 9 2 8.77614 2 8.5C2 8.22386 2.22386 8 2.5 8H6Z" fill="url(#paint0_linear_83_9703)"/>
<path d="M10.0209 0.416285C10.1456 -0.0824478 10.8544 -0.082446 10.9791 0.416287L11.2809 1.62365C11.662 3.14789 12.8521 4.33802 14.3763 4.71908L15.5837 5.02092C16.0824 5.1456 16.0824 5.85438 15.5837 5.97907L14.3763 6.28091C12.8521 6.66197 11.662 7.8521 11.2809 9.37634L10.9791 10.5837C10.8544 11.0824 10.1456 11.0824 10.0209 10.5837L9.71908 9.37634C9.33802 7.8521 8.14789 6.66197 6.62365 6.28091L5.41629 5.97907C4.91755 5.85438 4.91755 5.1456 5.41629 5.02092L6.62365 4.71908C8.14789 4.33802 9.33802 3.14789 9.71908 1.62365L10.0209 0.416285Z" fill="#7295F6"/>
<path d="M10.0205 0.416C10.1453 -0.082515 10.8547 -0.0825137 10.9795 0.416L11.2812 1.62401C11.6624 3.1479 12.8521 4.33759 14.376 4.71873L15.584 5.02049C16.0825 5.14527 16.0825 5.85469 15.584 5.97948L14.376 6.28123L14.0947 6.36131C12.7066 6.81153 11.6386 7.9471 11.2812 9.37596L10.9795 10.584L10.9492 10.6709C10.7804 11.0533 10.2196 11.0533 10.0508 10.6709L10.0205 10.584L9.71873 9.37596C9.36136 7.9471 8.29332 6.81153 6.90526 6.36131L6.62401 6.28123L5.416 5.97948C4.91749 5.85469 4.91749 5.14528 5.416 5.02049L6.62401 4.71873C8.05287 4.36136 9.18844 3.29332 9.63866 1.90526L9.71873 1.62401L10.0205 0.416ZM10.5 2.51463C9.96468 3.88175 8.88175 4.96468 7.51463 5.49998C8.88146 6.03518 9.96456 7.11765 10.5 8.48436C11.0353 7.11793 12.1179 6.03529 13.4844 5.49998C12.1176 4.96456 11.0352 3.88146 10.5 2.51463Z" fill="url(#paint1_linear_83_9703)"/>
</g>
<defs>
<linearGradient id="paint0_linear_83_9703" x1="7" y1="16" x2="7" y2="0" gradientUnits="userSpaceOnUse">
<stop stop-color="#888888"/>
<stop offset="1" stop-color="#AAAAAA"/>
</linearGradient>
<linearGradient id="paint1_linear_83_9703" x1="10.5" y1="0.0421143" x2="10.5" y2="10.9577" gradientUnits="userSpaceOnUse">
<stop stop-color="#557FF3"/>
<stop offset="1" stop-color="#2B55CA"/>
</linearGradient>
<clipPath id="clip0_83_9703">
<rect width="16" height="16" fill="white"/>
</clipPath>
</defs>
</svg>
