<svg fill="none" viewBox="0 0 32 32" xmlns="http://www.w3.org/2000/svg">
  <path fill="#006FCF" d="M26 4a6 6 0 0 1 6 6v12a6 6 0 0 1-6 6H6a6 6 0 0 1-6-6V10a6 6 0 0 1 6-6z"/>
  <path fill="#000" fill-opacity=".18" fill-rule="evenodd" d="M30 22V10a4 4 0 0 0-4-4H6a4 4 0 0 0-4 4v12a4 4 0 0 0 4 4h20a4 4 0 0 0 4-4m2-12a6 6 0 0 0-6-6H6a6 6 0 0 0-6 6v12a6 6 0 0 0 6 6h20a6 6 0 0 0 6-6z" clip-rule="evenodd"/>
  <path fill="#fff" d="M26.57 14.927h2.12V10h-2.307v.686L25.947 10H23.95v.873L23.577 10h-3.68c-.124 0-.249.062-.374.062-.124 0-.187.063-.311.125-.125.062-.187.062-.312.125V10H8.36l-.311.81-.312-.81H5.243v.873L4.869 10H2.873L2 12.12v2.807h1.434l.25-.686h.499l.25.686h10.975v-.624l.436.624H18.9v-.375c.062.063.187.063.25.125.062.062.186.062.249.125.124.062.25.062.374.062h2.245l.25-.686h.498l.25.686h3.055v-.623zM30 21.163v-4.615H12.85l-.436.624-.436-.624h-4.99v4.926h4.99l.436-.623.437.623h3.118v-1.06h-.125q.655 0 1.123-.187v1.31h2.245v-.624l.436.624h9.292c.374-.125.748-.187 1.06-.374"/>
  <path fill="#006FCF" d="M28.94 19.978h-1.684v.686h1.622c.686 0 1.122-.437 1.122-1.06 0-.624-.374-.936-.998-.936h-.748c-.187 0-.312-.125-.312-.312s.125-.312.312-.312h1.434L30 17.36h-1.684c-.686 0-1.122.436-1.122.997 0 .624.374.936.998.936h.748c.187 0 .312.124.312.311.062.25-.063.375-.312.375m-3.056 0H24.2v.686h1.622c.686 0 1.122-.437 1.122-1.06 0-.624-.374-.936-.997-.936h-.749c-.187 0-.312-.125-.312-.312s.125-.312.312-.312h1.435l.311-.685h-1.683c-.686 0-1.123.436-1.123.997 0 .624.374.936.998.936h.748c.187 0 .312.124.312.311.062.25-.125.375-.312.375m-2.182-1.996v-.686h-2.62v3.305h2.62v-.686H21.83v-.686h1.808v-.686H21.83v-.623h1.87zm-4.241 0c.312 0 .437.187.437.374s-.125.374-.437.374h-.935v-.81zm-.935 1.435h.374l.998 1.184h.935l-1.122-1.247c.56-.125.873-.499.873-.998 0-.623-.437-1.06-1.123-1.06h-1.746v3.305h.748zm-1.996-.998c0 .25-.125.436-.437.436h-.997v-.873h.935c.312 0 .5.187.5.437m-2.183-1.123v3.305h.749V19.48h.997c.686 0 1.185-.437 1.185-1.123 0-.623-.436-1.122-1.122-1.122zm-1.122 3.305h.935l-1.31-1.683 1.31-1.622h-.935l-.81 1.06-.811-1.06h-.936l1.31 1.622-1.31 1.621h.936l.81-1.06zm-2.806-2.619v-.686H7.8v3.305h2.62v-.686H8.548v-.686h1.808v-.686H8.548v-.623h1.87zm15.153-5.862 1.31 1.996h.935V10.81h-.748v2.182l-.187-.312-1.185-1.87H24.7v3.305h.749V11.87zm-3.242-.062.25-.686.248.686.312.748h-1.122zm1.31 2.058h.81l-1.434-3.305h-.998l-1.434 3.305h.81l.312-.686h1.621zm-3.493 0 .312-.686h-.187c-.561 0-.873-.374-.873-.936v-.062c0-.561.311-.935.873-.935h.81v-.686h-.873c-.997 0-1.559.686-1.559 1.621v.062c0 .998.562 1.622 1.497 1.622m-2.806 0h.748v-3.243h-.748zm-1.622-2.62c.312 0 .437.188.437.375s-.125.374-.437.374h-.935v-.81zm-.935 1.435h.374l.998 1.185h.935L15.97 12.87c.561-.125.873-.5.873-.998 0-.624-.437-1.06-1.123-1.06h-1.746v3.305h.749zm-1.372-1.434v-.686h-2.62v3.305h2.62v-.686h-1.87v-.686h1.808v-.686H11.54v-.624h1.871zm-5.675 2.619h.686l.936-2.682v2.682h.748V10.81H8.86l-.749 2.245-.748-2.245H6.116v3.305h.748v-2.682zm-4.053-2.058.25-.686.249.686.311.748H3.372zm1.31 2.058h.81L4.37 10.81h-.936L2 14.116h.81l.312-.686h1.622z"/>
</svg>
