<svg width="52" height="24" viewBox="0 0 52 24" fill="none" xmlns="http://www.w3.org/2000/svg">
<path d="M6.26133 3.00783C4.46199 3.00156 3 4.45846 3 6.25781V7.74995C3 9.54487 4.45507 10.9999 6.25 10.9999H7.75C9.54492 10.9999 11 9.54488 11 7.74995V6.26304C11 4.47254 9.55182 3.0193 7.76133 3.01306L6.26133 3.00783Z" fill="black" fill-opacity="0.84"/>
<path d="M6.26133 13.0078C4.46199 13.0016 3 14.4585 3 16.2578V17.7499C3 19.5449 4.45507 21 6.25 21H7.75C9.54492 21 11 19.5449 11 17.75V16.263C11 14.4725 9.55182 13.0193 7.76133 13.0131L6.26133 13.0078Z" fill="black" fill-opacity="0.84"/>
<path d="M16.2613 3.00783C14.462 3.00156 13 4.45846 13 6.25781V7.74995C13 9.54487 14.4551 10.9999 16.25 10.9999H17.75C19.5449 10.9999 21 9.54488 21 7.74995V6.26304C21 4.47254 19.5518 3.0193 17.7613 3.01306L16.2613 3.00783Z" fill="black" fill-opacity="0.84"/>
<path d="M16.2613 13.0078C14.462 13.0016 13 14.4585 13 16.2578V17.7499C13 19.5449 14.4551 21 16.25 21H17.75C19.5449 21 21 19.5449 21 17.75V16.263C21 14.4725 19.5518 13.0193 17.7613 13.0131L16.2613 13.0078Z" fill="black" fill-opacity="0.84"/>
<path fill-rule="evenodd" clip-rule="evenodd" d="M34.0041 3.00305C32.3457 3.00078 31 4.34459 31 6.00305V7.99995C31 9.65681 32.3431 11 34 11H46C47.6569 11 49 9.65681 49 7.99995V6.01953C49 4.36428 47.6594 3.0218 46.0041 3.01953L34.0041 3.00305ZM32.5 6.00305C32.5 5.17382 33.1728 4.50191 34.0021 4.50305L46.0021 4.51953C46.8297 4.52067 47.5 5.19191 47.5 6.01953V7.99995C47.5 8.82838 46.8284 9.49995 46 9.49995H34C33.1716 9.49995 32.5 8.82838 32.5 7.99995V6.00305Z" fill="black" fill-opacity="0.84"/>
<path fill-rule="evenodd" clip-rule="evenodd" d="M34.0041 13.0031C32.3457 13.0008 31 14.3446 31 16.0031V18C31 19.6568 32.3431 21 34 21H46C47.6569 21 49 19.6568 49 18V16.0195C49 14.3643 47.6594 13.0218 46.0041 13.0195L34.0041 13.0031ZM32.5 16.0031C32.5 15.1738 33.1728 14.5019 34.0021 14.5031L46.0021 14.5195C46.8297 14.5207 47.5 15.1919 47.5 16.0195V18C47.5 18.8284 46.8284 19.5 46 19.5H34C33.1716 19.5 32.5 18.8284 32.5 18V16.0031Z" fill="black" fill-opacity="0.84"/>
</svg>
