<svg fill="none" viewBox="0 0 16 16" xmlns="http://www.w3.org/2000/svg">
  <path fill="#FC3" d="M8 8c1.4.48 4.433 3.402 4.433 4.77 0 1.476-2.567 2.43-4.433 2.43-1.867 0-4.434-.954-4.434-2.43C3.566 11.295 6.6 8.48 8 8Z"/>
  <path fill="url(#Fire-Color-16_svg__a)" d="M6.662.5c1.323.88 1.408 2.35 1.784 3.75.064.237.407 1.25 1.554 1.25 1.02 0 1.441-.682 1.569-1 .127-.318.191-1 .255-.943.065.06 2.676 2.41 2.676 6.477 0 2.446-1.926 4.482-4.497 5.193.664-.544.997-1.372.997-2.258 0-1.425-1.667-2.878-3-4.219-1.333 1.341-3 2.682-3 4.22 0 .884.332 1.713.996 2.257-2.57-.711-4.496-2.747-4.496-5.193C1.5 5.966 4.941 4.949 6.662.5Z"/>
  <path fill="url(#Fire-Color-16_svg__b)" d="M14 10.034a8.728 8.728 0 0 0-1.926-5.466l-.01.034-.031.084C11.863 5.107 11.303 6 10 6c-.745 0-1.25-.338-1.566-.715a2.435 2.435 0 0 1-.422-.75l-.049-.155c-.096-.36-.176-.733-.255-1.069a8.835 8.835 0 0 0-.27-.962c-.139-.39-.317-.732-.58-1.025-.884 1.947-2.082 3.233-3.035 4.402C2.77 7.02 2 8.176 2 10.034c0 1.7 1.06 3.228 2.69 4.128a3.712 3.712 0 0 1-.186-1.004l-.004-.189c0-.95.513-1.784 1.117-2.504.601-.716 1.393-1.428 2.029-2.067l.036-.034a.5.5 0 0 1 .672.034c.647.65 1.429 1.38 2.032 2.113.597.725 1.114 1.562 1.114 2.458l-.004.189a3.76 3.76 0 0 1-.187 1.003c1.63-.9 2.691-2.426 2.691-4.127Zm1 0c0 2.731-2.14 4.922-4.863 5.675a.5.5 0 0 1-.45-.868c.495-.406.776-1.026.81-1.73l.003-.142c0-.528-.316-1.13-.886-1.823-.468-.568-1.041-1.125-1.616-1.693-.578.565-1.145 1.095-1.615 1.655-.563.67-.883 1.274-.883 1.861l.003.142c.034.704.315 1.324.81 1.73a.5.5 0 0 1-.45.869C3.14 14.956 1 12.764 1 10.034c0-2.21.952-3.595 2.048-4.94C4.144 3.749 5.37 2.453 6.195.32L6.22.268a.5.5 0 0 1 .72-.184C7.715.6 8.121 1.293 8.378 2.01c.128.354.22.72.303 1.072.084.36.156.698.247 1.037l.028.089c.04.11.115.28.243.434.158.188.398.357.8.357.736 0 1.02-.472 1.105-.686l.03-.094c.031-.11.061-.26.095-.428.018-.095.04-.207.063-.29a.78.78 0 0 1 .075-.187c.016-.026.083-.141.226-.21a.51.51 0 0 1 .52.045l.044.035.15.144C12.898 3.92 15 6.286 15 10.034Z"/>
  <defs>
    <linearGradient id="Fire-Color-16_svg__a" x1="8.069" x2="9.53" y1="3.446" y2="13.96" gradientUnits="userSpaceOnUse">
      <stop stop-color="#FA8B38"/>
      <stop offset=".52" stop-color="#E72A57"/>
      <stop offset="1" stop-color="#CC165B"/>
    </linearGradient>
    <linearGradient id="Fire-Color-16_svg__b" x1="8" x2="8" y1="0" y2="15.728" gradientUnits="userSpaceOnUse">
      <stop stop-color="#DE5833"/>
      <stop offset="1" stop-color="#9A3216"/>
    </linearGradient>
  </defs>
</svg>
