<svg width="16" height="17" viewBox="0 0 16 17" fill="none" xmlns="http://www.w3.org/2000/svg">
<g id="Icon" clip-path="url(#clip0_6004_18664)">
<g id="Shape">
<path fill-rule="evenodd" clip-rule="evenodd" d="M0.016526 7.98161C0.283656 3.80493 3.75587 0.5 8 0.5C12.2441 0.5 15.7163 3.80493 15.9835 7.98161C16.0083 8.08748 16.0213 8.20085 16.0262 8.31782C16.0371 8.57705 15.5579 8.69819 15.3856 8.50418C15.3541 8.46861 15.3224 8.43318 15.2908 8.39794C14.995 8.0672 14.714 7.75298 14.6764 7.5C14.3213 5.10883 12.7122 3.12673 10.5392 2.24389C10.6918 2.49058 10.8305 2.75329 10.9548 3.02501C11.4045 4.00765 11.7288 5.22663 11.8883 6.57437C11.9194 6.83672 11.7316 7.06924 11.4773 7.14114C11.2098 7.2168 10.9544 7.32142 10.7148 7.45138C10.6104 5.91328 10.281 4.55662 9.81817 3.54517C9.22748 2.2544 8.53843 1.75 8 1.75C7.46158 1.75 6.77252 2.2544 6.18183 3.54517C5.71409 4.56726 5.38266 5.94187 5.282 7.5L10.6279 7.5C10.1793 7.75894 9.7894 8.10808 9.48286 8.52263C9.38086 8.66056 9.22326 8.75 9.05172 8.75L5.25198 8.75C5.28153 10.6159 5.64035 12.2716 6.18183 13.4548C6.56967 14.3023 6.99991 14.8108 7.40208 15.0601C7.59396 15.1791 7.74647 15.3723 7.75371 15.5979C7.7553 15.6476 7.75758 15.697 7.76081 15.7463C7.78464 16.1091 7.51645 16.4939 7.15487 16.4559C3.13387 16.0337 0 12.6328 0 8.5C0 8.40178 0.00177005 8.30397 0.00528001 8.20661C0.00179678 8.1799 0 8.15266 0 8.125C0 8.07566 0.0057174 8.02766 0.016526 7.98161ZM1.25454 8.75C1.35364 11.4718 3.06431 13.7825 5.46078 14.7561C5.30818 14.5094 5.16954 14.2467 5.0452 13.975C4.41529 12.5985 4.03134 10.7583 4.00183 8.75H1.25454ZM4.02962 7.5L1.32356 7.5C1.67867 5.10883 3.2878 3.12673 5.46078 2.24389C5.30818 2.49058 5.16954 2.75329 5.0452 3.02501C4.4946 4.22817 4.13192 5.78566 4.02962 7.5Z" fill="black" fill-opacity="0.84"/>
<path fill-rule="evenodd" clip-rule="evenodd" d="M10 10.75C10 9.36929 11.1193 8.25 12.5 8.25C13.8807 8.25 15 9.36929 15 10.75V11.5H15.1477C15.6184 11.5 16 11.8816 16 12.3523V15.6477C16 16.1184 15.6184 16.5 15.1477 16.5H9.85227C9.38157 16.5 9 16.1184 9 15.6477V12.3523C9 11.8816 9.38158 11.5 9.85227 11.5H10V10.75ZM13.75 10.75V11.5H11.25V10.75C11.25 10.0596 11.8096 9.5 12.5 9.5C13.1904 9.5 13.75 10.0596 13.75 10.75Z" fill="black" fill-opacity="0.84"/>
</g>
</g>
<defs>
<clipPath id="clip0_6004_18664">
<rect width="16" height="16" fill="white" transform="translate(0 0.5)"/>
</clipPath>
</defs>
</svg>
