<svg fill="none" viewBox="0 0 16 16" xmlns="http://www.w3.org/2000/svg">
  <path fill="#000" d="M13.75 10a8.46 8.46 0 0 0-1.696-5.08c-.19.437-.74 1.33-2.054 1.33-.765 0-1.3-.334-1.643-.712a2.42 2.42 0 0 1-.513-.902l-.01-.037c-.097-.36-.176-.738-.253-1.079a9.624 9.624 0 0 0-.262-.98 3.254 3.254 0 0 0-.412-.844c-.865 1.82-2.002 3.05-2.899 4.151C2.98 7.111 2.25 8.22 2.25 10c0 1.545.923 2.955 2.374 3.831a3.71 3.71 0 0 1-.123-.855l-.001-.104c0-.957.522-1.784 1.107-2.473.58-.684 1.352-1.37 1.952-1.967l.024-.022a.625.625 0 0 1 .858.022c.613.61 1.372 1.31 1.956 2.012.575.691 1.103 1.52 1.103 2.428l-.001.104a3.71 3.71 0 0 1-.123.855c1.45-.876 2.374-2.286 2.374-3.831ZM15 10c0 2.817-2.241 5.046-5.036 5.755l-.133.033a.625.625 0 0 1-.478-1.136l.053-.035c.528-.362.824-.967.843-1.674l.001-.07c0-.443-.271-.977-.814-1.63-.416-.5-.92-.99-1.438-1.494-.52.5-1.019.965-1.438 1.46-.533.627-.81 1.164-.81 1.663l.001.071c.02.73.335 1.353.896 1.71a.625.625 0 0 1-.45 1.141l-.028-.006C3.313 15.116 1 12.862 1 10c0-2.22.957-3.611 2.039-4.941C4.119 3.73 5.305 2.473 6.104.4l.014-.033a.625.625 0 0 1 .916-.262l.074.05c.756.533 1.148 1.26 1.394 1.983.126.37.218.75.299 1.107.083.368.152.703.24 1.03l.008.026c.025.074.096.245.235.398.142.157.356.301.716.301.34 0 .537-.111.66-.222a1.05 1.05 0 0 0 .26-.385l.012-.036c.03-.094.063-.263.101-.478.018-.1.04-.221.063-.312.009-.035.03-.123.075-.208.013-.026.082-.165.242-.263a.634.634 0 0 1 .727.047l.028.023.049.046C12.6 3.575 15 5.996 15 10Z"/>
</svg>
