<svg fill="none" viewBox="0 0 24 24" xmlns="http://www.w3.org/2000/svg">
  <path fill="#FC3" d="M12 12.375c1.778 1.623 4 3.382 4 5.107C16 19.342 14.667 21 12 21s-4-1.657-4-3.518c0-1.86 2.222-3.483 4-5.107Z"/>
  <path fill="url(#Fire-Color-24_svg__a)" d="M10.278 2.625c1.703 1.097 1.812 3.09 2.296 4.835.082.296.574 1.506 2.05 1.506 1.312 0 1.804-.872 1.968-1.268.164-.396.246-1.331.328-1.26.082.071 3.444 3.004 3.444 8.077 0 3.046-2.471 5.584-5.771 6.475.806-.678 1.209-1.69 1.209-2.769 0-1.774-2.112-3.583-3.802-5.253-1.69 1.67-3.802 3.34-3.802 5.253 0 1.079.403 2.091 1.209 2.77-3.3-.892-5.771-3.43-5.771-6.476 0-5.073 4.428-6.341 6.642-11.89Z"/>
  <path fill="url(#Fire-Color-24_svg__b)" d="M19.739 14.515c0-3.326-1.534-5.68-2.487-6.822a2.52 2.52 0 0 1-.062.191l-.02.053a2.732 2.732 0 0 1-.721 1.015c-.42.365-1.016.64-1.825.64-.933 0-1.584-.392-2.004-.84a2.882 2.882 0 0 1-.636-1.081l-.012-.044c-.126-.453-.229-.927-.33-1.362a12.02 12.02 0 0 0-.348-1.258c-.186-.526-.423-.987-.774-1.368-1.138 2.44-2.686 4.05-3.915 5.512-1.358 1.614-2.344 3.054-2.344 5.364 0 2.14 1.398 4.072 3.552 5.191a4.593 4.593 0 0 1-.239-1.37l-.001-.115c0-1.187.652-2.228 1.417-3.124.761-.89 1.764-1.777 2.57-2.574l.024-.021a.625.625 0 0 1 .855.021l.315.309c.748.728 1.59 1.523 2.26 2.322.755.902 1.413 1.946 1.413 3.067l-.002.116a4.59 4.59 0 0 1-.238 1.37c2.154-1.12 3.552-3.052 3.552-5.192Zm1.25 0c0 3.362-2.668 6.054-6.07 7.033l-.163.046a.625.625 0 0 1-.566-1.082c.623-.524.965-1.314.986-2.204v-.087c0-.653-.398-1.4-1.12-2.264-.596-.71-1.327-1.407-2.058-2.116-.736.706-1.46 1.368-2.057 2.068-.714.835-1.118 1.586-1.118 2.312l.001.087c.02.89.363 1.68.985 2.204a.625.625 0 0 1-.565 1.082c-3.48-.94-6.233-3.664-6.233-7.08 0-2.763 1.228-4.492 2.637-6.168 1.411-1.677 2.989-3.294 4.05-5.953l.013-.032a.625.625 0 0 1 .905-.261c1.008.649 1.528 1.56 1.856 2.492.163.46.281.935.387 1.388.108.464.2.893.317 1.313l.012.039c.038.109.142.349.345.565.215.23.547.444 1.09.444.504 0 .81-.162 1.005-.332.208-.18.325-.402.386-.55l.01-.025c.047-.13.095-.37.148-.656.024-.129.052-.276.08-.386.012-.044.037-.14.085-.23.016-.03.088-.169.249-.264a.637.637 0 0 1 .714.044l.029.023.001.001.06.054c.488.445 3.599 3.476 3.599 8.495Z"/>
  <defs>
    <linearGradient id="Fire-Color-24_svg__a" x1="12.089" x2="13.856" y1="6.298" y2="19.425" gradientUnits="userSpaceOnUse">
      <stop stop-color="#FA8B38"/>
      <stop offset=".52" stop-color="#E72A57"/>
      <stop offset="1" stop-color="#CC165B"/>
    </linearGradient>
    <linearGradient id="Fire-Color-24_svg__b" x1="12" x2="12" y1="2" y2="21.615" gradientUnits="userSpaceOnUse">
      <stop stop-color="#DE5833"/>
      <stop offset="1" stop-color="#9A3216"/>
    </linearGradient>
  </defs>
</svg>
