<svg width="40" height="40" viewBox="0 0 40 40" fill="none" xmlns="http://www.w3.org/2000/svg">
<path d="M17.969 20.957C18.2619 20.6642 18.7367 20.6642 19.0295 20.957C19.3224 21.2499 19.3224 21.7247 19.0295 22.0176L14.7688 26.2773H18.2502L18.3264 26.2822C18.7047 26.3206 19.0002 26.6399 19.0002 27.0283C19.0002 27.4167 18.7047 27.7361 18.3264 27.7744L18.2512 27.7783H14.6389C13.3448 27.7781 12.2798 26.7945 12.1516 25.5342L12.1399 25.2783V21.75C12.14 21.3358 12.4757 21 12.8899 21C13.3038 21.0003 13.6388 21.336 13.6389 21.75V25.2861L17.969 20.957Z" fill="#1F1F1F" fill-opacity="0.6"/>
<path d="M26.3616 11.4307C27.6558 11.4309 28.7208 12.4144 28.8489 13.6748L28.8606 13.9297V17.459C28.8604 17.873 28.5247 18.209 28.1106 18.209C27.6968 18.2087 27.3618 17.8728 27.3616 17.459V13.9297C27.3615 13.8542 27.3521 13.7807 27.3362 13.71L22.0305 19.0166L21.9729 19.0684C21.6784 19.3082 21.2444 19.2909 20.97 19.0166C20.6956 18.742 20.678 18.3072 20.9182 18.0127L20.97 17.9561L25.9954 12.9307H22.7502L22.6741 12.9258C22.2959 12.8875 22.0004 12.5689 22.0002 12.1807C22.0003 11.7923 22.2958 11.4729 22.6741 11.4346L22.7493 11.4307H26.3616Z" fill="#1F1F1F" fill-opacity="0.6"/>
</svg>
