<svg fill="none" viewBox="0 0 16 16" xmlns="http://www.w3.org/2000/svg">
  <g fill="#000" clip-path="url(#Cookie-Whole-16_svg__a)">
    <path d="M9.75 5a.75.75 0 1 0 0-1.5.75.75 0 0 0 0 1.5ZM6.5 4.75a.75.75 0 1 1-1.5 0 .75.75 0 0 1 1.5 0ZM3.75 9.5a.75.75 0 1 0 0-1.5.75.75 0 0 0 0 1.5Zm4-1a.75.75 0 1 0 0-1.5.75.75 0 0 0 0 1.5Zm-1 4a.75.75 0 1 0 0-1.5.75.75 0 0 0 0 1.5Zm4-1a.75.75 0 1 0 0-1.5.75.75 0 0 0 0 1.5Zm1-4a.75.75 0 1 0 0-1.5.75.75 0 0 0 0 1.5Z"/>
    <path fill-rule="evenodd" d="M8 0a8 8 0 1 0 0 16A8 8 0 0 0 8 0ZM1.25 8a6.75 6.75 0 1 1 13.5 0 6.75 6.75 0 0 1-13.5 0Z" clip-rule="evenodd"/>
  </g>
  <defs>
    <clipPath id="Cookie-Whole-16_svg__a">
      <path fill="#fff" d="M0 0h16v16H0z"/>
    </clipPath>
  </defs>
</svg>
