<svg width="24" height="24" viewBox="0 0 24 24" fill="none" xmlns="http://www.w3.org/2000/svg">
<path d="M8.71991 8.71967C9.01281 8.42678 9.48768 8.42678 9.78057 8.71967L12.0002 10.9393L14.2199 8.71967C14.5128 8.42678 14.9877 8.42678 15.2806 8.71967C15.5735 9.01256 15.5735 9.48744 15.2806 9.78033L13.0609 12L15.2806 14.2197C15.5735 14.5126 15.5735 14.9874 15.2806 15.2803C14.9877 15.5732 14.5128 15.5732 14.2199 15.2803L12.0002 13.0607L9.78057 15.2803C9.48768 15.5732 9.01281 15.5732 8.71991 15.2803C8.42702 14.9874 8.42702 14.5126 8.71991 14.2197L10.9396 12L8.71991 9.78033C8.42702 9.48744 8.42702 9.01256 8.71991 8.71967Z" fill="black"/>
<path fill-rule="evenodd" clip-rule="evenodd" d="M12.0002 3C7.02968 3 3.00024 7.02944 3.00024 12C3.00024 16.9706 7.02968 21 12.0002 21C16.9708 21 21.0002 16.9706 21.0002 12C21.0002 7.02944 16.9708 3 12.0002 3ZM4.50024 12C4.50024 7.85786 7.85811 4.5 12.0002 4.5C16.1424 4.5 19.5002 7.85786 19.5002 12C19.5002 16.1421 16.1424 19.5 12.0002 19.5C7.85811 19.5 4.50024 16.1421 4.50024 12Z" fill="black"/>
</svg>
