<svg fill="none" viewBox="0 0 24 24" xmlns="http://www.w3.org/2000/svg">
  <path fill="#000" d="M19.5 14.478c0-3.069-1.34-5.287-2.27-6.457l-.007.02a2.83 2.83 0 0 1-.747 1.05c-.438.382-1.057.664-1.888.664-.96 0-1.637-.405-2.074-.871a2.996 2.996 0 0 1-.64-1.067l-.03-.097c-.125-.45-.227-.923-.327-1.35a11.717 11.717 0 0 0-.34-1.226c-.154-.438-.344-.822-.604-1.15-1.124 2.324-2.616 3.88-3.792 5.279-1.334 1.585-2.28 2.975-2.28 5.205v.117c.048 1.897 1.243 3.628 3.114 4.71a4.772 4.772 0 0 1-.114-.942v-.107c0-1.22.669-2.278 1.429-3.167.756-.885 1.756-1.77 2.543-2.547l.028-.026a.75.75 0 0 1 1.026.026c.803.793 1.789 1.697 2.548 2.604.749.893 1.425 1.954 1.425 3.11l-.001.107a4.765 4.765 0 0 1-.113.942c1.87-1.083 3.065-2.813 3.113-4.71l.001-.117Zm1.498.157c-.081 3.304-2.718 5.923-6.035 6.894a.75.75 0 0 1-.74-1.251c.472-.469.742-1.127.774-1.872l.003-.15c0-.593-.365-1.3-1.075-2.147-.558-.666-1.236-1.318-1.927-1.988-.696.666-1.366 1.285-1.927 1.942C9.372 16.88 9 17.589 9 18.257l.002.15c.032.744.302 1.402.774 1.871a.75.75 0 0 1-.74 1.252c-3.316-.972-5.953-3.591-6.035-6.895L3 14.478c0-2.775 1.237-4.512 2.633-6.171C7.031 6.645 8.57 5.069 9.605 2.472l.017-.038a.75.75 0 0 1 1.086-.314c1.027.662 1.555 1.59 1.884 2.525.163.462.281.937.386 1.384.107.46.197.879.311 1.29l.01.032c.033.093.127.312.31.508.19.203.485.396.98.396.463 0 .733-.148.902-.295.184-.16.29-.357.345-.493l.017-.045c.039-.12.081-.332.132-.6.023-.125.05-.277.08-.39.012-.044.04-.153.096-.257.018-.034.104-.2.297-.313a.762.762 0 0 1 .854.055l.034.028.061.055C17.9 6.45 21 9.472 21 14.478l-.002.157Z"/>
</svg>
