<svg fill="none" viewBox="0 0 16 16" xmlns="http://www.w3.org/2000/svg">
  <g clip-path="url(#Export-Right-16_svg__a)">
    <path fill="#000" d="M4.5 7.625c0-.345.28-.625.625-.625h9.366l-3.308-3.308-.022-.023a.625.625 0 0 1 .883-.883l.023.022 3.314 3.314c.83.83.83 2.176 0 3.006l-3.314 3.314a.625.625 0 1 1-.884-.884l3.308-3.308H5.125a.625.625 0 0 1-.625-.625Zm-3.5-5a.625.625 0 1 1 1.25 0v10.157a.625.625 0 0 1-1.25 0V2.625Z"/>
  </g>
  <defs>
    <clipPath id="Export-Right-16_svg__a">
      <path fill="#fff" d="M0 0h16v16H0z"/>
    </clipPath>
  </defs>
</svg>
