<svg xmlns="http://www.w3.org/2000/svg" width="160" height="88" fill="none" viewBox="0 0 160 88">
  <g clip-path="url(#a)">
    <g clip-path="url(#b)">
      <path fill="#fff" fill-opacity=".08" d="M0 0h160v88H0z"/>
      <path fill="#fff" fill-opacity=".1" d="M16 38c0-14.36 11.64-26 26-26h76c14.359 0 26 11.64 26 26v50H16V38Z"/>
      <mask id="c" fill="#fff">
        <path d="M16 38c0-14.36 11.64-26 26-26h76c14.359 0 26 11.64 26 26v50H16V38Z"/>
      </mask>
      <path fill="#000" fill-opacity=".3" d="M16 38c0-14.36 11.64-26 26-26h76c14.359 0 26 11.64 26 26v50H16V38Z"/>
      <path fill="#fff" fill-opacity=".2" d="M11 38C11 20.88 24.88 7 42 7h76c17.121 0 31 13.88 31 31h-10c0-11.598-9.402-21-21-21H42c-11.598 0-21 9.402-21 21H11Zm133 50H16h128ZM11 88V38C11 20.88 24.88 7 42 7v10c-11.598 0-21 9.402-21 21v50H11ZM118 7c17.121 0 31 13.88 31 31v50h-10V38c0-11.598-9.402-21-21-21V7Z" mask="url(#c)"/>
      <rect width="56" height="20" x="52" y="26" fill="#fff" fill-opacity=".08" rx="10"/>
      <path fill="#000" fill-opacity=".4" d="M93 30c3.314 0 6 2.392 6 5.344 0 2.239-1.546 4.156-3.74 4.95-1.418.652-4.907 1.313-6.899 1.655a.531.531 0 0 1-.488-.877l.97-1.118c.21-.242.165-.61-.074-.822C87.676 38.164 87 36.824 87 35.344 87 32.392 89.686 30 93 30Zm0 1c-2.874 0-5 2.05-5 4.344 0 1.163.529 2.24 1.432 3.04.6.531.778 1.52.167 2.225l-.106.122a68.235 68.235 0 0 0 2.316-.47c1.305-.29 2.434-.6 3.035-.875l.038-.017.038-.014c1.867-.678 3.08-2.263 3.08-4.011C98 33.05 95.874 31 93 31Zm-.285 1.453c.074-.296.496-.297.57 0l.164.658c.22.878.906 1.564 1.783 1.784l.659.164c.296.074.296.495 0 .57l-.659.165a2.45 2.45 0 0 0-1.783 1.782l-.164.658c-.074.297-.496.297-.57 0l-.165-.658a2.45 2.45 0 0 0-1.782-1.782l-.659-.165c-.296-.074-.296-.496 0-.57l.659-.164a2.45 2.45 0 0 0 1.782-1.784l.165-.658Z"/>
      <rect width="100" height="20" x="30" y="52" fill="#fff" fill-opacity=".08" rx="8"/>
      <path fill="#000" fill-opacity=".3" d="M72 28a8 8 0 1 1 0 16H62a8 8 0 1 1 0-16h10Zm-5.75 2a5.25 5.25 0 1 0 3.342 9.299l2.555 2.554.078.065a.5.5 0 0 0 .693-.693l-.065-.078-2.554-2.555A5.25 5.25 0 0 0 66.25 30Zm0 1a4.25 4.25 0 1 1 0 8.5 4.25 4.25 0 0 1 0-8.5Z"/>
      <rect width="1" height="12" x="38" y="56" fill="#000" fill-opacity=".4" rx=".5"/>
    </g>
  </g>
  <defs>
    <clipPath id="a">
      <path fill="#fff" d="M0 0h160v88H0z"/>
    </clipPath>
    <clipPath id="b">
      <rect width="160" height="88" fill="#fff" rx="26"/>
    </clipPath>
  </defs>
</svg>
