<svg width="76" height="76" viewBox="0 0 76 76" fill="none" xmlns="http://www.w3.org/2000/svg">
<path d="M25.9166 34.6667C26.607 34.6667 27.1666 35.2263 27.1666 35.9167V36.3333C27.1666 41.6738 31.0318 46.1074 36.1168 46.999C36.5545 49.0579 37.6843 50.8604 39.25 52.1536V52.1667H39.2662C40.2629 52.9861 41.4352 53.5997 42.7184 53.9417C42.8823 53.9854 42.9996 54.132 42.9996 54.3017V54.3017C42.9996 54.5033 42.8361 54.6667 42.6346 54.6667H29.25C28.5596 54.6667 28 54.107 28 53.4167C28 52.7263 28.5596 52.1667 29.25 52.1667H36.3333V49.5592C29.7564 48.7388 24.6666 43.1325 24.6666 36.3333V35.9167C24.6666 35.2263 25.2263 34.6667 25.9166 34.6667Z" fill="white" fill-opacity="0.84"/>
<path fill-rule="evenodd" clip-rule="evenodd" d="M45.0833 38.4167C48.7652 38.4167 51.75 41.4014 51.75 45.0833C51.75 46.4724 51.3228 47.7607 50.596 48.8284L54.3004 52.5329L54.3867 52.6273C54.7871 53.1182 54.7581 53.8428 54.3004 54.3005C53.8428 54.7581 53.1182 54.7872 52.6272 54.3867L52.5328 54.3005L48.8284 50.596C47.7606 51.3228 46.4724 51.75 45.0833 51.75C41.4014 51.75 38.4166 48.7652 38.4166 45.0833C38.4166 41.4014 41.4014 38.4167 45.0833 38.4167ZM45.0833 40.9167C42.7821 40.9167 40.9166 42.7821 40.9166 45.0833C40.9166 47.3845 42.7821 49.25 45.0833 49.25C47.3845 49.25 49.25 47.3845 49.25 45.0833C49.25 42.7821 47.3845 40.9167 45.0833 40.9167Z" fill="white" fill-opacity="0.84"/>
<path d="M38 21.3919C41.6499 21.3919 44.608 24.3501 44.608 28V35.9281C40.5808 36.1337 37.2409 38.9394 36.2308 42.6989C33.4405 41.9252 31.3919 39.3702 31.3919 36.3333V28C31.3919 24.3501 34.35 21.3919 38 21.3919Z" fill="white" fill-opacity="0.84"/>
<path d="M50.0833 34.6667C50.7736 34.6667 51.3333 35.2263 51.3333 35.9167V36.3333C51.3333 36.985 51.2853 37.6256 51.1949 38.2523C50.4931 37.6239 49.6932 37.104 48.8219 36.7142C48.8263 36.5877 48.8333 36.4609 48.8333 36.3333V35.9167C48.8333 35.2263 49.3929 34.6667 50.0833 34.6667Z" fill="white" fill-opacity="0.84"/>
</svg>
