<svg fill="none" viewBox="0 0 32 32" xmlns="http://www.w3.org/2000/svg">
  <path fill="#fff" d="M26 4a6 6 0 0 1 6 6v12a6 6 0 0 1-6 6H6a6 6 0 0 1-6-6V10a6 6 0 0 1 6-6z"/>
  <path fill="#CCC" fill-rule="evenodd" d="M30 22V10a4 4 0 0 0-4-4H6a4 4 0 0 0-4 4v12a4 4 0 0 0 4 4h20a4 4 0 0 0 4-4m2-12a6 6 0 0 0-6-6H6a6 6 0 0 0-6 6v12a6 6 0 0 0 6 6h20a6 6 0 0 0 6-6z" clip-rule="evenodd"/>
  <path fill="#1434CB" fill-rule="evenodd" d="M18.896 12.5a4.7 4.7 0 0 1 1.598.275l-.242 1.397-.162-.068a3.2 3.2 0 0 0-1.327-.248c-.704 0-1.02.282-1.027.557 0 .303.382.503 1.005.799 1.027.46 1.503 1.025 1.496 1.762-.014 1.342-1.231 2.209-3.101 2.209-.8-.007-1.57-.166-1.988-.344l.25-1.452.234.103c.58.241.96.344 1.672.344.513 0 1.063-.2 1.07-.633 0-.282-.234-.49-.923-.806-.675-.31-1.577-.825-1.562-1.755.007-1.26 1.247-2.14 3.007-2.14m-6.645 6.587h1.783l1.114-6.47h-1.782zm11.433-6.47h1.378l1.438 6.47h-1.65s-.162-.744-.213-.97H22.35l-.374.97h-1.87l2.647-5.933c.184-.42.507-.537.932-.537m-.11 2.368-.712 1.81h1.481l-.41-1.872-.125-.558a22 22 0 0 1-.18.474c-.034.09-.058.151-.055.146m-12.812-2.368L9.017 17.03l-.19-.895-.624-2.973c-.102-.413-.418-.53-.806-.544H4.529l-.029.131c.7.168 1.325.41 1.873.71L7.96 19.08h1.885l2.801-6.463z" clip-rule="evenodd"/>
</svg>
