<svg width="12" height="12" viewBox="0 0 12 12" fill="none" xmlns="http://www.w3.org/2000/svg">
<g id="Audio" clip-path="url(#clip0_2438_11284)">
<path id="Shape" fill-rule="evenodd" clip-rule="evenodd" d="M12 6C12 9.31371 9.31371 12 6 12C2.68629 12 0 9.31371 0 6C0 2.68629 2.68629 0 6 0C9.31371 0 12 2.68629 12 6ZM5.15056 6.51666C5.15954 6.78617 5.38062 7 5.65028 7H6.34972C6.61938 7 6.84046 6.78617 6.84944 6.51666L6.98278 2.51666C6.9922 2.23414 6.76573 2 6.48306 2H5.51694C5.23427 2 5.0078 2.23414 5.01722 2.51666L5.15056 6.51666ZM7 9C7 9.55228 6.55228 10 6 10C5.44772 10 5 9.55228 5 9C5 8.44772 5.44772 8 6 8C6.55228 8 7 8.44772 7 9Z" fill="black" fill-opacity="0.42"/>
</g>
<defs>
<clipPath id="clip0_2438_11284">
<rect width="12" height="12" fill="white"/>
</clipPath>
</defs>
</svg>
