<svg fill="none" viewBox="0 0 32 32" xmlns="http://www.w3.org/2000/svg">
  <path fill="#fff" d="M26 4a6 6 0 0 1 6 6v12a6 6 0 0 1-6 6H6a6 6 0 0 1-6-6V10a6 6 0 0 1 6-6z"/>
  <path fill="#CCC" fill-rule="evenodd" d="M30 22V10a4 4 0 0 0-4-4H6a4 4 0 0 0-4 4v12a4 4 0 0 0 4 4h20a4 4 0 0 0 4-4m2-12a6 6 0 0 0-6-6H6a6 6 0 0 0-6 6v12a6 6 0 0 0 6 6h20a6 6 0 0 0 6-6z" clip-rule="evenodd"/>
  <path fill="#1A1919" fill-rule="evenodd" d="M5.93 17.889c0-.405-.212-.378-.414-.382v-.117c.175.008.355.008.53.008.189 0 .445-.008.778-.008 1.163 0 1.797.778 1.797 1.574 0 .446-.26 1.566-1.851 1.566-.23 0-.44-.009-.652-.009q-.301 0-.602.01v-.118c.27-.027.4-.036.413-.342zm.44 2.11c0 .347.247.387.467.387.97 0 1.29-.733 1.29-1.403 0-.842-.54-1.449-1.407-1.449-.184 0-.27.013-.35.018zm2.408.414h.085c.126 0 .216 0 .216-.149v-1.219c0-.197-.068-.225-.234-.314v-.072c.211-.064.463-.149.48-.162a.16.16 0 0 1 .082-.023c.022 0 .031.027.031.063v1.727c0 .15.1.15.225.15h.076v.116c-.153 0-.31-.009-.471-.009q-.242.001-.49.01zm.48-2.632a.23.23 0 0 1-.22-.224.23.23 0 0 1 .22-.217.22.22 0 0 1 .22.216.224.224 0 0 1-.22.225m.909 1.291c0-.166-.05-.21-.26-.296v-.086c.192-.063.376-.122.592-.216.014 0 .027.009.027.045v.292c.256-.184.476-.337.778-.337.381 0 .516.279.516.63v1.16c0 .15.1.15.225.15h.081v.116c-.158 0-.315-.009-.476-.009q-.243 0-.486.01v-.118h.081c.126 0 .216 0 .216-.149V19.1c0-.257-.157-.383-.413-.383-.144 0-.373.117-.522.216v1.331c0 .15.1.15.225.15h.08v.116c-.156 0-.314-.009-.476-.009q-.242 0-.485.01v-.118h.081c.126 0 .216 0 .216-.149zm2.301.217c-.01.04-.01.107 0 .26.026.428.3.779.66.779.247 0 .44-.136.607-.302l.062.063c-.207.275-.463.509-.83.509-.715 0-.86-.693-.86-.981 0-.882.594-1.143.908-1.143.364 0 .756.23.76.706q.001.041-.004.081l-.04.028zm.795-.145c.112 0 .125-.058.125-.112 0-.23-.14-.414-.391-.414-.274 0-.463.202-.517.526zm.615 1.269H14c.125 0 .215 0 .215-.149V19c0-.139-.166-.166-.233-.202v-.067c.328-.14.507-.257.549-.257.026 0 .04.013.04.059v.405h.009c.112-.176.3-.464.575-.464.112 0 .256.076.256.238 0 .122-.085.23-.211.23-.14 0-.14-.108-.297-.108a.38.38 0 0 0-.328.374v1.056c0 .15.09.15.215.15h.252v.116c-.247-.005-.435-.009-.629-.009-.184 0-.373.004-.535.01zm1.73-.508c.059.296.238.549.567.549.264 0 .363-.162.363-.32 0-.53-.979-.36-.979-1.084 0-.252.202-.576.697-.576.143 0 .336.04.511.13l.032.46h-.103c-.045-.284-.202-.446-.49-.446-.18 0-.35.103-.35.297 0 .527 1.042.364 1.042 1.07 0 .297-.238.613-.773.613a1.2 1.2 0 0 1-.548-.153l-.05-.518zm5.347-1.701h-.112c-.086-.526-.459-.738-.962-.738-.517 0-1.267.346-1.267 1.426 0 .91.647 1.562 1.34 1.562.444 0 .813-.306.902-.779l.104.027-.104.657c-.188.117-.696.239-.993.239-1.051 0-1.716-.68-1.716-1.692 0-.922.822-1.584 1.703-1.584.364 0 .714.117 1.06.239zm.162 2.209h.085c.126 0 .216 0 .216-.149V17.76c0-.293-.067-.302-.238-.351v-.072c.18-.059.369-.14.463-.194.049-.026.085-.05.098-.05.028 0 .037.028.037.064v3.108c0 .15.099.15.224.15h.076v.116c-.152 0-.31-.009-.471-.009q-.241 0-.49.01zm2.885-.131c0 .082.05.086.126.086.054 0 .121-.004.18-.004v.094a4.5 4.5 0 0 0-.648.14l-.022-.014v-.364c-.27.22-.476.378-.796.378-.242 0-.494-.158-.494-.536V18.91c0-.117-.018-.23-.269-.251v-.086c.162-.005.52-.031.58-.031.05 0 .05.03.05.13v1.16c0 .136 0 .522.39.522.153 0 .355-.116.543-.274v-1.21c0-.09-.215-.14-.377-.184v-.081c.404-.028.656-.063.701-.063.036 0 .036.03.036.08zm.895-1.484c.18-.153.422-.324.67-.324.52 0 .835.455.835.945 0 .59-.432 1.179-1.074 1.179-.333 0-.508-.108-.625-.158l-.134.104-.095-.05a5 5 0 0 0 .063-.8v-1.935c0-.293-.067-.302-.238-.351v-.072c.18-.059.368-.14.463-.194.05-.026.085-.05.099-.05.026 0 .035.028.035.064zm0 1.224c0 .17.161.459.462.459.48 0 .683-.473.683-.873 0-.486-.368-.89-.718-.89-.167 0-.306.107-.428.21zM7.936 22.737l.005-.005v-.918c0-.2-.14-.23-.213-.23h-.054v-.073c.115 0 .227.01.342.01.1 0 .201-.01.301-.01v.073h-.036c-.103 0-.218.02-.218.311v1.114q-.002.131.014.247h-.093l-1.259-1.405v1.009c0 .213.042.286.23.286h.042v.073c-.106 0-.21-.01-.316-.01-.11 0-.222.01-.332.01v-.073h.034c.169 0 .22-.115.22-.31v-1.032a.22.22 0 0 0-.222-.22h-.032v-.073c.092 0 .188.01.28.01.074 0 .145-.01.218-.01z" clip-rule="evenodd"/>
  <path fill="#1A1919" fill-rule="evenodd" d="m8.078 23.267-.1-.004-1.241-1.385v.982c.003.213.035.273.219.275h.052v.095h-.01c-.106 0-.211-.01-.316-.01-.11 0-.222.01-.332.01h-.011v-.095h.045c.162 0 .208-.105.21-.3v-1.03a.21.21 0 0 0-.212-.21h-.043V21.5h.01c.094 0 .19.01.281.01.073 0 .144-.01.227-.006l1.074 1.21v-.9c-.001-.194-.13-.218-.202-.22h-.065V21.5h.011c.116 0 .228.01.342.01.1 0 .2-.01.301-.01h.01v.095h-.046c-.101.002-.205.011-.208.3v1.114c0 .086.003.171.015.245l.002.013zm-.093-.022h.081a2 2 0 0 1-.012-.236v-1.114c0-.294.123-.322.228-.322h.026v-.052c-.097.001-.193.01-.29.01-.113 0-.221-.009-.332-.01v.052h.043c.075 0 .223.034.223.241l-.003.926-.005.005-.008.007-1.087-1.23c-.073 0-.144.009-.218.009-.09 0-.182-.009-.27-.01v.052h.02a.23.23 0 0 1 .234.232v1.03c0 .196-.055.321-.23.322H6.36v.052c.105 0 .215-.01.321-.01.102 0 .204.01.305.01v-.052h-.03c-.193 0-.241-.084-.241-.297v-1.037zm-.048-.508.008-.007zm-.006-.005-.002-.002zm.753-1.099c-.184 0-.191.044-.228.223h-.073q.017-.103.03-.208.014-.103.014-.208h.058c.02.073.081.07.148.07h1.26c.067 0 .128-.002.133-.075l.059.01q-.016.099-.027.198-.006.099-.005.198l-.073.027c-.005-.09-.018-.235-.181-.235h-.401v1.302c0 .19.085.21.203.21h.046v.074c-.095 0-.266-.009-.398-.009-.147 0-.318.01-.414.01v-.074h.047c.135 0 .203-.012.203-.206v-1.307z" clip-rule="evenodd"/>
  <path fill="#1A1919" fill-rule="evenodd" d="M9.648 23.23c-.096 0-.268-.01-.399-.01-.146 0-.318.01-.413.01h-.01v-.095h.056c.135-.003.19-.005.192-.194v-1.297h-.39v-.022h.411v1.319c0 .196-.079.216-.213.216h-.036v.052c.097 0 .261-.01.403-.01.127 0 .29.01.388.01v-.052H9.6c-.118 0-.213-.03-.213-.221v-1.314h.411c.164 0 .186.14.191.231l.053-.02q-.001-.095.005-.191l.025-.189-.037-.006c-.012.072-.08.075-.142.074H8.62c-.057 0-.12-.002-.142-.07h-.04q0 .1-.015.198-.012.1-.027.197h.052c.032-.171.053-.226.236-.224v.021c-.181.004-.177.034-.217.215l-.002.009h-.094l.001-.013c.01-.068.023-.137.03-.208q.015-.101.015-.206v-.011h.077l.002.008c.017.061.062.062.124.063h1.274c.068-.001.118-.002.122-.066v-.012l.012.003.07.01-.003.011-.026.197q-.006.099-.005.198v.008l-.007.002-.087.032v-.014c-.007-.092-.016-.226-.17-.226h-.391v1.293c.002.184.075.197.192.2h.057v.094zm.515-.084h.034c.088 0 .181-.012.181-.14v-1.282c0-.128-.093-.14-.181-.14h-.034v-.073c.148 0 .403.01.608.01.206 0 .46-.01.626-.01-.004.105-.002.267.005.374l-.073.02c-.012-.16-.041-.286-.298-.286h-.34v.64h.29c.147 0 .18-.082.194-.215h.073a6 6 0 0 0 0 .566l-.073.015c-.015-.147-.022-.243-.19-.243h-.294v.57c0 .16.141.16.298.16.294 0 .423-.02.496-.299l.069.017q-.049.195-.083.39c-.157 0-.438-.01-.658-.01s-.51.01-.65.01z" clip-rule="evenodd"/>
  <path fill="#1A1919" fill-rule="evenodd" d="M11.47 23.23c-.156 0-.437-.01-.657-.01s-.51.01-.65.01h-.01v-.095h.044c.089-.001.169-.009.17-.129v-1.282c-.001-.12-.082-.128-.17-.13h-.045V21.5h.01c.15 0 .404.01.61.01s.459-.01.625-.01h.011v.011a3 3 0 0 0 .004.374v.008l-.007.003-.086.022v-.012c-.015-.16-.036-.275-.288-.277h-.33v.62h.28c.142-.002.167-.074.184-.206v-.01h.094v.012a6 6 0 0 0 0 .564v.01l-.009.001-.085.017v-.011c-.017-.15-.018-.232-.18-.233H10.7v.56c0 .148.129.147.288.148.294-.002.412-.016.486-.29l.003-.01.01.001.078.02-.002.01q-.048.195-.083.39l-.002.008zm-.008-.021a6 6 0 0 1 .079-.37l-.048-.013c-.073.274-.215.298-.504.296-.154 0-.308 0-.309-.17v-.58h.304c.171-.002.188.101.2.24l.053-.01a5 5 0 0 1 0-.547h-.053c-.013.128-.053.217-.202.215h-.302v-.662h.35c.255-.002.297.13.308.283l.053-.014a4 4 0 0 1-.005-.356c-.166.001-.414.01-.615.01-.2 0-.448-.009-.598-.01v.052h.024c.087 0 .191.016.192.151v1.282c0 .136-.105.15-.192.151h-.024v.052c.143 0 .425-.01.64-.01s.491.01.649.01m.423-1.439c0-.178-.098-.186-.174-.186h-.044v-.073c.078 0 .23.01.38.01.146 0 .263-.01.393-.01.307 0 .582.083.582.43 0 .22-.147.355-.34.432l.418.626c.069.104.117.133.237.147v.073c-.08 0-.159-.009-.24-.009-.075 0-.154.01-.23.01a7 7 0 0 1-.508-.794h-.161v.524c0 .189.088.196.2.196h.044v.073c-.14 0-.28-.009-.42-.009-.118 0-.233.01-.355.01v-.074h.044c.09 0 .174-.041.174-.132zm.313.568h.12c.244 0 .376-.093.376-.382 0-.218-.14-.357-.357-.357-.074 0-.105.007-.14.01z" clip-rule="evenodd"/>
  <path fill="#1A1919" fill-rule="evenodd" d="M13.337 23.23c-.082 0-.16-.01-.24-.01-.075 0-.153.01-.239.006a7 7 0 0 1-.506-.789h-.144v.513c.002.184.076.183.19.185h.054v.095h-.01c-.14 0-.283-.01-.421-.01-.117 0-.232.01-.355.01h-.01v-.095h.055c.088 0 .162-.039.162-.12V21.77c-.002-.174-.087-.173-.162-.175h-.055V21.5h.01c.08 0 .23.01.38.01.146 0 .263-.01.393-.01.308 0 .592.086.593.441 0 .221-.146.36-.335.436l.411.616c.068.102.111.127.23.142l.009.002v.093zm-1.14-.814h.168l.002.005c.16.281.32.546.5.788.075 0 .153-.01.23-.01s.153.009.229.01v-.054c-.115-.014-.168-.049-.235-.15l-.426-.637.012-.005c.192-.076.334-.206.334-.422 0-.34-.264-.418-.572-.42-.128 0-.246.01-.393.01-.144 0-.289-.009-.369-.01v.052h.034c.076 0 .184.013.184.197v1.244c0 .098-.092.143-.184.143h-.034v.052c.118 0 .23-.01.344-.01.137 0 .275.01.41.01v-.052h-.034c-.11 0-.21-.014-.21-.207v-.534zm0-.068h-.01v-.75h.009c.033-.003.066-.01.14-.01.223 0 .368.145.368.369 0 .292-.14.391-.387.391zm.12-.02c.242-.003.364-.087.367-.371-.002-.214-.134-.347-.347-.348-.066 0-.097.006-.129.01v.709zm2.68.409.004-.005v-.918c0-.2-.139-.23-.212-.23h-.054v-.073c.115 0 .228.01.343.01.1 0 .2-.01.3-.01v.073h-.036c-.103 0-.218.02-.218.311v1.114q-.002.131.015.247h-.093l-1.259-1.405v1.009c0 .213.041.286.23.286h.041v.073c-.105 0-.21-.01-.315-.01-.11 0-.223.01-.333.01v-.073h.034c.169 0 .22-.115.22-.31v-1.032a.22.22 0 0 0-.222-.22h-.032v-.073c.093 0 .189.01.281.01.073 0 .144-.01.218-.01z" clip-rule="evenodd"/>
  <path fill="#1A1919" fill-rule="evenodd" d="m15.138 23.267-.1-.004-1.242-1.384v.98c.003.214.036.274.22.276h.052v.095h-.011c-.106 0-.21-.01-.315-.01-.11 0-.223.01-.333.01h-.01v-.095h.044c.162 0 .208-.105.21-.3v-1.03a.21.21 0 0 0-.212-.21h-.043V21.5h.011c.094 0 .19.01.282.01.071 0 .142-.01.224-.007l1.075 1.212v-.9c0-.195-.13-.219-.202-.22h-.064V21.5h.01c.116 0 .229.01.343.01.1 0 .2-.01.3-.01h.011v.095h-.047c-.1.002-.205.011-.207.3v1.114q-.002.13.014.245l.002.013zm-.093-.022h.08a2 2 0 0 1-.012-.236v-1.114c0-.294.123-.321.228-.322h.026v-.052c-.097.001-.193.01-.29.01-.113 0-.221-.009-.332-.01v.052h.043c.076.001.224.034.224.241l-.004.926-.004.005-.008.008-1.088-1.232c-.073 0-.143.01-.217.01-.091 0-.182-.009-.271-.01v.052h.021a.23.23 0 0 1 .233.231v1.03c0 .197-.055.322-.23.323h-.024v.052c.105 0 .214-.01.322-.01.102 0 .204.01.305.01v-.052h-.031c-.193 0-.24-.084-.241-.297v-1.036zm-.05-.508.009-.007zm-.004-.005-.002-.002zm.781.138c-.025.082-.054.147-.054.19 0 .074.103.086.183.086h.027v.073a5 5 0 0 0-.56 0v-.073h.015c.095 0 .176-.056.213-.16l.39-1.123c.033-.09.077-.213.092-.303.077-.027.175-.076.222-.106q.01-.004.02-.005.01-.002.017.008l.022.061.45 1.28c.029.086.058.177.09.25.03.07.08.098.162.098h.014v.073a7 7 0 0 0-.704 0v-.073h.027c.055 0 .151-.01.151-.07a.8.8 0 0 0-.049-.177l-.095-.284h-.555zm.356-1.085h-.005l-.227.693h.457z" clip-rule="evenodd"/>
  <path fill="#1A1919" fill-rule="evenodd" d="M17.074 23.23q-.163-.009-.337-.01-.18.001-.366.01h-.012v-.095h.038c.057 0 .14-.013.14-.06a.8.8 0 0 0-.047-.173l-.094-.277h-.539l-.076.248c-.025.083-.054.147-.054.187.001.06.092.075.173.075h.038v.095h-.011q-.148-.009-.295-.01-.132.001-.264.01h-.011v-.095h.025c.091 0 .167-.052.202-.152l.392-1.123c.032-.091.076-.213.097-.31.077-.027.175-.076.222-.106q.01-.004.024-.005a.03.03 0 0 1 .027.014l.022.062.45 1.28c.029.086.058.176.09.249.028.065.073.09.152.09h.024v.096zm-.693-.022q.181-.008.356-.009c.114 0 .22.005.326.01v-.052h-.003c-.084 0-.142-.032-.172-.105-.032-.074-.061-.165-.09-.25l-.45-1.28-.021-.06-.004-.002h-.005l-.014.003a1 1 0 0 1-.217.098c-.015.093-.06.215-.091.306l-.391 1.123a.23.23 0 0 1-.223.167h-.004v.051q.126-.008.254-.009.142.001.284.01v-.052H15.9c-.08-.001-.19-.01-.194-.097 0-.048.03-.11.055-.194l.01.004-.01-.004.08-.261h.57l.098.29c.028.08.05.144.05.18-.004.075-.107.08-.162.082h-.016zm-.5-.72.234-.714h.013v.011h-.003.003v-.01h.007l.233.713zm.029-.021h.428l-.213-.656zm.207-.679.006-.002zm1.065-.155c-.183 0-.19.044-.228.223h-.073q.017-.103.03-.208a2 2 0 0 0 .014-.208h.059c.02.073.08.07.146.07h1.262c.066 0 .127-.002.132-.075l.058.01-.026.198q-.008.099-.006.198l-.073.027c-.004-.09-.016-.235-.18-.235h-.401v1.302c0 .19.085.21.203.21h.046v.074c-.095 0-.266-.009-.398-.009-.147 0-.318.01-.414.01v-.074h.047c.135 0 .203-.012.203-.206v-1.307z" clip-rule="evenodd"/>
  <path fill="#1A1919" fill-rule="evenodd" d="M18.145 23.23c-.096 0-.267-.01-.398-.01-.146 0-.318.01-.413.01h-.011v-.095h.057c.135-.003.189-.005.192-.194v-1.297h-.39v-.022h.411v1.319c0 .196-.079.216-.213.216h-.036v.052c.096 0 .26-.01.402-.01.128 0 .292.01.389.01v-.052h-.036c-.118 0-.213-.029-.214-.221v-1.314h.412c.164 0 .185.14.19.231l.053-.02q-.002-.095.006-.191.01-.095.024-.188l-.037-.007c-.01.072-.08.075-.14.074h-1.275c-.058.001-.12-.002-.142-.07h-.04q0 .1-.015.198-.012.1-.028.197h.053c.032-.171.053-.227.236-.224v.021c-.181.004-.177.034-.217.215l-.002.009h-.094l.001-.012q.017-.104.03-.209.014-.102.014-.206v-.011h.078l.002.008c.017.061.061.062.124.063h1.274c.068-.001.117-.002.122-.066v-.012l.011.003.07.01-.002.011q-.016.1-.027.197-.006.099-.005.198v.008l-.007.002-.086.032v-.014c-.007-.092-.017-.226-.171-.226h-.39v1.293c.002.184.075.197.192.2h.057v.094zm.528-.084h.034c.088 0 .18-.012.18-.14v-1.282c0-.128-.092-.14-.18-.14h-.034v-.073c.095 0 .242.01.361.01.123 0 .27-.01.385-.01v.073h-.035c-.088 0-.18.012-.18.14v1.282c0 .128.092.14.18.14h.035v.073c-.118 0-.265-.009-.387-.009-.12 0-.264.01-.36.01z" clip-rule="evenodd"/>
  <path fill="#1A1919" fill-rule="evenodd" d="M19.419 23.23c-.119 0-.265-.01-.387-.01-.12 0-.264.01-.36.01h-.01v-.095h.045c.088-.001.17-.009.17-.129v-1.282c0-.12-.082-.128-.17-.13h-.045V21.5h.01c.096 0 .243.01.362.01.122 0 .269-.01.385-.01h.01v.095h-.045c-.09.001-.17.01-.17.129v1.282c0 .12.08.128.17.13h.045v.094zm-.012-.021v-.052h-.023c-.087 0-.191-.015-.191-.15v-1.283c0-.135.104-.15.191-.15h.023v-.053c-.112.001-.254.01-.373.01-.116 0-.256-.009-.35-.01v.052h.023c.087 0 .191.016.191.151v1.282c0 .136-.104.15-.191.15h-.024v.053c.095-.001.233-.01.35-.01.118 0 .26.01.374.01m.987-1.735c.521 0 .937.324.937.845 0 .563-.404.938-.924.938-.519 0-.915-.353-.915-.88a.89.89 0 0 1 .902-.903m.037 1.675c.474 0 .557-.42.557-.776 0-.358-.193-.791-.599-.791-.428 0-.555.382-.555.71 0 .438.2.857.597.857" clip-rule="evenodd"/>
  <path fill="#1A1919" fill-rule="evenodd" d="M19.48 22.377a.9.9 0 0 1 .913-.914v.022a.88.88 0 0 0-.892.892c.001.52.391.868.905.868.515 0 .913-.369.914-.926 0-.515-.41-.834-.927-.834v-.022c.525 0 .947.328.947.856 0 .569-.408.947-.934.948-.523-.001-.924-.357-.925-.89m.343-.085c0-.33.129-.721.566-.721.415 0 .608.442.61.802-.002.357-.085.785-.569.785v-.02c.465 0 .546-.408.547-.765 0-.355-.191-.78-.588-.78-.42 0-.544.372-.545.698 0 .437.199.846.586.847v.02c-.406 0-.606-.426-.607-.867m3.155.446.005-.005v-.918c0-.2-.14-.23-.214-.23h-.053v-.073c.115 0 .228.01.342.01.1 0 .2-.01.301-.01v.073h-.037c-.102 0-.217.02-.217.311v1.114c0 .086.002.171.015.247h-.093l-1.26-1.405v1.009c0 .213.042.286.23.286h.042v.073c-.106 0-.21-.01-.316-.01-.11 0-.222.01-.332.01v-.073h.034c.169 0 .22-.115.22-.31v-1.032a.22.22 0 0 0-.223-.22h-.031v-.073c.093 0 .188.01.28.01.074 0 .145-.01.218-.01z" clip-rule="evenodd"/>
  <path fill="#1A1919" fill-rule="evenodd" d="m23.12 23.267-.1-.004-1.241-1.384v.98c.003.214.035.274.218.276h.053v.095h-.01c-.106 0-.211-.01-.316-.01-.11 0-.222.01-.333.01h-.01v-.095h.045c.161 0 .208-.105.21-.3v-1.03a.21.21 0 0 0-.213-.21h-.042V21.5h.01c.094 0 .19.01.282.01.072 0 .143-.01.226-.006l1.074 1.21v-.9c0-.194-.131-.218-.203-.22h-.064V21.5h.011c.115 0 .228.01.342.01.1 0 .2-.01.301-.01h.01v.095h-.047c-.1.002-.204.012-.207.3v1.114c0 .086.003.171.014.245l.002.013zm-.093-.022h.08a2 2 0 0 1-.012-.236v-1.114c0-.294.123-.321.228-.322h.027v-.052c-.097.001-.194.01-.291.01-.112 0-.22-.009-.332-.01v.052h.043c.076.001.224.034.224.241l-.003.926-.005.005-.008.008-1.088-1.232c-.072 0-.143.01-.217.01-.09 0-.182-.009-.271-.01v.052h.021a.23.23 0 0 1 .233.231v1.032c0 .195-.054.32-.23.321h-.024v.052c.106 0 .215-.01.322-.01.102 0 .203.01.305.01v-.052h-.032c-.192 0-.24-.084-.24-.297v-1.037zm-.048-.508.007-.007zm-.007-.005-.002-.002zm.78.138c-.024.082-.053.147-.053.19 0 .074.103.086.183.086h.027v.073a5 5 0 0 0-.56 0v-.073h.014c.096 0 .177-.056.213-.16l.392-1.123c.032-.09.076-.213.09-.303a1.2 1.2 0 0 0 .223-.106q.01-.004.02-.005.01-.002.016.008l.023.061.45 1.28c.029.086.058.177.09.25.03.07.08.098.161.098h.015v.073a7 7 0 0 0-.704 0v-.073h.027c.056 0 .151-.01.151-.07a.8.8 0 0 0-.049-.177l-.095-.284h-.555zm.358-1.085h-.005l-.228.693h.458z" clip-rule="evenodd"/>
  <path fill="#1A1919" fill-rule="evenodd" d="M25.055 23.23q-.163-.008-.337-.01-.179.002-.366.01h-.01v-.095h.036c.057 0 .142-.013.142-.06a.8.8 0 0 0-.05-.173l-.092-.277h-.54l-.075.248c-.025.084-.054.148-.054.187 0 .06.092.076.173.076h.037v.095h-.01q-.148-.009-.296-.01-.13.001-.264.01h-.01v-.096h.024c.092 0 .168-.052.204-.152l.39-1.123c.032-.09.076-.212.098-.31a1.4 1.4 0 0 0 .222-.105q.01-.005.023-.006c.007 0 .02.001.027.015l.023.06.45 1.281c.029.086.058.176.09.25.028.064.073.09.15.09h.026v.096zm-.693-.021q.181-.009.357-.01.168.001.327.01v-.052h-.005q-.125.002-.17-.104c-.033-.074-.062-.165-.091-.25l-.45-1.281-.021-.059-.003-.003H24.3q-.006 0-.014.004a1 1 0 0 1-.218.097c-.015.093-.06.215-.09.306l-.392 1.124a.23.23 0 0 1-.223.166h-.004v.051q.126-.007.253-.009.144.001.286.01v-.052h-.017c-.08 0-.19-.01-.194-.097 0-.048.03-.11.055-.193l.01.003-.01-.004.08-.261h.57l.098.29c.027.08.05.145.05.18-.004.075-.107.08-.162.082h-.017zm-.499-.72.235-.715h.012v.011h-.002.002v-.01h.008l.231.713zm.03-.022h.427l-.213-.655zm.207-.679.005-.001zm1.573 1.192c0 .098.068.127.146.137q.152.012.323-.005a.35.35 0 0 0 .235-.133.6.6 0 0 0 .076-.176h.07c-.027.14-.06.277-.09.416-.215 0-.43-.009-.645-.009s-.43.01-.646.01v-.074h.034c.088 0 .184-.012.184-.164v-1.258c0-.128-.096-.14-.184-.14h-.034v-.073c.13 0 .257.01.386.01.125 0 .247-.01.372-.01v.073h-.061c-.093 0-.166.003-.166.133z" clip-rule="evenodd"/>
  <path fill="#1A1919" fill-rule="evenodd" d="M26.432 23.23c-.216 0-.431-.01-.645-.01s-.43.01-.646.01h-.01v-.095h.044c.088-.002.172-.008.173-.153v-1.258c0-.12-.084-.128-.173-.13h-.045V21.5h.01c.13 0 .258.01.387.01.124 0 .246-.01.372-.01h.01v.095h-.071c-.095.002-.154-.002-.156.122v1.262c0 .092.06.116.137.127a2 2 0 0 0 .32-.005.34.34 0 0 0 .228-.127.6.6 0 0 0 .074-.173l.002-.008h.092l-.002.013c-.028.14-.061.276-.09.416l-.003.008zm-.009-.021c.028-.133.06-.263.087-.395h-.05a.6.6 0 0 1-.076.172.36.36 0 0 1-.242.136 2 2 0 0 1-.325.005c-.08-.009-.157-.043-.157-.148v-1.262c0-.137.086-.144.178-.144h.05v-.052c-.12.001-.24.01-.361.01-.126 0-.25-.009-.375-.01v.052h.023c.087 0 .194.016.194.15v1.26c0 .157-.106.174-.194.174h-.023v.052c.21 0 .422-.01.634-.01s.425.01.637.01" clip-rule="evenodd"/>
  <path fill="#FFFFFE" fill-rule="evenodd" d="M11.222 12.868a4.143 4.143 0 0 1 4.14-4.146 4.144 4.144 0 0 1 4.142 4.146 4.144 4.144 0 0 1-4.141 4.147 4.144 4.144 0 0 1-4.141-4.147" clip-rule="evenodd"/>
  <path fill="#0069AA" fill-rule="evenodd" d="M17.867 12.787a2.49 2.49 0 0 0-1.599-2.326v4.651a2.49 2.49 0 0 0 1.599-2.325m-3.381 2.324v-4.65a2.5 2.5 0 0 0-1.598 2.326 2.5 2.5 0 0 0 1.598 2.324m.892-6.256a3.93 3.93 0 0 0-3.926 3.932 3.93 3.93 0 0 0 3.926 3.93 3.93 3.93 0 0 0 3.926-3.93 3.93 3.93 0 0 0-3.926-3.932m-.01 8.233c-2.373.012-4.327-1.913-4.327-4.256 0-2.561 1.954-4.332 4.327-4.332h1.112c2.345 0 4.485 1.77 4.485 4.332 0 2.342-2.14 4.256-4.485 4.256z" clip-rule="evenodd"/>
  <path fill="#1A1919" fill-rule="evenodd" d="M5.51 23.146h.035c.088 0 .18-.012.18-.14v-1.282c0-.128-.092-.14-.18-.14H5.51v-.073c.096 0 .242.01.362.01.123 0 .27-.01.384-.01v.073h-.034c-.088 0-.181.012-.181.14v1.282c0 .128.093.14.18.14h.035v.073c-.117 0-.264-.009-.386-.009-.12 0-.264.01-.36.01z" clip-rule="evenodd"/>
  <path fill="#1A1919" fill-rule="evenodd" d="M6.256 23.23c-.118 0-.264-.01-.386-.01-.12 0-.263.01-.36.01H5.5v-.095h.045c.089-.002.17-.009.17-.129v-1.282c0-.12-.081-.128-.17-.13H5.5V21.5h.01c.097 0 .243.01.363.01.121 0 .268-.01.383-.01h.011v.095h-.045c-.088.001-.17.01-.17.129v1.282c0 .12.082.127.17.13h.045v.094zm-.01-.021v-.052h-.024c-.087 0-.191-.015-.192-.15v-1.283c0-.135.105-.15.192-.15h.024v-.053c-.113 0-.255.01-.373.01-.116 0-.257-.009-.352-.01v.052h.024c.087 0 .191.016.191.151v1.282c0 .136-.104.15-.191.15H5.52v.053c.095 0 .233-.01.349-.01.12 0 .26.01.376.01m20.248-1.768c.147 0 .257.114.257.259s-.11.257-.257.257a.25.25 0 0 1-.258-.257c0-.145.11-.259.258-.259m0 .468a.21.21 0 0 0 .203-.21.207.207 0 0 0-.204-.21.21.21 0 0 0-.204.21c0 .112.089.21.204.21m-.128-.073v-.013c.03-.004.037-.003.037-.023v-.19c0-.028-.003-.037-.037-.035v-.014h.132c.046 0 .087.022.087.069a.08.08 0 0 1-.06.078l.042.059c.02.027.042.052.056.06v.009h-.05c-.024 0-.045-.05-.092-.119h-.029v.086c0 .017.006.016.038.02v.013zm.086-.136h.03c.034 0 .049-.025.049-.066s-.024-.056-.05-.056h-.029z" clip-rule="evenodd"/>
</svg>
