<svg width="52" height="24" viewBox="0 0 52 24" fill="none" xmlns="http://www.w3.org/2000/svg">
<path fill-rule="evenodd" clip-rule="evenodd" d="M6 3C4.34315 3 3 4.34315 3 6V8C3 9.65685 4.34315 11 6 11H8C9.65685 11 11 9.65685 11 8V6C11 4.34315 9.65685 3 8 3H6ZM4.5 6C4.5 5.17157 5.17157 4.5 6 4.5H8C8.82843 4.5 9.5 5.17157 9.5 6V8C9.5 8.82843 8.82843 9.5 8 9.5H6C5.17157 9.5 4.5 8.82843 4.5 8V6Z" fill="black" fill-opacity="1"/>
<path fill-rule="evenodd" clip-rule="evenodd" d="M16 3C14.3431 3 13 4.34315 13 6V8C13 9.65685 14.3431 11 16 11H18C19.6569 11 21 9.65685 21 8V6C21 4.34315 19.6569 3 18 3H16ZM14.5 6C14.5 5.17157 15.1716 4.5 16 4.5H18C18.8284 4.5 19.5 5.17157 19.5 6V8C19.5 8.82843 18.8284 9.5 18 9.5H16C15.1716 9.5 14.5 8.82843 14.5 8V6Z" fill="black" fill-opacity="1"/>
<path fill-rule="evenodd" clip-rule="evenodd" d="M3 16C3 14.3431 4.34315 13 6 13H8C9.65685 13 11 14.3431 11 16V18C11 19.6569 9.65685 21 8 21H6C4.34315 21 3 19.6569 3 18V16ZM6 14.5C5.17157 14.5 4.5 15.1716 4.5 16V18C4.5 18.8284 5.17157 19.5 6 19.5H8C8.82843 19.5 9.5 18.8284 9.5 18V16C9.5 15.1716 8.82843 14.5 8 14.5H6Z" fill="black" fill-opacity="1"/>
<path fill-rule="evenodd" clip-rule="evenodd" d="M16 13C14.3431 13 13 14.3431 13 16V18C13 19.6569 14.3431 21 16 21H18C19.6569 21 21 19.6569 21 18V16C21 14.3431 19.6569 13 18 13H16ZM14.5 16C14.5 15.1716 15.1716 14.5 16 14.5H18C18.8284 14.5 19.5 15.1716 19.5 16V18C19.5 18.8284 18.8284 19.5 18 19.5H16C15.1716 19.5 14.5 18.8284 14.5 18V16Z" fill="black" fill-opacity="1"/>
<path fill-rule="evenodd" clip-rule="evenodd" d="M34.0039 3.00263C32.3455 3.00046 31 4.34423 31 6.00262V8C31 9.65686 32.3431 11 34 11H46C47.6569 11 49 9.65686 49 8V6.01831C49 4.36299 47.6592 3.02048 46.0039 3.01831L34.0039 3.00263Z" fill="black" fill-opacity="1"/>
<path fill-rule="evenodd" clip-rule="evenodd" d="M34.0039 13.0026C32.3455 13.0005 31 14.3442 31 16.0026V18C31 19.6569 32.3431 21 34 21H46C47.6569 21 49 19.6569 49 18V16.0183C49 14.363 47.6592 13.0205 46.0039 13.0183L34.0039 13.0026Z" fill="black" fill-opacity="1"/>
</svg>
