<svg fill="none" viewBox="0 0 16 16" xmlns="http://www.w3.org/2000/svg">
  <g clip-path="url(#Shield-Neutral-Alert-Color-16_svg__a)">
    <path fill="url(#Shield-Neutral-Alert-Color-16_svg__b)" d="M14.943 5.69A3.5 3.5 0 0 1 10 2.5c0-.487 0-1.5-.5-1.5.087-.138.118-.535-.322-.738a2.864 2.864 0 0 0-3.246.6l-.973.993a1.12 1.12 0 0 1-1.118.292l-.428-.126C1.758 1.534.094 2.755.053 4.486l-.05 2.086a9.04 9.04 0 0 0 5.14 8.382l1.587.756a2.985 2.985 0 0 0 2.567 0l1.56-.743a9.04 9.04 0 0 0 5.14-8.426c.003-.082-1.054-.852-1.054-.852Z"/>
    <path fill="url(#Shield-Neutral-Alert-Color-16_svg__c)" d="M10.007 2.278c.045-.714-.001-1.548-.622-1.903A2.86 2.86 0 0 0 8 0v16c.439 0 .877-.097 1.284-.29l1.56-.743a9.04 9.04 0 0 0 5.14-8.426l-.012-.382c-.013-.44-.575-.684-.972-.496a3.5 3.5 0 0 1-4.993-3.385Z"/>
    <path fill="url(#Shield-Neutral-Alert-Color-16_svg__d)" d="M10.08 1.75c.085-.388.034-.82-.269-1.078a2.705 2.705 0 0 0-.473-.33 2.864 2.864 0 0 0-3.406.52l-.973.993a1.12 1.12 0 0 1-1.118.292l-.428-.126C1.758 1.534.094 2.755.053 4.486l-.05 2.086a9.04 9.04 0 0 0 5.14 8.382l1.587.756a2.985 2.985 0 0 0 2.567 0l1.56-.743a9.04 9.04 0 0 0 5.14-8.426l-.01-.345c-.014-.457-.602-.711-1.016-.52l.026.893a8.04 8.04 0 0 1-4.569 7.495l-1.561.743a1.985 1.985 0 0 1-1.708 0l-1.587-.756a8.04 8.04 0 0 1-4.57-7.455l.05-2.086A1.625 1.625 0 0 1 3.13 2.98l.429.126a2.12 2.12 0 0 0 2.114-.55l.973-.994a1.864 1.864 0 0 1 2.692.026l.668.71c.01-.187.036-.37.074-.547Z"/>
    <path fill="url(#Shield-Neutral-Alert-Color-16_svg__e)" d="M15.986 6.197c-.013-.457-.601-.712-1.016-.52l.026.893a8.034 8.034 0 0 1-4.575 7.49l-1.564.743a1.997 1.997 0 0 1-.857.193V16a3 3 0 0 0 1.286-.29l1.563-.743a9.038 9.038 0 0 0 5.147-8.426l-.01-.344Z"/>
    <path fill="url(#Shield-Neutral-Alert-Color-16_svg__f)" d="M10.08 1.757c.083-.388.033-.822-.267-1.082A2.562 2.562 0 0 0 9.587.5 2.865 2.865 0 0 0 8 0v1.004c.486.009.968.205 1.33.589l.675.716c.01-.189.035-.373.074-.552Z"/>
    <circle cx="13.5" cy="2.5" r="2.5" fill="#EE1025"/>
  </g>
  <defs>
    <linearGradient id="Shield-Neutral-Alert-Color-16_svg__b" x1="1.595" x2="7.371" y1="1.942" y2="16.254" gradientUnits="userSpaceOnUse">
      <stop stop-color="#fff"/>
      <stop offset="1" stop-color="#DDD"/>
    </linearGradient>
    <linearGradient id="Shield-Neutral-Alert-Color-16_svg__c" x1="9.187" x2="12.006" y1="0" y2="15.998" gradientUnits="userSpaceOnUse">
      <stop stop-color="#E5E5E5"/>
      <stop offset="1" stop-color="#AAA"/>
    </linearGradient>
    <linearGradient id="Shield-Neutral-Alert-Color-16_svg__d" x1="8" x2="8" y1="0" y2="16" gradientUnits="userSpaceOnUse">
      <stop stop-color="#AAA"/>
      <stop offset="1" stop-color="#888"/>
    </linearGradient>
    <linearGradient id="Shield-Neutral-Alert-Color-16_svg__e" x1="12" x2="12" y1="0" y2="16" gradientUnits="userSpaceOnUse">
      <stop stop-color="#949494"/>
      <stop offset="1" stop-color="#696969"/>
    </linearGradient>
    <linearGradient id="Shield-Neutral-Alert-Color-16_svg__f" x1="12" x2="12" y1="0" y2="16" gradientUnits="userSpaceOnUse">
      <stop stop-color="#949494"/>
      <stop offset="1" stop-color="#696969"/>
    </linearGradient>
    <clipPath id="Shield-Neutral-Alert-Color-16_svg__a">
      <path fill="#fff" d="M0 0h16v16H0z"/>
    </clipPath>
  </defs>
</svg>
