<svg fill="none" viewBox="0 0 96 96" xmlns="http://www.w3.org/2000/svg">
  <path fill="#876ECB" d="M52.379 63.687C55.299 56.259 62.535 51 70.999 51h1.693a4 4 0 0 0 3.864-2.965l2.932-10.942a6.296 6.296 0 0 0-4.453-7.711L31.175 17.63a6.296 6.296 0 0 0-7.711 4.452l-6.835 25.507a6.296 6.296 0 0 0 4.452 7.712z"/>
  <path fill="#6B4EBA" d="M23.023 23.727 79.047 38.74l-2.07 7.727-56.024-15.011 2.07-7.728Z"/>
  <path fill="#F9BE1A" d="M71 51c-11.046 0-20 8.954-20 20a5 5 0 0 1-5 5H22.296A6.296 6.296 0 0 1 16 69.704V43.296A6.296 6.296 0 0 1 22.296 37h45.408A6.296 6.296 0 0 1 74 43.296V49.7a1.3 1.3 0 0 1-1.3 1.3z"/>
  <path fill="#FFE8A3" d="M24 43a2 2 0 0 0-2 2v5a2 2 0 0 0 2 2h8a2 2 0 0 0 2-2v-5a2 2 0 0 0-2-2z"/>
  <path fill="#E2A412" d="M51.916 65q.491-1.562 1.219-3H47.5a1.5 1.5 0 0 0 0 3zM22 69.5a1.5 1.5 0 0 1 1.5-1.5h15a1.5 1.5 0 0 1 0 3h-15a1.5 1.5 0 0 1-1.5-1.5m0-6a1.5 1.5 0 0 1 1.5-1.5h6a1.5 1.5 0 0 1 0 3h-6a1.5 1.5 0 0 1-1.5-1.5M51.5 43a1.5 1.5 0 0 0 0 3h15a1.5 1.5 0 0 0 0-3zM34 63.5a1.5 1.5 0 0 1 1.5-1.5h6a1.5 1.5 0 0 1 0 3h-6a1.5 1.5 0 0 1-1.5-1.5"/>
  <path fill="#557FF3" d="M71 87c8.837 0 16-7.163 16-16s-7.163-16-16-16-16 7.163-16 16 7.163 16 16 16"/>
  <path fill="#CCC" d="M92.501 59c.298 0 .595.12.823.354.454.468.454 1.23 0 1.698l-2.333 2.4a1.145 1.145 0 0 1-1.65 0 1.227 1.227 0 0 1 0-1.698l2.333-2.4c.227-.234.524-.354.822-.354zm-1.166 10.798h3.499c.641 0 1.166.54 1.166 1.2s-.525 1.2-1.166 1.2h-3.499c-.641 0-1.166-.54-1.166-1.2s.525-1.2 1.166-1.2m-1.982 8.754c.227-.234.525-.354.822-.354h.006c.297 0 .595.12.822.354l2.332 2.4c.455.467.455 1.23 0 1.697a1.145 1.145 0 0 1-1.65 0l-2.332-2.4a1.227 1.227 0 0 1 0-1.697"/>
  <path fill="#fff" fill-rule="evenodd" d="M74 62.667a.667.667 0 0 0-.667-.667h-4.666a.667.667 0 0 0-.667.667v4.666a.667.667 0 0 1-.667.667h-4.666a.667.667 0 0 0-.667.667v4.666c0 .368.298.667.667.667h4.666c.368 0 .667.299.667.667v4.666c0 .368.299.667.667.667h4.666a.667.667 0 0 0 .667-.667v-4.666c0-.368.299-.667.667-.667h4.666a.667.667 0 0 0 .667-.667v-4.666a.667.667 0 0 0-.667-.667h-4.666a.667.667 0 0 1-.667-.667z" clip-rule="evenodd"/>
</svg>
