<svg width="24" height="24" viewBox="0 0 24 24" fill="none" xmlns="http://www.w3.org/2000/svg">
<path fill-rule="evenodd" clip-rule="evenodd" d="M10.5002 2C5.80582 2 2.00024 5.80558 2.00024 10.5C2.00024 15.1944 5.80582 19 10.5002 19C12.5774 19 14.4806 18.2549 15.957 17.0174L20.7205 21.7809C21.0134 22.0738 21.4883 22.0738 21.7812 21.7809C22.0741 21.488 22.0741 21.0132 21.7812 20.7203L17.0177 15.9568C18.2552 14.4803 19.0002 12.5772 19.0002 10.5C19.0002 5.80558 15.1947 2 10.5002 2ZM3.50024 10.5C3.50024 6.63401 6.63425 3.5 10.5002 3.5C14.3662 3.5 17.5002 6.63401 17.5002 10.5C17.5002 14.366 14.3662 17.5 10.5002 17.5C6.63425 17.5 3.50024 14.366 3.50024 10.5Z" fill="black"/>
</svg>
