<svg width="76" height="76" viewBox="0 0 76 76" fill="none" xmlns="http://www.w3.org/2000/svg">
<path d="M35.2236 23.1122C35.4768 23.0318 35.7527 23.0713 35.9736 23.2186C37.4331 24.1918 38.1842 25.5542 38.6582 26.9461C38.8933 27.6365 39.0656 28.349 39.2197 29.0321C39.3771 29.7292 39.5121 30.3812 39.6826 31.0174L39.7324 31.1659C39.8072 31.3599 39.9602 31.674 40.2197 31.9608C40.543 32.318 41.035 32.6415 41.8281 32.6415C43.2107 32.6415 43.7012 31.7409 43.8867 31.2772C43.9651 31.081 44.0398 30.6869 44.1221 30.2313C44.1573 30.0361 44.1967 29.817 44.2373 29.6551C44.2538 29.5894 44.2892 29.4541 44.3545 29.327C44.3752 29.2867 44.4733 29.0894 44.6963 28.952C44.8328 28.8679 45.0321 28.7973 45.2686 28.8251C45.497 28.8519 45.6616 28.9593 45.7598 29.0467L45.7627 29.0497C45.9382 29.2076 51.0771 33.8543 51.0771 41.8905C51.0771 46.5401 47.7556 50.3663 43.3223 52.0711C42.9481 52.215 42.5239 52.0863 42.293 51.7586C42.0621 51.4309 42.0833 50.9884 42.3447 50.6844C43.1054 49.8003 43.5299 48.6324 43.5801 47.3524L43.585 47.0946C43.585 45.8938 42.8657 44.5591 41.6328 43.0692C40.5806 41.7978 39.2787 40.5505 37.9971 39.2889C36.707 40.5462 35.4185 41.7351 34.3623 42.9862C33.1426 44.431 32.415 45.7685 32.415 47.0946L32.4199 47.3524C32.4701 48.6325 32.894 49.8005 33.6543 50.6844C33.9158 50.9884 33.937 51.4309 33.7061 51.7586C33.4751 52.0863 33.0509 52.2151 32.6768 52.0711C28.2438 50.3661 24.9229 46.5398 24.9229 41.8905C24.9229 37.7547 26.6967 35.1639 28.7529 32.6356C30.8081 30.1087 33.1186 27.6586 34.6719 23.6317C34.7675 23.3839 34.9705 23.1925 35.2236 23.1122Z" fill="black"/>
</svg>
