<svg width="76" height="76" viewBox="0 0 76 76" fill="none" xmlns="http://www.w3.org/2000/svg">
<path fill-rule="evenodd" clip-rule="evenodd" d="M35.1124 21.3755C35.5115 21.2693 35.9389 21.3661 36.2517 21.6359C38.9928 24.0008 39.4738 27.3935 39.8861 29.7528C40.1028 30.9927 40.2397 33.2194 41.8832 33.3579C43.1251 33.4623 43.797 32.7786 44.0463 31.6115C44.2437 30.6867 44.1552 29.7798 44.0821 28.8511C44.0831 28.371 44.361 27.9262 44.808 27.7199C45.319 27.4845 45.925 27.6185 46.2875 28.0487C49.6852 32.086 51.9321 37.176 52.1631 42.4757C52.23 45.642 51.2793 48.6441 49.0333 50.8953C46.6426 53.2909 42.954 54.6664 37.9721 54.6665C32.4333 54.6665 27.964 52.306 25.6071 48.55C23.2391 44.7757 23.1441 39.8123 25.9164 34.9367C27.3373 32.5389 29.0176 30.3422 30.7016 28.1252C32.2402 26.0993 33.5176 24.2638 34.2562 22.1681C34.4147 21.7853 34.7004 21.4854 35.1124 21.3755ZM37.9997 41.714C37.3411 42.7115 36.6501 43.6166 36.1166 44.4012C35.2034 45.7443 34.6664 46.831 34.6664 47.9998C34.6664 49.3208 35.0593 50.2939 35.6202 50.9197C36.1713 51.5344 36.9634 51.9044 37.9721 51.9044C39.266 51.9044 40.0354 51.5025 40.5062 50.9458C41.0066 50.3537 41.3331 49.3952 41.3331 47.9998C41.333 46.8311 40.796 45.7443 39.8829 44.4012C39.3494 43.6166 38.6584 42.7116 37.9997 41.714Z" fill="white"/>
<path d="M42.0573 21.3332C42.6035 21.3435 43.0887 21.7122 43.2374 22.2462L43.3578 22.8045C43.4339 23.0752 43.5876 23.2134 43.8331 23.3498C44.6355 23.846 44.5747 25.0713 43.7663 25.508C43.3025 25.7581 42.837 25.6488 42.3975 25.4136C41.8802 25.1129 41.5074 24.7116 41.2517 24.2384C40.986 23.7466 40.8775 23.2119 40.7846 22.6678C40.7347 21.9457 41.3404 21.3195 42.0573 21.3332Z" fill="white"/>
</svg>
