<svg width="28" height="28" viewBox="0 0 28 28" fill="none" xmlns="http://www.w3.org/2000/svg">
<rect width="28" height="28" rx="9" fill="#1F1F1F" fill-opacity="0.18"/>
<g clip-path="url(#clip0_795_23530)">
<path fill-rule="evenodd" clip-rule="evenodd" d="M8.45792 19.2717C8.73731 18.9496 8.67708 18.459 8.35791 18.1763C6.90152 16.8859 6 15.0992 6 13.125C6 9.18997 9.58172 6 14 6C18.4183 6 22 9.18997 22 13.125C22 16.1102 19.9387 18.6666 17.0147 19.7268C15.1234 20.5948 10.47 21.4766 7.81448 21.9327C7.15017 22.0468 6.72263 21.2726 7.16424 20.7634L8.45792 19.2717ZM14.3221 9.22585C14.2383 8.89054 13.7617 8.89054 13.6779 9.22585L13.3651 10.4771C13.1173 11.4683 12.3433 12.2423 11.3521 12.4901L10.1008 12.8029C9.76554 12.8867 9.76554 13.3633 10.1008 13.4471L11.3521 13.7599C12.3433 14.0077 13.1173 14.7817 13.3651 15.7729L13.6779 17.0241C13.7617 17.3595 14.2383 17.3595 14.3221 17.0241L14.6349 15.7729C14.8827 14.7817 15.6567 14.0077 16.6479 13.7599L17.8991 13.4471C18.2344 13.3633 18.2345 12.8867 17.8991 12.8029L16.6479 12.4901C15.6567 12.2423 14.8827 11.4683 14.6349 10.4771L14.3221 9.22585Z" fill="#1F1F1F"/>
</g>
<defs>
<clipPath id="clip0_795_23530">
<rect width="16" height="16" fill="white" transform="translate(6 6)"/>
</clipPath>
</defs>
</svg>
