<?xml version="1.0" encoding="UTF-8"?>
<svg height="600" width="800" xmlns="http://www.w3.org/2000/svg" xmlns:xlink="http://www.w3.org/1999/xlink">
    <g id="Notes" font-family="'LucidaGrande', 'Lucida Grande', sans-serif" font-size="13">
        <rect fill="white" height="600.0" width="800.0" x="0.0" y="0.0" />
        <g font-size="13">
            <text x="18.0" y="176.0">Small</text>
            <text x="18.0" y="376.0">Medium</text>
            <text x="18.0" y="576.0">Large</text>
        </g>
        <g font-size="9">
            <text x="250.0" y="30.0">Ultralight</text>
            <text x="450.0" y="30.0">Regular</text>
            <text x="650.0" y="30.0">Black</text>
            <text id="template-version" fill="#505050" text-anchor="end" x="785.0" y="575.0">Template v.3.0</text>
            <a href="https://wangchujiang.com/#/app">
                <text fill="#505050" text-anchor="end" x="785.0" y="590.0">https://wangchujiang.com/#/app</text>
            </a>
        </g>
    </g>
    <g id="Guides" stroke="rgb(39, 170, 225)" stroke-width="0.5">
        <path id="Capline-S" d="M18,76 l800,0" />
        <path id="H-reference" d="M85,145.755 L87.685,145.755 L113.369,79.287 L114.052,79.287 L114.052,76 L112.148,76 L85,145.755 Z M95.693,121.536 L130.996,121.536 L130.263,119.313 L96.474,119.313 L95.693,121.536 Z M139.15,145.755 L141.787,145.755 L114.638,76 L113.466,76 L113.466,79.287 L139.15,145.755 Z" stroke="none" />
        <path id="Baseline-S" d="M18,146 l800,0" />
        <path id="left-margin-Ultralight-S" d="M221,56 l0,110" />
        <path id="right-margin-Ultralight-S" d="M309,56 l0,110" />
        <path id="left-margin-Regular-S" d="M421,56 l0,110" />
        <path id="right-margin-Regular-S" d="M509,56 l0,110" />
        <path id="left-margin-Black-S" d="M621,56 l0,110" />
        <path id="right-margin-Black-S" d="M709,56 l0,110" />
        <path id="Capline-M" d="M18,276 l800,0" />
        <path id="Baseline-M" d="M18,346 l800,0" />
        <path id="Capline-L" d="M18,476 l800,0" />
        <path id="Baseline-L" d="M18,546 l800,0" />
    </g>
    <g id="Symbols">
        <g id="Ultralight-S">
            <path d="M281.042,108.083 C283.749,108.083 286.346,109.159 288.26,111.073 C290.174,112.988 291.25,115.584 291.25,118.292 L291.25,122.667 C292.024,122.667 292.765,122.974 293.312,123.521 C293.859,124.068 294.167,124.81 294.167,125.583 L294.167,137.25 C294.167,138.024 293.859,138.765 293.312,139.312 C292.765,139.859 292.024,140.167 291.25,140.167 L270.833,140.167 C270.06,140.167 269.318,139.859 268.771,139.312 C268.224,138.765 267.917,138.024 267.917,137.25 L267.917,125.583 C267.917,124.81 268.224,124.068 268.771,123.521 C269.318,122.974 270.06,122.667 270.833,122.667 L270.833,118.292 C270.833,115.584 271.909,112.988 273.823,111.073 C275.738,109.159 278.334,108.083 281.042,108.083 Z M281.042,112.458 C279.495,112.458 278.011,113.073 276.917,114.167 C275.823,115.261 275.208,116.745 275.208,118.292 L275.208,122.667 L286.875,122.667 L286.875,118.292 C286.875,116.745 286.26,115.261 285.166,114.167 C284.073,113.073 282.589,112.458 281.042,112.458 Z" />
            <path d="M265,81.833 C279.085,81.833 290.836,91.814 293.569,105.091 C294.015,107.264 291.495,108.395 289.902,106.847 C289.538,106.486 289.286,106.027 289.176,105.525 C287.297,97.248 281.319,90.505 273.327,87.646 C273.948,88.708 274.503,89.878 274.99,91.129 C276.235,94.32 277.128,98.193 277.632,102.469 C277.74,103.385 277.107,104.219 276.238,104.519 C274.946,104.968 273.435,104.166 273.269,102.807 C272.796,98.91 271.985,95.469 270.915,92.718 C270.022,90.44 268.999,88.752 267.94,87.67 C266.905,86.611 265.927,86.208 265,86.208 C264.075,86.208 263.098,86.611 262.06,87.67 C261.001,88.752 259.977,90.44 259.085,92.718 C257.335,97.213 256.276,103.562 256.25,110.723 C259.225,110.898 262.206,110.977 265.184,110.971 C266.613,110.971 267.561,112.534 267.132,113.896 C266.872,114.713 266.146,115.343 265.289,115.343 C262.314,115.349 259.339,115.276 256.364,115.11 C256.685,120.692 257.653,125.607 259.088,129.282 C259.977,131.56 261.001,133.248 262.063,134.33 L262.098,134.368 C262.877,135.153 263.542,136.145 263.542,137.25 C263.542,138.635 262.55,140.088 261.176,139.907 C246.876,138.038 235.833,125.811 235.833,111 C235.833,94.891 248.891,81.833 265,81.833 Z M240.325,113.38 C241.252,122.947 247.621,131.118 256.673,134.351 C256.03,133.237 255.474,132.074 255.01,130.874 C253.319,126.54 252.275,120.952 251.968,114.812 C248.07,114.482 244.185,114.006 240.322,113.383 Z M256.673,87.643 C247.508,90.918 241.104,99.25 240.299,108.95 C244.143,109.585 248.008,110.073 251.881,110.408 C251.939,103.011 253.03,96.204 255.01,91.129 C255.474,89.926 256.03,88.761 256.673,87.643 Z" />
        </g>
        <g id="Regular-S">
            <path d="M481.042,108.083 C483.749,108.083 486.346,109.159 488.26,111.073 C490.174,112.988 491.25,115.584 491.25,118.292 L491.25,122.667 C492.024,122.667 492.765,122.974 493.312,123.521 C493.859,124.068 494.167,124.81 494.167,125.583 L494.167,137.25 C494.167,138.024 493.859,138.765 493.312,139.312 C492.765,139.859 492.024,140.167 491.25,140.167 L470.833,140.167 C470.06,140.167 469.318,139.859 468.771,139.312 C468.224,138.765 467.917,138.024 467.917,137.25 L467.917,125.583 C467.917,124.81 468.224,124.068 468.771,123.521 C469.318,122.974 470.06,122.667 470.833,122.667 L470.833,118.292 C470.833,115.584 471.909,112.988 473.823,111.073 C475.738,109.159 478.334,108.083 481.042,108.083 Z M481.042,112.458 C479.495,112.458 478.011,113.073 476.917,114.167 C475.823,115.261 475.208,116.745 475.208,118.292 L475.208,122.667 L486.875,122.667 L486.875,118.292 C486.875,116.745 486.26,115.261 485.166,114.167 C484.073,113.073 482.589,112.458 481.042,112.458 Z" />
            <path d="M465,81.833 C479.085,81.833 490.836,91.814 493.569,105.091 C494.015,107.264 491.495,108.395 489.902,106.847 C489.538,106.486 489.286,106.027 489.176,105.525 C487.297,97.248 481.319,90.505 473.327,87.646 C473.948,88.708 474.503,89.878 474.99,91.129 C476.235,94.32 477.128,98.193 477.632,102.469 C477.74,103.385 477.107,104.219 476.238,104.519 C474.946,104.968 473.435,104.166 473.269,102.807 C472.796,98.91 471.985,95.469 470.915,92.718 C470.022,90.44 468.999,88.752 467.94,87.67 C466.905,86.611 465.927,86.208 465,86.208 C464.075,86.208 463.098,86.611 462.06,87.67 C461.001,88.752 459.977,90.44 459.085,92.718 C457.335,97.213 456.276,103.562 456.25,110.723 C459.225,110.898 462.206,110.977 465.184,110.971 C466.613,110.971 467.561,112.534 467.132,113.896 C466.872,114.713 466.146,115.343 465.289,115.343 C462.314,115.349 459.339,115.276 456.364,115.11 C456.685,120.692 457.653,125.607 459.088,129.282 C459.977,131.56 461.001,133.248 462.063,134.33 L462.098,134.368 C462.877,135.153 463.542,136.145 463.542,137.25 C463.542,138.635 462.55,140.088 461.176,139.907 C446.876,138.038 435.833,125.811 435.833,111 C435.833,94.891 448.891,81.833 465,81.833 Z M440.325,113.38 C441.252,122.947 447.621,131.118 456.673,134.351 C456.03,133.237 455.474,132.074 455.01,130.874 C453.319,126.54 452.275,120.952 451.968,114.812 C448.07,114.482 444.185,114.006 440.322,113.383 Z M456.673,87.643 C447.508,90.918 441.104,99.25 440.299,108.95 C444.143,109.585 448.008,110.073 451.881,110.408 C451.939,103.011 453.03,96.204 455.01,91.129 C455.474,89.926 456.03,88.761 456.673,87.643 Z" />
        </g>
        <g id="Black-S">
            <path d="M681.042,108.083 C683.749,108.083 686.346,109.159 688.26,111.073 C690.174,112.988 691.25,115.584 691.25,118.292 L691.25,122.667 C692.024,122.667 692.765,122.974 693.312,123.521 C693.859,124.068 694.167,124.81 694.167,125.583 L694.167,137.25 C694.167,138.024 693.859,138.765 693.312,139.312 C692.765,139.859 692.024,140.167 691.25,140.167 L670.833,140.167 C670.06,140.167 669.318,139.859 668.771,139.312 C668.224,138.765 667.917,138.024 667.917,137.25 L667.917,125.583 C667.917,124.81 668.224,124.068 668.771,123.521 C669.318,122.974 670.06,122.667 670.833,122.667 L670.833,118.292 C670.833,115.584 671.909,112.988 673.823,111.073 C675.738,109.159 678.334,108.083 681.042,108.083 Z M681.042,112.458 C679.495,112.458 678.011,113.073 676.917,114.167 C675.823,115.261 675.208,116.745 675.208,118.292 L675.208,122.667 L686.875,122.667 L686.875,118.292 C686.875,116.745 686.26,115.261 685.166,114.167 C684.073,113.073 682.589,112.458 681.042,112.458 Z" />
            <path d="M665,81.833 C679.085,81.833 690.836,91.814 693.569,105.091 C694.015,107.264 691.495,108.395 689.903,106.847 C689.538,106.486 689.286,106.027 689.176,105.525 C687.297,97.248 681.319,90.505 673.327,87.646 C673.948,88.708 674.503,89.878 674.99,91.129 C676.235,94.32 677.128,98.193 677.632,102.469 C677.74,103.385 677.107,104.219 676.238,104.519 C674.946,104.968 673.435,104.166 673.269,102.807 C672.796,98.91 671.985,95.469 670.915,92.718 C670.023,90.44 668.999,88.752 667.94,87.67 C666.905,86.611 665.927,86.208 665,86.208 C664.075,86.208 663.098,86.611 662.06,87.67 C661.001,88.752 659.977,90.44 659.085,92.718 C657.335,97.213 656.276,103.562 656.25,110.723 C659.225,110.898 662.206,110.977 665.184,110.971 C666.613,110.971 667.561,112.534 667.132,113.896 C666.872,114.713 666.146,115.343 665.289,115.343 C662.314,115.349 659.339,115.276 656.364,115.11 C656.685,120.692 657.653,125.607 659.088,129.282 C659.977,131.56 661.001,133.248 662.063,134.33 L662.098,134.368 C662.877,135.153 663.542,136.145 663.542,137.25 C663.542,138.635 662.55,140.088 661.176,139.907 C646.876,138.038 635.833,125.811 635.833,111 C635.833,94.891 648.891,81.833 665,81.833 Z M640.325,113.38 C641.252,122.947 647.621,131.118 656.673,134.351 C656.03,133.237 655.474,132.074 655.01,130.874 C653.319,126.54 652.275,120.952 651.968,114.812 C648.07,114.482 644.185,114.006 640.322,113.383 Z M656.673,87.643 C647.508,90.918 641.104,99.25 640.299,108.95 C644.143,109.585 648.008,110.073 651.881,110.408 C651.939,103.011 653.03,96.204 655.01,91.129 C655.474,89.926 656.03,88.761 656.673,87.643 Z" />
        </g>
    </g>
</svg>