<?xml version="1.0" encoding="UTF-8"?>
<svg height="600" width="800" xmlns="http://www.w3.org/2000/svg" xmlns:xlink="http://www.w3.org/1999/xlink">
    <g id="Notes" font-family="'LucidaGrande', 'Lucida Grande', sans-serif" font-size="13">
        <rect fill="white" height="600.0" width="800.0" x="0.0" y="0.0" />
        <g font-size="13">
            <text x="18.0" y="176.0">Small</text>
            <text x="18.0" y="376.0">Medium</text>
            <text x="18.0" y="576.0">Large</text>
        </g>
        <g font-size="9">
            <text x="250.0" y="30.0">Ultralight</text>
            <text x="450.0" y="30.0">Regular</text>
            <text x="650.0" y="30.0">Black</text>
            <text id="template-version" fill="#505050" text-anchor="end" x="785.0" y="575.0">Template v.3.0</text>
            <a href="https://wangchujiang.com/#/app">
                <text fill="#505050" text-anchor="end" x="785.0" y="590.0">https://wangchujiang.com/#/app</text>
            </a>
        </g>
    </g>
    <g id="Guides" stroke="rgb(39, 170, 225)" stroke-width="0.5">
        <path id="Capline-S" d="M18,76 l800,0" />
        <path id="H-reference" d="M85,145.755 L87.685,145.755 L113.369,79.287 L114.052,79.287 L114.052,76 L112.148,76 L85,145.755 Z M95.693,121.536 L130.996,121.536 L130.263,119.313 L96.474,119.313 L95.693,121.536 Z M139.15,145.755 L141.787,145.755 L114.638,76 L113.466,76 L113.466,79.287 L139.15,145.755 Z" stroke="none" />
        <path id="Baseline-S" d="M18,146 l800,0" />
        <path id="left-margin-Ultralight-S" d="M221,56 l0,110" />
        <path id="right-margin-Ultralight-S" d="M309,56 l0,110" />
        <path id="left-margin-Regular-S" d="M421,56 l0,110" />
        <path id="right-margin-Regular-S" d="M509,56 l0,110" />
        <path id="left-margin-Black-S" d="M621,56 l0,110" />
        <path id="right-margin-Black-S" d="M709,56 l0,110" />
        <path id="Capline-M" d="M18,276 l800,0" />
        <path id="Baseline-M" d="M18,346 l800,0" />
        <path id="Capline-L" d="M18,476 l800,0" />
        <path id="Baseline-L" d="M18,546 l800,0" />
    </g>
    <g id="Symbols">
        <g id="Ultralight-S">
            <path d="M281.25,110.097 C286.236,110.097 290.278,114.139 290.278,119.125 L290.278,121.833 L290.811,121.833 C292.511,121.833 293.889,123.211 293.889,124.911 L293.889,136.811 C293.889,138.511 292.511,139.889 290.811,139.889 L271.689,139.889 C269.989,139.889 268.611,138.511 268.611,136.811 L268.611,124.911 C268.611,123.211 269.989,121.833 271.689,121.833 L272.223,121.833 L272.223,119.125 C272.223,114.139 276.264,110.097 281.25,110.097 Z M265.374,82.113 C278.681,82.282 289.819,91.448 292.986,103.807 C293.241,104.8 293.441,105.792 293.588,106.786 C293.862,108.64 290.916,109.46 289.423,108.328 C289.276,108.216 289.126,108.108 288.975,108.002 C289.045,107.985 289.116,107.968 289.186,107.95 C288.077,99.064 282.185,91.665 274.168,88.408 C274.719,89.299 275.221,90.248 275.671,91.229 C277.48,95.184 278.726,100.199 279.214,105.736 C277.638,105.974 276.152,106.483 274.803,107.214 C274.426,101.66 273.237,96.76 271.566,93.108 C269.433,88.447 266.945,86.625 265,86.625 C263.056,86.625 260.568,88.447 258.435,93.108 C256.447,97.452 255.14,103.561 255.073,110.439 C260.23,110.956 265.417,111.069 270.587,110.778 C269.524,112.134 268.714,113.698 268.228,115.398 C263.887,115.533 259.54,115.397 255.211,114.988 C255.603,120.459 256.784,125.284 258.435,128.892 C260.25,132.858 262.322,134.767 264.098,135.249 C264.098,135.658 264.097,136.064 264.106,136.467 C264.146,138.107 262.879,139.858 261.252,139.647 C247.068,137.809 236.111,125.685 236.111,111 C236.111,110.646 236.118,110.293 236.13,109.942 C236.095,109.679 236.107,109.406 236.171,109.134 C237.132,94.049 249.672,82.111 265,82.111 L265.374,82.113 Z M240.674,112.564 C241.278,122.105 247.373,130.155 255.832,133.592 C255.281,132.701 254.779,131.752 254.33,130.771 C252.325,126.389 251.011,120.707 250.654,114.455 C247.306,113.988 243.976,113.358 240.674,112.564 Z M281.25,114.611 C278.757,114.611 276.736,116.632 276.736,119.125 L276.736,121.833 L285.764,121.833 L285.764,119.125 C285.764,116.632 283.743,114.611 281.25,114.611 Z M255.832,88.408 C247.815,91.665 241.923,99.065 240.814,107.951 C244.039,108.759 247.294,109.403 250.567,109.883 C250.697,102.714 252.078,96.151 254.33,91.229 C254.779,90.248 255.281,89.299 255.832,88.408 Z" />
        </g>
        <g id="Regular-S">
            <path d="M481.25,110.097 C486.236,110.097 490.278,114.139 490.278,119.125 L490.278,121.833 L490.811,121.833 C492.511,121.833 493.889,123.211 493.889,124.911 L493.889,136.811 C493.889,138.511 492.511,139.889 490.811,139.889 L471.689,139.889 C469.989,139.889 468.611,138.511 468.611,136.811 L468.611,124.911 C468.611,123.211 469.989,121.833 471.689,121.833 L472.223,121.833 L472.223,119.125 C472.223,114.139 476.264,110.097 481.25,110.097 Z M465.374,82.113 C478.681,82.282 489.819,91.448 492.986,103.807 C493.241,104.8 493.441,105.792 493.588,106.786 C493.862,108.64 490.916,109.46 489.423,108.328 C489.276,108.216 489.126,108.108 488.975,108.002 C489.045,107.985 489.116,107.968 489.186,107.95 C488.077,99.064 482.185,91.665 474.168,88.408 C474.719,89.299 475.221,90.248 475.671,91.229 C477.48,95.184 478.726,100.199 479.214,105.736 C477.638,105.974 476.152,106.483 474.803,107.214 C474.426,101.66 473.237,96.76 471.566,93.108 C469.433,88.447 466.945,86.625 465,86.625 C463.056,86.625 460.568,88.447 458.435,93.108 C456.447,97.452 455.14,103.561 455.073,110.439 C460.23,110.956 465.417,111.069 470.587,110.778 C469.524,112.134 468.714,113.698 468.228,115.398 C463.887,115.533 459.54,115.397 455.211,114.988 C455.603,120.459 456.784,125.284 458.435,128.892 C460.25,132.858 462.322,134.767 464.098,135.249 C464.098,135.658 464.097,136.064 464.106,136.467 C464.146,138.107 462.879,139.858 461.252,139.647 C447.068,137.809 436.111,125.685 436.111,111 C436.111,110.646 436.118,110.293 436.13,109.942 C436.095,109.679 436.107,109.406 436.171,109.134 C437.132,94.049 449.672,82.111 465,82.111 L465.374,82.113 Z M440.674,112.564 C441.278,122.105 447.373,130.155 455.832,133.592 C455.281,132.701 454.779,131.752 454.33,130.771 C452.325,126.389 451.011,120.707 450.654,114.455 C447.306,113.988 443.976,113.358 440.674,112.564 Z M481.25,114.611 C478.757,114.611 476.736,116.632 476.736,119.125 L476.736,121.833 L485.764,121.833 L485.764,119.125 C485.764,116.632 483.743,114.611 481.25,114.611 Z M455.832,88.408 C447.815,91.665 441.923,99.065 440.814,107.951 C444.039,108.759 447.294,109.403 450.567,109.883 C450.697,102.714 452.078,96.151 454.33,91.229 C454.779,90.248 455.281,89.299 455.832,88.408 Z" />
        </g>
        <g id="Black-S">
            <path d="M681.25,110.097 C686.236,110.097 690.278,114.139 690.278,119.125 L690.278,121.833 L690.811,121.833 C692.511,121.833 693.889,123.211 693.889,124.911 L693.889,136.811 C693.889,138.511 692.511,139.889 690.811,139.889 L671.689,139.889 C669.989,139.889 668.611,138.511 668.611,136.811 L668.611,124.911 C668.611,123.211 669.989,121.833 671.689,121.833 L672.223,121.833 L672.223,119.125 C672.223,114.139 676.264,110.097 681.25,110.097 Z M665.374,82.113 C678.681,82.282 689.819,91.448 692.986,103.807 C693.241,104.8 693.441,105.792 693.588,106.786 C693.862,108.64 690.916,109.46 689.423,108.328 C689.276,108.216 689.126,108.108 688.975,108.002 C689.045,107.985 689.116,107.968 689.186,107.95 C688.077,99.064 682.185,91.665 674.168,88.408 C674.719,89.299 675.221,90.248 675.671,91.229 C677.48,95.184 678.726,100.199 679.214,105.736 C677.638,105.974 676.152,106.483 674.803,107.214 C674.426,101.66 673.237,96.76 671.566,93.108 C669.433,88.447 666.945,86.625 665,86.625 C663.056,86.625 660.568,88.447 658.435,93.108 C656.447,97.452 655.14,103.561 655.073,110.439 C660.23,110.956 665.417,111.069 670.587,110.778 C669.524,112.134 668.714,113.698 668.228,115.398 C663.887,115.533 659.54,115.397 655.211,114.988 C655.603,120.459 656.784,125.284 658.435,128.892 C660.25,132.858 662.322,134.767 664.098,135.249 C664.098,135.658 664.097,136.064 664.106,136.467 C664.146,138.107 662.879,139.858 661.252,139.647 C647.068,137.809 636.111,125.685 636.111,111 C636.111,110.646 636.118,110.293 636.13,109.942 C636.095,109.679 636.107,109.406 636.171,109.134 C637.132,94.049 649.672,82.111 665,82.111 L665.374,82.113 Z M640.674,112.564 C641.278,122.105 647.373,130.155 655.832,133.592 C655.281,132.701 654.779,131.752 654.33,130.771 C652.325,126.389 651.011,120.707 650.654,114.455 C647.306,113.988 643.976,113.358 640.674,112.564 Z M681.25,114.611 C678.757,114.611 676.736,116.632 676.736,119.125 L676.736,121.833 L685.764,121.833 L685.764,119.125 C685.764,116.632 683.743,114.611 681.25,114.611 Z M655.832,88.408 C647.815,91.665 641.923,99.065 640.814,107.951 C644.039,108.759 647.294,109.403 650.567,109.883 C650.697,102.714 652.078,96.151 654.33,91.229 C654.779,90.248 655.281,89.299 655.832,88.408 Z" />
        </g>
    </g>
</svg>