<?xml version="1.0" encoding="UTF-8"?>
<svg height="600" width="800" xmlns="http://www.w3.org/2000/svg" xmlns:xlink="http://www.w3.org/1999/xlink">
    <g id="Notes" font-family="'LucidaGrande', 'Lucida Grande', sans-serif" font-size="13">
        <rect fill="white" height="600.0" width="800.0" x="0.0" y="0.0" />
        <g font-size="13">
            <text x="18.0" y="176.0">Small</text>
            <text x="18.0" y="376.0">Medium</text>
            <text x="18.0" y="576.0">Large</text>
        </g>
        <g font-size="9">
            <text x="250.0" y="30.0">Ultralight</text>
            <text x="450.0" y="30.0">Regular</text>
            <text x="650.0" y="30.0">Black</text>
            <text id="template-version" fill="#505050" text-anchor="end" x="785.0" y="575.0">Template v.3.0</text>
            <a href="https://wangchujiang.com/#/app">
                <text fill="#505050" text-anchor="end" x="785.0" y="590.0">https://wangchujiang.com/#/app</text>
            </a>
        </g>
    </g>
    <g id="Guides" stroke="rgb(39, 170, 225)" stroke-width="0.5">
        <path id="Capline-S" d="M18,76 l800,0" />
        <path id="H-reference" d="M85,145.755 L87.685,145.755 L113.369,79.287 L114.052,79.287 L114.052,76 L112.148,76 L85,145.755 Z M95.693,121.536 L130.996,121.536 L130.263,119.313 L96.474,119.313 L95.693,121.536 Z M139.15,145.755 L141.787,145.755 L114.638,76 L113.466,76 L113.466,79.287 L139.15,145.755 Z" stroke="none" />
        <path id="Baseline-S" d="M18,146 l800,0" />
        <path id="left-margin-Ultralight-S" d="M221,56 l0,110" />
        <path id="right-margin-Ultralight-S" d="M309,56 l0,110" />
        <path id="left-margin-Regular-S" d="M421,56 l0,110" />
        <path id="right-margin-Regular-S" d="M509,56 l0,110" />
        <path id="left-margin-Black-S" d="M621,56 l0,110" />
        <path id="right-margin-Black-S" d="M709,56 l0,110" />
        <path id="Capline-M" d="M18,276 l800,0" />
        <path id="Baseline-M" d="M18,346 l800,0" />
        <path id="Capline-L" d="M18,476 l800,0" />
        <path id="Baseline-L" d="M18,546 l800,0" />
    </g>
    <g id="Symbols">
        <g id="Ultralight-S">
            <path d="M257.929,86.987 C260.566,80.73 269.434,80.73 272.071,86.987 L275.802,95.839 C276.11,96.57 276.78,97.086 277.565,97.197 L287.266,98.572 C293.671,99.48 296.148,107.418 291.396,111.807 L284.009,118.629 C283.46,119.137 283.197,119.884 283.309,120.623 L284.874,131.026 C285.858,137.566 278.661,142.204 273.112,138.607 L266.228,134.144 C265.481,133.66 264.519,133.66 263.772,134.144 L256.888,138.607 C251.339,142.204 244.142,137.566 245.126,131.026 L246.692,120.623 C246.803,119.884 246.541,119.137 245.991,118.629 L238.604,111.807 C233.852,107.418 236.329,99.48 242.734,98.572 L252.435,97.197 C253.22,97.086 253.89,96.57 254.198,95.839 L257.929,86.987 Z M267.912,88.74 C266.826,86.164 263.174,86.164 262.088,88.74 L258.357,97.593 C257.433,99.786 255.425,101.333 253.068,101.667 L243.367,103.041 C240.73,103.415 239.71,106.684 241.666,108.491 L249.054,115.313 C250.702,116.836 251.489,119.076 251.155,121.295 L249.59,131.697 C249.185,134.391 252.148,136.301 254.433,134.819 L261.317,130.357 C263.558,128.904 266.443,128.904 268.683,130.357 L275.567,134.819 C277.852,136.301 280.816,134.391 280.41,131.697 L278.845,121.295 C278.511,119.076 279.298,116.836 280.947,115.313 L288.334,108.491 C290.29,106.684 289.27,103.415 286.633,103.041 L276.932,101.667 C274.575,101.333 272.567,99.786 271.643,97.593 L267.912,88.74 Z" />
        </g>
        <g id="Regular-S">
            <path d="M457.929,86.987 C460.566,80.73 469.434,80.73 472.071,86.987 L475.802,95.839 C476.11,96.57 476.78,97.086 477.565,97.197 L487.266,98.572 C493.671,99.48 496.148,107.418 491.396,111.807 L484.009,118.629 C483.46,119.137 483.197,119.884 483.309,120.623 L484.874,131.026 C485.858,137.566 478.661,142.204 473.112,138.607 L466.228,134.144 C465.481,133.66 464.519,133.66 463.772,134.144 L456.888,138.607 C451.339,142.204 444.142,137.566 445.126,131.026 L446.692,120.623 C446.803,119.884 446.541,119.137 445.991,118.629 L438.604,111.807 C433.852,107.418 436.329,99.48 442.734,98.572 L452.435,97.197 C453.22,97.086 453.89,96.57 454.198,95.839 L457.929,86.987 Z M467.912,88.74 C466.826,86.164 463.174,86.164 462.088,88.74 L458.357,97.593 C457.433,99.786 455.425,101.333 453.068,101.667 L443.367,103.041 C440.73,103.415 439.71,106.684 441.666,108.491 L449.054,115.313 C450.702,116.836 451.489,119.076 451.155,121.295 L449.59,131.697 C449.185,134.391 452.148,136.301 454.433,134.819 L461.317,130.357 C463.558,128.904 466.443,128.904 468.683,130.357 L475.567,134.819 C477.852,136.301 480.816,134.391 480.41,131.697 L478.845,121.295 C478.511,119.076 479.298,116.836 480.947,115.313 L488.334,108.491 C490.29,106.684 489.27,103.415 486.633,103.041 L476.932,101.667 C474.575,101.333 472.567,99.786 471.643,97.593 L467.912,88.74 Z" />
        </g>
        <g id="Black-S">
            <path d="M657.929,86.987 C660.566,80.73 669.434,80.73 672.071,86.987 L675.802,95.839 C676.11,96.57 676.78,97.086 677.565,97.197 L687.266,98.572 C693.671,99.48 696.148,107.418 691.396,111.807 L684.009,118.629 C683.46,119.137 683.197,119.884 683.309,120.623 L684.874,131.026 C685.858,137.566 678.661,142.204 673.112,138.607 L666.228,134.144 C665.481,133.66 664.519,133.66 663.772,134.144 L656.888,138.607 C651.339,142.204 644.142,137.566 645.126,131.026 L646.692,120.623 C646.803,119.884 646.541,119.137 645.991,118.629 L638.604,111.807 C633.852,107.418 636.329,99.48 642.734,98.572 L652.435,97.197 C653.22,97.086 653.89,96.57 654.198,95.839 L657.929,86.987 Z M667.912,88.74 C666.826,86.164 663.174,86.164 662.088,88.74 L658.357,97.593 C657.433,99.786 655.425,101.333 653.068,101.667 L643.367,103.041 C640.73,103.415 639.71,106.684 641.667,108.491 L649.054,115.313 C650.702,116.836 651.489,119.076 651.155,121.295 L649.59,131.697 C649.185,134.391 652.148,136.301 654.433,134.819 L661.317,130.357 C663.558,128.904 666.443,128.904 668.683,130.357 L675.567,134.819 C677.852,136.301 680.816,134.391 680.41,131.697 L678.845,121.295 C678.511,119.076 679.298,116.836 680.947,115.313 L688.334,108.491 C690.29,106.684 689.27,103.415 686.633,103.041 L676.932,101.667 C674.575,101.333 672.567,99.786 671.643,97.593 L667.912,88.74 Z" />
        </g>
    </g>
</svg>