<?xml version="1.0" encoding="UTF-8"?>
<svg height="600" width="800" xmlns="http://www.w3.org/2000/svg" xmlns:xlink="http://www.w3.org/1999/xlink">
    <g id="Notes" font-family="'LucidaGrande', 'Lucida Grande', sans-serif" font-size="13">
        <rect fill="white" height="600.0" width="800.0" x="0.0" y="0.0" />
        <g font-size="13">
            <text x="18.0" y="176.0">Small</text>
            <text x="18.0" y="376.0">Medium</text>
            <text x="18.0" y="576.0">Large</text>
        </g>
        <g font-size="9">
            <text x="250.0" y="30.0">Ultralight</text>
            <text x="450.0" y="30.0">Regular</text>
            <text x="650.0" y="30.0">Black</text>
            <text id="template-version" fill="#505050" text-anchor="end" x="785.0" y="575.0">Template v.3.0</text>
            <a href="https://wangchujiang.com/#/app">
                <text fill="#505050" text-anchor="end" x="785.0" y="590.0">https://wangchujiang.com/#/app</text>
            </a>
        </g>
    </g>
    <g id="Guides" stroke="rgb(39, 170, 225)" stroke-width="0.5">
        <path id="Capline-S" d="M18,76 l800,0" />
        <path id="H-reference" d="M85,145.755 L87.685,145.755 L113.369,79.287 L114.052,79.287 L114.052,76 L112.148,76 L85,145.755 Z M95.693,121.536 L130.996,121.536 L130.263,119.313 L96.474,119.313 L95.693,121.536 Z M139.15,145.755 L141.787,145.755 L114.638,76 L113.466,76 L113.466,79.287 L139.15,145.755 Z" stroke="none" />
        <path id="Baseline-S" d="M18,146 l800,0" />
        <path id="left-margin-Ultralight-S" d="M221,56 l0,110" />
        <path id="right-margin-Ultralight-S" d="M309,56 l0,110" />
        <path id="left-margin-Regular-S" d="M421,56 l0,110" />
        <path id="right-margin-Regular-S" d="M509,56 l0,110" />
        <path id="left-margin-Black-S" d="M621,56 l0,110" />
        <path id="right-margin-Black-S" d="M709,56 l0,110" />
        <path id="Capline-M" d="M18,276 l800,0" />
        <path id="Baseline-M" d="M18,346 l800,0" />
        <path id="Capline-L" d="M18,476 l800,0" />
        <path id="Baseline-L" d="M18,546 l800,0" />
    </g>
    <g id="Symbols">
        <g id="Ultralight-S">
            <path d="M258.997,85.578 C261.464,80.62 268.534,80.62 271.005,85.578 L275.785,95.171 C276.127,95.857 276.783,96.331 277.541,96.44 L288.158,97.968 C293.682,98.762 295.875,105.558 291.862,109.431 L284.235,116.795 C283.679,117.333 283.426,118.111 283.558,118.872 L285.366,129.314 C286.311,134.783 280.583,138.971 275.657,136.407 L266.078,131.42 C265.402,131.067 264.596,131.067 263.92,131.42 L254.342,136.407 C249.418,138.974 243.687,134.783 244.635,129.311 L246.443,118.872 C246.575,118.11 246.32,117.332 245.764,116.795 L238.14,109.434 C234.123,105.557 236.32,98.762 241.844,97.968 L252.46,96.44 C253.218,96.331 253.875,95.857 254.216,95.171 L258.997,85.575 Z M267.088,87.53 C266.693,86.738 265.884,86.237 264.999,86.237 C264.114,86.237 263.306,86.738 262.911,87.53 L258.13,97.122 C257.148,99.092 255.263,100.454 253.085,100.768 L242.465,102.297 C241.582,102.423 240.849,103.041 240.575,103.889 C240.301,104.738 240.534,105.668 241.176,106.287 L248.803,113.648 C250.402,115.192 251.133,117.428 250.754,119.619 L248.946,130.06 C248.794,130.935 249.152,131.819 249.868,132.343 C250.585,132.866 251.536,132.938 252.323,132.528 L261.902,127.54 C263.843,126.53 266.155,126.53 268.097,127.54 L277.678,132.528 C278.465,132.937 279.416,132.864 280.132,132.34 C280.848,131.816 281.205,130.932 281.053,130.057 L279.244,119.619 C278.866,117.428 279.598,115.192 281.198,113.648 L288.823,106.287 C289.464,105.668 289.698,104.738 289.425,103.89 C289.151,103.042 288.418,102.424 287.536,102.297 L276.92,100.768 C274.739,100.456 272.851,99.093 271.868,97.122 L267.088,87.527 Z" />
        </g>
        <g id="Regular-S">
            <path d="M458.997,85.578 C461.464,80.62 468.534,80.62 471.005,85.578 L475.785,95.171 C476.127,95.857 476.783,96.331 477.541,96.44 L488.158,97.968 C493.682,98.762 495.875,105.558 491.862,109.431 L484.235,116.795 C483.679,117.333 483.426,118.111 483.558,118.872 L485.366,129.314 C486.311,134.783 480.583,138.971 475.657,136.407 L466.078,131.42 C465.402,131.067 464.596,131.067 463.92,131.42 L454.342,136.407 C449.418,138.974 443.687,134.783 444.635,129.311 L446.443,118.872 C446.575,118.11 446.32,117.332 445.764,116.795 L438.14,109.434 C434.123,105.557 436.32,98.762 441.844,97.968 L452.46,96.44 C453.218,96.331 453.875,95.857 454.216,95.171 L458.997,85.575 Z M467.088,87.53 C466.693,86.738 465.884,86.237 464.999,86.237 C464.114,86.237 463.306,86.738 462.911,87.53 L458.13,97.122 C457.148,99.092 455.263,100.454 453.085,100.768 L442.465,102.297 C441.582,102.423 440.849,103.041 440.575,103.889 C440.301,104.738 440.534,105.668 441.176,106.287 L448.803,113.648 C450.402,115.192 451.133,117.428 450.754,119.619 L448.946,130.06 C448.794,130.935 449.152,131.819 449.868,132.343 C450.585,132.866 451.536,132.938 452.323,132.528 L461.902,127.54 C463.843,126.53 466.155,126.53 468.097,127.54 L477.678,132.528 C478.465,132.937 479.416,132.864 480.132,132.34 C480.848,131.816 481.205,130.932 481.053,130.057 L479.244,119.619 C478.866,117.428 479.598,115.192 481.198,113.648 L488.823,106.287 C489.464,105.668 489.698,104.738 489.425,103.89 C489.151,103.042 488.418,102.424 487.536,102.297 L476.92,100.768 C474.739,100.456 472.851,99.093 471.868,97.122 L467.088,87.527 Z" />
        </g>
        <g id="Black-S">
            <path d="M658.997,85.578 C661.464,80.62 668.534,80.62 671.005,85.578 L675.785,95.171 C676.127,95.857 676.783,96.331 677.541,96.44 L688.158,97.968 C693.682,98.762 695.875,105.558 691.862,109.431 L684.235,116.795 C683.679,117.333 683.426,118.111 683.558,118.872 L685.366,129.314 C686.311,134.783 680.583,138.971 675.657,136.407 L666.078,131.42 C665.402,131.067 664.596,131.067 663.92,131.42 L654.342,136.407 C649.418,138.974 643.687,134.783 644.635,129.311 L646.443,118.872 C646.575,118.11 646.32,117.332 645.764,116.795 L638.14,109.434 C634.123,105.557 636.32,98.762 641.844,97.968 L652.46,96.44 C653.219,96.331 653.875,95.857 654.216,95.171 L658.997,85.575 Z M667.088,87.53 C666.693,86.738 665.884,86.237 664.999,86.237 C664.114,86.237 663.306,86.738 662.911,87.53 L658.13,97.122 C657.148,99.092 655.263,100.454 653.085,100.768 L642.465,102.297 C641.582,102.423 640.849,103.041 640.575,103.889 C640.301,104.738 640.534,105.668 641.176,106.287 L648.803,113.648 C650.402,115.192 651.133,117.428 650.754,119.619 L648.946,130.06 C648.794,130.935 649.152,131.819 649.869,132.343 C650.585,132.866 651.536,132.938 652.323,132.528 L661.902,127.54 C663.843,126.53 666.155,126.53 668.097,127.54 L677.678,132.528 C678.465,132.937 679.416,132.864 680.132,132.34 C680.848,131.816 681.205,130.932 681.053,130.057 L679.244,119.619 C678.866,117.428 679.598,115.192 681.198,113.648 L688.823,106.287 C689.464,105.668 689.698,104.738 689.425,103.89 C689.151,103.042 688.418,102.424 687.536,102.297 L676.92,100.768 C674.739,100.456 672.851,99.093 671.868,97.122 L667.088,87.527 Z" />
        </g>
    </g>
</svg>