<svg xmlns="http://www.w3.org/2000/svg" width="1242" height="844" fill="none" viewBox="0 0 1242 844">
  <g clip-path="url(#a)">
    <path fill="url(#b)" fill-opacity=".5" d="M511.434 582.109c-9.443-6.452-20.774-13.955-29.72-20.111-3.883-2.614-9.35-6.603-13.117-8.101-4.25-1.569-8.126.944-12.095 2.585-13.822 6.164-30.786 20.651-49.853 32.1-8.968 5.198-17.295 10.412-26.558 14.681-8.284 3.917-19.945 7.971-26.875 9.714-9.278 2.923-14.752-1.16-22.661-5.609-13.758-7.597-28.878-17.677-42.621-24.107-7.211-3.334-14.68 3.549-21.704 7.79-45.012 29.508-94.001 65.106-143.631 102.203-24.512 18.735-65.24 44.916-88.592 63.767v.014c58 .691 164.218 1.016 275.983 1.16 30.289-22.027 144.733-105.026 168.871-119.506 15.862-9.511 40.374-24.798 58.555-36.211a473.514 473.514 0 0 0-8.774-7.531c-5.791-4.839-10.459-8.23-17.215-12.831l.007-.007Z"/>
    <path fill="url(#c)" d="M555.546 761.917a316.161 316.161 0 0 1 5.763-4.788c3.594-2.909 6.879-5.386 9.695-7.302 25.377-15.653 69.266-54.406 97.351-84.576 5.698-6.35 9.977-11.232 13.73-17.417 7.887-22.019 38.774-58.46 47.886-75.518.822-1.685 1.383-2.816 1.383-4.522-2.42-12.471-21.112-26.094-20.284-42.238.238-3.42 1.232-5.436 2.493-8.691 6.569-16.481 26.068-48.307 39.351-69.844a.555.555 0 0 1-.051-.028s-59.851 54.557-82.159 76.85c-22.309 22.299-91.013 64.861-91.013 64.861l-18.339-1.311s-54.6 34.562-82.484 51.289c-27.883 16.726-176.247 124.869-176.247 124.869l252.925-1.634Z"/>
    <path fill="url(#d)" d="M947.623 735.945c5.762-6.538 9.969-9.353 18.015-14.357 13.787-8.706 31.082-19.55 45.402-28.579 4.75-3.017 9.28-5.767 13.8-8.813 5.48-3.723 7.44-6.207 10.17-12.514 1.54-3.55 2.93-7.057 4.44-10.816 5.72-14.199 12.06-29.996 17.73-44.059 2.47-6.271 4.79-11.499 5.5-14.797 2.32-10.469-15.5.533-19.04-4.219-.59-1.26-.18-2.563.15-4.104.34-1.347.87-2.945 1.46-4.76 3.93-12.111 10.27-31.314 16.54-50.748-.05-.036-.1-.065-.14-.101-.41-.353-.79-.245-1.18.043-25.31 18.534-75.816 55.659-93.399 68.764-5.755 3.931-11.056 7.157-18.18 11.6-29.584 18.426-76.196 45.78-95.342 61.563-29.562 24.842-73.018 58.655-100.83 80.573 35.166-.338 100.16-.727 172.992-1.116 8.867-9.591 16.617-17.951 21.912-23.567v.007Z"/>
    <path fill="url(#e)" d="M798.236 474.902c15.184 12.428 108.624 85.793 133.569 104.723v.007c9.249 7.02 22.517 15.855 37.535 25.648-.806.597-1.563 1.159-2.269 1.685-4.803 3.281-9.291 6.071-14.785 9.486l-3.395 2.113c-6.578 4.098-13.998 8.637-21.771 13.392-27.181 16.628-58.682 35.898-73.571 48.172-24.6 20.673-58.809 47.552-85.626 68.623-5.416 4.255-10.531 8.274-15.204 11.957 37.471-.368 108.79-.778 187.384-1.196l-384.557 2.484a325.061 325.061 0 0 1 5.77-4.788c3.595-2.909 6.879-5.393 9.696-7.301 25.376-15.654 69.273-54.406 97.351-84.576 5.697-6.351 9.976-11.233 13.729-17.418 4.851-13.544 18.405-32.541 30.24-49.131 7.406-10.381 14.139-19.818 17.647-26.387l.031-.064c.804-1.65 1.352-2.773 1.352-4.457-1.017-5.244-4.908-10.689-9.016-16.438-5.668-7.931-11.749-16.441-11.269-25.8.21-2.929.964-4.828 1.968-7.358.168-.424.344-.866.525-1.333 6.562-16.482 26.061-48.3 39.351-69.844l.034.017c1.691.85 29.36 14.749 45.281 27.784Z"/>
    <path fill="url(#f)" d="M1286.06 755.415c-.49-2.059-1.7-6.228-4.45-11.924-2-4.104-4.25-8.143-6.76-11.887-1.95-2.924-4.33-6.121-6.7-9.109-4.92-5.968-10.57-13.115-16.52-20.657-17.26-21.849-37.14-47.015-49.61-56.452-13.53-9.967-29.08-22.546-44.4-34.939-12.07-9.756-23.99-19.396-34.66-27.553-19.27-14.718-44.26-32.618-61.17-44.708-4 12.387-8.02 24.675-11.43 35.094l-.01.017c-1.94 5.927-3.68 11.248-5.1 15.638l-.06.184c-.57 1.732-1.07 3.268-1.4 4.575l-.12.525c-.3 1.321-.55 2.464-.03 3.579 1.5 2.021 5.59 1.194 9.61.38 5.44-1.101 10.76-2.179 9.43 3.84-.54 2.498-2 6.099-3.75 10.427-.56 1.386-1.15 2.847-1.75 4.37-3.1 7.67-6.39 15.856-9.67 24.017l-.09.233c-2.71 6.724-5.4 13.428-7.97 19.809l-.26.634c-1.4 3.521-2.73 6.832-4.18 10.181-2.74 6.3-4.69 8.792-10.17 12.514-3.26 2.193-6.52 4.239-9.87 6.342-1.3.811-2.6 1.631-3.93 2.472-7.2 4.539-15.149 9.539-23.028 14.494-7.792 4.901-15.515 9.759-22.374 14.084-8.046 5.004-12.253 7.82-18.015 14.358-5.295 5.616-13.045 13.976-21.912 23.567 31.735-.171 64.959-.342 97.859-.512h.04c132.54-.683 259.73-1.338 262.74-1.8.09-.086.02-.475-.29-1.785v-.008Z"/>
  </g>
  <path fill="#fff" fill-opacity=".56" d="m615.557 420.399-15.163-.729c-3.386-.162-6.719 1.028-9.494 3.391-2.776 2.363-4.841 5.77-5.883 9.703-1.097-3.918-3.211-7.294-6.019-9.616-2.809-2.322-6.158-3.463-9.54-3.25l-15.151.953c-.337.022-.656.197-.894.489a1.86 1.86 0 0 0-.393 1.096c-.015.413.095.818.31 1.138.214.319.518.531.853.593l13.668 2.398c2.904.511 5.633 2.013 7.873 4.333 2.24 2.32 3.899 5.364 4.787 8.781.308 1.19.92 2.229 1.747 2.964.826.736 1.823 1.128 2.845 1.121 1.021-.008 2.012-.415 2.827-1.163.816-.747 1.413-1.795 1.703-2.99.842-3.423 2.458-6.483 4.663-8.83 2.205-2.346 4.91-3.883 7.802-4.435l13.632-2.598c.364-.027.703-.229.944-.562.241-.333.363-.77.34-1.214a1.84 1.84 0 0 0-.463-1.154c-.273-.295-.631-.446-.994-.419Z"/>
  <path fill="#fff" fill-opacity=".4" d="m520.249 389.775-9.561-.261a10.02 10.02 0 0 0-5.954 1.764 9.536 9.536 0 0 0-3.659 4.885 9.525 9.525 0 0 0-3.82-4.76 10.016 10.016 0 0 0-6.009-1.565l-9.538.579a.897.897 0 0 0-.484.29.838.838 0 0 0-.039 1.044.883.883 0 0 0 .462.322l8.611 1.108a9.94 9.94 0 0 1 5 2.104 9.485 9.485 0 0 1 3.064 4.37 2.918 2.918 0 0 0 1.112 1.469 3.063 3.063 0 0 0 1.795.54 3.065 3.065 0 0 0 1.776-.6 2.915 2.915 0 0 0 1.062-1.505 9.476 9.476 0 0 1 2.898-4.459 9.947 9.947 0 0 1 4.901-2.28l8.578-1.394a.886.886 0 0 0 .443-.356.836.836 0 0 0-.124-1.047.894.894 0 0 0-.514-.248Z"/>
  <path fill="#fff" fill-opacity=".56" fill-rule="evenodd" d="m680.524 283.609 22.721-1.722a3.39 3.39 0 0 0 2.931-2.222 32.004 32.004 0 0 1 11.589-15.374 31.784 31.784 0 0 1 18.278-5.902c4.143-.013 8.246.81 12.067 2.419a30.962 30.962 0 0 1 10.178 6.947 3.388 3.388 0 0 0 3.971.689 18.583 18.583 0 0 1 16.714-.267 3.29 3.29 0 0 0 2.656.087 3.317 3.317 0 0 0 1.868-1.898 41.408 41.408 0 0 1 14.872-18.948 41.125 41.125 0 0 1 22.861-7.412 41.12 41.12 0 0 1 23.095 6.636 41.388 41.388 0 0 1 15.498 18.435 3.41 3.41 0 0 0 1.627 1.713 3.388 3.388 0 0 0 2.344.243 31.741 31.741 0 0 1 7.356-.945 22.83 22.83 0 0 1 12.436 3.835 22.976 22.976 0 0 1 8.349 10.02 3.423 3.423 0 0 0 2.854 2.066l18.462 1.489c4.977.245 4.867 4.5-.343 4.5H680.867c-5.133.111-5.321-4.155-.343-4.389Z" clip-rule="evenodd"/>
  <path fill="#fff" fill-opacity=".4" fill-rule="evenodd" d="m470.15 164.392 18.948-1.39a2.785 2.785 0 0 0 1.491-.565c.432-.33.759-.779.942-1.292a26.673 26.673 0 0 1 9.649-12.859 26.453 26.453 0 0 1 15.249-4.935 25.703 25.703 0 0 1 10.058 2.005 25.828 25.828 0 0 1 8.491 5.78 2.826 2.826 0 0 0 3.318.578 15.476 15.476 0 0 1 13.926-.222 2.794 2.794 0 0 0 2.198.053 2.812 2.812 0 0 0 1.563-1.555 34.533 34.533 0 0 1 12.386-15.797 34.25 34.25 0 0 1 19.038-6.188 34.244 34.244 0 0 1 19.239 5.518 34.518 34.518 0 0 1 12.926 15.355 2.836 2.836 0 0 0 1.36 1.43 2.815 2.815 0 0 0 1.958.194 26.445 26.445 0 0 1 6.128-.79 19.037 19.037 0 0 1 10.361 3.201 19.186 19.186 0 0 1 6.96 8.354 2.857 2.857 0 0 0 2.378 1.735l15.386 1.246c4.148.2 4.059 3.748-.277 3.748H470.438c-4.236.144-4.435-3.415-.288-3.604Zm-143.856 336-18.947-1.39a2.785 2.785 0 0 1-1.491-.565 2.818 2.818 0 0 1-.943-1.292 26.677 26.677 0 0 0-9.648-12.859 26.456 26.456 0 0 0-15.25-4.935 25.703 25.703 0 0 0-10.058 2.005 25.828 25.828 0 0 0-8.491 5.78 2.815 2.815 0 0 1-3.318.578 15.486 15.486 0 0 0-13.926-.222 2.793 2.793 0 0 1-2.198.053 2.812 2.812 0 0 1-1.562-1.555 34.535 34.535 0 0 0-12.387-15.797 34.246 34.246 0 0 0-19.037-6.188 34.245 34.245 0 0 0-19.24 5.518 34.522 34.522 0 0 0-12.925 15.355 2.845 2.845 0 0 1-1.36 1.43 2.818 2.818 0 0 1-1.959.194 26.436 26.436 0 0 0-6.127-.79 19.034 19.034 0 0 0-10.361 3.201 19.188 19.188 0 0 0-6.961 8.354 2.876 2.876 0 0 1-.951 1.198 2.854 2.854 0 0 1-1.427.537l-15.386 1.246c-4.147.2-4.059 3.748.277 3.748h193.388c4.237.144 4.436-3.415.288-3.604Z" clip-rule="evenodd"/>
  <defs>
    <linearGradient id="b" x1="285.706" x2="285.706" y1="549.203" y2="756.748" gradientUnits="userSpaceOnUse">
      <stop stop-color="#8FABF9" stop-opacity=".2"/>
      <stop offset="1" stop-color="#8FABF9" stop-opacity="0"/>
    </linearGradient>
    <linearGradient id="c" x1="527.762" x2="527.762" y1="440.503" y2="761.316" gradientUnits="userSpaceOnUse">
      <stop stop-color="#fff" stop-opacity=".8"/>
      <stop offset=".417" stop-color="#fff" stop-opacity=".4"/>
      <stop offset="1" stop-color="#fff" stop-opacity="0"/>
    </linearGradient>
    <linearGradient id="d" x1="907.799" x2="907.799" y1="533.289" y2="759.048" gradientUnits="userSpaceOnUse">
      <stop stop-color="#fff" stop-opacity=".8"/>
      <stop offset=".54" stop-color="#fff" stop-opacity=".4"/>
      <stop offset="1" stop-color="#fff" stop-opacity="0"/>
    </linearGradient>
    <linearGradient id="e" x1="920.957" x2="920.957" y1="440.646" y2="759.773" gradientUnits="userSpaceOnUse">
      <stop stop-color="#ADC2FC" stop-opacity=".16"/>
      <stop offset="1" stop-color="#ADC2FC" stop-opacity="0"/>
    </linearGradient>
    <linearGradient id="f" x1="920.957" x2="920.957" y1="440.646" y2="759.773" gradientUnits="userSpaceOnUse">
      <stop stop-color="#ADC2FC" stop-opacity=".16"/>
      <stop offset="1" stop-color="#ADC2FC" stop-opacity="0"/>
    </linearGradient>
    <clipPath id="a">
      <path fill="#fff" d="M34 447h1206v311H34z"/>
    </clipPath>
  </defs>
</svg>
