<svg width="16" height="16" viewBox="0 0 16 16" fill="none" xmlns="http://www.w3.org/2000/svg">
<path d="M12.5 9C14.433 9 16 10.567 16 12.5C16 14.433 14.433 16 12.5 16C10.567 16 9 14.433 9 12.5C9 10.567 10.567 9 12.5 9ZM0 10.6348C0.450446 12.4247 2.07023 13.75 4 13.75H7.91699C8.07368 14.3258 7.68953 15 7.09277 15H4C1.79086 15 0 13.2091 0 11V10.6348ZM10.375 11.875C10.0989 11.875 9.875 12.0989 9.875 12.375V12.625C9.875 12.9011 10.0989 13.125 10.375 13.125H14.625C14.9011 13.125 15.125 12.9011 15.125 12.625V12.375C15.125 12.0989 14.9011 11.875 14.625 11.875H10.375ZM10.5107 1C12.4376 1 14 2.56244 14 4.48926V6.88379C14 7.42948 13.4606 7.81511 12.917 7.76758C12.8618 7.76272 12.8058 7.75875 12.75 7.75586V4.48926C12.75 3.25279 11.7472 2.25 10.5107 2.25H3.48926C2.25279 2.25 1.25 3.25279 1.25 4.48926V8C1.25 9.51878 2.48122 10.75 4 10.75H8.08398C7.92784 11.1437 7.8221 11.5628 7.77637 12H4C1.79086 12 2.74266e-07 10.2091 0 8V4.48926C0 2.56244 1.56244 1 3.48926 1H10.5107Z" fill="black" fill-opacity="0.84"/>
</svg>
