<svg width="16" height="16" viewBox="0 0 16 16" fill="none" xmlns="http://www.w3.org/2000/svg">
<path d="M8.29395 0.00585938C8.78576 0.0238497 9.125 0.435428 9.125 0.875C9.125 4.18871 11.8113 6.875 15.125 6.875C15.5504 6.875 15.9511 7.19301 15.9922 7.66016C15.9963 7.77346 16 7.88661 16 8C16 8.49108 15.3963 8.70383 14.9775 8.44727C14.9006 8.40009 14.822 8.35434 14.7422 8.31152C14.7451 8.24636 14.7479 8.18086 14.749 8.11523C14.5679 8.10598 14.3883 8.0897 14.2109 8.06738C13.7862 7.90334 13.3319 7.799 12.8584 7.76367C10.0783 6.84924 8.0405 4.29841 7.88477 1.25098C4.21011 1.31262 1.25 4.31065 1.25 8C1.25 11.7279 4.27208 14.75 8 14.75C8.10441 14.75 8.20827 14.7479 8.31152 14.7432C8.35428 14.8228 8.40016 14.9007 8.44727 14.9775C8.70383 15.3963 8.49108 16 8 16C3.58172 16 0 12.4183 0 8C0 3.58172 3.58172 0 8 0C8.09848 0 8.19646 0.00229686 8.29395 0.00585938ZM12.5 9C14.433 9 16 10.567 16 12.5C16 14.433 14.433 16 12.5 16C10.567 16 9 14.433 9 12.5C9 10.567 10.567 9 12.5 9ZM10.375 11.875C10.0989 11.875 9.875 12.0989 9.875 12.375V12.625C9.875 12.9011 10.0989 13.125 10.375 13.125H14.625C14.9011 13.125 15.125 12.9011 15.125 12.625V12.375C15.125 12.0989 14.9011 11.875 14.625 11.875H10.375ZM6.75 11C7.16421 11 7.5 11.3358 7.5 11.75C7.5 12.1642 7.16421 12.5 6.75 12.5C6.33579 12.5 6 12.1642 6 11.75C6 11.3358 6.33579 11 6.75 11ZM3.75 8C4.16421 8 4.5 8.33579 4.5 8.75C4.5 9.16421 4.16421 9.5 3.75 9.5C3.33579 9.5 3 9.16421 3 8.75C3 8.33579 3.33579 8 3.75 8ZM7.75 7C8.16421 7 8.5 7.33579 8.5 7.75C8.5 8.16421 8.16421 8.5 7.75 8.5C7.33579 8.5 7 8.16421 7 7.75C7 7.33579 7.33579 7 7.75 7ZM5.75 4C6.16421 4 6.5 4.33579 6.5 4.75C6.5 5.16421 6.16421 5.5 5.75 5.5C5.33579 5.5 5 5.16421 5 4.75C5 4.33579 5.33579 4 5.75 4Z" fill="black" fill-opacity="0.84"/>
</svg>
