<svg fill="none" viewBox="0 0 16 16" xmlns="http://www.w3.org/2000/svg">
  <g clip-path="url(#Search-Find-Color-16_svg__a)">
    <path fill="#CCDAFF" d="M13 7A6 6 0 1 1 1 7a6 6 0 0 1 12 0"/>
    <path fill="#fff" d="M7 2a4.98 4.98 0 0 1 3.403 1.338 5.5 5.5 0 0 0-7.065 7.065A5 5 0 0 1 7 2" opacity=".5"/>
    <path fill="url(#Search-Find-Color-16_svg__b)" d="M7 0a7 7 0 0 1 5.372 11.488l3.445 3.445.043.047a.625.625 0 0 1-.88.88l-.047-.043-3.445-3.445A7 7 0 1 1 7 0m0 1a6 6 0 1 0 0 12A6 6 0 0 0 7 1"/>
  </g>
  <defs>
    <linearGradient id="Search-Find-Color-16_svg__b" x1="8" x2="8" y1="0" y2="16" gradientUnits="userSpaceOnUse">
      <stop stop-color="#557FF3"/>
      <stop offset="1" stop-color="#2B55CA"/>
    </linearGradient>
    <clipPath id="Search-Find-Color-16_svg__a">
      <path fill="#fff" d="M0 0h16v16H0z"/>
    </clipPath>
  </defs>
</svg>
