<svg width="92" height="39" viewBox="0 0 92 39" fill="none" xmlns="http://www.w3.org/2000/svg">
<g clip-path="url(#clip0_6736_47079)">
<rect width="92" height="38" transform="translate(0 0.666016)" fill="url(#paint0_linear_6736_47079)"/>
<path d="M75.71 19.1319C73.7997 19.3025 70.7691 20.0611 67.7051 22.8163C67.1281 23.3346 66.2186 22.7834 66.4394 22.0483C68.3859 15.5579 66.7018 12.4413 66.6773 10.4725C66.6507 8.31226 66.3585 2.97285 71.3435 -1.17076C71.8195 -1.56622 71.6357 -2.33209 71.0273 -2.47441C65.2552 -3.83344 50.4295 -2.82086 43.1476 11.4807C42.8288 12.1074 41.8868 12.0123 41.705 11.3363C41.1409 9.23075 41.3141 6.93807 41.7057 5.24018C41.8598 4.57063 41.0841 4.06852 40.5079 4.46081C39.8032 4.94168 39.1123 5.44102 38.5963 5.85658C35.9389 8.00116 33.5835 10.5796 31.9696 13.569C31.5975 14.2558 31.2686 14.9517 30.9778 15.6525C30.9693 15.6702 30.9618 15.6873 30.9555 15.7038C30.9305 15.7578 30.9094 15.8112 30.8882 15.8646C29.8057 18.4495 29.2968 21.1366 29.3104 23.782C29.3112 23.8016 29.3115 23.8229 29.3106 23.8421C29.3385 27.1232 30.1655 30.34 31.693 33.2263C31.8053 33.4399 31.9231 33.6508 32.0436 33.8617C32.103 33.9669 32.1645 34.071 32.2278 34.1756C34.3448 37.7096 37.5535 40.6688 41.6496 42.5139C51.8284 47.0993 63.8015 43.1413 69.1118 33.6904C69.3326 33.2988 69.5382 32.8988 69.7332 32.4894C69.7524 32.453 69.7705 32.4145 69.788 32.3777L69.7793 32.374C69.7846 32.3633 69.7888 32.3532 69.7909 32.3415C71.6191 27.5614 71.0697 24.5555 75.4365 21.2236C75.4662 21.202 75.8556 20.8474 76.3048 20.4373C76.8423 19.9482 76.4427 19.066 75.7116 19.1324L75.71 19.1319Z" fill="#F2643D"/>
<mask id="mask0_6736_47079" style="mask-type:luminance" maskUnits="userSpaceOnUse" x="29" y="-3" width="48" height="48">
<path d="M75.6724 19.2622C73.7661 19.4212 70.7449 20.1628 67.7037 22.9062C67.131 23.4223 66.2191 22.8638 66.4347 22.1281C68.3353 15.6322 66.6329 12.4965 66.5954 10.5221C66.5545 8.35575 66.2272 2.99986 71.1775 -1.12364C71.6502 -1.51718 71.4615 -2.28631 70.8531 -2.43286C65.0803 -3.83205 50.2828 -2.91026 43.1066 11.3846C42.7923 12.0109 41.8511 11.9096 41.6651 11.2306C41.0878 9.11575 41.2455 6.81788 41.6253 5.11781C41.7747 4.4474 40.9968 3.93902 40.4241 4.32874C39.7236 4.80649 39.037 5.30283 38.5245 5.71628C35.8852 7.84996 33.5504 10.4206 31.9587 13.408C31.5917 14.0943 31.2679 14.7901 30.9821 15.491C30.9737 15.5086 30.9664 15.5257 30.9602 15.5423C30.9357 15.5962 30.9149 15.6496 30.8941 15.7031C29.8304 18.2882 29.3401 20.9795 29.3712 23.6322C29.3721 23.6519 29.3725 23.6732 29.3718 23.6924C29.4214 26.9828 30.2686 30.2135 31.8131 33.1174C31.9267 33.3323 32.0456 33.5446 32.1673 33.7568C32.2274 33.8626 32.2895 33.9674 32.3534 34.0727C34.4908 37.6298 37.7145 40.6173 41.8169 42.4933C52.0114 47.1555 63.9408 43.2623 69.1806 33.819C69.3985 33.4277 69.6011 33.0279 69.7931 32.6186C69.812 32.5822 69.8298 32.5438 69.8471 32.5069L69.8383 32.5032C69.8436 32.4925 69.8477 32.4824 69.8497 32.4706C71.6435 27.689 71.075 24.6714 75.4133 21.3579C75.4428 21.3365 75.8293 20.9833 76.2751 20.575C76.8086 20.0879 76.4037 19.2008 75.6741 19.2628L75.6724 19.2622Z" fill="white"/>
</mask>
<g mask="url(#mask0_6736_47079)">
<g filter="url(#filter0_f_6736_47079)">
<path opacity="0.7" d="M-8.61599 13.8946C-8.61599 13.8946 -8.61892 13.8928 -8.6201 13.8931C-12.2009 15.5564 -14.9735 18.2152 -16.7642 21.3802C-17.7588 23.1377 -19.1092 24.728 -20.9576 25.5864L-24.9778 27.4542C-26.8263 28.3126 -28.9437 28.3341 -30.97 27.9797C-34.6217 27.343 -38.486 27.7684 -42.0676 29.4332C-51.3036 33.7249 -55.1622 44.625 -50.6852 53.7792C-48.9478 57.3326 -46.2139 60.0975 -42.9761 61.9024C-41.1768 62.9081 -39.5438 64.2576 -38.6472 66.0894L-36.6988 70.0739C-35.8016 71.908 -35.7541 73.9922 -36.0874 75.9849C-36.6871 79.5766 -36.2045 83.3912 -34.4673 86.9434C-32.7299 90.4968 -29.996 93.2618 -26.7582 95.0666C-24.959 96.0723 -23.326 97.4218 -22.4294 99.2536L-20.4809 103.238C-19.5855 105.07 -19.5374 107.157 -19.8698 109.153C-20.4704 112.741 -19.9867 116.555 -18.2492 120.109C-13.7722 129.263 -2.6556 133.205 6.5804 128.914C10.162 127.249 12.935 124.591 14.7269 121.426C15.7214 119.668 17.0719 118.078 18.9203 117.22L22.9381 115.352C24.7874 114.493 26.9069 114.474 28.9355 114.828C32.584 115.462 36.4495 115.036 40.0314 113.373C43.6131 111.708 46.386 109.05 48.1779 105.885C49.1725 104.128 50.5229 102.537 52.3713 101.679L56.3915 99.811C58.2399 98.9526 60.3574 98.9312 62.3836 99.2856C66.0354 99.9223 69.8996 99.4968 73.4813 97.8321C82.7173 93.5403 86.5758 82.6402 82.0989 73.4861C80.3614 69.9327 77.6275 67.1677 74.3898 65.3629C72.5905 64.3572 70.9575 63.0077 70.0609 61.1759L68.1124 57.1913C67.217 55.3593 67.169 53.2728 67.5014 51.2766C68.1019 47.6884 67.6202 43.8773 65.8828 40.3239C64.1454 36.7705 61.4115 34.0055 58.1737 32.2007C56.3744 31.195 54.7414 29.8455 53.8448 28.0137L51.8964 24.0292C51.0009 22.1971 50.9529 20.1106 51.2853 18.1144C51.8858 14.5262 51.4041 10.7151 49.6667 7.16171C45.1897 -1.99245 34.0731 -5.93482 24.8371 -1.64307C21.2554 0.0216517 18.4825 2.67931 16.6906 5.84463C15.696 7.6021 14.3456 9.19243 12.4972 10.0508L8.477 11.9186C6.62856 12.777 4.51113 12.7985 2.48486 12.4441C-1.16568 11.8071 -5.02995 12.2326 -8.6107 13.8959C-8.61188 13.8961 -8.61424 13.8967 -8.61482 13.8943L-8.61599 13.8946Z" fill="#FFAB23"/>
</g>
</g>
<path d="M6.22984 20.1699C7.88328 21.1202 10.2935 23.0692 11.8627 26.8381C12.1584 27.5474 13.2216 27.4278 13.3427 26.6709C14.4143 19.989 17.2975 17.8718 18.1788 16.1011C19.1455 14.1582 21.7398 9.45037 19.0389 3.62512C18.7809 3.06907 19.2814 2.45294 19.8938 2.5777C25.7078 3.75365 38.6762 10.8474 39.022 26.8179C39.037 27.5176 39.9305 27.8241 40.3899 27.2884C41.819 25.619 42.6628 23.473 43.0494 21.774C43.2023 21.1042 44.123 20.9733 44.473 21.5682C44.9006 22.2968 45.3076 23.0363 45.5931 23.6273C47.0609 26.6744 48.0662 29.9882 48.2216 33.3647C48.2584 34.1409 48.2523 34.9075 48.2095 35.6626C48.2095 35.6821 48.2088 35.7006 48.2073 35.7182C48.2063 35.7775 48.2022 35.8346 48.198 35.8917C48.0492 38.6809 47.3369 41.3235 46.1702 43.7106C46.1609 43.7281 46.1514 43.7472 46.1439 43.7649C44.6868 46.7212 42.5351 49.2862 39.8939 51.2605C39.6991 51.4069 39.5005 51.5486 39.2995 51.6891C39.1999 51.7595 39.0988 51.828 38.996 51.8963C35.5389 54.2107 31.3453 55.5503 26.8351 55.5124C15.6271 55.4185 6.52432 46.8492 5.84515 36.0879C5.81628 35.6416 5.80492 35.1942 5.80713 34.7426C5.80566 34.7017 5.8061 34.6594 5.80633 34.6187L5.81583 34.619C5.81568 34.6072 5.81628 34.5962 5.81954 34.5848C6.25177 29.4993 8.06036 27.0092 5.56442 22.1759C5.54699 22.144 5.3495 21.6609 5.12213 21.1028C4.84937 20.4364 5.59576 19.805 6.22813 20.1697L6.22984 20.1699Z" fill="#F2643D"/>
<mask id="mask1_6736_47079" style="mask-type:luminance" maskUnits="userSpaceOnUse" x="5" y="2" width="44" height="54">
<path d="M6.20909 20.1156C7.86431 21.0708 10.2788 23.027 11.8584 26.8009C12.156 27.5111 13.2182 27.3946 13.3369 26.6379C14.3875 19.9584 17.2625 17.8492 18.1378 16.0809C19.098 14.1405 21.6763 9.43962 18.9596 3.6059C18.7001 3.04904 19.1984 2.43427 19.8107 2.56083C25.6245 3.7537 38.6058 10.8857 38.9997 26.8591C39.0167 27.5589 39.9106 27.868 40.3681 27.3335C41.7912 25.6681 42.6279 23.5243 43.0092 21.8262C43.1599 21.1568 44.0796 21.0285 44.4312 21.6245C44.8607 22.3544 45.2696 23.0952 45.5567 23.687C47.0328 26.7388 48.0475 30.0558 48.2129 33.4332C48.2521 34.2096 48.2483 34.9762 48.2078 35.7313C48.2079 35.7508 48.2072 35.7693 48.2058 35.787C48.205 35.8462 48.201 35.9033 48.197 35.9604C48.0567 38.7495 47.3529 41.3904 46.1942 43.7744C46.185 43.7918 46.1756 43.811 46.1681 43.8286C44.721 46.7811 42.5784 49.3401 39.9449 51.307C39.7507 51.4529 39.5527 51.594 39.3523 51.734C39.2529 51.8041 39.1521 51.8723 39.0495 51.9403C35.6017 54.245 31.4149 55.5726 26.9076 55.5217C15.7068 55.3955 6.58409 46.7989 5.87282 36.0344C5.84262 35.588 5.82991 35.1404 5.83076 34.6888C5.82915 34.6479 5.82947 34.6055 5.82958 34.5649L5.83907 34.5653C5.83889 34.5534 5.83945 34.5424 5.84268 34.531C6.25923 29.4462 8.05909 26.961 5.55018 22.1199C5.53266 22.0879 5.33385 21.6043 5.10494 21.0455C4.83034 20.3781 5.57432 19.7488 6.20738 20.1154L6.20909 20.1156Z" fill="white"/>
</mask>
<g mask="url(#mask1_6736_47079)">
<g filter="url(#filter1_f_6736_47079)">
<path d="M40.4321 67.3324C40.4321 67.3324 40.4353 67.3335 40.4358 67.3346C41.3973 71.1325 41.0691 74.9421 39.7243 78.3201C38.9777 80.196 38.5867 82.2387 39.0832 84.1991L40.1623 88.4633C40.6588 90.4237 41.9801 92.0598 43.538 93.3879C46.3438 95.7826 48.453 99.0133 49.4138 102.813C51.8925 112.61 45.8022 122.475 35.8104 124.845C31.9322 125.766 28.0411 125.423 24.5828 124.086C22.6588 123.345 20.5709 122.949 18.571 123.423L14.2221 124.455C12.22 124.93 10.5593 126.214 9.21076 127.732C6.77943 130.468 3.48977 132.516 -0.387423 133.436C-4.26571 134.357 -8.1568 134.014 -11.6151 132.677C-13.539 131.935 -15.6269 131.539 -17.6268 132.013L-21.9758 133.045C-23.9751 133.52 -25.638 134.806 -26.9899 136.325C-29.4179 139.06 -32.7081 141.106 -36.5864 142.027C-46.5782 144.398 -56.688 138.378 -59.1667 128.581C-60.1276 124.781 -59.8005 120.972 -58.4562 117.593C-57.7096 115.717 -57.3187 113.674 -57.8152 111.714L-58.8932 107.452C-59.3891 105.49 -60.7142 103.854 -62.2731 102.524C-65.0746 100.13 -67.1843 96.8982 -68.1463 93.0992C-69.1072 89.2997 -68.7801 85.4906 -67.4358 82.1115C-66.6892 80.2356 -66.2983 78.193 -66.7948 76.2326L-67.8739 71.9683C-68.3703 70.0079 -69.6917 68.3718 -71.2495 67.0437C-74.0553 64.649 -76.1645 61.4183 -77.1254 57.6188C-79.604 47.8217 -73.5138 37.957 -63.522 35.5862C-59.6437 34.6656 -55.7526 35.0082 -52.2943 36.3454C-50.3703 37.0868 -48.2824 37.4829 -46.2826 37.009L-41.9336 35.9769C-39.9342 35.502 -38.2714 34.2165 -36.9195 32.6967C-34.4915 29.9625 -31.2051 27.9163 -27.3268 26.9957C-23.4485 26.0751 -19.5574 26.4177 -16.0991 27.7549C-14.1752 28.4963 -12.0873 28.8924 -10.0874 28.4185L-5.73844 27.3864C-3.7391 26.9115 -2.0762 25.626 -0.724376 24.1062C1.70367 21.372 4.99006 19.3258 8.86834 18.4052C18.8601 16.0344 28.97 22.0543 31.4486 31.8514C32.4095 35.6509 32.0824 39.46 30.7382 42.8391C29.9915 44.715 29.6006 46.7576 30.0971 48.718L31.1762 52.9823C31.6727 54.9427 32.994 56.5788 34.5518 57.9069C37.3571 60.3005 39.4663 63.5312 40.4277 67.3291C40.4283 67.3302 40.4293 67.3324 40.4315 67.3313L40.4321 67.3324Z" fill="#FFAB23"/>
</g>
</g>
<path d="M55.163 9.63796C56.7096 11.5231 58.6997 14.9501 58.8234 20.1933C58.8472 21.1802 60.1842 21.5121 60.6849 20.6544C65.1083 13.0839 69.5745 11.8238 71.4663 10.085C73.5419 8.177 78.8744 3.66638 78.3512 -4.56089C78.3011 -5.34632 79.1929 -5.86456 79.8722 -5.44011C86.3256 -1.42063 98.6243 12.9313 91.5541 32.3271C91.2441 33.1768 92.1769 33.946 92.9815 33.5062C95.4859 32.1347 97.5085 29.927 98.7708 28.0532C99.2689 27.3146 100.44 27.569 100.582 28.4425C100.756 29.5117 100.9 30.5849 100.966 31.4246C101.306 35.7529 100.964 40.1953 99.5685 44.3328C99.2489 45.2845 98.8822 46.2053 98.4767 47.0959C98.4676 47.1194 98.458 47.1414 98.4479 47.1619C98.419 47.2329 98.3872 47.2998 98.3554 47.3668C96.8686 50.6605 94.7715 53.5254 92.2469 55.8791C92.2275 55.896 92.2071 55.9148 92.1897 55.9328C89.0484 58.8422 85.2536 60.9692 81.146 62.1654C80.8426 62.2546 80.537 62.3364 80.229 62.4158C80.076 62.456 79.922 62.4932 79.7661 62.5294C74.5161 63.7703 68.8357 63.5069 63.4197 61.4421C49.9605 56.3118 43.0108 41.9126 47.2373 28.6435C47.4118 28.0929 47.6078 27.5488 47.8222 27.0057C47.8396 26.9557 47.86 26.9049 47.8793 26.856L47.8906 26.8607C47.896 26.8463 47.9018 26.8334 47.9112 26.8211C50.8159 20.8877 54.1622 18.6973 53.421 11.7568C53.4149 11.7106 53.4035 11.0402 53.3911 10.266C53.375 9.341 54.5702 8.91443 55.1611 9.63693L55.163 9.63796Z" fill="#F2643D"/>
<mask id="mask2_6736_47079" style="mask-type:luminance" maskUnits="userSpaceOnUse" x="46" y="-6" width="55" height="70">
<path d="M55.076 9.44218C56.6295 11.3449 58.6365 14.7979 58.8011 20.059C58.8325 21.0492 60.1653 21.3921 60.6567 20.5353C64.9978 12.9732 69.4313 11.7422 71.2997 10.0118C73.3496 8.11306 78.6193 3.62747 78.0338 -4.63034C77.9777 -5.41869 78.8609 -5.93199 79.5401 -5.50111C85.9923 -1.42065 98.3417 13.0692 91.4607 32.4753C91.159 33.3254 92.0931 34.1041 92.8902 33.6688C95.371 32.3115 97.3658 30.1116 98.6069 28.2412C99.0966 27.5039 100.263 27.7678 100.412 28.6452C100.593 29.7191 100.745 30.7969 100.818 31.6398C101.19 35.9846 100.885 40.4389 99.5291 44.5794C99.2187 45.5319 98.8611 46.4529 98.4647 47.3433C98.4558 47.3668 98.4464 47.3889 98.4366 47.4094C98.4084 47.4803 98.3773 47.5473 98.3462 47.6142C96.8929 50.9076 94.8292 53.7662 92.336 56.1088C92.3169 56.1256 92.2968 56.1443 92.2796 56.1621C89.1773 59.0577 85.4186 61.1633 81.3414 62.3329C81.0403 62.4201 80.7369 62.5 80.431 62.5773C80.2791 62.6165 80.1262 62.6527 79.9714 62.6879C74.7579 63.8937 69.1044 63.5872 63.6997 61.4756C50.2686 56.2285 43.2406 41.7311 47.3408 28.4504C47.51 27.8993 47.7008 27.3549 47.9098 26.8116C47.9267 26.7616 47.9466 26.7108 47.9654 26.6619L47.9767 26.6667C47.9819 26.6523 47.9876 26.6394 47.9968 26.6271C50.8399 20.696 54.1518 18.5234 53.3595 11.5549C53.3531 11.5085 53.3364 10.8359 53.3181 10.0591C53.2947 9.13096 54.4804 8.7119 55.074 9.44113L55.076 9.44218Z" fill="white"/>
</mask>
<g mask="url(#mask2_6736_47079)">
<g filter="url(#filter2_f_6736_47079)">
<path d="M74.198 74.8567C74.198 74.8567 74.2018 74.8589 74.2022 74.8604C74.4752 79.9111 73.1169 84.6526 70.5819 88.5923C69.1743 90.7801 68.1746 93.2685 68.3158 95.8756L68.6218 101.546C68.763 104.153 70.026 106.557 71.664 108.63C74.6137 112.367 76.4764 116.988 76.7483 122.04C77.4507 135.069 67.3164 146.03 54.1123 146.522C48.9871 146.714 44.1587 145.303 40.1232 142.741C37.8775 141.319 35.3393 140.293 32.6966 140.391L26.9494 140.605C24.3038 140.704 21.8885 141.913 19.8096 143.497C16.0617 146.35 11.4005 148.117 6.27675 148.308C1.15153 148.5 -3.67686 147.088 -7.71232 144.527C-9.95801 143.105 -12.4963 142.079 -15.1389 142.176L-20.8861 142.391C-23.5284 142.49 -25.9466 143.7 -28.0301 145.285C-31.7735 148.137 -36.4351 149.903 -41.5603 150.094C-54.7644 150.587 -66.0385 140.424 -66.7409 127.396C-67.0128 122.343 -65.656 117.602 -63.1214 113.661C-61.7138 111.473 -60.7141 108.985 -60.8553 106.378L-61.1605 100.71C-61.3006 98.1012 -62.5686 95.6972 -64.2074 93.6213C-67.1517 89.886 -69.0148 85.2638 -69.2882 80.2117C-69.5601 75.1591 -68.2033 70.418 -65.6687 66.4768C-64.2611 64.289 -63.2614 61.8006 -63.4026 59.1935L-63.7086 53.5228C-63.8498 50.9157 -65.1129 48.5121 -66.7509 46.4391C-69.7005 42.702 -71.5633 38.0813 -71.8351 33.0288C-72.5375 20.0004 -62.4032 9.039 -49.1991 8.54662C-44.0739 8.35503 -39.2455 9.76623 -35.21 12.3282C-32.9644 13.7501 -30.4261 14.7761 -27.7834 14.6785L-22.0362 14.4638C-19.394 14.3647 -16.9758 13.1546 -14.8923 11.5697C-11.1489 8.71735 -6.49222 6.95184 -1.367 6.76026C3.75822 6.56866 8.5866 7.97987 12.6221 10.5418C14.8678 11.9638 17.406 12.9898 20.0487 12.8921L25.7959 12.6775C28.4381 12.5783 30.8563 11.3682 32.9399 9.78334C36.6832 6.93099 41.3399 5.16548 46.4651 4.97388C59.6692 4.48152 70.9434 14.6437 71.6457 27.672C71.9176 32.7245 70.5608 37.4657 68.0262 41.4069C66.6186 43.5947 65.6189 46.083 65.7601 48.6901L66.0661 54.3608C66.2073 56.9679 67.4704 59.3716 69.1084 61.4446C72.0576 65.1802 73.9203 69.8008 74.1933 74.8515C74.1937 74.853 74.1946 74.856 74.1976 74.8552L74.198 74.8567Z" fill="#FFAB23"/>
</g>
</g>
<path d="M97.8185 31.3177C96.2177 31.8356 93.7777 33.0749 91.7159 36.0302C91.3276 36.5863 90.4365 36.2914 90.4757 35.619C90.8193 29.6833 88.7422 27.3428 88.32 25.6619C87.8569 23.8176 86.5184 19.303 89.9418 14.7851C90.2688 14.3539 89.9552 13.7339 89.4054 13.7305C84.1865 13.6904 71.6995 17.443 68.3801 31.1049C68.2349 31.7035 67.409 31.8054 67.1156 31.262C66.2034 29.5692 65.8844 27.5725 65.8736 26.0426C65.869 25.4394 65.1026 25.1605 64.6892 25.6085C64.1839 26.1574 63.6942 26.7194 63.337 27.1756C61.499 29.5289 60.008 32.1949 59.2355 35.0685C59.057 35.729 58.9172 36.3888 58.811 37.0454C58.8073 37.0622 58.8045 37.0783 58.8024 37.0937C58.792 37.1447 58.7848 37.1946 58.7776 37.2444C58.3776 39.6682 58.4897 42.0679 59.0405 44.3301C59.0452 44.3468 59.0497 44.365 59.0529 44.3815C59.7455 47.1854 61.1093 49.7784 63.0054 51.9523C63.1451 52.1134 63.2889 52.271 63.435 52.4281C63.5074 52.5066 63.5813 52.5837 63.6567 52.661C66.1896 55.2747 69.54 57.1836 73.423 57.9661C83.0724 59.9108 92.5167 54.1916 95.1368 45.0665C95.246 44.6882 95.3405 44.3058 95.424 43.9173C95.433 43.8824 95.4407 43.8459 95.4482 43.8109L95.4399 43.8095C95.4423 43.7993 95.4439 43.7898 95.4432 43.7794C96.0341 39.331 94.9511 36.8644 98.0107 33.1618C98.0317 33.1375 98.2928 32.7581 98.5938 32.3196C98.9544 31.7962 98.4324 31.1187 97.82 31.3178L97.8185 31.3177Z" fill="#F2643D"/>
<mask id="mask3_6736_47079" style="mask-type:luminance" maskUnits="userSpaceOnUse" x="58" y="13" width="41" height="46">
<path d="M97.8148 31.3503C96.215 31.8654 93.7773 33.1007 91.7212 36.0531C91.334 36.6086 90.4423 36.312 90.4802 35.6395C90.8124 29.7024 88.7308 27.3574 88.3053 25.6751C87.8386 23.8293 86.4914 19.3108 89.9061 14.7977C90.2322 14.367 89.9175 13.7463 89.3676 13.7418C84.1486 13.6921 71.6687 17.4229 68.3756 31.0832C68.2315 31.6818 67.4058 31.7822 67.1113 31.238C66.1958 29.5429 65.873 27.5451 65.8593 26.0146C65.8535 25.4112 65.0865 25.1308 64.674 25.5782C64.1698 26.1263 63.6811 26.6876 63.3248 27.1433C61.4913 29.494 60.0054 32.1582 59.2385 35.0313C59.0612 35.6916 58.9227 36.3514 58.8178 37.008C58.8141 37.0248 58.8113 37.0409 58.8093 37.0563C58.799 37.1074 58.7918 37.1572 58.7847 37.207C58.3895 39.6309 58.5061 42.0316 59.0613 44.2956C59.066 44.3123 59.0706 44.3304 59.0738 44.347C59.7719 47.153 61.1407 49.7494 63.041 51.9276C63.181 52.0889 63.3251 52.2469 63.4716 52.4043C63.544 52.4829 63.6181 52.5602 63.6937 52.6376C66.2317 55.2568 69.5857 57.1726 73.4704 57.9625C83.1237 59.9256 92.557 54.222 95.1596 45.0987C95.2681 44.7205 95.3618 44.338 95.4446 43.9496C95.4536 43.9147 95.4611 43.8782 95.4685 43.8433L95.4603 43.8418C95.4627 43.8316 95.4642 43.8221 95.4635 43.8117C96.0459 39.363 94.9581 36.8935 98.0106 33.1953C98.0316 33.1711 98.292 32.792 98.5921 32.3539C98.9516 31.831 98.4284 31.1523 97.8163 31.3504L97.8148 31.3503Z" fill="white"/>
</mask>
<g mask="url(#mask3_6736_47079)">
<g filter="url(#filter3_f_6736_47079)">
<path d="M65.0789 47.6228C65.0789 47.6228 65.0758 47.6228 65.0751 47.6236C63.2131 50.5262 62.4245 53.7927 62.6051 56.9784C62.7052 58.7474 62.4619 60.5579 61.5006 62.0561L59.4102 65.3152C58.4489 66.8134 56.8894 67.8148 55.2183 68.4944C52.2078 69.7206 49.5457 71.8352 47.6837 74.7393C42.8817 82.2273 45.215 92.1243 52.896 96.8444C55.8772 98.6768 59.2214 99.4595 62.4818 99.2941C64.2948 99.2042 66.1485 99.4472 67.6861 100.391L71.0292 102.446C72.5682 103.392 73.5965 104.919 74.299 106.555C75.5658 109.503 77.7412 112.114 80.7217 113.945C83.7029 115.778 87.0472 116.561 90.3075 116.395C92.1206 116.305 93.9742 116.548 95.5118 117.492L98.8549 119.547C100.392 120.492 101.422 122.02 102.126 123.659C103.391 126.605 105.567 129.215 108.548 131.047C116.229 135.767 126.349 133.524 131.151 126.036C133.013 123.132 133.802 119.866 133.622 116.68C133.522 114.911 133.766 113.1 134.727 111.602L136.816 108.344C137.777 106.845 139.34 105.845 141.012 105.164C144.019 103.937 146.682 101.821 148.545 98.9179C150.407 96.0138 151.196 92.7481 151.016 89.5616C150.916 87.7926 151.159 85.9821 152.121 84.4839L154.211 81.2248C155.172 79.7266 156.732 78.7252 158.403 78.0456C161.413 76.8194 164.075 74.7048 165.937 71.8007C170.739 64.3127 168.406 54.4157 160.725 49.6956C157.744 47.8632 154.4 47.0805 151.139 47.2459C149.326 47.3358 147.473 47.0928 145.935 46.1486L142.592 44.094C141.055 43.1491 140.025 41.6207 139.321 39.9824C138.056 37.036 135.883 34.4277 132.902 32.5953C129.921 30.7629 126.576 29.9802 123.316 30.1456C121.503 30.2355 119.649 29.9924 118.112 29.0483L114.769 26.9936C113.232 26.0487 112.202 24.5204 111.497 22.882C110.233 19.9357 108.06 17.3273 105.078 15.4949C97.3974 10.7748 87.2776 13.0183 82.4755 20.5063C80.6135 23.4104 79.8242 26.6761 80.004 29.8626C80.1041 31.6316 79.8608 33.4421 78.8995 34.9403L76.8091 38.1994C75.8478 39.6976 74.2883 40.699 72.6173 41.3786C69.6075 42.6041 66.9454 44.7186 65.0834 47.6213C65.0826 47.622 65.0811 47.6235 65.0796 47.622L65.0789 47.6228Z" fill="#FFAB23"/>
</g>
</g>
</g>
<defs>
<filter id="filter0_f_6736_47079" x="-57.6425" y="-8.47099" width="146.699" height="144.212" filterUnits="userSpaceOnUse" color-interpolation-filters="sRGB">
<feFlood flood-opacity="0" result="BackgroundImageFix"/>
<feBlend mode="normal" in="SourceGraphic" in2="BackgroundImageFix" result="shape"/>
<feGaussianBlur stdDeviation="2.54604" result="effect1_foregroundBlur_6736_47079"/>
</filter>
<filter id="filter1_f_6736_47079" x="-88.4744" y="7.09233" width="149.237" height="146.247" filterUnits="userSpaceOnUse" color-interpolation-filters="sRGB">
<feFlood flood-opacity="0" result="BackgroundImageFix"/>
<feBlend mode="normal" in="SourceGraphic" in2="BackgroundImageFix" result="shape"/>
<feGaussianBlur stdDeviation="5.39817" result="effect1_foregroundBlur_6736_47079"/>
</filter>
<filter id="filter2_f_6736_47079" x="-76.9616" y="-0.135048" width="158.836" height="155.338" filterUnits="userSpaceOnUse" color-interpolation-filters="sRGB">
<feFlood flood-opacity="0" result="BackgroundImageFix"/>
<feBlend mode="normal" in="SourceGraphic" in2="BackgroundImageFix" result="shape"/>
<feGaussianBlur stdDeviation="2.54604" result="effect1_foregroundBlur_6736_47079"/>
</filter>
<filter id="filter3_f_6736_47079" x="40.0951" y="7.93136" width="133.431" height="130.679" filterUnits="userSpaceOnUse" color-interpolation-filters="sRGB">
<feFlood flood-opacity="0" result="BackgroundImageFix"/>
<feBlend mode="normal" in="SourceGraphic" in2="BackgroundImageFix" result="shape"/>
<feGaussianBlur stdDeviation="2.54604" result="effect1_foregroundBlur_6736_47079"/>
</filter>
<linearGradient id="paint0_linear_6736_47079" x1="92" y1="19" x2="0" y2="19" gradientUnits="userSpaceOnUse">
<stop stop-color="#FFAB23"/>
<stop offset="1" stop-color="#FFAB23" stop-opacity="0"/>
</linearGradient>
<clipPath id="clip0_6736_47079">
<rect width="92" height="38" fill="white" transform="translate(0 0.666016)"/>
</clipPath>
</defs>
</svg>
