<svg width="24" height="24" viewBox="0 0 24 24" fill="none" xmlns="http://www.w3.org/2000/svg">
<path fill-rule="evenodd" clip-rule="evenodd" d="M18.7806 5.21967C19.0735 5.51256 19.0735 5.98744 18.7806 6.28033L6.28057 18.7803C5.98768 19.0732 5.51281 19.0732 5.21991 18.7803C4.92702 18.4874 4.92702 18.0126 5.21991 17.7197L17.7199 5.21967C18.0128 4.92678 18.4877 4.92678 18.7806 5.21967Z" fill="black"/>
<path fill-rule="evenodd" clip-rule="evenodd" d="M5.21991 5.21967C5.51281 4.92678 5.98768 4.92678 6.28057 5.21967L18.7806 17.7197C19.0735 18.0126 19.0735 18.4874 18.7806 18.7803C18.4877 19.0732 18.0128 19.0732 17.7199 18.7803L5.21991 6.28033C4.92702 5.98744 4.92702 5.51256 5.21991 5.21967Z" fill="black"/>
</svg>
