<svg width="16" height="17" viewBox="0 0 16 17" fill="none" xmlns="http://www.w3.org/2000/svg">
<g clip-path="url(#clip0_1529_7715)">
<path d="M8.38065 3.77117C8.28167 3.37527 7.71903 3.37527 7.62006 3.77117L7.40072 4.64851C7.10812 5.81891 6.19427 6.73276 5.02387 7.02536L4.14654 7.24469C3.75063 7.34367 3.75063 7.90631 4.14654 8.00529L5.02387 8.22462C6.19427 8.51722 7.10812 9.43107 7.40072 10.6015L7.62006 11.4788C7.71903 11.8747 8.28167 11.8747 8.38065 11.4788L8.59998 10.6015C8.89258 9.43107 9.80643 8.51722 10.9768 8.22462L11.8542 8.00529C12.2501 7.90631 12.2501 7.34367 11.8542 7.24469L10.9768 7.02536C9.80643 6.73276 8.89258 5.81891 8.59998 4.64851L8.38065 3.77117Z" fill="black" fill-opacity="0.84"/>
<path fill-rule="evenodd" clip-rule="evenodd" d="M1.81448 16.4327C4.47004 15.9766 9.12363 15.0947 11.0148 14.2267C13.9388 13.1665 16 10.6101 16 7.625C16 3.68997 12.4183 0.5 8 0.5C3.58172 0.5 0 3.68997 0 7.625C0 9.59919 0.901524 11.3859 2.35792 12.6762C2.67709 12.959 2.73732 13.4495 2.45793 13.7717L1.16424 15.2634C0.722625 15.7726 1.15017 16.5468 1.81448 16.4327ZM10.4934 13.0907L10.5403 13.0692L10.5887 13.0516C13.1057 12.1389 14.75 9.99669 14.75 7.625C14.75 4.51252 11.868 1.75 8 1.75C4.13201 1.75 1.25 4.51252 1.25 7.625C1.25 9.20234 1.96751 10.6603 3.18687 11.7407C3.95634 12.4224 4.18342 13.69 3.40227 14.5907L3.10482 14.9337C4.14545 14.7421 5.30934 14.5137 6.42936 14.2641C8.16978 13.8762 9.6837 13.4623 10.4934 13.0907Z" fill="black" fill-opacity="0.84"/>
</g>
<defs>
<clipPath id="clip0_1529_7715">
<rect width="16" height="16" fill="white" transform="translate(0 0.5)"/>
</clipPath>
</defs>
</svg>
