<svg fill="none" viewBox="0 0 96 96" xmlns="http://www.w3.org/2000/svg">
  <path fill="#876ECB" d="M23.464 22.082a6.296 6.296 0 0 1 7.712-4.452l43.86 11.752a6.296 6.296 0 0 1 4.452 7.711l-6.835 25.508a6.296 6.296 0 0 1-7.711 4.452l-43.86-11.752a6.296 6.296 0 0 1-4.453-7.712l6.835-25.507Z"/>
  <path fill="#6B4EBA" d="M23.023 23.727 79.047 38.74l-2.07 7.727-56.025-15.011 2.07-7.728Z"/>
  <path fill="#F9BE1A" d="M16 43.296A6.296 6.296 0 0 1 22.296 37h45.408A6.296 6.296 0 0 1 74 43.296v26.408A6.296 6.296 0 0 1 67.704 76H22.296A6.296 6.296 0 0 1 16 69.704V43.296Z"/>
  <path fill="#FFE8A3" d="M22 45a2 2 0 0 1 2-2h8a2 2 0 0 1 2 2v5a2 2 0 0 1-2 2h-8a2 2 0 0 1-2-2v-5Z"/>
  <path fill="#E2A412" fill-rule="evenodd" d="M23.5 68a1.5 1.5 0 0 0 0 3h15a1.5 1.5 0 0 0 0-3h-15Zm0-6a1.5 1.5 0 0 0 0 3h6a1.5 1.5 0 0 0 0-3h-6ZM50 44.5a1.5 1.5 0 0 1 1.5-1.5h15a1.5 1.5 0 0 1 0 3h-15a1.5 1.5 0 0 1-1.5-1.5ZM35.5 62a1.5 1.5 0 0 0 0 3h6a1.5 1.5 0 0 0 0-3h-6ZM46 63.5a1.5 1.5 0 0 1 1.5-1.5h6a1.5 1.5 0 0 1 0 3h-6a1.5 1.5 0 0 1-1.5-1.5ZM59.5 62a1.5 1.5 0 0 0 0 3h6a1.5 1.5 0 0 0 0-3h-6Z" clip-rule="evenodd"/>
</svg>
