<svg fill="none" viewBox="0 0 16 16" xmlns="http://www.w3.org/2000/svg">
  <g fill="#000" fill-rule="evenodd" clip-path="url(#Profile-Blocked-16_svg__a)" clip-rule="evenodd">
    <path d="M8 16c.362 0 .532-.437.331-.738a4.999 4.999 0 0 1-.297-.512 6.733 6.733 0 0 1-4.583-1.763A5.19 5.19 0 0 1 8 10.299h.008c.233-.474.539-.906.903-1.28a6.563 6.563 0 0 0-.48-.05c.264-.038.516-.11.753-.212.297-.263.625-.491.978-.679a3 3 0 1 0-2.595.89 6.532 6.532 0 0 0-5.053 2.967A6.75 6.75 0 1 1 14.75 8.034c.177.09.348.19.512.298.301.2.738.031.738-.331a8 8 0 1 0-8 8ZM9.75 6a1.75 1.75 0 1 1-3.5 0 1.75 1.75 0 0 1 3.5 0Z"/>
    <path d="M16 12.5a3.5 3.5 0 1 1-7 0 3.5 3.5 0 0 1 7 0Zm-6-.5h5v1h-5v-1Z"/>
  </g>
  <defs>
    <clipPath id="Profile-Blocked-16_svg__a">
      <path fill="#fff" d="M0 0h16v16H0z"/>
    </clipPath>
  </defs>
</svg>
