<svg width="48" height="48" viewBox="0 0 48 48" fill="none" xmlns="http://www.w3.org/2000/svg">
<path d="M46.2507 29.5C46.3994 29.5 46.5481 29.56 46.6618 29.677C46.8892 29.9109 46.8892 30.2919 46.6618 30.5258L45.4956 31.7256C45.2682 31.9596 44.898 31.9596 44.6706 31.7256C44.4431 31.4917 44.4431 31.1107 44.6706 30.8768L45.8367 29.677C45.9505 29.56 46.0991 29.5 46.2478 29.5H46.2507Z" fill="#CCCCCC"/>
<path d="M45.6676 34.8991H47.4169C47.7376 34.8991 48 35.1691 48 35.499C48 35.829 47.7376 36.0989 47.4169 36.0989H45.6676C45.3469 36.0989 45.0845 35.829 45.0845 35.499C45.0845 35.1691 45.3469 34.8991 45.6676 34.8991Z" fill="#CCCCCC"/>
<path d="M44.6765 39.2759C44.7902 39.1589 44.9389 39.0989 45.0876 39.0989H45.0905C45.2392 39.0989 45.3879 39.1589 45.5016 39.2759L46.6678 40.4757C46.8952 40.7096 46.8952 41.0906 46.6678 41.3245C46.4403 41.5585 46.0701 41.5585 45.8427 41.3245L44.6765 40.1247C44.4491 39.8908 44.4491 39.5098 44.6765 39.2759Z" fill="#CCCCCC"/>
<path d="M34.2802 30.7472C34.2802 31.9351 34.2802 34.2752 32.8521 34.2752C32.7993 34.2752 32.7598 34.3236 32.7702 34.3753L33.6289 38.6228C33.7011 38.9799 33.9951 39.2497 34.357 39.291L38.296 39.7407C38.7151 39.7886 39.1235 39.587 39.3406 39.2253C39.4349 39.0681 39.4609 38.8793 39.4127 38.7024L39.2992 38.2863L39.6411 38.0277C39.9467 37.7967 40.0572 37.3882 39.9099 37.0346L39.7402 36.6272L40.1195 36.3238C40.5586 35.9725 40.5352 35.2973 40.0729 34.9772L39.9082 34.8632L40.1112 34.491C40.2897 34.1639 40.2313 33.7583 39.9678 33.4948L39.9022 33.4292C39.7447 33.2717 39.531 33.1832 39.3082 33.1832L36.8002 33.1832C36.0579 33.1832 36.0364 32.8384 36.2377 32.124C36.2743 31.994 36.2962 31.8445 36.2962 31.6712C36.2962 30.3272 34.2802 30.3272 34.2802 30.7472Z" fill="white"/>
<path d="M30.5 34.6437C30.5 34.2725 30.8009 33.9717 31.172 33.9717H31.4392C31.7639 33.9717 32.0422 34.2039 32.1003 34.5235L32.856 38.6795C32.931 39.092 32.6141 39.4717 32.1948 39.4717H31.172C30.8009 39.4717 30.5 39.1708 30.5 38.7997V34.6437Z" fill="white"/>
<path d="M30.7046 40.2595C30.9379 40.4145 31.0192 40.7253 30.8743 40.965L29.7026 42.9029C29.4753 43.2788 29.8045 43.7408 30.2321 43.6403C32.5876 43.087 37.9321 41.7539 39.5639 40.6921C41.9198 39.4589 43.5 37.1861 43.5 34.5864C43.5 30.6724 39.9183 27.4995 35.5 27.4995C31.0817 27.4995 27.5 30.6724 27.5 34.5864C27.5 36.9068 28.7589 38.9667 30.7046 40.2595Z" fill="#DE5833"/>
<path d="M46.2507 29.5C46.3994 29.5 46.5481 29.56 46.6618 29.677C46.8892 29.9109 46.8892 30.2919 46.6618 30.5258L45.4956 31.7256C45.2682 31.9596 44.898 31.9596 44.6706 31.7256C44.4431 31.4917 44.4431 31.1107 44.6706 30.8768L45.8367 29.677C45.9505 29.56 46.0991 29.5 46.2478 29.5H46.2507Z" fill="#CCCCCC"/>
<path d="M45.6676 34.8991H47.4169C47.7376 34.8991 48 35.1691 48 35.499C48 35.829 47.7376 36.0989 47.4169 36.0989H45.6676C45.3469 36.0989 45.0845 35.829 45.0845 35.499C45.0845 35.1691 45.3469 34.8991 45.6676 34.8991Z" fill="#CCCCCC"/>
<path d="M44.6765 39.2759C44.7902 39.1589 44.9389 39.0989 45.0876 39.0989H45.0905C45.2392 39.0989 45.3879 39.1589 45.5016 39.2759L46.6678 40.4757C46.8952 40.7096 46.8952 41.0906 46.6678 41.3245C46.4403 41.5585 46.0701 41.5585 45.8427 41.3245L44.6765 40.1247C44.4491 39.8908 44.4491 39.5098 44.6765 39.2759Z" fill="#CCCCCC"/>
<path d="M33.1608 31C34.4908 31 35.162 31.9065 35.4047 32.5355C35.4246 32.5873 35.5277 32.5829 35.5435 32.5297C35.7298 31.9009 36.3176 31 37.6435 31C39.5528 31 40.7522 32.6839 39.3037 34.75C38.444 35.9764 36.9369 37.5479 36.0074 38.4814C35.7189 38.7712 35.2517 38.7712 34.9642 38.4805C34.026 37.5321 32.5601 35.9846 31.6666 34.75C30.2505 32.7935 31.2515 31 33.1608 31Z" fill="white"/>
<path d="M25.5 36.5233C25.5 37.256 24.971 37.8896 24.2408 37.9494C23.8316 37.9829 23.4178 38 23 38C14.7157 38 8 31.2843 8 23C8 14.7157 14.7157 8 23 8C31.2843 8 38 14.7157 38 23C38 23.4178 37.9829 23.8316 37.9494 24.2408C37.8896 24.971 37.2559 25.5 36.5233 25.5H35.5C29.9772 25.5 25.5 29.9772 25.5 35.5V36.5233Z" fill="#DE5833"/>
<path d="M25.1097 34.1684C25.1095 34.1758 25.1094 34.1834 25.1094 34.1914V34.4844C25.1094 35.7618 21.0546 35.746 19.1102 35.0142C19.012 34.9772 18.9394 34.8957 18.9094 34.7951C18.7296 34.1916 18.2208 32.4107 16.9647 27.3737C15.4863 21.4455 14.387 16.6148 19.9403 15.1057C19.9944 15.0909 20.0161 15.0232 19.9746 14.9855C19.3347 14.4038 18.2488 14.3002 17.1856 14.5105C17.1119 14.5251 17.0644 14.4349 17.1216 14.3863C17.6164 13.9661 17.9914 13.8794 18.1981 13.8717C18.2642 13.8693 18.3199 13.7882 18.2784 13.7366C18.0591 13.464 17.6871 13.2838 17.3806 13.18C17.3013 13.1531 17.3048 13.004 17.3877 12.9928C17.8545 12.93 18.4515 12.8955 18.9069 12.9683C19.5964 13.0836 20.3353 13.5082 21.0024 13.8915C21.2036 14.0071 21.3983 14.119 21.5831 14.2175C22.3006 14.5975 23.3156 26.3975 23.2331 26.725C22.7806 28.5275 23.7756 31.3225 24.7656 33.305C25.1127 33.9968 25.1114 34.0673 25.1097 34.1684Z" fill="#DDDDDD"/>
<path d="M36.5431 25.5C36.6918 24.6893 36.7695 23.8537 36.7695 23C36.7695 15.3953 30.6047 9.23047 23 9.23047C15.3953 9.23047 9.23047 15.3953 9.23047 23C9.23047 30.6047 15.3953 36.7695 23 36.7695C23.8537 36.7695 24.6893 36.6918 25.5 36.5431V35.5C25.5 35.188 25.5143 34.8793 25.5423 34.5746C24.1777 31.5022 22.6303 27.4447 24.0253 27.2278C24.0806 27.2192 24.1155 27.154 24.0891 27.1048C21.4134 22.1181 24.6554 22.4808 26.2926 22.664C26.6966 22.7092 27.0028 22.7435 27.0984 22.6837C27.5831 22.3808 27.2818 15.7293 23.0741 14.8257C23.0571 14.8221 23.0415 14.8126 23.0307 14.7989C21.8816 13.3515 19.5919 12.6932 17.3991 12.9882C17.312 12.9999 17.3198 13.1486 17.4066 13.1626C17.7732 13.2217 18.099 13.3134 18.2904 13.3733C18.3545 13.3934 18.3582 13.4819 18.2977 13.5111C18.0051 13.652 17.4124 13.9734 17.1091 14.3915C17.0697 14.4458 17.1247 14.5098 17.1882 14.4879C18.7349 13.9543 19.9581 14.2082 20.6111 14.9828C20.6456 15.0237 20.6201 15.0859 20.5681 15.098C14.877 16.4305 15.9154 20.6718 17.1867 25.8647L17.1876 25.8682C17.2224 26.0103 17.2573 26.1531 17.2923 26.2965C18.3426 30.6019 19.406 34.0087 19.7865 35.1841C14.3856 33.7635 10.4023 28.8469 10.4023 23C10.4023 16.0425 16.0425 10.4023 23 10.4023C29.9575 10.4023 35.5977 16.0425 35.5977 23C35.5977 23.8563 35.5122 24.6927 35.3494 25.5011C35.3995 25.5004 35.4497 25.5 35.5 25.5H36.5431Z" fill="white"/>
<path d="M27.6994 29.2427C27.3122 29.1959 26.161 30.0258 25.3841 30.6702C25.2132 30.4285 24.8911 30.2528 24.1645 30.3792C23.5285 30.4897 23.1774 30.6431 23.0208 30.9074C22.017 30.5269 20.3282 29.9395 19.9203 30.5068C19.4743 31.1268 20.0317 34.06 20.624 34.4408C20.9333 34.6397 22.4124 33.6889 23.1849 33.0333C23.3095 33.2088 23.5101 33.3094 23.9226 33.2998C24.5464 33.2853 25.5582 33.1401 25.7152 32.8496C25.7248 32.832 25.733 32.8111 25.74 32.7874C25.7787 32.8019 25.819 32.8164 25.8604 32.8309C26.2271 31.5037 26.8605 30.2872 27.6994 29.2427Z" fill="#3CA82B"/>
<path d="M27.7891 29.1328C27.4203 29.1782 26.1412 29.9956 25.3402 30.5934C25.1473 30.3899 24.8132 30.2709 24.1813 30.3732C23.3273 30.5114 23.1426 30.6892 23.1655 31.1948C23.1644 31.5357 23.209 32.1311 23.2995 32.3843C23.4127 32.7008 23.5385 32.9052 24.0972 32.8955C24.6559 32.8859 25.5617 32.7658 25.7011 32.517C25.8406 32.2683 25.6562 31.2613 25.543 30.9448C25.52 30.8804 25.4929 30.817 25.4592 30.7569C25.7507 30.789 26.047 31.0875 26.0779 32.143C26.472 31.0368 27.0554 30.0204 27.7891 29.1328Z" fill="#4CBA3C"/>
<path d="M22.8561 30.8471C21.9772 30.456 20.3762 30.0674 20.1788 30.3799C19.7638 31.0367 20.3485 33.7008 20.6662 33.9503C20.9411 34.1663 23.0471 32.9113 22.963 32.6293C22.6755 31.6653 22.8561 30.8471 22.8561 30.8471Z" fill="#4CBA3C"/>
<path fill-rule="evenodd" clip-rule="evenodd" d="M20.9534 24.0329C21.0829 23.4696 21.6864 22.4082 23.8412 22.4339C24.9305 22.4294 26.2837 22.4335 27.1809 22.3316C28.5143 22.1801 29.504 21.8576 30.1636 21.6062C31.0963 21.2503 31.4273 21.3297 31.5434 21.5426C31.6709 21.7765 31.5206 22.1805 31.1947 22.5524C30.5722 23.2628 29.453 23.8132 27.4764 23.9766C25.4998 24.14 24.1903 23.6098 23.6266 24.473C23.3835 24.8453 23.5715 25.7228 25.483 25.9991C28.066 26.3719 30.1874 25.5499 30.4495 26.0464C30.7116 26.5428 29.2017 27.5528 26.6145 27.574C24.0273 27.5951 22.4113 26.6681 21.8382 26.2073C21.1111 25.6227 20.7858 24.7701 20.9534 24.0329Z" fill="#FFCC33"/>
<g opacity="0.8">
<path d="M24.2483 17.8735C24.3926 17.6372 24.7126 17.4548 25.2363 17.4548C25.76 17.4548 26.0064 17.6632 26.1769 17.8956C26.2116 17.9429 26.1591 17.9985 26.1053 17.9752C26.0923 17.9697 26.0792 17.9639 26.0659 17.9581C25.8744 17.8745 25.6392 17.7717 25.2363 17.766C24.8054 17.7599 24.5337 17.8678 24.3626 17.9608C24.305 17.9922 24.2141 17.9295 24.2483 17.8735Z" fill="#14307E"/>
<path d="M18.3523 18.1758C18.8608 17.9633 19.2605 17.9908 19.543 18.0576C19.6025 18.0717 19.6439 18.0077 19.5963 17.9693C19.377 17.7924 18.8862 17.5728 18.2461 17.8115C17.675 18.0245 17.4059 18.4669 17.4043 18.7577C17.4039 18.8263 17.5449 18.8321 17.5814 18.7741C17.68 18.6173 17.8438 18.3884 18.3523 18.1758Z" fill="#14307E"/>
<path fill-rule="evenodd" clip-rule="evenodd" d="M25.6811 21.1062C25.2316 21.1062 24.8669 20.7425 24.8669 20.295C24.8669 19.8474 25.2316 19.4837 25.6811 19.4837C26.1307 19.4837 26.4954 19.8474 26.4954 20.295C26.4954 20.7425 26.1307 21.1062 25.6811 21.1062ZM26.2546 20.0262C26.2546 19.9103 26.1597 19.8164 26.0438 19.8164C25.9279 19.8164 25.834 19.9103 25.833 20.0262C25.833 20.1421 25.9279 20.236 26.0438 20.236C26.1607 20.236 26.2546 20.1421 26.2546 20.0262Z" fill="#14307E"/>
<path fill-rule="evenodd" clip-rule="evenodd" d="M20.2865 20.8564C20.2865 21.3789 19.8619 21.8025 19.3374 21.8025C18.8139 21.8025 18.3883 21.3789 18.3883 20.8564C18.3883 20.3339 18.8139 19.9103 19.3374 19.9103C19.8609 19.9103 20.2865 20.3339 20.2865 20.8564ZM20.0068 20.5427C20.0068 20.4078 19.8969 20.2979 19.761 20.2979C19.6261 20.2979 19.5162 20.4068 19.5152 20.5427C19.5152 20.6776 19.6251 20.7875 19.761 20.7875C19.8969 20.7875 20.0068 20.6776 20.0068 20.5427Z" fill="#14307E"/>
</g>
</svg>
