<svg fill="none" viewBox="0 0 96 96" xmlns="http://www.w3.org/2000/svg">
  <path fill="#C18010" d="M28 24a8 8 0 0 1 8-8h32a8 8 0 0 1 8 8v48a8 8 0 0 1-8 8H36a8 8 0 0 1-8-8V24Z"/>
  <path fill="#FFF0C2" d="M24 29c0-5.523 4.477-10 10-10h34a5 5 0 0 1 5 5v48a5 5 0 0 1-5 5H34c-5.523 0-10-4.477-10-10V29Z"/>
  <path fill="#E2A412" d="M20 31c0-8.284 6.716-15 15-15h26a8 8 0 0 1 8 8v48a8 8 0 0 1-8 8H35c-8.284 0-15-6.716-15-15V31Z"/>
  <path fill="#C18010" d="M35 80h-7a8 8 0 0 1-8-8V24a8 8 0 0 1 8-8h7v64Z"/>
  <path fill="#3969EF" d="M62 16H48v29.035c0 1.642 1.868 2.584 3.189 1.609l2.622-1.938a2 2 0 0 1 2.378 0l2.622 1.938c1.32.975 3.189.033 3.189-1.609V16Z"/>
</svg>
