<?xml version="1.0" encoding="UTF-8"?>
<svg height="600" width="800" xmlns="http://www.w3.org/2000/svg" xmlns:xlink="http://www.w3.org/1999/xlink">
    <g id="Notes" font-family="'LucidaGrande', 'Lucida Grande', sans-serif" font-size="13">
        <rect fill="white" height="600.0" width="800.0" x="0.0" y="0.0" />
        <g font-size="13">
            <text x="18.0" y="176.0">Small</text>
            <text x="18.0" y="376.0">Medium</text>
            <text x="18.0" y="576.0">Large</text>
        </g>
        <g font-size="9">
            <text x="250.0" y="30.0">Ultralight</text>
            <text x="450.0" y="30.0">Regular</text>
            <text x="650.0" y="30.0">Black</text>
            <text id="template-version" fill="#505050" text-anchor="end" x="785.0" y="575.0">Template v.3.0</text>
            <a href="https://wangchujiang.com/#/app">
                <text fill="#505050" text-anchor="end" x="785.0" y="590.0">https://wangchujiang.com/#/app</text>
            </a>
        </g>
    </g>
    <g id="Guides" stroke="rgb(39, 170, 225)" stroke-width="0.5">
        <path id="Capline-S" d="M18,76 l800,0" />
        <path id="H-reference" d="M85,145.755 L87.685,145.755 L113.369,79.287 L114.052,79.287 L114.052,76 L112.148,76 L85,145.755 Z M95.693,121.536 L130.996,121.536 L130.263,119.313 L96.474,119.313 L95.693,121.536 Z M139.15,145.755 L141.787,145.755 L114.638,76 L113.466,76 L113.466,79.287 L139.15,145.755 Z" stroke="none" />
        <path id="Baseline-S" d="M18,146 l800,0" />
        <path id="left-margin-Ultralight-S" d="M221,56 l0,110" />
        <path id="right-margin-Ultralight-S" d="M309,56 l0,110" />
        <path id="left-margin-Regular-S" d="M421,56 l0,110" />
        <path id="right-margin-Regular-S" d="M509,56 l0,110" />
        <path id="left-margin-Black-S" d="M621,56 l0,110" />
        <path id="right-margin-Black-S" d="M709,56 l0,110" />
        <path id="Capline-M" d="M18,276 l800,0" />
        <path id="Baseline-M" d="M18,346 l800,0" />
        <path id="Capline-L" d="M18,476 l800,0" />
        <path id="Baseline-L" d="M18,546 l800,0" />
    </g>
    <g id="Symbols">
        <g id="Ultralight-S">
            <path d="M281.25,114.611 C288.23,114.611 293.889,120.27 293.889,127.25 C293.889,134.23 288.23,139.889 281.25,139.889 C274.27,139.889 268.611,134.23 268.611,127.25 C268.611,120.27 274.27,114.611 281.25,114.611 Z M280.799,117.771 C279.801,117.771 278.993,118.579 278.993,119.576 L278.993,124.993 L273.576,124.993 C272.579,124.993 271.771,125.801 271.771,126.799 L271.771,127.701 C271.771,128.699 272.579,129.507 273.576,129.507 L278.993,129.507 L278.993,134.923 C278.993,135.921 279.801,136.729 280.799,136.729 L281.701,136.729 C282.699,136.729 283.507,135.921 283.507,134.923 L283.507,129.507 L288.923,129.507 C289.921,129.507 290.729,128.699 290.729,127.701 L290.729,126.799 C290.729,125.801 289.921,124.993 288.923,124.993 L283.507,124.993 L283.507,119.576 C283.507,118.579 282.699,117.771 281.701,117.771 L280.799,117.771 Z M279.444,85.722 C287.422,85.722 293.889,92.189 293.889,100.167 L293.889,109.907 C293.889,111.947 291.171,113.108 289.375,112.14 L289.375,100.167 C289.375,99.151 289.222,98.17 288.938,97.247 L271.934,110.491 C267.857,113.667 262.143,113.667 258.066,110.491 L241.061,97.247 C240.778,98.17 240.625,99.151 240.625,100.167 L240.625,121.833 C240.625,127.318 245.071,131.764 250.556,131.764 L264.698,131.764 C264.776,132.049 264.861,132.332 264.953,132.611 C265.505,134.292 264.377,136.278 262.608,136.278 L250.556,136.278 C242.578,136.278 236.111,129.811 236.111,121.833 L236.111,100.167 C236.111,92.189 242.578,85.722 250.556,85.722 L279.444,85.722 Z M250.556,90.236 C247.726,90.236 245.172,91.42 243.363,93.319 L260.84,106.93 C263.286,108.835 266.714,108.835 269.16,106.93 L286.636,93.319 C284.827,91.42 282.274,90.236 279.444,90.236 L250.556,90.236 Z" />
        </g>
        <g id="Regular-S">
            <path d="M481.25,114.611 C488.23,114.611 493.889,120.27 493.889,127.25 C493.889,134.23 488.23,139.889 481.25,139.889 C474.27,139.889 468.611,134.23 468.611,127.25 C468.611,120.27 474.27,114.611 481.25,114.611 Z M480.799,117.771 C479.801,117.771 478.993,118.579 478.993,119.576 L478.993,124.993 L473.576,124.993 C472.579,124.993 471.771,125.801 471.771,126.799 L471.771,127.701 C471.771,128.699 472.579,129.507 473.576,129.507 L478.993,129.507 L478.993,134.923 C478.993,135.921 479.801,136.729 480.799,136.729 L481.701,136.729 C482.699,136.729 483.507,135.921 483.507,134.923 L483.507,129.507 L488.923,129.507 C489.921,129.507 490.729,128.699 490.729,127.701 L490.729,126.799 C490.729,125.801 489.921,124.993 488.923,124.993 L483.507,124.993 L483.507,119.576 C483.507,118.579 482.699,117.771 481.701,117.771 L480.799,117.771 Z M479.444,85.722 C487.422,85.722 493.889,92.189 493.889,100.167 L493.889,109.907 C493.889,111.947 491.171,113.108 489.375,112.14 L489.375,100.167 C489.375,99.151 489.222,98.17 488.938,97.247 L471.934,110.491 C467.857,113.667 462.143,113.667 458.066,110.491 L441.061,97.247 C440.778,98.17 440.625,99.151 440.625,100.167 L440.625,121.833 C440.625,127.318 445.071,131.764 450.556,131.764 L464.698,131.764 C464.776,132.049 464.861,132.332 464.953,132.611 C465.505,134.292 464.377,136.278 462.608,136.278 L450.556,136.278 C442.578,136.278 436.111,129.811 436.111,121.833 L436.111,100.167 C436.111,92.189 442.578,85.722 450.556,85.722 L479.444,85.722 Z M450.556,90.236 C447.726,90.236 445.172,91.42 443.363,93.319 L460.84,106.93 C463.286,108.835 466.714,108.835 469.16,106.93 L486.636,93.319 C484.827,91.42 482.274,90.236 479.444,90.236 L450.556,90.236 Z" />
        </g>
        <g id="Black-S">
            <path d="M681.25,114.611 C688.23,114.611 693.889,120.27 693.889,127.25 C693.889,134.23 688.23,139.889 681.25,139.889 C674.27,139.889 668.611,134.23 668.611,127.25 C668.611,120.27 674.27,114.611 681.25,114.611 Z M680.799,117.771 C679.801,117.771 678.993,118.579 678.993,119.576 L678.993,124.993 L673.576,124.993 C672.579,124.993 671.771,125.801 671.771,126.799 L671.771,127.701 C671.771,128.699 672.579,129.507 673.576,129.507 L678.993,129.507 L678.993,134.923 C678.993,135.921 679.801,136.729 680.799,136.729 L681.701,136.729 C682.699,136.729 683.507,135.921 683.507,134.923 L683.507,129.507 L688.923,129.507 C689.921,129.507 690.729,128.699 690.729,127.701 L690.729,126.799 C690.729,125.801 689.921,124.993 688.923,124.993 L683.507,124.993 L683.507,119.576 C683.507,118.579 682.699,117.771 681.701,117.771 L680.799,117.771 Z M679.444,85.722 C687.422,85.722 693.889,92.189 693.889,100.167 L693.889,109.907 C693.889,111.947 691.171,113.108 689.375,112.14 L689.375,100.167 C689.375,99.151 689.222,98.17 688.938,97.247 L671.934,110.491 C667.857,113.667 662.143,113.667 658.066,110.491 L641.061,97.247 C640.778,98.17 640.625,99.151 640.625,100.167 L640.625,121.833 C640.625,127.318 645.071,131.764 650.556,131.764 L664.698,131.764 C664.776,132.049 664.861,132.332 664.953,132.611 C665.505,134.292 664.377,136.278 662.608,136.278 L650.556,136.278 C642.578,136.278 636.111,129.811 636.111,121.833 L636.111,100.167 C636.111,92.189 642.578,85.722 650.556,85.722 L679.444,85.722 Z M650.556,90.236 C647.726,90.236 645.172,91.42 643.363,93.319 L660.84,106.93 C663.286,108.835 666.714,108.835 669.16,106.93 L686.636,93.319 C684.827,91.42 682.274,90.236 679.444,90.236 L650.556,90.236 Z" />
        </g>
    </g>
</svg>