<?xml version="1.0" encoding="UTF-8"?>
<svg height="600" width="800" xmlns="http://www.w3.org/2000/svg" xmlns:xlink="http://www.w3.org/1999/xlink">
    <g id="Notes" font-family="'LucidaGrande', 'Lucida Grande', sans-serif" font-size="13">
        <rect fill="white" height="600.0" width="800.0" x="0.0" y="0.0" />
        <g font-size="13">
            <text x="18.0" y="176.0">Small</text>
            <text x="18.0" y="376.0">Medium</text>
            <text x="18.0" y="576.0">Large</text>
        </g>
        <g font-size="9">
            <text x="250.0" y="30.0">Ultralight</text>
            <text x="450.0" y="30.0">Regular</text>
            <text x="650.0" y="30.0">Black</text>
            <text id="template-version" fill="#505050" text-anchor="end" x="785.0" y="575.0">Template v.3.0</text>
            <a href="https://wangchujiang.com/#/app">
                <text fill="#505050" text-anchor="end" x="785.0" y="590.0">https://wangchujiang.com/#/app</text>
            </a>
        </g>
    </g>
    <g id="Guides" stroke="rgb(39, 170, 225)" stroke-width="0.5">
        <path id="Capline-S" d="M18,76 l800,0" />
        <path id="H-reference" d="M85,145.755 L87.685,145.755 L113.369,79.287 L114.052,79.287 L114.052,76 L112.148,76 L85,145.755 Z M95.693,121.536 L130.996,121.536 L130.263,119.313 L96.474,119.313 L95.693,121.536 Z M139.15,145.755 L141.787,145.755 L114.638,76 L113.466,76 L113.466,79.287 L139.15,145.755 Z" stroke="none" />
        <path id="Baseline-S" d="M18,146 l800,0" />
        <path id="left-margin-Ultralight-S" d="M221,56 l0,110" />
        <path id="right-margin-Ultralight-S" d="M309,56 l0,110" />
        <path id="left-margin-Regular-S" d="M421,56 l0,110" />
        <path id="right-margin-Regular-S" d="M509,56 l0,110" />
        <path id="left-margin-Black-S" d="M621,56 l0,110" />
        <path id="right-margin-Black-S" d="M709,56 l0,110" />
        <path id="Capline-M" d="M18,276 l800,0" />
        <path id="Baseline-M" d="M18,346 l800,0" />
        <path id="Capline-L" d="M18,476 l800,0" />
        <path id="Baseline-L" d="M18,546 l800,0" />
    </g>
    <g id="Symbols">
        <g id="Ultralight-S">
            <path d="M240.208,102.16 C240.208,100.421 240.646,98.785 241.419,97.359 L258.087,110.242 C262.159,113.389 267.841,113.389 271.913,110.242 L288.584,97.353 C289.354,98.782 289.792,100.418 289.792,102.157 L289.792,110.863 C289.792,111.493 290.136,112.07 290.661,112.417 C292.017,113.31 294.167,112.426 294.167,110.802 L294.167,102.16 C294.167,94.157 287.68,87.668 279.677,87.667 L250.326,87.667 C246.482,87.667 242.796,89.194 240.078,91.912 C237.36,94.629 235.833,98.316 235.833,102.16 L235.833,119.84 C235.833,123.685 237.361,127.371 240.079,130.089 C242.798,132.808 246.485,134.334 250.329,134.333 L262.156,134.333 C263.547,134.333 264.49,132.895 264.131,131.554 C263.892,130.65 263.104,129.958 262.174,129.958 L250.326,129.958 C247.643,129.958 245.069,128.892 243.172,126.995 C241.274,125.097 240.208,122.524 240.208,119.84 L240.208,102.163 Z M279.671,92.042 C281.85,92.037 283.971,92.739 285.717,94.042 L269.238,106.783 C266.744,108.71 263.259,108.71 260.765,106.783 L244.286,94.042 C245.972,92.785 248.063,92.042 250.326,92.042 L279.677,92.042 Z" />
            <path d="M281.042,140.167 C288.29,140.167 294.167,134.29 294.167,127.042 C294.167,119.793 288.29,113.917 281.042,113.917 C273.793,113.917 267.917,119.793 267.917,127.042 C267.917,134.29 273.793,140.167 281.042,140.167 Z M281.771,119.021 C282.158,119.021 282.529,119.174 282.802,119.448 C283.076,119.721 283.229,120.092 283.229,120.479 L283.229,124.854 L287.604,124.854 C287.991,124.854 288.362,125.008 288.635,125.281 C288.909,125.555 289.062,125.926 289.062,126.312 L289.062,127.771 C289.062,128.158 288.909,128.529 288.635,128.802 C288.362,129.076 287.991,129.229 287.604,129.229 L283.229,129.229 L283.229,133.604 C283.229,133.991 283.076,134.362 282.802,134.635 C282.529,134.909 282.158,135.062 281.771,135.062 L280.312,135.062 C279.926,135.062 279.555,134.909 279.281,134.635 C279.008,134.362 278.854,133.991 278.854,133.604 L278.854,129.229 L274.479,129.229 C274.092,129.229 273.721,129.076 273.448,128.802 C273.174,128.529 273.021,128.158 273.021,127.771 L273.021,126.312 C273.021,125.926 273.174,125.555 273.448,125.281 C273.721,125.008 274.092,124.854 274.479,124.854 L278.854,124.854 L278.854,120.479 C278.854,120.092 279.008,119.721 279.281,119.448 C279.555,119.174 279.926,119.021 280.312,119.021 L281.771,119.021 Z" />
        </g>
        <g id="Regular-S">
            <path d="M440.208,102.16 C440.208,100.421 440.646,98.785 441.419,97.359 L458.087,110.242 C462.159,113.389 467.841,113.389 471.913,110.242 L488.584,97.353 C489.354,98.782 489.792,100.418 489.792,102.157 L489.792,110.863 C489.792,111.493 490.136,112.07 490.661,112.417 C492.017,113.31 494.167,112.426 494.167,110.802 L494.167,102.16 C494.167,94.157 487.68,87.668 479.677,87.667 L450.326,87.667 C446.482,87.667 442.796,89.194 440.078,91.912 C437.36,94.629 435.833,98.316 435.833,102.16 L435.833,119.84 C435.833,123.685 437.361,127.371 440.079,130.089 C442.798,132.808 446.485,134.334 450.329,134.333 L462.156,134.333 C463.547,134.333 464.49,132.895 464.131,131.554 C463.892,130.65 463.104,129.958 462.174,129.958 L450.326,129.958 C447.643,129.958 445.069,128.892 443.172,126.995 C441.274,125.097 440.208,122.524 440.208,119.84 L440.208,102.163 Z M479.671,92.042 C481.85,92.037 483.971,92.739 485.717,94.042 L469.238,106.783 C466.744,108.71 463.259,108.71 460.765,106.783 L444.286,94.042 C445.972,92.785 448.063,92.042 450.326,92.042 L479.677,92.042 Z" />
            <path d="M481.042,140.167 C488.29,140.167 494.167,134.29 494.167,127.042 C494.167,119.793 488.29,113.917 481.042,113.917 C473.793,113.917 467.917,119.793 467.917,127.042 C467.917,134.29 473.793,140.167 481.042,140.167 Z M481.771,119.021 C482.158,119.021 482.529,119.174 482.802,119.448 C483.076,119.721 483.229,120.092 483.229,120.479 L483.229,124.854 L487.604,124.854 C487.991,124.854 488.362,125.008 488.635,125.281 C488.909,125.555 489.062,125.926 489.062,126.312 L489.062,127.771 C489.062,128.158 488.909,128.529 488.635,128.802 C488.362,129.076 487.991,129.229 487.604,129.229 L483.229,129.229 L483.229,133.604 C483.229,133.991 483.076,134.362 482.802,134.635 C482.529,134.909 482.158,135.062 481.771,135.062 L480.312,135.062 C479.926,135.062 479.555,134.909 479.281,134.635 C479.008,134.362 478.854,133.991 478.854,133.604 L478.854,129.229 L474.479,129.229 C474.092,129.229 473.721,129.076 473.448,128.802 C473.174,128.529 473.021,128.158 473.021,127.771 L473.021,126.312 C473.021,125.926 473.174,125.555 473.448,125.281 C473.721,125.008 474.092,124.854 474.479,124.854 L478.854,124.854 L478.854,120.479 C478.854,120.092 479.008,119.721 479.281,119.448 C479.555,119.174 479.926,119.021 480.312,119.021 L481.771,119.021 Z" />
        </g>
        <g id="Black-S">
            <path d="M640.208,102.16 C640.208,100.421 640.646,98.785 641.419,97.359 L658.088,110.242 C662.159,113.389 667.841,113.389 671.912,110.242 L688.584,97.353 C689.354,98.782 689.792,100.418 689.792,102.157 L689.792,110.863 C689.792,111.493 690.136,112.07 690.661,112.417 C692.017,113.31 694.167,112.426 694.167,110.802 L694.167,102.16 C694.167,94.157 687.68,87.668 679.677,87.667 L650.326,87.667 C646.482,87.667 642.796,89.194 640.078,91.912 C637.36,94.629 635.833,98.316 635.833,102.16 L635.833,119.84 C635.833,123.685 637.361,127.371 640.079,130.089 C642.798,132.808 646.485,134.334 650.329,134.333 L662.156,134.333 C663.547,134.333 664.49,132.895 664.131,131.554 C663.892,130.65 663.104,129.958 662.174,129.958 L650.326,129.958 C647.643,129.958 645.069,128.892 643.172,126.995 C641.274,125.097 640.208,122.524 640.208,119.84 L640.208,102.163 Z M679.671,92.042 C681.85,92.037 683.971,92.739 685.717,94.042 L669.238,106.783 C666.744,108.71 663.259,108.71 660.765,106.783 L644.286,94.042 C645.972,92.785 648.063,92.042 650.326,92.042 L679.677,92.042 Z" />
            <path d="M681.042,140.167 C688.29,140.167 694.167,134.29 694.167,127.042 C694.167,119.793 688.29,113.917 681.042,113.917 C673.793,113.917 667.917,119.793 667.917,127.042 C667.917,134.29 673.793,140.167 681.042,140.167 Z M681.771,119.021 C682.158,119.021 682.529,119.174 682.802,119.448 C683.076,119.721 683.229,120.092 683.229,120.479 L683.229,124.854 L687.604,124.854 C687.991,124.854 688.362,125.008 688.635,125.281 C688.909,125.555 689.062,125.926 689.062,126.312 L689.062,127.771 C689.062,128.158 688.909,128.529 688.635,128.802 C688.362,129.076 687.991,129.229 687.604,129.229 L683.229,129.229 L683.229,133.604 C683.229,133.991 683.076,134.362 682.802,134.635 C682.529,134.909 682.158,135.062 681.771,135.062 L680.312,135.062 C679.926,135.062 679.555,134.909 679.281,134.635 C679.008,134.362 678.854,133.991 678.854,133.604 L678.854,129.229 L674.479,129.229 C674.092,129.229 673.721,129.076 673.448,128.802 C673.174,128.529 673.021,128.158 673.021,127.771 L673.021,126.312 C673.021,125.926 673.174,125.555 673.448,125.281 C673.721,125.008 674.092,124.854 674.479,124.854 L678.854,124.854 L678.854,120.479 C678.854,120.092 679.008,119.721 679.281,119.448 C679.555,119.174 679.926,119.021 680.312,119.021 L681.771,119.021 Z" />
        </g>
    </g>
</svg>