<svg width="76" height="76" viewBox="0 0 76 76" fill="none" xmlns="http://www.w3.org/2000/svg">
<path fill-rule="evenodd" clip-rule="evenodd" d="M47.1667 54.6667C51.3088 54.6667 54.6667 51.3088 54.6667 47.1667C54.6667 43.0245 51.3088 39.6667 47.1667 39.6667C43.0246 39.6667 39.6667 43.0245 39.6667 47.1667C39.6667 51.3088 43.0246 54.6667 47.1667 54.6667ZM47.5834 42.5833C48.0436 42.5833 48.4167 42.9564 48.4167 43.4167V45.9167H50.9167C51.3769 45.9167 51.75 46.2898 51.75 46.75V47.5833C51.75 48.0436 51.3769 48.4167 50.9167 48.4167H48.4167V50.9167C48.4167 51.3769 48.0436 51.75 47.5834 51.75H46.75C46.2898 51.75 45.9167 51.3769 45.9167 50.9167V48.4167H43.4167C42.9564 48.4167 42.5834 48.0436 42.5834 47.5833V46.75C42.5834 46.2898 42.9564 45.9167 43.4167 45.9167H45.9167V43.4167C45.9167 42.9564 46.2898 42.5833 46.75 42.5833H47.5834Z" fill="white" fill-opacity="0.84"/>
<path fill-rule="evenodd" clip-rule="evenodd" d="M23.8333 32.9479C23.8333 31.955 24.0836 31.0205 24.5246 30.2042L34.0499 37.568C36.3762 39.3664 39.6237 39.3664 41.95 37.568L51.4753 30.2042C51.9163 31.0205 52.1666 31.955 52.1666 32.9479V37.9233C52.1666 38.283 52.3623 38.6131 52.6627 38.8111C53.4378 39.3219 54.6666 38.816 54.6666 37.8877V32.9479C54.6666 28.3743 50.959 24.6667 46.3854 24.6667H29.6146C25.041 24.6667 21.3333 28.3743 21.3333 32.9479V43.0521C21.3333 47.6257 25.041 51.3333 29.6146 51.3333H36.3731C37.1679 51.3333 37.7063 50.5123 37.502 49.7442C37.3651 49.2295 36.9148 48.8333 36.3822 48.8333H29.6146C26.4217 48.8333 23.8333 46.245 23.8333 43.0521V32.9479ZM46.3854 27.1667L29.6146 27.1667C28.3204 27.1667 27.1256 27.5919 26.1622 28.3102L35.579 35.5901C37.0048 36.6923 38.9952 36.6923 40.421 35.5901L49.8377 28.3102C48.8743 27.5919 47.6795 27.1667 46.3854 27.1667Z" fill="white" fill-opacity="0.84"/>
</svg>
