<svg width="76" height="76" viewBox="0 0 76 76" fill="none" xmlns="http://www.w3.org/2000/svg">
<path fill-rule="evenodd" clip-rule="evenodd" d="M34.5687 23.4727C35.9797 20.6413 40.0195 20.6414 41.4305 23.4727L44.1624 28.9546C44.3576 29.3463 44.7326 29.6173 45.1658 29.6796L51.2328 30.5527C54.3885 31.0068 55.6429 34.8905 53.3491 37.1049L48.9911 41.3118C48.6732 41.6187 48.528 42.0632 48.6034 42.4986L49.6365 48.464C50.178 51.5905 46.9036 53.9836 44.0892 52.5183L38.6153 49.6683C38.2294 49.4674 37.7698 49.4674 37.3839 49.6683L31.91 52.5183C29.0956 53.9836 25.8212 51.5905 26.3627 48.464L27.3958 42.4986C27.4712 42.0632 27.326 41.6187 27.0081 41.3118L22.6501 37.1049C20.3563 34.8905 21.6107 31.0068 24.7665 30.5527L30.8334 29.6796C31.2666 29.6173 31.6416 29.3463 31.8368 28.9546L34.5687 23.4727ZM39.193 24.5878C38.7022 23.603 37.297 23.603 36.8062 24.5878L34.0744 30.0697C33.5132 31.1958 32.435 31.9749 31.1895 32.1541L25.1225 33.0272C24.0249 33.1851 23.5886 34.536 24.3864 35.3062L28.7444 39.5131C29.6584 40.3955 30.0759 41.6734 29.8591 42.9252L28.826 48.8906C28.6377 49.9781 29.7766 50.8105 30.7555 50.3008L36.2293 47.4509C37.3388 46.8732 38.6604 46.8732 39.7699 47.4509L45.2437 50.3008C46.2226 50.8105 47.3615 49.9781 47.1732 48.8906L46.1401 42.9252C45.9233 41.6734 46.3408 40.3955 47.2548 39.5131L51.6128 35.3062C52.4106 34.536 51.9743 33.1851 50.8767 33.0272L44.8097 32.1541C43.5643 31.9749 42.4861 31.1958 41.9248 30.0697L39.193 24.5878Z" fill="white" fill-opacity="0.84"/>
</svg>
