<svg fill="none" viewBox="0 0 32 32" xmlns="http://www.w3.org/2000/svg">
  <path fill="#fff" d="M26 4a6 6 0 0 1 6 6v12a6 6 0 0 1-6 6H6a6 6 0 0 1-6-6V10a6 6 0 0 1 6-6z"/>
  <path fill="#CCC" fill-rule="evenodd" d="M30 22V10a4 4 0 0 0-4-4H6a4 4 0 0 0-4 4v12a4 4 0 0 0 4 4h20a4 4 0 0 0 4-4m2-12a6 6 0 0 0-6-6H6a6 6 0 0 0-6 6v12a6 6 0 0 0 6 6h20a6 6 0 0 0 6-6z" clip-rule="evenodd"/>
  <path fill="#FF5F00" d="M18.404 20.161h-4.811V11.57h4.81z"/>
  <path fill="#EB001B" d="M13.902 15.864a5.44 5.44 0 0 1 2.1-4.296 5.5 5.5 0 0 0-3.398-1.168c-3.037 0-5.499 2.446-5.499 5.464s2.462 5.465 5.499 5.465a5.5 5.5 0 0 0 3.398-1.169 5.44 5.44 0 0 1-2.1-4.296"/>
  <path fill="#F79E1B" d="M24.894 15.864c0 3.018-2.462 5.465-5.498 5.465a5.5 5.5 0 0 1-3.399-1.169 5.442 5.442 0 0 0 0-8.592 5.5 5.5 0 0 1 3.398-1.168c3.037 0 5.499 2.446 5.499 5.464"/>
</svg>
